<svg width="14" height="12" viewBox="0 0 14 12" fill="currentColor" xmlns="http://www.w3.org/2000/svg">
<path d="M8.16246 11.7433L13.7129 6.60005C13.8034 6.52376 13.8756 6.43103 13.9251 6.32773C13.9745 6.22444 14 6.11284 14 6C14 5.88716 13.9745 5.77556 13.9251 5.67226C13.8756 5.56897 13.8034 5.47624 13.7129 5.39995L8.16246 0.256704C7.99728 0.108202 7.78028 0.0181469 7.54982 0.00246035C7.31936 -0.0132262 7.09029 0.0464656 6.90311 0.170983C6.79069 0.240358 6.69708 0.332483 6.62944 0.440282C6.56181 0.548082 6.52196 0.66869 6.51295 0.792846C6.50395 0.917001 6.52602 1.0414 6.57748 1.1565C6.62894 1.27159 6.70842 1.37432 6.80982 1.4568L10.8211 5.14279H0.932852C0.685444 5.14279 0.44817 5.2331 0.273226 5.39386C0.0982825 5.55462 0 5.77265 0 6C0 6.22735 0.0982825 6.44538 0.273226 6.60614C0.44817 6.76689 0.685444 6.85721 0.932852 6.85721H10.8211L6.80982 10.5432C6.70842 10.6257 6.62894 10.7284 6.57748 10.8435C6.52602 10.9586 6.50395 11.083 6.51295 11.2072C6.52196 11.3313 6.56181 11.4519 6.62944 11.5597C6.69708 11.6675 6.79069 11.7596 6.90311 11.829C7.09029 11.9535 7.31936 12.0132 7.54982 11.9975C7.78028 11.9819 7.99728 11.8918 8.16246 11.7433Z"/>
</svg>
