<svg width="12" height="12" viewBox="0 0 12 12" fill="currentColor" xmlns="http://www.w3.org/2000/svg">
<path d="M11.6694 9.77971L11.99 1.36181C12.0012 1.23053 11.985 1.10067 11.9426 0.980459C11.9002 0.860246 11.8325 0.752306 11.7436 0.663484C11.6548 0.574661 11.5469 0.506895 11.4267 0.464484C11.3064 0.422074 11.1766 0.405943 11.0453 0.417117L2.62741 0.737674C2.38048 0.750803 2.13878 0.850731 1.94502 1.01979C1.75126 1.18886 1.61793 1.41616 1.56859 1.66153C1.53471 1.80463 1.53354 1.95085 1.56516 2.08894C1.59678 2.22704 1.66035 2.35335 1.75099 2.45817C1.84163 2.563 1.95694 2.64355 2.08805 2.69364C2.21916 2.74373 2.36259 2.76203 2.50733 2.74713L8.56647 2.49109L0.782635 10.2749C0.58788 10.4697 0.472195 10.7275 0.461028 10.9918C0.449861 11.2561 0.544127 11.5051 0.72309 11.684C0.902052 11.863 1.15105 11.9573 1.41531 11.9461C1.67957 11.9349 1.93744 11.8192 2.13219 11.6245L9.91603 3.84065L9.65998 9.89979C9.64509 10.0445 9.66339 10.188 9.71348 10.3191C9.76357 10.4502 9.84412 10.5655 9.94894 10.6561C10.0538 10.7468 10.1801 10.8103 10.3182 10.842C10.4563 10.8736 10.6025 10.8724 10.7456 10.8385C10.991 10.7892 11.2183 10.6559 11.3873 10.4621C11.5564 10.2683 11.6563 10.0266 11.6694 9.77971Z"/>
</svg>
