<svg width="20" height="23" viewBox="0 0 20 23" fill="currentColor" xmlns="http://www.w3.org/2000/svg">
<path d="M0 0L1.81942 20.6931L9.98864 23L18.1794 20.685L20 0H0ZM16.2192 4.74145L15.6127 11.6345L15.615 11.6725L15.6127 11.7576L15.1811 16.5761L15.1346 17.0051L10 18.4426L9.99546 18.4471L4.8711 17.0005L4.52357 13.0157H7.03578L7.21408 15.042L10 15.8067L12.795 15.0316L13.0903 11.7323H7.24815L7.19818 11.1746L7.08348 9.86815L7.02442 9.16665H13.314L13.5434 6.59985H3.96025L3.91028 6.0421L3.79671 4.73455L3.73651 4.03305H16.2794L16.2192 4.74145Z" />
</svg>
