<svg width="16" height="24" viewBox="0 0 16 24" fill="currentColor" xmlns="http://www.w3.org/2000/svg">
<path fill-rule="evenodd" clip-rule="evenodd" d="M4.41506 0C1.96806 0 6.35048e-05 2.053 6.35048e-05 4.568C6.35048e-05 6.097 0.728064 7.455 1.84706 8.284C1.27034 8.71609 0.802873 9.27728 0.482128 9.92259C0.161382 10.5679 -0.00371743 11.2794 6.35048e-05 12C6.35048e-05 13.53 0.728064 14.887 1.84706 15.716C1.27034 16.1481 0.802873 16.7093 0.482128 17.3546C0.161382 17.9999 -0.00371743 18.7114 6.35048e-05 19.432C6.35048e-05 21.947 1.96806 24 4.41506 24C6.86106 24 8.83006 21.947 8.83006 19.432V15.57C9.6034 16.2148 10.5782 16.5683 11.5851 16.569C14.0321 16.568 16.0001 14.515 16.0001 12C16.0001 10.47 15.2731 9.113 14.1531 8.284C14.7298 7.85191 15.1973 7.29072 15.518 6.64541C15.8387 6.0001 16.0038 5.28862 16.0001 4.568C16.0001 2.053 14.0321 0 11.5851 0H4.41506ZM1.65906 4.568C1.65906 2.977 2.90106 1.703 4.41506 1.703H7.17006V7.433H4.41506C2.90106 7.433 1.65906 6.158 1.65906 4.568ZM11.5851 7.432H8.83006V1.702H11.5851C13.1001 1.702 14.3411 2.977 14.3411 4.568C14.3411 6.158 13.1001 7.432 11.5851 7.432ZM1.66006 12C1.66006 10.41 2.90206 9.135 4.41606 9.135H7.17106V14.865H4.41506C2.90006 14.865 1.65906 13.59 1.65906 12H1.66006ZM8.83006 12C8.83006 10.41 10.0721 9.135 11.5861 9.135C13.1011 9.135 14.3421 10.409 14.3421 12C14.3421 13.59 13.1011 14.865 11.5861 14.865C10.0721 14.865 8.83106 13.591 8.83106 12H8.83006ZM1.66006 19.432C1.66006 17.842 2.90206 16.568 4.41606 16.568H7.17106V19.432C7.17106 21.023 5.93106 22.297 4.41606 22.297C2.90206 22.297 1.66006 21.023 1.66006 19.432Z" />
</svg>
