<svg width="25" height="24" viewBox="0 0 25 24" fill="currentColor" xmlns="http://www.w3.org/2000/svg">
<path d="M10.9687 10.6974C10.8646 10.3795 10.7708 10.0718 10.6667 9.75385C10.5625 9.4359 10.4688 9.13846 10.3854 8.84103C10.3021 8.55385 10.2292 8.28718 10.1562 8.04103H10.1354C10.0417 8.48205 9.92708 8.92308 9.78125 9.3641C9.625 9.85641 9.46875 10.3692 9.30208 10.8821C9.15625 11.4051 9 11.8872 8.84375 12.3179H11.4896C11.4271 12.1015 11.3438 11.8462 11.25 11.5785C11.1562 11.3026 11.0625 11.0051 10.9687 10.6974ZM20.5729 0H4.42708C1.97917 0 0 1.94872 0 4.35897V19.641C0 22.0513 1.97917 24 4.42708 24H20.5729C23.0208 24 25 22.0513 25 19.641V4.35897C25 1.94872 23.0208 0 20.5729 0ZM15.3125 16.9538H13.1344C13.0625 16.9641 12.9896 16.9128 12.9687 16.841L12.1146 14.4H8.23958L7.44792 16.8103C7.42708 16.9026 7.34375 16.9641 7.25 16.9549H5.29167C5.17708 16.9549 5.14583 16.8923 5.17708 16.7703L8.53125 7.26154C8.5625 7.15897 8.59375 7.04615 8.63542 6.92308C8.67708 6.70769 8.69792 6.48205 8.69792 6.25641C8.6875 6.20513 8.72917 6.15385 8.78125 6.14359H11.4792C11.5625 6.14359 11.6042 6.17436 11.6146 6.22564L15.4167 16.7897C15.4479 16.9015 15.4167 16.9538 15.3125 16.9538ZM18.8542 16.8C18.8542 16.9128 18.8135 16.9641 18.7198 16.9641H16.6771C16.5729 16.9641 16.5208 16.9015 16.5208 16.8V8.90256C16.5208 8.8 16.5635 8.75897 16.6573 8.75897H18.7198C18.8135 8.75897 18.8542 8.81026 18.8542 8.90256V16.8ZM18.6365 7.53846C18.5134 7.66148 18.3651 7.75715 18.2014 7.81907C18.0378 7.88098 17.8625 7.9077 17.6875 7.89744C17.3437 7.90769 17.0104 7.77436 16.7594 7.53846C16.5207 7.28153 16.3936 6.94287 16.4052 6.59487C16.3948 6.24615 16.5302 5.91795 16.7792 5.68205C17.0312 5.44615 17.3646 5.32308 17.7083 5.32308C18.1156 5.32308 18.426 5.44615 18.6562 5.68205C18.8854 5.9282 19.0104 6.25641 19 6.59487C19.0104 6.94359 18.8854 7.28205 18.6365 7.53846Z"/>
</svg>
