<svg width="25" height="24" viewBox="0 0 25 24" fill="currentColor" xmlns="http://www.w3.org/2000/svg">
<path d="M10.2604 8.32856C9.875 8.17471 9.45833 8.11317 9.03125 8.12342C8.76042 8.12342 8.52083 8.12342 8.32292 8.13368C8.11458 8.12342 7.96875 8.13368 7.89583 8.14394V11.5902C8.04167 11.6005 8.17708 11.6108 8.30208 11.6108H8.85417C9.26042 11.6108 9.66667 11.5492 10.0521 11.4261C10.3854 11.3338 10.6771 11.1389 10.9062 10.8825C11.125 10.6261 11.2292 10.2774 11.2292 9.82606C11.2396 9.5081 11.1562 9.19014 10.9896 8.9132C10.8159 8.64689 10.5605 8.44208 10.2604 8.32856ZM20.5729 0H4.42708C1.97917 0 0 1.9488 0 4.35916V19.6408C0 22.0512 1.97917 24 4.42708 24H20.5729C23.0208 24 25 22.0512 25 19.6408V4.35916C25 1.9488 23.0208 0 20.5729 0ZM12.874 11.9492C12.4583 12.5236 11.875 12.9544 11.1979 13.2006C10.4896 13.457 9.70833 13.5493 8.85417 13.5493C8.60417 13.5493 8.4375 13.5493 8.33333 13.539C8.22917 13.5288 8.08333 13.5288 7.88542 13.5288V16.8202C7.89583 16.892 7.84375 16.9546 7.77083 16.9648H5.75C5.66667 16.9648 5.625 16.9228 5.625 16.8305V6.27719C5.625 6.20539 5.65625 6.16437 5.72917 6.16437C5.90625 6.16437 6.07292 6.16437 6.3125 6.15411C6.5625 6.14385 6.82292 6.14385 7.10417 6.1336C7.38542 6.12334 7.6875 6.12334 8.01042 6.11308C8.33333 6.10282 8.64583 6.10282 8.95833 6.10282C9.8125 6.10282 10.5208 6.20539 11.1042 6.42079C11.625 6.59515 12.1042 6.88235 12.5 7.26185C12.8333 7.59007 13.0937 7.99009 13.2604 8.43113C13.4156 8.86192 13.499 9.30296 13.499 9.76452C13.5 10.6466 13.2917 11.3748 12.874 11.9492ZM20.2604 15.9391C19.9688 16.3494 19.5615 16.6664 19.0938 16.853C18.5833 17.0674 17.9583 17.1792 17.2073 17.1792C16.7292 17.1792 16.2594 17.1392 15.7917 17.0469C15.4271 16.9843 15.0625 16.8725 14.7292 16.7187C14.6562 16.6787 14.6031 16.6069 14.6135 16.5248V14.7401C14.6135 14.7104 14.625 14.6683 14.6562 14.6478C14.6865 14.6273 14.7187 14.6375 14.75 14.6581C15.1562 14.894 15.5833 15.0591 16.0417 15.1606C16.4365 15.2632 16.8531 15.3145 17.2708 15.3145C17.6667 15.3145 17.9479 15.2622 18.1354 15.1699C18.3021 15.0981 18.4167 14.9237 18.4167 14.7391C18.4167 14.5945 18.3333 14.4622 18.1667 14.3288C18 14.1965 17.6573 14.0427 17.1469 13.8457C16.6156 13.6611 16.1271 13.4149 15.6677 13.1083C15.3418 12.8784 15.0711 12.5807 14.875 12.2364C14.7094 11.9119 14.6275 11.5523 14.6365 11.1892C14.6365 10.7482 14.7615 10.3276 14.9917 9.94812C15.2521 9.53784 15.6365 9.20962 16.0844 9.00449C16.5729 8.75935 17.1875 8.64652 17.9271 8.64652C18.3542 8.64652 18.7917 8.67729 19.2188 8.73883C19.5312 8.77986 19.8333 8.86192 20.1146 8.97474C20.1552 8.985 20.1979 9.02603 20.2188 9.06705C20.2292 9.10808 20.2396 9.14911 20.2396 9.19014V10.862C20.2396 10.903 20.2187 10.9441 20.1875 10.9646C20.0937 10.9851 20.0417 10.9851 20 10.9646C19.6875 10.8005 19.3542 10.6876 19 10.6158C18.6146 10.5338 18.2292 10.4825 17.8333 10.4825C17.625 10.4722 17.4062 10.503 17.2073 10.5543C17.0729 10.5851 16.9573 10.6569 16.8844 10.7594C16.8323 10.8415 16.801 10.9441 16.801 11.0364C16.801 11.1287 16.8427 11.221 16.9062 11.303C17 11.4159 17.124 11.5082 17.2604 11.58C17.499 11.7031 17.75 11.8159 17.999 11.9185C18.5625 12.1031 19.1042 12.3595 19.6042 12.6672C19.9479 12.8816 20.2292 13.1698 20.426 13.5185C20.5927 13.8447 20.676 14.2057 20.6656 14.574C20.6771 15.0571 20.5312 15.5381 20.2604 15.9391Z" />
</svg>
