<svg width="24" height="24" viewBox="0 0 24 24" fill="currentColor" xmlns="http://www.w3.org/2000/svg">
<path d="M19.2 24H4.8C3.52696 24 2.30606 23.4943 1.40589 22.5941C0.505713 21.6939 0 20.473 0 19.2V4.8C0 3.52696 0.505713 2.30606 1.40589 1.40589C2.30606 0.505713 3.52696 0 4.8 0H19.2C20.473 0 21.6939 0.505713 22.5941 1.40589C23.4943 2.30606 24 3.52696 24 4.8V19.2C24 20.473 23.4943 21.6939 22.5941 22.5941C21.6939 23.4943 20.473 24 19.2 24ZM4.8 2.4C4.16348 2.4 3.55303 2.65286 3.10294 3.10294C2.65286 3.55303 2.4 4.16348 2.4 4.8V19.2C2.4 19.8365 2.65286 20.447 3.10294 20.8971C3.55303 21.3471 4.16348 21.6 4.8 21.6H19.2C19.8365 21.6 20.447 21.3471 20.8971 20.8971C21.3471 20.447 21.6 19.8365 21.6 19.2V4.8C21.6 4.16348 21.3471 3.55303 20.8971 3.10294C20.447 2.65286 19.8365 2.4 19.2 2.4H4.8ZM16.5144 17.7312C15.9955 17.7521 15.4777 17.6671 14.9927 17.4815C14.5077 17.2958 14.0655 17.0133 13.6932 16.6512C12.9137 15.7625 12.5138 14.6035 12.5796 13.4232C12.5555 12.2761 12.9647 11.162 13.7256 10.3032C14.1234 9.88264 14.6056 9.55094 15.1406 9.32986C15.6757 9.10878 16.2514 9.00332 16.83 9.0204H17.1096V6.6204C17.1096 6.4332 17.262 6.2808 17.4492 6.2796H19.0296C19.1173 6.27632 19.2031 6.30633 19.2696 6.3636C19.3021 6.39435 19.3276 6.43165 19.3446 6.47302C19.3616 6.5144 19.3695 6.55891 19.368 6.6036V15.8184C19.362 16.1364 19.3788 16.4544 19.416 16.77V16.8C19.4178 16.8763 19.3942 16.951 19.3488 17.0124C19.3096 17.0606 19.26 17.0991 19.2036 17.1252C18.3708 17.5227 17.46 17.7301 16.5372 17.7324L16.5144 17.7312ZM15.4152 11.592L15.4092 11.5992C15.0291 12.0994 14.8379 12.7178 14.8692 13.3452C14.8199 13.999 15.0087 14.6485 15.4008 15.174C15.7212 15.5268 16.1832 15.7188 16.6596 15.6948C16.8108 15.6972 16.962 15.6816 17.1096 15.6492V11.0304C16.9976 11.0064 16.8833 10.9948 16.7688 10.9956C16.5128 10.9887 16.2584 11.039 16.0243 11.1428C15.7901 11.2466 15.5821 11.4013 15.4152 11.5956V11.592ZM12.27 17.592H10.5288C10.4393 17.5979 10.3502 17.5755 10.274 17.5282C10.1978 17.4808 10.1384 17.4108 10.104 17.328L9.852 16.8L9.846 16.7868L9.6 16.296L9.5232 16.1364C9.1404 15.3468 8.7456 14.5332 8.3496 13.6956C7.799 14.9155 7.23215 16.128 6.6492 17.3328V17.3448L6.6432 17.3556C6.60304 17.4229 6.54701 17.4793 6.48 17.52C6.41188 17.5607 6.33373 17.5815 6.2544 17.58H4.6092C4.54039 17.5834 4.47236 17.5642 4.41541 17.5255C4.35846 17.4867 4.3157 17.4305 4.2936 17.3652C4.27915 17.3155 4.27629 17.2632 4.28523 17.2122C4.29418 17.1612 4.31469 17.113 4.3452 17.0712L7.02 11.958L4.4328 6.7812C4.398 6.73084 4.37817 6.67165 4.37562 6.61048C4.37307 6.54932 4.38791 6.48868 4.4184 6.4356C4.44772 6.38745 4.48898 6.34768 4.53817 6.32014C4.58736 6.29261 4.64282 6.27823 4.6992 6.2784H6.42C6.50359 6.27393 6.58676 6.29306 6.66 6.3336C6.7344 6.3792 6.792 6.4476 6.8232 6.5292C7.4664 7.8792 8.0088 9.0492 8.4828 10.0872C9.072 8.7672 9.6984 7.4256 10.1184 6.5364L10.1244 6.5232L10.1316 6.5112V6.498C10.1617 6.44667 10.1993 6.40015 10.2432 6.36C10.3175 6.29803 10.4117 6.26519 10.5084 6.2676H12.12C12.1816 6.26595 12.2424 6.28219 12.295 6.31435C12.3476 6.3465 12.3898 6.3932 12.4164 6.4488C12.4376 6.49973 12.4462 6.55503 12.4413 6.60999C12.4365 6.66494 12.4185 6.71792 12.3888 6.7644L9.8004 11.7888L12.5388 17.0688C12.5676 17.1147 12.5857 17.1664 12.5917 17.2202C12.5977 17.274 12.5915 17.3285 12.5736 17.3796C12.551 17.4417 12.5096 17.4953 12.4552 17.5329C12.4009 17.5706 12.3361 17.5904 12.27 17.5896V17.592Z"/>
</svg>
