<?xml version="1.0" encoding="utf-8"?>
<!-- Generator: Adobe Illustrator 25.2.1, SVG Export Plug-In . SVG Version: 6.00 Build 0)  -->
<svg version="1.1" id="Layer_1" xmlns="http://www.w3.org/2000/svg" xmlns:xlink="http://www.w3.org/1999/xlink" x="0px" y="0px"
	 viewBox="0 0 699 329" style="enable-background:new 0 0 699 329;" xml:space="preserve">
<style type="text/css">
	.st0{fill:#4149F1;}
	.st1{fill:#5C11F2;}
	.st2{fill:#FFFFFF;}
	.st3{fill:none;stroke:#0B0511;stroke-width:5;stroke-linecap:round;stroke-miterlimit:10;}
	.st4{fill:none;stroke:#5C11F2;stroke-width:5;stroke-linecap:round;stroke-miterlimit:10;}
	.st5{fill:#0B0511;}
	.st6{fill:#202020;}
</style>
<g id="Layer_6" transform="translate(-227.989 -394.188)">
	<path id="Path_56" class="st0" d="M890.45,686.35c1.06,2.43,2,4.91,2.79,7.44c1.3,4.39,1.9,8.95,1.78,13.52
		c-0.19,6.58-5.73,7.5-10.65,8.62c-1.07,0.24-5.49,0.63-6.77,0.75c-12.8,1.24-14.49-0.23-29.54,0.37
		c-4.62,0.19-10.66,1.22-11.96-2.7c-0.57-1.73,1.3-8.33,1.8-10.59c1.75-7.8,0.96-11.47,0.06-16.74c-1.4-8.2-10.47-31.6-10.47-31.6
		c-0.94-2.25-2.28-4.42-3.43-6.58c-3.65-7.17-7.79-14.07-12.39-20.67c-3.75-5.04-7.95-9.74-12.54-14.04
		c-2.1-2.05-13,0.53-15.67,1.03c-3.14,0.66-6.2,1.65-9.13,2.96c-4.24,1.89-8.96,2.45-13.53,1.62
		c-14.74-2.47-25.39-17.91-18.49-32.11c6.18-12.71,21.98-16.3,34.78-17.28c13.44-1.03,28.19,1.22,39.17,9.53
		c2.04,1.56,3.93,3.31,5.65,5.22c2,0.8,3.74,2.15,5.02,3.89c5.14,6.86,12.3,13.02,17.14,20.67c1.08,1.4,2.14,2.82,3.2,4.24
		c0.41,0.3,0.79,0.65,1.13,1.03c3.18,3.65,6.07,7.54,8.65,11.63c3.28,3.48,6.13,7.35,8.46,11.53
		C865.54,638.1,884.04,669.7,890.45,686.35z"/>
	<path id="Path_57" class="st0" d="M729.58,596.36c-1.25-5.52-0.56-11.3,1.96-16.36c0.26-0.55,0.62-1.05,1.06-1.47l0.34-0.8
		c0.42-0.92,1.18-1.64,2.12-2.01c-0.42-0.95-1.02-1.81-1.75-2.55c-3.58-3.47-9.26-3.47-12.84,0c-2.96,2.79-4.44,6.2-5.97,9.88
		c-1.56,3.77-4.36,8.26-4.27,12.42c0.11,5.05,3.9,8.48,6.95,12.11l7.96,9.45c3.16,3.75,9.58,3.26,12.84,0
		c0.64-0.64,1.18-1.37,1.61-2.16c-3.09-3.69-6.09-7.44-8.09-11.8C730.51,600.94,729.87,598.68,729.58,596.36z"/>
	<path id="Path_58" class="st1" d="M321.66,710.21l-17.51,12.25h244.6l-10.77-12.84L321.66,710.21z"/>
	<g id="Group_77" transform="translate(321.875 566.443)">
		<path id="Path_59" class="st2" d="M217.58,143.77H-0.22V9.53c0-5.32,4.31-9.63,9.62-9.63c0,0,0.01,0,0.01,0h198.53
			c5.32,0,9.63,4.31,9.63,9.62c0,0,0,0.01,0,0.01V143.77z"/>
	</g>
	<line id="Line_4" class="st3" x1="340.57" y1="624.64" x2="386.32" y2="624.64"/>
	<line id="Line_5" class="st3" x1="340.57" y1="650.67" x2="386.32" y2="650.67"/>
	<line id="Line_6" class="st3" x1="340.57" y1="636.89" x2="371.34" y2="636.89"/>
	<line id="Line_7" class="st3" x1="355.04" y1="602.11" x2="366.6" y2="602.11"/>
	<line id="Line_8" class="st4" x1="340.57" y1="663.55" x2="358.32" y2="663.55"/>
	<line id="Line_9" class="st4" x1="364.23" y1="663.55" x2="381.98" y2="663.55"/>
	<line id="Line_10" class="st4" x1="377.91" y1="636.89" x2="399.47" y2="636.89"/>
	<line id="Line_11" class="st3" x1="339.98" y1="676.44" x2="346.95" y2="676.44"/>
	<path id="Path_60" class="st3" d="M339.98,589.1l9.46,5.92l-9.3,7.1"/>
	<g id="Group_80" transform="translate(227.989 718.945)">
		<g id="Group_79">
			<g id="Group_78">
				<path id="Path_61" class="st2" d="M697.21-0.09c0.1-0.01,0.21,0.03,0.28,0.1c0.96,0.61,2.34,2.19,0.06,4.07
					c-0.1,0.08-0.22,0.14-0.34,0.17L15.81,4.23c0,0-6.61-0.45-11.24-1.11c-7.86-0.92-4.72-1.89,0.15-2.4
					C4.21,0.62,16.37-0.1,16.37-0.1L697.21-0.09z"/>
			</g>
		</g>
	</g>
	<g id="Group_83" transform="translate(671.502 445.128)">
		<g id="Group_82">
			<g id="Group_81">
				<path id="Path_62" class="st2" d="M19.28,0.16c0.07-0.08,0.17-0.14,0.28-0.14c0.66-0.21,1.38-0.15,2,0.15
					c0.63,0.36,1.07,1.14,1.01,2.59c-0.01,0.12-0.04,0.24-0.09,0.36c-0.8,0.82-1.52,1.73-2.27,2.61c-0.71,0.91-1.43,1.82-2.11,2.77
					c-1.9,2.64-3.62,5.41-5.14,8.28c-1.55,2.87-2.93,5.82-4.13,8.86c-2.47,5.99-3.99,12.33-4.5,18.79
					C3.4,57.44,5.68,70.6,9.74,83.11c0.98,3.12,2.14,6.18,3.46,9.16c1.28,2.95,2.84,5.77,4.65,8.42c1.75,2.6,3.88,4.93,6.32,6.91
					l0.91,0.71c0.31,0.23,0.64,0.43,0.96,0.64c0.64,0.42,1.31,0.81,2,1.15l1.01,0.54c0.35,0.15,0.71,0.29,1.07,0.43
					c0.7,0.31,1.43,0.56,2.16,0.77l1.11,0.3c0.37,0.12,0.74,0.21,1.12,0.27l2.28,0.36l2.33,0.15c0.78,0.02,1.56-0.03,2.35-0.04
					c3.17-0.19,6.3-0.76,9.34-1.68l1.73-0.55c0.32-0.1,0.65-0.2,0.96-0.33l1.91-0.73c0,0,0.38-0.1,1.02-0.34s1.53-0.53,2.56-0.89
					c2.04-0.77,4.62-1.79,6.74-2.7c1.21-0.57,2.45-1.08,3.72-1.51c0.74-0.2,1.03-0.13,0.97,0.16c-0.25,0.54-0.62,1.02-1.09,1.4
					c-0.31,0.31-0.68,0.65-1.1,1.01s-0.89,0.71-1.4,1.08c-1.53,1.17-3.15,2.22-4.83,3.15c-0.66,0.38-1.32,0.78-1.97,1.11
					s-1.25,0.64-1.77,0.91s-0.96,0.49-1.28,0.62s-0.5,0.22-0.5,0.22l-2.02,0.77l-1.03,0.34l-1.26,0.41
					c-0.8,0.29-1.66,0.45-2.49,0.68c-3.37,0.86-6.84,1.29-10.32,1.28c-3.55-0.05-7.07-0.73-10.39-1.99
					c-1.66-0.64-3.26-1.43-4.78-2.35c-0.75-0.47-1.48-0.98-2.19-1.52l-1.05-0.82l-0.99-0.88c-2.57-2.36-4.81-5.06-6.65-8.03
					c-1.82-2.89-3.39-5.92-4.69-9.07c-1.31-3.11-2.44-6.29-3.43-9.47C3.18,76.74,1.69,70.2,0.74,63.56
					c-0.96-6.67-1.19-13.43-0.68-20.16C0.33,40,0.9,36.63,1.74,33.32c0.86-3.27,1.92-6.49,3.18-9.63c1.25-3.14,2.68-6.19,4.3-9.16
					c1.6-2.98,3.39-5.85,5.36-8.6c0.72-1.01,1.49-1.98,2.26-2.96C17.63,2.04,18.4,1.06,19.28,0.16z"/>
			</g>
		</g>
	</g>
	<g id="Group_84" transform="translate(693.339 429.828)">
		<path id="Path_63" class="st2" d="M102.46,132.44c3.72-3.36,9.09-9.09,10.43-14c7.26-26.75-0.84-55.29-13.26-80.07
			C93.82,26.78,86.07,15.74,75.15,8.75c-9.02-5.78-19.81-8.49-30.52-8.81S23.24,1.58,12.95,4.57C8.72,5.8,2.72,7.67,0.78,12.12
			c-0.75,1.74-0.64,4.35-0.94,5.84c-0.23,4.25,0.13,8.52,1.07,12.67c1.24,5.5,3.32,10.77,6.16,15.63c1.39,2.38,2.97,4.65,4.71,6.78
			c7.75,9.41,18.44,15.94,30.35,18.54c3.53,0.76,7.5,1.08,10.5-0.92c2.26-1.51,4.2-5.15,5.85-7.3c3.07-4.01,8.17,0.94,9.07,4.04
			c1.54,5.32-0.97,11.05-2.56,13.86c-2.3,4.09-6.11,5.77-8.68,9.69c-1.28,1.96-4.15,10.32-4.56,12.56
			c-1.85,10.08-0.27,16.53,6.68,25.09c6.27,7.72,17.54,8.66,27.47,8.46c5.22-0.1,10.76-0.45,15.05-3.42
			C101.49,133.26,101.99,132.87,102.46,132.44z"/>
	</g>
	<g id="Group_87" transform="translate(683.032 496.574)">
		<g id="Group_86" transform="translate(0 0)">
			<g id="Group_85">
				<path id="Path_64" class="st2" d="M-0.13,1.88c-0.02-0.09,0-0.19,0.06-0.27C0.19,1,0.62,0.49,1.18,0.13
					C1.81-0.22,2.71-0.29,3.9,0.76C4,0.86,4.08,0.97,4.14,1.1c0.4,2.54,0.5,5.12,0.31,7.68c-0.1,1.96-0.27,3.85-0.32,5.66
					c-0.07,1.76,0.04,3.53,0.33,5.27c0.2,1.14,0.54,2.25,1.01,3.3c0,0,0.12,0.32,0.35,0.85c0.31,0.68,0.71,1.32,1.18,1.89
					c1.38,1.57,3.29,2.58,5.36,2.83c1.2,0.09,2.4-0.12,3.49-0.61c0.66-0.29,0.97-0.31,0.98-0.01c-0.16,0.64-0.54,1.21-1.08,1.6
					c-0.99,0.79-2.18,1.29-3.44,1.42c0.08,0.01-0.08,0.03-0.42,0.06c-0.49,0.04-0.98,0.04-1.47-0.01c-3.28-0.33-6.24-2.13-8.04-4.88
					c-0.3-0.44-0.58-0.9-0.83-1.38c-0.17-0.34-0.27-0.54-0.27-0.54c-0.5-1.21-0.86-2.46-1.08-3.75c-0.75-4.18-0.28-8.24-0.08-11.93
					C0.29,6.32,0.21,4.08-0.13,1.88z"/>
			</g>
		</g>
	</g>
	<g id="Group_90" transform="translate(694.548 488.398)">
		<g id="Group_89" transform="translate(0 0)">
			<g id="Group_88">
				<path id="Path_65" class="st2" d="M1.55,5.07C1.53,5.08,1.52,5.09,1.44,5c-0.38-0.39-0.7-0.82-0.97-1.28
					C0.03,2.98-0.21,2.15-0.22,1.29c0-0.07,0.01-0.14,0.04-0.21c0.02-0.01,0.26-0.1,0.64-0.27C1,0.62,1.55,0.45,2.11,0.31
					C3.76-0.1,5.48-0.21,7.17-0.01c1.66,0.19,3.28,0.65,4.8,1.35c0.49,0.23,0.97,0.48,1.44,0.76c0.34,0.2,0.53,0.31,0.53,0.31
					s0.11,0.1,0.28,0.28s0.41,0.44,0.66,0.74s0.5,0.68,0.74,1.06c0.22,0.38,0.42,0.77,0.59,1.17c0.55,1.26,0.39,1.83-0.01,2
					c-0.6,0.11-1.22-0.02-1.73-0.34c-0.5-0.21-0.99-0.45-1.46-0.71c-0.36-0.2-0.76-0.33-1.05-0.45c-0.16-0.07-0.32-0.13-0.48-0.17
					c-0.46-0.29-0.94-0.55-1.44-0.78C8.95,4.74,7.8,4.42,6.62,4.29C5.44,4.16,4.26,4.24,3.11,4.53C2.64,4.65,2.26,4.79,1.98,4.88
					C1.73,5,1.57,5.07,1.55,5.07z"/>
			</g>
		</g>
	</g>
	<g id="Group_93" transform="translate(673.261 484.178)">
		<g id="Group_92">
			<g id="Group_91">
				<path id="Path_66" class="st2" d="M12.22,4.99c0.01,0.02,0.02,0.03-0.04,0.12c-0.3,0.44-0.67,0.83-1.1,1.14
					C10.4,6.75,9.67,7.17,8.9,7.51C8.85,7.54,8.79,7.56,8.73,7.57c-0.21-0.3-0.45-0.58-0.71-0.84C7.46,6.16,6.83,5.67,6.14,5.28
					c-0.69-0.4-1.43-0.7-2.2-0.91C3.6,4.28,3.24,4.21,2.89,4.16c0,0-0.26-0.15-0.64-0.37s-0.88-0.5-1.34-0.78
					C0.13,2.63-0.23,2.23-0.22,1.79c0.1-0.53,0.46-0.97,0.96-1.18C1.15,0.37,1.61,0.2,2.09,0.13c0.37-0.08,0.75-0.14,1.04-0.19
					C3.43-0.09,3.62-0.1,3.62-0.1s0.15,0.02,0.43,0.06C4.32,0.03,4.71,0.1,5.16,0.22c1.12,0.3,2.19,0.75,3.19,1.33
					c1.02,0.59,1.95,1.31,2.77,2.16C11.53,4.11,11.89,4.54,12.22,4.99z"/>
			</g>
		</g>
	</g>
	<g id="Group_96" transform="translate(694.055 526.315)">
		<g id="Group_95" transform="translate(0 0)">
			<g id="Group_94">
				<path id="Path_67" class="st2" d="M-0.1,14.71c-0.06-0.03-0.07-0.05-0.08-0.18c-0.09-0.57,0.02-1.16,0.32-1.66
					c0.47-0.73,1.11-1.33,1.85-1.77c0.06-0.04,0.12-0.07,0.19-0.08c0.19,0.11,0.38,0.22,0.58,0.31c0.51,0.23,1.04,0.39,1.59,0.48
					c1.79,0.26,3.61-0.01,5.25-0.78c0.9-0.4,1.74-0.92,2.5-1.54c0.69-0.57,1.33-1.21,1.91-1.9c0.52-0.61,0.92-1.16,1.19-1.56
					s0.42-0.63,0.42-0.63s0.49-0.54,1.15-1.31s1.5-1.79,2.26-2.63c2.39-2.94,2.67-1.24,2.13,1.1c-0.19,0.91-0.48,1.8-0.85,2.65
					c-0.52,1.38-1.22,2.78-1.22,2.78l-0.5,0.73c-0.33,0.46-0.8,1.11-1.45,1.86c-0.74,0.87-1.56,1.66-2.44,2.38
					c-1.06,0.85-2.23,1.56-3.48,2.1c-2.4,1.08-5.07,1.43-7.67,1.01c-0.51-0.09-1.01-0.21-1.5-0.37c-0.44-0.16-0.82-0.31-1.14-0.45
					C0.56,15.09,0.22,14.91-0.1,14.71z"/>
			</g>
		</g>
	</g>
	<g id="Group_99" transform="translate(724.082 556.221)">
		<g id="Group_98">
			<g id="Group_97">
				<path id="Path_68" class="st2" d="M-0.2,2.26c-0.02-0.03-0.03-0.05,0.03-0.15C0.53,0.85,1.8,0.03,3.23-0.1
					c0.07-0.01,0.15,0,0.22,0.02c0.03,0.05,0.59,0.93,1.41,2.23s1.87,3,2.96,4.6c0.97,1.45,2.03,2.84,3.18,4.16
					c0.47,0.52,0.87,0.95,1.16,1.24s0.45,0.45,0.45,0.45s0.08,0.13,0.24,0.34s0.36,0.52,0.6,0.87s0.54,0.74,0.81,1.16
					s0.58,0.82,0.82,1.24c1.89,2.54,0.4,2.65-1.51,1.86c-0.73-0.29-1.42-0.66-2.07-1.11c-1.06-0.65-2.1-1.42-2.1-1.42
					s-0.75-0.73-1.79-1.91c-1.25-1.43-2.4-2.95-3.45-4.53c-1.15-1.69-2.2-3.39-3-4.66S-0.17,2.3-0.2,2.26z"/>
			</g>
		</g>
	</g>
	<g id="Group_102" transform="translate(725.685 562.078)">
		<g id="Group_101" transform="translate(0)">
			<g id="Group_100">
				<path id="Path_69" class="st2" d="M44.05-0.1c0.11-0.01,0.22,0.03,0.31,0.1c0.62,0.35,1.07,0.92,1.25,1.61
					c0.15,0.71-0.18,1.56-1.24,2.46c-0.09,0.08-0.2,0.14-0.31,0.18c-2.24,0.03-4.47,0.31-6.64,0.84c-2.97,0.69-5.94,1.74-8.98,2.78
					c-3.02,1.03-6,2.1-8.86,3.32c-2.83,1.16-5.51,2.62-8.02,4.37c-2.39,1.63-4.36,3.79-5.76,6.31c-2.63,4.92-1.93,11.34,0.52,16.69
					c2.48,5.44,6.75,10.2,10.73,15.28c3.99,5.01,7.98,10.02,12.1,14.88c2.06,2.44,4.15,4.8,6.3,7.21s4.27,4.86,6.32,7.36
					s4.08,5.03,6.01,7.65c1.96,2.6,3.82,5.27,5.59,8l1.01,1.59c0.2,0.3,0.38,0.61,0.57,0.92l1.1,1.86c0,0,0.2,0.37,0.5,1.02
					s0.7,1.56,1.17,2.6c0.42,1.07,0.9,2.28,1.32,3.51c0.41,1.21,0.75,2.44,1.02,3.69c0.37,1.32,0.56,2.69,0.57,4.07
					c-0.02,0.77-0.2,1.01-0.45,0.85c-0.44-0.4-0.78-0.89-1.01-1.43c-0.38-0.75-0.87-1.73-1.41-2.79c0.05,0.24-1.11-2.34-2.6-4.84
					c-1.44-2.52-3.13-4.98-3.13-4.98l-1.04-1.75l-0.55-0.86l-0.65-1.02c-0.41-0.66-0.84-1.3-1.28-1.94
					c-3.51-5.15-7.29-10.11-11.31-14.87c-2.02-2.4-4.07-4.74-6.17-7.08c-2.12-2.37-4.2-4.78-6.24-7.21
					c-4.08-4.86-8.02-9.81-11.95-14.75c-1.94-2.46-3.97-4.9-5.89-7.53c-0.98-1.32-1.89-2.69-2.72-4.11
					c-0.87-1.44-1.63-2.94-2.27-4.49c-0.66-1.57-1.18-3.21-1.54-4.88c-0.38-1.68-0.59-3.39-0.62-5.11
					c-0.05-1.76,0.13-3.52,0.53-5.24c0.41-1.74,1.08-3.41,1.97-4.96c1.8-2.99,4.24-5.54,7.14-7.47c2.74-1.85,5.66-3.42,8.72-4.67
					c2.99-1.26,6.01-2.33,9.01-3.36c2.97-1.01,6.03-2.1,9.25-2.85C38.9,0.24,41.47-0.08,44.05-0.1z"/>
			</g>
		</g>
	</g>
	<g id="Group_105" transform="translate(789.958 561.219)">
		<g id="Group_104">
			<g id="Group_103">
				<path id="Path_70" class="st2" d="M1.13,4.22C1.03,4.21,1,4.21,0.89,4.1c-0.52-0.42-0.89-1-1.06-1.65
					c-0.15-0.71,0.06-1.57,1.38-2.4C1.33-0.02,1.46-0.07,1.6-0.1c2.55,0.32,5.05,0.92,7.47,1.8C13.1,3.17,17,4.99,20.72,7.15
					c3.69,2.1,7.26,4.39,10.71,6.82c6.87,4.87,13.43,10.14,19.67,15.8c3.11,2.82,6.15,5.73,9.11,8.73c2.95,3,5.82,6.1,8.52,9.39
					c5.29,6.58,10.08,13.54,14.33,20.83c2.15,3.6,4.21,7.25,6.22,10.92l2.99,5.51l1.47,2.76l1.45,2.8
					c3.87,7.49,7.23,15.23,10.04,23.17c2.73,7.95,5.03,16.05,6.88,24.25l0.49,2.11l0.23,1.04l0.46,2.08c0,0,0.25,1.65,0.52,3.88
					s0.57,5.04,0.71,7.38c0.64,7.9-0.92,4.99-2.38,0.33c0.01,0.26-0.78-2.56-1.57-5.43s-1.62-5.79-1.62-5.79l-0.45-2.03l-0.22-1.01
					l-1.03-4.42c-1.86-7.89-4.17-15.67-6.94-23.28c-2.8-7.59-6.11-14.99-9.91-22.14c-3.81-7.22-7.71-14.39-11.91-21.33
					c-4.12-6.95-8.76-13.58-13.88-19.83c-2.57-3.05-5.37-6.01-8.21-8.88s-5.8-5.66-8.81-8.37C41.56,27,35.22,21.94,28.6,17.27
					c-3.32-2.3-6.7-4.48-10.2-6.46c-3.43-1.98-7.04-3.66-10.76-5.02C5.53,5.02,3.35,4.5,1.13,4.22z"/>
			</g>
		</g>
	</g>
	<g id="Group_108" transform="translate(681.262 564.589)">
		<g id="Group_107" transform="translate(0 0)">
			<g id="Group_106">
				<path id="Path_71" class="st2" d="M51.11,0.22c0.11,0.01,0.21,0.07,0.28,0.16c0.87,0.8,1.84,2.62-0.73,4
					c-0.11,0.06-0.22,0.09-0.34,0.11c-1.01-0.21-2.03-0.29-3.06-0.23c-1.06,0.07-2.12,0.25-3.15,0.52
					c-0.63,0.16-1.26,0.34-1.91,0.54l-0.96,0.31c-0.29,0.1-0.5,0.22-0.75,0.31c-1.08,0.54-2.09,1.22-3,2.03
					c-2,1.76-3.83,3.7-5.46,5.81c-0.83,1.07-1.65,2.15-2.4,3.27c-0.38,0.55-0.75,1.12-1.08,1.68c-0.17,0.28-0.34,0.55-0.47,0.82
					c-0.14,0.24-0.26,0.48-0.36,0.73c-1.08,2.6-2.17,5.2-3.31,7.79c-2.27,5.17-4.71,10.32-7.45,15.3c-1.36,2.49-2.77,4.95-4.23,7.38
					l-1.22,2.02l-1.12,1.82c0,0-0.97,1.35-2.32,3.15s-3.09,4.02-4.62,5.8c-5.01,6.13-4.13,2.97-1.94-1.42
					c-0.18,0.19,1.22-2.38,2.64-4.99s2.86-5.29,2.86-5.29l1.08-1.77l1.42-2.38c1.39-2.35,2.76-4.72,4.04-7.12
					c2.6-4.79,4.91-9.73,7.11-14.74l1.62-3.78l0.79-1.9l0.4-0.95l0.2-0.47l0.1-0.24l0.15-0.31c0.34-0.7,0.73-1.39,1.15-2.05
					c0.39-0.61,0.78-1.22,1.19-1.81c0.81-1.18,1.66-2.33,2.56-3.44c1.78-2.3,3.79-4.41,5.99-6.31c1.19-1.04,2.52-1.9,3.94-2.58
					c0.38-0.16,0.82-0.36,1.17-0.47l1.03-0.34c0.69-0.21,1.4-0.41,2.11-0.59c1.29-0.34,2.61-0.55,3.95-0.64
					C48.39-0.15,49.76-0.06,51.11,0.22z"/>
			</g>
		</g>
	</g>
	<g id="Group_111" transform="translate(622.136 679.095)">
		<g id="Group_110" transform="translate(0 0)">
			<g id="Group_109">
				<path id="Path_72" class="st2" d="M2.21,41.73c-0.09,0.04-0.2,0.04-0.29,0c-0.66-0.12-1.26-0.45-1.72-0.94
					c-0.46-0.55-0.68-1.42,0.08-2.78c0.07-0.11,0.16-0.21,0.27-0.3c2.34-0.96,4.6-1.71,6.86-2.53c1.94-0.69,3.86-1.39,5.74-2.14
					c1.84-0.7,3.62-1.52,5.35-2.46c0.43-0.22,0.76-0.47,1.13-0.71l1.24-0.9l2.49-1.82c1.65-1.22,3.28-2.45,4.86-3.72
					c3.16-2.47,6.11-5.21,8.81-8.18L38,14.13l1.07-1.3l2.3-2.22l1.12-1.08l0.56-0.54l0.34-0.33c0.16-0.2,0.37-0.36,0.61-0.46
					l0.88-0.45c0.26-0.13,0.53-0.26,0.8-0.36c0.27-0.11,0.54-0.24,0.82-0.34l0.88-0.29c1.27-0.38,2.61-0.51,3.92-0.36
					c1.24,0.17,2.45,0.53,3.58,1.07c1.05,0.47,1.97,0.96,2.88,1.42s1.8,0.9,2.7,1.33c3.83,1.77,7.43,3.72,11.12,5.03
					c1.79,0.66,3.65,1.12,5.54,1.37c0.46,0.03,0.92,0.1,1.38,0.11l0.69,0.02l0.12,0.01l0.03-0.01l0.38-0.04l3.02-0.36
					c4.03-0.54,8.06-1.26,12.08-2.07c8.04-1.62,16.03-3.65,24.04-5.67s16.04-4.12,24.23-5.78c8.22-1.8,16.6-2.78,25.02-2.93
					l2.2,0.02c0.36,0,0.73,0.02,1.09,0.03l2.17,0.1c0,0,0.1,0.01,0.3,0.03s0.47,0.08,0.82,0.13c0.71,0.13,1.69,0.26,2.82,0.5
					c2.47,0.49,4.9,1.17,7.27,2.04c1.3,0.41,2.55,0.96,3.73,1.66c0.65,0.41,0.77,0.68,0.51,0.82c-0.57,0.17-1.17,0.22-1.75,0.13
					c-0.43-0.03-0.92-0.07-1.45-0.13c-0.53-0.04-1.11-0.1-1.7-0.16c-0.53-0.01-1.05-0.07-1.57-0.17c-0.52-0.06-1.14-0.12-1.82-0.18
					s-1.39-0.15-2.12-0.18s-1.45-0.09-2.14-0.13c-0.68-0.01-1.33-0.03-1.88-0.05c-1.1-0.04-1.84-0.01-1.84-0.01l-2.03-0.1
					c-0.34-0.01-0.68-0.01-1.01-0.01l-1.45-0.01c-0.99-0.03-1.98,0.04-2.97,0.06c-8,0.4-15.94,1.5-23.74,3.29
					c-15.76,3.43-31.39,8.12-47.49,11.29c-4.03,0.78-8.09,1.47-12.19,1.96L80.32,21l-0.38,0.04l-0.23,0.03
					c-0.11,0.02-0.23,0.02-0.34,0.01l-0.87-0.02c-1.12-0.04-2.23-0.16-3.33-0.36c-2.13-0.41-4.23-1.02-6.24-1.83
					c-1.98-0.78-3.88-1.66-5.72-2.55L60.44,15l-2.76-1.31c-0.95-0.45-1.88-0.94-2.77-1.39c-0.83-0.44-1.67-0.84-2.54-1.19
					c-0.69-0.29-1.44-0.44-2.19-0.44c-0.76,0.03-1.52,0.19-2.23,0.47c-0.4,0.17-0.8,0.31-1.2,0.53l-0.47,0.24l-0.22,0.22l-2.19,2.12
					l-1.1,1.05l-0.54,0.52l0,0c0.05-0.06-0.04,0.05-0.07,0.08l-0.25,0.31c-0.67,0.82-1.36,1.63-2.07,2.41
					c-2.84,3.07-5.93,5.9-9.23,8.47c-1.62,1.28-3.26,2.52-4.91,3.74l-2.47,1.81L22.6,33.1c-0.2,0.15-0.41,0.29-0.66,0.47l-0.74,0.48
					c-0.24,0.15-0.49,0.28-0.73,0.42c-1.87,1.01-3.81,1.9-5.8,2.65c-1.93,0.76-3.86,1.47-5.78,2.15
					C6.62,40.08,4.32,40.87,2.21,41.73z"/>
			</g>
		</g>
	</g>
	<g id="Group_114" transform="translate(637.37 687.747)">
		<g id="Group_113" transform="translate(0 0)">
			<g id="Group_112">
				<path id="Path_73" class="st2" d="M27.62,0.42c0.11,0.02,0.22,0.08,0.29,0.17c0.55,0.47,0.86,1.15,0.87,1.87
					C28.73,3.2,28.2,3.89,27,4.55c-0.1,0.05-0.21,0.09-0.33,0.1c-1.02-0.23-2.07-0.36-3.12-0.38c-0.94-0.04-1.87,0.09-2.77,0.38
					c-0.22,0.08-0.44,0.18-0.65,0.3c-0.08,0.06-0.2,0.13-0.22,0.14s0.01-0.02-0.02,0.02l-0.12,0.13c-0.43,0.52-0.93,1.19-1.39,1.85
					l-1.4,2.03c-0.93,1.37-1.85,2.76-2.77,4.15c-0.73,1.1-1.36,2.14-2.01,3.31c0,0-0.22,0.34-0.6,0.91s-0.91,1.4-1.57,2.34
					c-0.72,1.06-1.51,2.07-2.35,3.03c-0.89,1-1.91,1.89-3.02,2.65c-1.16,0.85-2.52,1.39-3.95,1.56c-0.79,0.06-1.03-0.1-0.89-0.37
					c0.12-0.29,0.62-0.63,1.25-1.14c0.77-0.59,1.49-1.25,2.14-1.97c0.28-0.4,0.58-0.78,0.91-1.14c0.76-0.99,1.42-2.05,1.99-3.16
					c0.66-1.25,1.29-2.6,1.79-3.62s0.84-1.73,0.84-1.73c0.29-0.51,0.6-1.03,0.91-1.54s0.65-1.04,0.96-1.51
					c0.92-1.4,1.85-2.81,2.8-4.21l1.45-2.1c0.5-0.71,0.98-1.39,1.63-2.16l0.27-0.3c0.12-0.13,0.25-0.26,0.39-0.38
					c0.29-0.23,0.5-0.35,0.73-0.51c0.45-0.27,0.93-0.5,1.42-0.68c1.39-0.48,2.85-0.7,4.32-0.65C24.97-0.05,26.31,0.12,27.62,0.42z"
					/>
			</g>
		</g>
	</g>
	<g id="Group_117" transform="translate(561.941 555.551)">
		<g id="Group_116" transform="translate(0 0)">
			<g id="Group_115">
				<path id="Path_74" class="st2" d="M170.75,63.54c0.06-0.09,0.08-0.12,0.24-0.18c1.01-0.48,3.1-0.89,3.51,2.04
					c0.01,0.13,0,0.26-0.03,0.38c-1.25,2.09-2.56,4.13-3.9,6.17c-6.66,9.89-14.19,19.16-22.51,27.7c-4.13,4.29-8.35,8.4-12.73,12.47
					c-2.26,2.16-4.79,4.01-7.52,5.53c-1.43,0.78-2.94,1.41-4.5,1.86c-0.8,0.23-1.62,0.41-2.44,0.53c-0.41,0.06-0.84,0.09-1.26,0.14
					l-0.64,0.03l-0.43,0.01c-0.18,0.02-0.36,0.01-0.54-0.02l-0.52-0.15l-0.34-0.11c-0.2-0.06-0.41-0.13-0.59-0.2
					c-0.37-0.15-0.75-0.28-1.12-0.43c-0.71-0.32-1.45-0.61-2.13-0.96c-1.4-0.66-2.72-1.42-4.05-2.17c-1.29-0.8-2.6-1.57-3.83-2.44
					l-1.87-1.28l-1.81-1.35c-4.77-3.64-9.28-7.6-13.5-11.86c-4.16-4.28-8.21-8.67-11.93-13.31l-2.82-3.46l-2.7-3.55l-2.69-3.55
					l-2.6-3.58c-6.94-9.56-13.74-19.22-20.23-29.11c-3.25-4.94-6.44-9.93-9.49-15.02c-1.53-2.55-3.02-5.1-4.46-7.74l-0.31-0.57l0,0
					l-0.06-0.02c-0.52-0.19-1.07-0.32-1.62-0.4c-1.36-0.18-2.73-0.26-4.1-0.25c-2.87-0.03-5.83,0.11-8.89,0.01
					c-1.6-0.03-3.2-0.19-4.78-0.5c-1.58-0.33-3.13-0.81-4.62-1.43c-0.79-0.34-1.55-0.74-2.27-1.21c-0.72-0.48-1.39-1.01-2.01-1.61
					C2,13.34,1.4,12.66,0.88,11.92C0.23,10.99-0.14,9.9-0.2,8.77c-0.02-0.55,0.02-1.1,0.13-1.64c0.06-0.26,0.12-0.49,0.19-0.74
					C0.2,6.13,0.29,5.88,0.4,5.63c0.42-0.92,1.01-1.76,1.75-2.46c1.33-1.25,2.94-2.17,4.7-2.67C7.28,0.38,7.7,0.28,8.13,0.19
					c0.21-0.04,0.43-0.08,0.64-0.1l0.29-0.04l0.3-0.03l0.6-0.06c0.4-0.03,0.8-0.05,1.18-0.05c0.78-0.01,1.54,0.01,2.28,0.06
					c0,0,1.7,0.2,3.96,0.66c2.47,0.49,4.9,1.17,7.27,2.04c3.78,1.35,4.74,2.23,4.23,2.49c-0.52,0.29-2.51,0.08-4.9-0.18
					c0.21,0.1-2.03-0.26-4.58-0.46c-2.54-0.23-5.41-0.27-6.4-0.26c-0.24,0.01-0.37,0.01-0.37,0.01c-0.65-0.03-1.28-0.03-1.89-0.01
					c-0.31,0.01-0.61,0.03-0.9,0.07L9.61,4.35L9.53,4.36C9.38,4.38,9.23,4.4,9.08,4.43c-0.29,0.05-0.58,0.12-0.86,0.2
					C7.14,4.92,6.14,5.45,5.29,6.17C4.94,6.48,4.65,6.84,4.43,7.25C4.33,7.43,4.26,7.62,4.21,7.82c-0.06,0.19-0.09,0.39-0.1,0.59
					C4.09,8.74,4.18,9.07,4.35,9.34c0.28,0.44,0.61,0.84,0.99,1.19c0.22,0.22,0.47,0.44,0.72,0.66c0.22,0.2,0.44,0.36,0.68,0.54
					c0.49,0.34,1,0.64,1.54,0.89c1.18,0.54,2.42,0.95,3.69,1.23c2.68,0.5,5.4,0.68,8.12,0.55c2.88-0.01,5.79-0.15,8.93,0.14
					l1.21,0.16c0.41,0.07,0.84,0.17,1.27,0.27c0.21,0.05,0.45,0.15,0.68,0.22c0.25,0.08,0.5,0.18,0.74,0.29l0.94,0.54
					c0.15,0.1,0.34,0.15,0.45,0.29l0.25,0.48l0.64,1.22l0.51,0.94l1.05,1.86c1.42,2.49,2.9,4.96,4.41,7.41
					c3.02,4.9,6.15,9.75,9.34,14.56c6.41,9.6,13.07,19.05,19.89,28.39c3.41,4.65,6.89,9.2,10.57,13.61c0.89,1.12,1.86,2.19,2.8,3.26
					l2.85,3.2l2.95,3.11l1.48,1.55l1.54,1.49c4.02,4.02,8.35,7.73,12.93,11.1c1.13,0.85,2.32,1.6,3.48,2.41l1.79,1.11l0.89,0.55
					l0.91,0.51c1.22,0.69,2.45,1.32,3.69,1.87l0.94,0.41l0.93,0.36l0.55,0.19l0.21-0.01c0.15-0.01,0.31,0,0.46-0.02
					c2.56-0.27,5.03-1.12,7.21-2.49c1.16-0.69,2.28-1.46,3.34-2.3c0.54-0.43,1.07-0.86,1.57-1.29l1.56-1.46
					c4.18-3.9,8.32-7.95,12.29-12.09c7.98-8.24,15.21-17.16,21.62-26.67C168.25,67.57,169.53,65.58,170.75,63.54z"/>
			</g>
		</g>
	</g>
	<g id="Group_120" transform="translate(412.137 566.929)">
		<g id="Group_119" transform="translate(0 0)">
			<g id="Group_118">
				<path id="Path_75" class="st5" d="M4.15,44.47c0.01,0.11-0.03,0.21-0.1,0.29c-0.34,0.6-0.9,1.06-1.56,1.26
					c-0.71,0.17-1.56-0.08-2.5-1.18c-0.08-0.1-0.14-0.21-0.18-0.34l-0.01-1.82l0.01-1.33l0.07-1.79c-0.1-0.38,0.29-0.41,0.55-0.54
					l0.82-0.35l1.47-0.59c0.55-0.22,1.09-0.45,1.63-0.68c4.91-1.98,9.57-4.51,13.91-7.54c2.1-1.51,4.03-3.23,5.78-5.13
					c0.43-0.47,0.82-0.97,1.24-1.45s0.76-1.02,1.15-1.52c0.72-1.02,1.37-2.09,1.93-3.2c0.52-1.09,0.94-2.23,1.25-3.39
					c0,0,0.13-0.36,0.33-0.97c0.09-0.31,0.2-0.68,0.33-1.11s0.24-0.91,0.37-1.43c0.51-2.08,1.01-4.85,1.55-7.15
					C33.02,0.6,33.77-0.48,34.09,0c0.35,0.48,0.41,2.47,0.46,4.9c0.05-0.24,0.05,2.63-0.1,5.7c-0.08,1.44-0.23,2.88-0.45,4.3
					c-0.09,0.59-0.21,1.1-0.27,1.45c-0.03,0.19-0.07,0.37-0.13,0.55c-0.35,1.22-0.81,2.4-1.35,3.54
					c-2.73,5.16-6.65,9.59-11.44,12.93c-4.61,3.23-9.56,5.93-14.78,8.04l-1.9,0.79L4.15,44.47z"/>
			</g>
		</g>
	</g>
	<g id="Group_121" transform="translate(400.549 622.736)">
		<path id="Path_76" class="st5" d="M157.11,90.68c-1.33,1.66-3.01,3-4.92,3.93c-1.82,0.96-4.39,1.91-11.52,2.11
			c-5.8,0.16-16.32-0.14-16.45,0.42c-32.57,0.04-74.18-0.71-107.12-0.65c-3.06-0.06-12.09,0.72-14.69-0.98
			c-4.03-2.63-3.51-10.04,2.14-9.78c1.52,0.07,2.65,1.98,3.83,1.05c3.46-2.72-1.77-8.34-3.04-10.92c-1.43-3.12-1.8-6.61-1.05-9.96
			c1.05-5.47,6.35-9.89,11.19-11.27c5.45-1.55,10.82,0.93,14.25,5.2c3.71,4.62,3.6,10.67,7.08,15.39c0.82,1.12,1.78,2.14,2.86,3.02
			c6.16,5.04,11.11,5.31,16.47,0.37c2.87-3.34,4.97-7.28,6.15-11.52c5.03-17.1-1.34-52.42-1.34-66.93c0-0.79,20.18,0.45,20.18,0.45
			c-5.03,18.92-13.72,61.5,3.77,72.88c4.38,2.85,8.46,3.35,12.22-0.78c5.15-5.66-3.24-16.02,2.39-23.5
			c3.62-4.82,11.68-6.67,17.98-4.31c0.81,0.3,6.76,2.65,8.99,8.61c1.03,3.21,1.07,6.65,0.13,9.88c-0.73,2.96-2.94,6.19-2.77,9.28
			c0.12,2.16,2.48,2.9,4.18,2.05c2.22-1.1,3.81-3.32,5.76-4.83c3.55-2.75,9.23-4.79,14.32-3.65c5.56,1.24,10.25,6.25,11.52,12.08
			C159.8,79.09,161.1,85.54,157.11,90.68z"/>
	</g>
	<path id="Path_77" class="st2" d="M703.86,498.3c-0.47-0.76-1.29-1.23-2.19-1.26c-0.29-0.31-0.69-0.48-1.11-0.47
		c-2.48,0.01-3.3,3.99-2.72,6.71c0.63,2.93,3.17,4.73,5.18,3C704.86,504.69,705.35,500.5,703.86,498.3z"/>
	<path id="Path_78" class="st2" d="M679.59,495.28c-0.51-0.98-1.72-1.37-2.7-0.86c-0.16,0.08-0.31,0.19-0.45,0.31
		c-0.51,0.05-0.98,0.27-1.34,0.64c-0.62,0.74-0.94,1.68-0.9,2.65c-0.12,2.08,0.58,4.12,1.97,5.67c0.85,0.92,2.2,1.15,3.31,0.57
		c0.88-0.65,1.4-1.68,1.4-2.77C681.09,499.34,680.64,497.17,679.59,495.28z"/>
	<g id="Group_124" transform="translate(789.923 607.237)">
		<g id="Group_123" transform="translate(0 0)">
			<g id="Group_122">
				<path id="Path_79" class="st2" d="M-0.03,3.12c-0.08-0.07-0.12-0.17-0.12-0.27C-0.36,1.75-0.26-0.4,2.68-0.07
					C2.81-0.05,2.94,0,3.05,0.06C3.91,0.94,4.79,1.8,5.6,2.73s1.67,1.81,2.44,2.77c6.52,7.95,12.15,16.6,16.78,25.78
					c2.37,4.53,4.58,9.11,6.74,13.7s4.29,9.16,6.36,13.83c2.11,4.68,3.98,9.46,5.59,14.33c1.7,4.94,2.86,10.04,3.45,15.23
					c0.25,2.67,0.21,5.36-0.11,8.03c-0.15,1.33-0.38,2.64-0.65,3.94c-0.27,1.32-0.62,2.63-1.04,3.91c-0.06,0.17-0.11,0.33-0.18,0.5
					l-0.15,0.38l-0.11,0.28l-0.24,0.55c-0.18,0.37-0.34,0.74-0.55,1.1c-0.4,0.75-0.88,1.45-1.42,2.1c-0.3,0.33-0.63,0.64-0.98,0.93
					c-0.86,0.72-1.81,1.3-2.84,1.74c-2.45,0.97-5.06,1.48-7.7,1.51c-1.37,0.09-2.75-0.02-4.1-0.31c-0.75-0.2-0.94-0.43-0.74-0.64
					c0.4-0.43,2.37-0.83,4.63-1.45c1.7-0.47,3.36-1.07,4.98-1.78c0.31-0.15,0.61-0.31,0.9-0.46c0.26-0.15,0.51-0.31,0.76-0.48
					c0.42-0.29,0.81-0.63,1.16-1c0.34-0.36,0.64-0.75,0.91-1.17c0.34-0.46,0.63-0.94,0.88-1.45c0.13-0.26,0.25-0.53,0.37-0.81
					l0.08-0.21l0.1-0.25c0.05-0.13,0.1-0.26,0.14-0.39c0.18-0.52,0.33-1.07,0.49-1.63c1.23-4.55,1.56-9.29,0.96-13.96
					c-0.7-4.78-1.87-9.49-3.49-14.04c-1.55-4.62-3.44-9.15-5.45-13.65s-4.14-9.02-6.24-13.51s-4.27-8.93-6.56-13.29
					C16.34,24.1,10.97,15.87,4.75,8.3C4.02,7.39,3.2,6.54,2.42,5.66S0.79,3.96-0.03,3.12z"/>
			</g>
		</g>
	</g>
	<g id="Group_125" transform="translate(677.478 435.437)">
		<path id="Path_80" class="st2" d="M0.87,33.28c-1.01-4.69-1.42-7.71-0.79-12.47c0.62-4.65,4.8-11.29,8.68-14.18
			c5.68-4.25,11.68-5.27,18.26-6.73c0,0-13.22,11.78-16.58,16.86C6.94,22.07,4.06,27.78,0.87,33.28z"/>
	</g>
	<g id="Group_128" transform="translate(693.585 432.037)">
		<g id="Group_127">
			<g id="Group_126">
				<path id="Path_81" class="st6" d="M8.28-0.08C8.4-0.12,8.53-0.1,8.64-0.05c0.7,0.22,1.26,0.74,1.54,1.41
					c0.16,0.95-0.16,1.92-0.85,2.59C9.27,4.04,9.19,4.12,9.11,4.18C7.37,4.46,5.89,5.62,5.22,7.25c-0.39,0.83-0.66,1.71-0.8,2.62
					c-0.17,0.98-0.27,1.96-0.29,2.95c-0.03,2.08,0.12,4.16,0.45,6.22c0.68,4.22,1.76,8.36,3.23,12.37c1.45,3.96,3.45,7.69,5.93,11.1
					c1.25,1.66,2.64,3.21,4.17,4.62l0.27,0.25c0.06,0.06,0.12,0.12,0.18,0.17l0.38,0.32l0.76,0.64c0.5,0.44,1.05,0.81,1.59,1.21
					c0,0,0.29,0.26,0.8,0.67c0.53,0.38,1.24,0.98,2.12,1.57c1.96,1.34,4.01,2.56,6.13,3.64c1.74,0.86,2.9,1.4,3.55,1.81
					s0.78,0.68,0.53,0.83c-0.5,0.28-2.57,0.17-5.02-0.43c-0.55-0.07-1.09-0.22-1.61-0.43c-1.34-0.42-2.65-0.91-3.94-1.47
					c-0.71-0.33-1.42-0.67-2.09-0.98c-0.65-0.36-1.26-0.7-1.78-0.98s-0.94-0.58-1.24-0.76l-0.47-0.3c-0.61-0.42-1.17-0.89-1.74-1.37
					l-0.85-0.71c-0.07-0.06-0.14-0.12-0.2-0.19l-0.29-0.27l-0.63-0.59c-0.86-0.77-1.6-1.65-2.38-2.5l-1.08-1.34l-0.54-0.67l-0.5-0.7
					l-0.99-1.4l-0.9-1.45l-0.45-0.73l-0.41-0.75L6.31,38.7c-1.01-2.02-1.91-4.1-2.7-6.22c-1.53-4.22-2.65-8.58-3.34-13.02
					c-0.36-2.27-0.52-4.57-0.47-6.87c0.02-1.2,0.14-2.39,0.36-3.57C0.38,7.77,0.76,6.55,1.3,5.4C1.94,4,2.9,2.77,4.09,1.8
					C5.3,0.82,6.74,0.17,8.28-0.08z"/>
			</g>
		</g>
	</g>
	<g id="Group_131" transform="translate(751.718 498.106)">
		<g id="Group_130">
			<g id="Group_129">
				<path id="Path_82" class="st2" d="M2.75,0.74c0-0.02-0.01-0.03,0.09-0.08C4.07,0,5.48-0.23,6.85-0.02
					c0.07,0.01,0.13,0.04,0.19,0.07c0.1,0.65,0.17,1.3,0.21,1.96c0.08,1.39,0,2.79-0.22,4.16c-0.21,1.41-0.6,2.78-1.17,4.08
					c-0.28,0.62-0.61,1.22-0.98,1.78c-0.31,0.31-0.65,0.59-1.02,0.83c-0.69,0.49-1.48,0.8-2.32,0.93c-0.45,0.11-0.93,0.07-1.36-0.11
					c-0.23-0.1-0.38-0.31-0.39-0.56c0.06-0.51,0.24-0.99,0.54-1.4c-0.06-0.01,0.32-0.48,0.58-1.03c0.18-0.37,0.33-0.76,0.44-1.15
					C1.57,9.18,1.78,8.8,1.95,8.4c0.39-0.95,0.67-1.94,0.81-2.95c0.16-1.06,0.21-2.13,0.15-3.19C2.89,1.75,2.83,1.24,2.75,0.74z"/>
			</g>
		</g>
	</g>
	<g id="Group_134" transform="translate(748.638 522.725)">
		<g id="Group_133" transform="translate(0 0)">
			<g id="Group_132">
				<path id="Path_83" class="st5" d="M2.93,0.64c0.04-0.1,0.13-0.18,0.23-0.22c0.57-0.41,1.28-0.58,1.97-0.47
					c0.71,0.16,1.35,0.8,1.72,2.16c0.03,0.12,0.03,0.24,0.02,0.36C5.94,4.5,5.24,6.63,4.78,8.82c-0.7,3.25-0.85,6.6-0.43,9.9
					c0.41,3.24,1.5,6.36,3.21,9.15c0.3,0.53,0.68,1,1.03,1.5c0.38,0.47,0.75,0.96,1.16,1.4c0,0,0.23,0.29,0.63,0.78
					c0.55,0.64,1.13,1.25,1.75,1.83c1.66,1.56,3.58,2.82,5.67,3.72c0.43,0.2,0.84,0.29,1.2,0.44c0.33,0.12,0.67,0.23,1.01,0.31
					c0.3,0.09,0.57,0.17,0.82,0.24s0.45,0.11,0.64,0.17c0.72,0.23,0.94,0.44,0.74,0.66c-0.52,0.34-1.12,0.53-1.74,0.57
					c-1.14,0.13-2.3,0.09-3.44-0.11c0.06,0.03-0.08,0.01-0.38-0.05c-0.15-0.03-0.34-0.07-0.57-0.11S15.6,39.08,15.32,39
					c-1.41-0.42-2.76-1.01-4.03-1.75c-1.3-0.75-2.53-1.63-3.67-2.62c-0.46-0.41-0.83-0.78-1.1-1.03s-0.41-0.41-0.41-0.41
					c-0.82-0.96-1.56-1.97-2.23-3.04C2.84,28.52,2,26.76,1.38,24.91c-0.62-1.82-1.06-3.7-1.33-5.61c-0.49-3.79-0.33-7.63,0.47-11.37
					C1.05,5.42,1.86,2.97,2.93,0.64z"/>
			</g>
		</g>
	</g>
	<g id="Group_137" transform="translate(800.921 523.556)">
		<g id="Group_136">
			<g id="Group_135">
				<path id="Path_84" class="st5" d="M4.41,7.48c0,0.01,0,0.02-0.1,0.04c-1.34,0.26-2.71,0.3-4.06,0.1
					C0.18,7.61,0.12,7.6,0.06,7.58c-0.01-0.07-0.27-5.4-0.27-5.4c0.26-0.57,0.61-1.09,1.03-1.56C1.2-0.07,2.07-0.31,2.76,0.07
					c0.17,0.1,0.33,0.23,0.45,0.39c0.35,0.47,0.65,0.98,0.9,1.52C4.11,1.98,4.41,7.4,4.41,7.48z"/>
			</g>
		</g>
	</g>
	<g id="Group_140" transform="translate(781.851 540.577)">
		<g id="Group_139" transform="translate(0 0)">
			<g id="Group_138">
				<path id="Path_85" class="st5" d="M1.7,22.97c-0.11,0.02-0.23,0-0.33-0.06c-0.67-0.23-1.21-0.73-1.49-1.38
					c-0.24-0.68-0.03-1.57,0.85-2.64C0.81,18.81,0.9,18.73,1,18.67c2.1-0.35,4.12-1.1,5.94-2.21c0.33-0.22,0.69-0.39,1.01-0.64
					l0.97-0.72c0.49-0.36,0.92-0.8,1.38-1.19c0.45-0.41,0.85-0.88,1.28-1.31c0,0,0.08-0.06,0.2-0.18s0.3-0.31,0.52-0.54
					s0.5-0.5,0.79-0.82s0.6-0.71,0.94-1.1c1.46-1.84,2.76-3.81,3.87-5.88c0.88-1.7,1.4-2.87,1.79-3.52s0.66-0.8,0.82-0.55
					c0.19,0.58,0.25,1.19,0.17,1.79c-0.03,0.51-0.1,1.01-0.19,1.51c-0.09,0.6-0.22,1.19-0.38,1.77C19.6,7,18.88,8.85,17.94,10.6
					c-0.36,0.7-0.74,1.4-1.15,2.04c-0.2,0.32-0.39,0.63-0.58,0.92s-0.4,0.55-0.57,0.8c-0.39,0.56-0.81,1.1-1.26,1.61
					c-0.85,0.92-1.78,1.77-2.76,2.55l-1.18,0.88c-0.39,0.29-0.83,0.53-1.25,0.8C6.89,21.59,4.35,22.53,1.7,22.97z"/>
			</g>
		</g>
	</g>
	<g id="Group_143" transform="translate(759.054 618.193)">
		<g id="Group_142" transform="translate(0 0)">
			<g id="Group_141">
				<path id="Path_86" class="st2" d="M44.86,2.72c0.11,0.1,0.18,0.23,0.2,0.38c0.1,0.4,0.11,0.81,0.04,1.21
					c-0.08,0.37-0.28,0.71-0.57,0.96c-0.33,0.23-0.72,0.36-1.12,0.36c-0.45,0.03-0.97-0.02-1.53,0.01c-0.09,0-0.17,0-0.26-0.02
					c-0.55-0.55-1.26-0.92-2.02-1.07c-0.99-0.23-2-0.33-3.01-0.31c-0.7,0.01-1.39,0.05-2.09,0.13c-0.73,0.08-1.47,0.13-2.21,0.23
					c-1.47,0.17-2.94,0.37-4.4,0.6C24.98,5.67,22.08,6.27,19.2,7c-1.27,0.32-2.53,0.68-3.79,1.03l-1.05,0.24
					c-0.66,0.15-1.59,0.36-2.66,0.62c-2.14,0.52-4.83,1.23-7.07,1.82c-1.27,0.41-2.57,0.73-3.89,0.98c-0.76,0.1-1.03-0.01-0.94-0.29
					C0,10.85,1.66,9.64,3.84,8.45c1.68-0.93,3.41-1.76,5.18-2.48c1.4-0.6,2.82-1.17,3.9-1.57s1.82-0.67,1.82-0.67
					c1.12-0.33,2.26-0.64,3.39-0.92c3-0.76,6.03-1.39,9.07-1.88c1.52-0.24,3.06-0.46,4.6-0.64c0.77-0.1,1.54-0.16,2.3-0.24
					c0.74-0.08,1.61-0.14,2.44-0.15c1.39-0.03,2.78,0.12,4.13,0.44c0.75,0.19,1.47,0.46,2.16,0.82C43.6,1.55,44.29,2.08,44.86,2.72z
					"/>
			</g>
		</g>
	</g>
	<g id="Group_146" transform="translate(700.877 601.464)">
		<g id="Group_145" transform="translate(0 0)">
			<g id="Group_144">
				<path id="Path_87" class="st2" d="M33.04,19.49c0.06,0.09,0.07,0.2,0.04,0.31c-0.1,1.19-0.94,3.05-3.6,1.89
					c-0.11-0.06-0.21-0.13-0.31-0.21c-0.99-2-2.21-3.89-3.62-5.61c-2.31-2.58-5.12-4.67-8.26-6.14c-1.17-0.61-2.35-1.21-3.53-1.79
					c0,0-1.4-0.82-3.32-1.88S6.05,3.74,3.98,2.7C0.44,1.06-0.62,0.35-0.1,0.04c0.51-0.29,2.56-0.11,4.99,0.44
					c1.88,0.41,3.73,0.95,5.53,1.61c2.88,0.99,5.74,2.21,5.74,2.21c1.05,0.52,2.09,1.05,3.11,1.59c1.76,0.89,3.45,1.9,5.07,3.04
					c1.66,1.19,3.17,2.57,4.5,4.12C30.49,15.03,31.89,17.19,33.04,19.49z"/>
			</g>
		</g>
	</g>
	<g id="Group_149" transform="translate(633.456 711.213)">
		<g id="Group_148" transform="translate(0 0)">
			<g id="Group_147">
				<path id="Path_88" class="st2" d="M1.4,11.81c-0.11,0.01-0.22-0.03-0.31-0.1C0.45,11.38-0.02,10.8-0.2,10.1
					c-0.02-0.98,0.45-1.9,1.24-2.46c0.09-0.08,0.19-0.14,0.31-0.17C3.6,7.43,6.01,7.22,8.36,7.01c3.1-0.28,6.21-0.62,9.31-0.99
					c1.54-0.19,3.11-0.38,4.59-0.61c1.47-0.24,2.92-0.56,4.35-0.97c1.44-0.41,2.85-0.9,4.23-1.46c1.38-0.54,2.74-1.24,4.32-1.89
					c1.71-0.76,3.55-1.16,5.42-1.19c0.99,0.03,1.97,0.19,2.91,0.5c0.83,0.27,1.65,0.59,2.44,0.96l1.08,0.5l0.51,0.23l0.46,0.17
					c0.62,0.24,1.33,0.45,2.05,0.66c1.44,0.4,2.93,0.74,4.44,1.05c3.01,0.62,6.08,1.12,9.14,1.53c1.53,0.2,3.06,0.38,4.56,0.48
					c0.75,0.05,1.48,0.08,2.19,0.08l2.35,0.01l9.43,0.06l61.59,0.35c0,0,6.61,0.48,11.24,1.17c7.86,0.97,4.71,1.91-0.17,2.4
					c0.51,0.1-11.66,0.75-11.66,0.75l-62.25-0.34l-9.27-0.05l-1.16-0.01c-0.42-0.01-0.84,0-1.26-0.02
					c-0.82-0.03-1.63-0.09-2.42-0.16c-1.59-0.15-3.15-0.33-4.71-0.55c-3.11-0.43-6.2-0.96-9.29-1.61c-1.55-0.34-3.09-0.7-4.66-1.16
					l-1.19-0.38c-0.41-0.15-0.84-0.32-1.24-0.48l-2.09-0.94C43,4.82,42.38,4.6,41.75,4.43c-0.54-0.14-1.1-0.2-1.66-0.17
					C38.8,4.4,37.54,4.75,36.37,5.3c-1.31,0.56-2.79,1.28-4.3,1.87c-1.51,0.6-3.05,1.11-4.61,1.54c-1.57,0.43-3.16,0.78-4.77,1.03
					c-1.59,0.24-3.12,0.43-4.67,0.61c-3.09,0.37-6.18,0.7-9.28,0.99C6.34,11.54,3.96,11.76,1.4,11.81z"/>
			</g>
		</g>
	</g>
	<g id="Group_152" transform="translate(466.134 625.247)">
		<g id="Group_151" transform="translate(0 0)">
			<g id="Group_150">
				<path id="Path_89" class="st2" d="M-0.21,1.56c-0.01-0.1,0.02-0.21,0.08-0.29c0.3-0.61,0.83-1.07,1.47-1.3
					c0.98-0.2,1.97,0.24,2.48,1.1c0.07,0.1,0.13,0.21,0.16,0.34L3.81,8.62L3.49,22.54L3.4,26.56c0,0-0.34,6.62-0.37,11.25
					c-0.03,3.93,0.03,5.11,0.01,4.7s-0.11-2.42-0.29-4.85c0.01,0.25-0.19-2.65-0.45-5.63s-0.57-6.01-0.57-6.01l-0.27-3.44L0.35,8.74
					L-0.21,1.56z"/>
			</g>
		</g>
	</g>
	<g id="Group_155" transform="translate(471.598 627.072)">
		<g id="Group_154">
			<g id="Group_153">
				<path id="Path_90" class="st2" d="M1.17,1.32c0-0.1,0.04-0.2,0.11-0.27c0.37-0.57,0.94-0.97,1.6-1.12
					C3.6-0.2,4.46,0.09,5.23,1.29c0.06,0.11,0.1,0.23,0.13,0.35L4.37,8.8L2.48,22.59l-0.54,3.99c0,0-1.08,6.54-1.64,11.14
					c-0.47,3.9-0.54,5.08-0.51,4.67s0.16-2.41,0.26-4.85c-0.02,0.25,0.11-2.66,0.19-5.64s0.11-6.03,0.11-6.03l0.12-3.45L0.93,8.52
					L1.17,1.32z"/>
			</g>
		</g>
	</g>
	<g id="Group_158" transform="translate(418.318 679.651)">
		<g id="Group_157">
			<g id="Group_156">
				<path id="Path_91" class="st2" d="M11.91,11.49c0,0.01,0,0.01,0.02,0.08c0.03,0.29,0.26,0.65-0.07,0.05
					c-0.01-0.01-0.05-0.08-0.06-0.09c-0.02-0.03-0.4-0.73-1.03-1.7c-0.31-0.48-0.7-1.03-1.13-1.59S8.72,7.13,8.22,6.6
					C7.95,6.34,7.7,6.07,7.44,5.83S6.92,5.37,6.66,5.16S6.15,4.77,5.9,4.59c-0.25-0.15-0.49-0.3-0.7-0.44
					c-0.35-0.2-0.7-0.37-1.07-0.53C3.86,3.53,3.72,3.47,3.72,3.47S3.63,3.42,3.49,3.33S3.13,3.14,2.89,3.01
					C2.65,2.84,2.37,2.75,2.08,2.59C1.8,2.41,1.48,2.34,1.19,2.17c-1-0.36-1.47-0.77-1.4-1.2c0.07-0.25,0.24-0.47,0.47-0.59
					c0.32-0.22,0.69-0.35,1.08-0.4C1.3-0.05,1.53-0.08,1.91-0.1c0.48,0,0.96,0.05,1.42,0.15c0.48,0.12,0.94,0.26,1.4,0.44
					c0.36,0.17,0.59,0.29,0.59,0.29s0.19,0.12,0.49,0.34c0.4,0.32,0.78,0.66,1.14,1.02c0.49,0.5,0.95,1.03,1.38,1.59
					C8.56,4.04,8.77,4.37,9,4.69C9.2,5.02,9.4,5.36,9.6,5.7c0.18,0.35,0.36,0.69,0.55,1.03c0.16,0.35,0.32,0.69,0.48,1.02
					c0.29,0.67,0.53,1.3,0.72,1.85C11.71,10.7,11.9,11.45,11.91,11.49z"/>
			</g>
		</g>
	</g>
	<g id="Group_161" transform="translate(432.072 677.599)">
		<g id="Group_160" transform="translate(0 0)">
			<g id="Group_159">
				<path id="Path_92" class="st2" d="M37.12,1.48V1.2c0.03-0.96-0.08-2.34,0.07-0.06c0.01,0.06,0.02,0.26,0.03,0.34
					c0.04,0.6,0.07,1.2,0.1,1.8s0.06,1.2,0.06,1.8l0.03,1.81l-0.03,1.81c-0.01,0.88-0.08,1.75-0.13,2.63
					c-0.07,0.87-0.17,1.75-0.26,2.63c-0.22,1.76-0.56,3.5-1.01,5.21l-0.36,1.28c-0.12,0.43-0.29,0.84-0.44,1.26
					s-0.29,0.84-0.47,1.26l-0.56,1.22c-0.38,0.82-0.81,1.61-1.28,2.38c-0.46,0.78-1.03,1.49-1.55,2.23
					c-0.61,0.67-1.18,1.39-1.85,2.02l-1.02,0.92l-0.51,0.46l-0.56,0.4l-1.12,0.8l-0.29,0.21c-0.07,0.06-0.16,0.11-0.24,0.14
					l-0.17,0.08l-0.61,0.29c-0.82,0.37-1.66,0.71-2.53,1.01c-1.74,0.63-3.55,1.05-5.39,1.26c-1.9,0.22-3.83,0.11-5.69-0.31
					c-0.36-0.07-0.72-0.2-1.08-0.29s-0.72-0.25-1.08-0.38c-0.36-0.14-0.7-0.3-1.03-0.49c-0.17-0.09-0.34-0.17-0.5-0.27l-0.47-0.29
					c0,0-0.1-0.06-0.27-0.18c-0.25-0.17-0.49-0.35-0.71-0.54c-0.8-0.64-1.54-1.35-2.2-2.12c-0.84-1.01-1.57-2.11-2.18-3.28
					c-0.6-1.16-1.08-2.39-1.41-3.65c-0.42-1.32-0.62-2.7-0.59-4.08c0.05-0.78,0.24-1,0.48-0.84c0.51,0.31,1.21,2.17,2.25,4.24
					c0.26,0.43,0.5,0.88,0.72,1.34c0.59,1.09,1.29,2.13,2.07,3.1C6.1,29.32,7,30.18,7.99,30.92c0.2,0.15,0.39,0.29,0.56,0.41
					s0.33,0.2,0.45,0.28c0.25,0.16,0.39,0.24,0.39,0.24l0.64,0.38c0.21,0.13,0.43,0.24,0.66,0.33c0.22,0.11,0.45,0.2,0.69,0.28
					c0.24,0.08,0.47,0.18,0.73,0.24c1.52,0.44,3.11,0.63,4.7,0.54c1.64-0.08,3.27-0.36,4.85-0.82c0.8-0.22,1.6-0.5,2.39-0.79
					l0.59-0.23l0.13-0.06l0.04-0.02l0.25-0.16l1.05-0.66l0.53-0.34l0.49-0.39l0.98-0.78c0.64-0.53,1.19-1.16,1.8-1.74
					c0.51-0.66,1.08-1.28,1.56-1.98c0.49-0.69,0.93-1.41,1.33-2.15l0.6-1.12c0.19-0.38,0.34-0.78,0.52-1.17s0.36-0.78,0.5-1.18
					l0.43-1.22c0.54-1.64,0.97-3.31,1.3-5c0.14-0.85,0.29-1.71,0.41-2.57c0.09-0.87,0.22-1.72,0.29-2.59l0.14-1.79l0.08-1.79
					c0.03-0.6,0.03-1.2,0.05-1.8C37.11,2.68,37.12,2.08,37.12,1.48z"/>
			</g>
		</g>
	</g>
	<g id="Group_164" transform="translate(540.358 692.433)">
		<g id="Group_163">
			<g id="Group_162">
				<path id="Path_93" class="st2" d="M0.05,2.5c-0.01,0,0,0-0.05,0.01c-0.18,0.02-0.35,0.2-0.05-0.07C-0.04,2.43-0.02,2.4-0.01,2.4
					C0.28,2.13,0.58,1.87,0.9,1.64C1.22,1.4,1.56,1.18,1.91,0.99C2.33,0.76,2.76,0.57,3.2,0.4c0.46-0.16,0.93-0.29,1.41-0.37
					C5.05-0.04,5.48-0.08,5.92-0.1c0.44-0.01,0.87,0.02,1.31,0.07c0,0,0.08,0.03,0.21,0.08s0.31,0.15,0.5,0.27
					C8.38,0.6,8.74,0.97,9.01,1.41C9.39,1.84,9.4,2.5,9.01,2.93C8.7,3.21,8.28,3.35,7.87,3.3c0.01,0.06-0.42-0.06-0.82-0.16
					c-0.2-0.06-0.41-0.1-0.56-0.15S6.23,2.93,6.23,2.93S6.16,2.88,6.02,2.8S5.69,2.63,5.44,2.52c-0.13-0.05-0.27-0.1-0.42-0.16
					S4.7,2.26,4.53,2.21S4.17,2.13,3.98,2.1C3.79,2.06,3.6,2.05,3.4,2.03C3,2,2.61,2,2.21,2.04C1.85,2.07,1.49,2.12,1.13,2.2
					C0.76,2.27,0.4,2.37,0.05,2.5z"/>
			</g>
		</g>
	</g>
	<g id="Group_167" transform="translate(520.087 688.045)">
		<g id="Group_166">
			<g id="Group_165">
				<path id="Path_94" class="st2" d="M1.17,1.37c0.02-0.06,0.02-0.05,0.1-0.27c0.17-0.45,0.41-0.98,0.46-1.16
					C1.61,0.33,1.51,0.71,1.43,1.1C1.41,1.16,1.37,1.38,1.36,1.43C1.22,2.02,1.11,2.6,1.03,3.19s-0.16,1.18-0.2,1.77
					C0.81,5.25,0.79,5.54,0.79,5.84S0.78,6.42,0.8,6.72S0.82,7.3,0.86,7.59s0.05,0.58,0.11,0.86L1.1,9.14l0.19,0.68
					c0.06,0.22,0.14,0.44,0.23,0.66l0.12,0.32c0.04,0.1,0.1,0.2,0.15,0.31c0.13,0.28,0.27,0.54,0.44,0.8l0.24,0.38
					c0.09,0.12,0.18,0.24,0.28,0.36l0.29,0.35c0.1,0.12,0.21,0.23,0.33,0.33l0.34,0.32c0.11,0.11,0.22,0.19,0.34,0.29
					c0,0,0.06,0.06,0.19,0.17c0.06,0.06,0.13,0.13,0.22,0.2s0.2,0.13,0.31,0.2s0.24,0.16,0.38,0.25c0.15,0.06,0.31,0.13,0.48,0.2
					c0.18,0.08,0.37,0.14,0.56,0.17c0.2,0.06,0.42,0.09,0.63,0.1c1.03,0.06,2.06-0.1,3.02-0.49c1.06-0.42,2.05-0.97,2.97-1.64
					c1.01-0.78,1.98-1.61,2.9-2.49c0.56-0.49,0.86-0.57,0.94-0.28c0.15,0.54-0.64,2.65-2.63,4.43c-0.4,0.42-0.86,0.79-1.36,1.1
					c-1.26,0.85-2.69,1.42-4.19,1.67c-0.44,0.05-0.87,0.07-1.31,0.06C6.7,17.56,6.27,17.5,5.85,17.4c-0.4-0.08-0.79-0.21-1.17-0.39
					c-0.34-0.14-0.67-0.32-0.96-0.54c-0.25-0.17-0.5-0.36-0.73-0.56c-0.18-0.19-0.34-0.35-0.47-0.49c-0.27-0.27-0.39-0.43-0.39-0.43
					l-0.57-0.73l-0.5-0.82c-0.16-0.27-0.28-0.57-0.41-0.86C0.52,12.29,0.41,12,0.31,11.7c-0.04-0.13-0.09-0.25-0.13-0.38L0.1,10.92
					c-0.07-0.26-0.12-0.52-0.16-0.78l-0.1-0.78l-0.04-0.78C-0.23,8.26-0.2,7.95-0.2,7.63s0.04-0.62,0.06-0.93s0.07-0.61,0.12-0.92
					s0.1-0.61,0.16-0.91c0.12-0.6,0.27-1.19,0.45-1.77S0.95,1.94,1.17,1.37z"/>
			</g>
		</g>
	</g>
	<g id="Group_170" transform="translate(508.263 669.145)">
		<g id="Group_169" transform="translate(0 0)">
			<g id="Group_168">
				<path id="Path_95" class="st2" d="M0.44,0.66c-0.02,0-0.01,0-0.12,0.01c-0.41,0-0.96,0.17-0.04-0.08
					C0.31,0.59,0.4,0.56,0.42,0.55s0.31-0.09,0.78-0.2C1.85,0.2,2.5,0.09,3.16,0.02C5.19-0.25,7.26-0.1,9.23,0.46
					c1.1,0.32,2.14,0.84,3.07,1.52c0.44,0.33,0.85,0.69,1.24,1.08c0.33,0.37,0.64,0.75,0.92,1.16c0.42,0.61,0.77,1.26,1.05,1.95
					c0.11,0.26,0.2,0.52,0.29,0.78c0.13,0.59,0.21,1.19,0.22,1.8c0.04,1.11-0.11,2.22-0.44,3.28c-0.48,1.67-1.08,2.06-1.45,1.84
					c-0.4-0.22-0.62-1.08-0.74-2.04c-0.06,0.1-0.09-1.05-0.24-2.16c-0.09-0.73-0.23-1.45-0.43-2.15c0,0-0.03-0.22-0.12-0.6
					c-0.04-0.19-0.1-0.42-0.19-0.68s-0.21-0.52-0.33-0.83c-0.33-0.69-0.77-1.31-1.31-1.85c-0.65-0.66-1.4-1.2-2.23-1.61
					C7.65,1.52,6.73,1.2,5.78,0.99C4.92,0.79,4.04,0.68,3.16,0.63C2.52,0.59,1.88,0.59,1.24,0.62C0.76,0.63,0.47,0.66,0.44,0.66z"/>
			</g>
		</g>
	</g>
	<g id="Group_173" transform="translate(501.801 675.01)">
		<g id="Group_172" transform="translate(0 0)">
			<g id="Group_171">
				<path id="Path_96" class="st2" d="M2.26,18.99c0.01,0.04,0.03,0.09,0.03,0.13c0.02,0.08,0.06,0.21,0.1,0.36
					c0.01,0.04,0.03,0.1,0.04,0.15c-0.01,0.05,0.22,0.01,0.27,0.03c-0.08,0.05-0.17,0.08-0.26,0.1L2.3,19.78
					c-0.03-0.01,0.04-0.04,0.09-0.08s0.06-0.07,0.04-0.1l-0.03-0.11c-0.03-0.1-0.06-0.22-0.09-0.34C2.29,19.1,2.28,19.04,2.26,18.99
					c-0.33-1.16-0.63-2.33-0.91-3.49c-0.22-0.93-0.44-1.86-0.62-2.8s-0.36-1.89-0.52-2.84c-0.06-0.34-0.1-0.66-0.15-1
					s-0.1-0.67-0.13-1.01c0,0-0.09-0.83-0.13-1.96c-0.01-0.57-0.03-1.2,0.02-1.85c0.03-0.64,0.11-1.29,0.2-1.87
					c0.07-0.41,0.16-0.81,0.27-1.22c0.07-0.25,0.17-0.5,0.28-0.73c0.17-0.34,0.31-0.41,0.38-0.29c0.13,0.8,0.11,1.62-0.06,2.42
					C0.87,2.63,0.85,2.89,0.8,3.15C0.75,3.67,0.68,4.39,0.65,5.12C0.57,6.59,0.61,8.1,0.61,8.1c0.01,0.57,0.02,1.15,0.06,1.71
					c0.06,0.95,0.15,1.9,0.28,2.84s0.29,1.89,0.47,2.82C1.66,16.66,1.94,17.84,2.26,18.99z"/>
			</g>
		</g>
	</g>
	<g id="Group_176" transform="translate(471.102 689.852)">
		<g id="Group_175">
			<g id="Group_174">
				<path id="Path_97" class="st2" d="M0.54,1.47C0.53,1.4,0.53,1.39,0.5,1.19S0.43,0.75,0.37,0.46c-0.01-0.09-0.03-0.2-0.06-0.3
					C0.29,0.12,0.17,0.1,0.04,0.08c-0.08-0.02-0.26-0.03-0.26-0.05c0.17-0.07,0.36-0.12,0.54-0.13c0.1-0.01,0.2-0.01,0.3,0
					C0.7-0.08,0.55-0.03,0.48,0.03C0.35,0.09,0.29,0.15,0.33,0.22l0.04,0.23C0.4,0.66,0.45,0.89,0.49,1.13
					C0.5,1.17,0.52,1.37,0.54,1.47c0.13,0.59,0.24,1.18,0.4,1.76L1.17,4.1c0.08,0.29,0.17,0.57,0.26,0.86
					C1.59,5.54,1.8,6.1,2.01,6.66c0.1,0.29,0.22,0.56,0.34,0.83l0.36,0.82c0.32,0.63,0.62,1.27,1,1.86
					c0.36,0.61,0.75,1.19,1.17,1.76c0.43,0.55,0.89,1.08,1.39,1.58c0.24,0.26,0.5,0.5,0.77,0.72c0.27,0.22,0.52,0.46,0.81,0.66
					l0.86,0.59c0.29,0.2,0.61,0.34,0.9,0.52l0.45,0.25l0.48,0.2c0.32,0.13,0.64,0.28,0.96,0.38c0.66,0.2,1.32,0.41,2,0.54
					c0.67,0.15,1.35,0.26,2.04,0.33c0.65,0.02,1.29,0.1,1.94,0.06c0.32-0.01,0.64-0.01,0.96-0.03l0.96-0.1l0.28-0.02
					c0.18-0.03,0.44-0.07,0.77-0.12c0.39-0.05,0.77-0.12,1.15-0.22c0.48-0.1,0.95-0.22,1.42-0.38c2.21-0.66,4.26-1.8,5.98-3.34
					c0.57-0.52,1.1-1.08,1.6-1.68c0.2-0.24,0.41-0.44,0.56-0.64c0.13-0.17,0.27-0.34,0.42-0.5c0.52-0.54,0.81-0.64,0.91-0.36
					c0.04,0.61-0.08,1.22-0.36,1.77c-0.47,1.05-1.13,2-1.94,2.81c0.06-0.04-0.04,0.07-0.26,0.29c-0.11,0.1-0.25,0.24-0.41,0.4
					c-0.18,0.14-0.38,0.3-0.61,0.47c-1.15,0.87-2.42,1.56-3.77,2.05c-0.73,0.27-1.47,0.49-2.23,0.66c-0.66,0.14-1.33,0.24-2,0.31
					c-0.59,0.05-1.08,0.11-1.43,0.1s-0.54,0.01-0.54,0.01c-0.3-0.01-0.6,0-0.89-0.03l-0.89-0.08c-0.3-0.01-0.59-0.08-0.89-0.12
					l-0.88-0.14c-0.71-0.17-1.43-0.31-2.12-0.54c-0.7-0.2-1.38-0.48-2.05-0.74c-0.34-0.14-0.66-0.32-0.98-0.48l-0.48-0.25
					l-0.46-0.29c-0.3-0.2-0.62-0.38-0.91-0.6l-0.85-0.67c-0.55-0.47-1.06-0.97-1.54-1.52c-0.48-0.53-0.92-1.09-1.34-1.68
					c-0.38-0.6-0.79-1.19-1.12-1.83C3.18,9.67,2.89,9.02,2.59,8.38C2.37,7.82,2.12,7.26,1.93,6.69s-0.4-1.13-0.55-1.72
					C1.21,4.4,1.06,3.82,0.92,3.24S0.67,2.05,0.54,1.47z"/>
			</g>
		</g>
	</g>
	<g id="Group_179" transform="translate(542.824 539.655)">
		<g id="Group_178" transform="translate(0 0)">
			<g id="Group_177">
				<path id="Path_98" class="st2" d="M142.81,92.53c0.09,0.06,0.14,0.16,0.15,0.27c0.35,1.09,0.42,3.2-2.51,3.19
					c-0.13,0-0.25-0.03-0.37-0.08l-5.54-4.62l-11.78-9.81c-0.98-0.81-1.97-1.63-2.96-2.51s-1.93-1.76-2.87-2.65
					s-1.85-1.81-2.76-2.72l-1.36-1.37c-0.43-0.43-0.86-0.85-1.31-1.27c-1.78-1.67-3.75-3.24-5.73-4.89c-0.98-0.82-2-1.7-2.94-2.53
					l-2.87-2.55c-3.81-3.41-7.59-6.86-11.34-10.34s-7.47-6.99-11.17-10.5l-5.54-5.29l-2.77-2.65l-0.8-0.76
					c-0.11-0.12-0.21-0.24-0.29-0.38l-0.15-0.2l-0.28-0.39l-1.11-1.55L57.59,16.5l-4.46-6.22c-0.68-0.98-1.42-1.92-2.21-2.82
					c-0.37-0.41-0.76-0.79-1.17-1.16c-0.2-0.17-0.41-0.34-0.6-0.48L48.69,5.5l-0.28-0.21c-1.15-0.73-2.49-1.11-3.85-1.07
					c-1.51,0.03-3.01,0.35-4.4,0.95c-1.55,0.66-3.04,1.43-4.48,2.31c-1.49,0.86-2.93,1.79-4.32,2.8c-2.77,1.99-5.33,4.41-8.19,6.74
					c-0.72,0.58-1.45,1.15-2.2,1.7c-0.2,0.14-0.3,0.24-0.74,0.53l-0.74,0.36c-0.38,0.19-0.75,0.38-1.12,0.57
					c-1.47,0.8-2.87,1.71-4.19,2.74c-1.35,1.04-2.7,2.19-4.09,3.34c-0.81,0.68-1.59,1.18-2.3,1.69s-1.42,1.01-2.06,1.51
					c-0.32,0.25-0.63,0.51-0.89,0.76c-0.14,0.12-0.28,0.27-0.36,0.34l-0.01,0.01c-0.01,0.01,0,0.01,0,0.02l0.01,0.01l0,0l0.24,0.05
					l0.2,0.03l0.43,0.07l0.45,0.08c0.09,0.01,0.15,0.02,0.18,0.03l0.14,0.01l0.27,0.03h0.66L7.4,30.9c0.25-0.02,0.49-0.04,0.74-0.08
					c0,0,0.64-0.03,1.72-0.18c1.4-0.22,2.79-0.52,4.16-0.89c1.49-0.39,3.11-0.91,4.52-1.4c1.81-0.68,2.99-1.15,3.72-1.38
					s1.02-0.15,0.97,0.14c-0.09,0.57-1.59,2.07-3.72,3.44c-1.35,0.91-2.79,1.69-4.29,2.33c-1.51,0.7-3.06,1.28-4.65,1.75
					c-0.7,0.2-1.31,0.35-1.75,0.43c-0.43,0.1-0.71,0.13-0.71,0.13c-0.33,0.03-0.64,0.06-0.98,0.07s-0.69,0.01-1.05-0.01L5.5,35.18
					c-0.17-0.02-0.41-0.05-0.51-0.07l-0.81-0.14l-0.16-0.03l-0.36-0.07l-0.27-0.06c-0.1-0.02-0.21-0.06-0.31-0.08
					c-0.81-0.18-1.56-0.58-2.16-1.15c-0.56-0.57-0.93-1.31-1.06-2.1c-0.03-0.2-0.05-0.4-0.06-0.59c0-0.2,0.02-0.4,0.06-0.59
					c0.03-0.2,0.08-0.39,0.13-0.58c0.04-0.2,0.12-0.39,0.22-0.56c0.09-0.19,0.19-0.37,0.3-0.54l0.38-0.5
					c0.12-0.17,0.25-0.33,0.4-0.47l0.3-0.3c0.37-0.36,0.74-0.68,1.1-0.98c0.73-0.6,1.46-1.12,2.18-1.63s1.46-1.01,2.03-1.44
					l0.19-0.15l0.24-0.2l0.49-0.41l0.99-0.82c1.32-1.1,2.7-2.23,4.2-3.28c1.5-1.05,3.08-1.97,4.73-2.77l0.3-0.15
					c-0.02,0.01-0.01,0.01-0.01,0l0.45-0.33c0.34-0.24,0.66-0.5,0.98-0.75c0.65-0.5,1.29-1.03,1.94-1.57
					c2.56-2.15,5.17-4.55,8.13-6.6c1.46-1.03,3.02-1.98,4.51-2.84c1.57-0.95,3.22-1.76,4.92-2.44c1.86-0.73,3.84-1.1,5.84-1.08
					c2.15,0.01,4.25,0.64,6.05,1.83l0.49,0.36c-0.12-0.08,0.01,0.01,0.09,0.06l0.24,0.17c0.31,0.23,0.61,0.47,0.89,0.71
					c0.55,0.48,1.06,0.99,1.55,1.53c0.9,1.02,1.73,2.09,2.51,3.2l4.47,6.22l8.93,12.42l1.12,1.55l0.28,0.39l0.13,0.18l0,0l0.59,0.56
					l2.76,2.65l5.53,5.28c3.69,3.51,7.4,7,11.12,10.47c3.72,3.47,7.48,6.9,11.28,10.29l2.85,2.53c0.96,0.86,1.87,1.65,2.85,2.46
					c1.93,1.61,3.96,3.23,5.91,5.05c0.49,0.45,0.97,0.93,1.44,1.4l1.34,1.35c0.89,0.9,1.79,1.78,2.69,2.65s1.82,1.72,2.74,2.53
					s1.89,1.62,2.88,2.44l11.75,9.77L142.81,92.53z"/>
			</g>
		</g>
	</g>
	<g id="Group_182" transform="translate(558.428 540.097)">
		<g id="Group_181" transform="translate(0 0)">
			<g id="Group_180">
				<path id="Path_99" class="st2" d="M24.31,0.09c0.11,0,0.21,0.05,0.28,0.13c0.93,0.68,2.16,2.36-0.24,4.06
					c-0.11,0.07-0.23,0.12-0.35,0.15c-2.29-0.2-4.6-0.23-6.89-0.11c-1.05,0.06-2.09,0.21-3.12,0.43c-1.1,0.23-2.17,0.63-3.15,1.19
					C10.77,5.96,10.7,6,10.63,6.04l-0.58,0.31C9.8,6.48,9.54,6.69,9.22,6.89C8.88,7.15,8.55,7.44,8.25,7.74
					C7.47,8.54,6.76,9.4,6.14,10.33c-0.71,1.02-1.45,2.12-2.23,3.07c-0.82,1.16-1.9,2.11-3.15,2.79c-0.72,0.34-1,0.27-0.97-0.03
					c0.03-0.22,0.11-0.42,0.23-0.61c0.14-0.24,0.33-0.54,0.53-0.9c0.52-0.85,0.99-1.73,1.4-2.64c0.17-0.49,0.38-0.96,0.62-1.42
					C3.11,9.3,3.72,8.04,4.4,6.82c0.79-1.39,1.82-2.64,3.04-3.68c0.54-0.41,0.99-0.76,1.33-0.96l0.53-0.31
					c1.18-0.6,2.44-1.05,3.74-1.34c1.25-0.28,2.51-0.46,3.78-0.54C19.31-0.16,21.82-0.12,24.31,0.09z"/>
			</g>
		</g>
	</g>
	<g id="Group_185" transform="translate(553.212 539.05)">
		<g id="Group_184">
			<g id="Group_183">
				<path id="Path_100" class="st2" d="M20.63,0.24c0.11,0.01,0.21,0.06,0.28,0.15c0.55,0.43,0.91,1.06,1,1.76
					c0.04,0.73-0.38,1.52-1.59,2.26c-0.11,0.06-0.22,0.11-0.34,0.13c-2.14-0.36-4.32-0.38-6.46-0.06c-1.48,0.22-2.88,0.82-4.05,1.75
					C8.7,6.86,8.09,7.69,7.7,8.62c0,0-0.14,0.3-0.38,0.8c-0.14,0.32-0.25,0.64-0.34,0.98c-0.06,0.19-0.13,0.39-0.2,0.61
					s-0.11,0.5-0.17,0.75c-0.24,1.06-0.47,2.3-0.8,3.61c-0.31,1.35-0.84,2.63-1.57,3.81c-0.51,0.79-1.18,1.46-1.97,1.96
					C2,21.32,1.72,21.47,1.42,21.59c-0.21,0.1-0.44,0.18-0.67,0.23C-0.02,22-0.28,21.88-0.2,21.6c0.27-0.49,0.61-0.93,1.01-1.31
					c0.59-0.68,1.04-1.47,1.33-2.32c-0.07,0.08,0.14-0.41,0.31-1.32c0.2-1.25,0.31-2.51,0.34-3.77c0.03-0.74,0.08-1.52,0.14-2.24
					c0.1-0.78,0.22-1.55,0.34-2.19c0.2-0.65,0.37-1.19,0.5-1.57c0.06-0.2,0.15-0.4,0.25-0.59c0.32-0.64,0.71-1.25,1.15-1.81
					l0.69-0.84l0.81-0.72c1.75-1.42,3.85-2.36,6.08-2.71c1.32-0.23,2.66-0.33,4-0.29C18.06-0.07,19.35,0.04,20.63,0.24z"/>
			</g>
		</g>
	</g>
	<path id="Path_101" class="st2" d="M706.34,510.92c-0.5,0.02-0.89,0.45-0.87,0.95c0.02,0.47,0.4,0.84,0.87,0.87
		c0.5-0.02,0.89-0.45,0.87-0.95C707.18,511.32,706.8,510.95,706.34,510.92z"/>
	<path id="Path_102" class="st2" d="M705.46,514.17c-0.5,0.02-0.89,0.45-0.87,0.95c0.02,0.47,0.4,0.84,0.87,0.87
		c0.5-0.02,0.89-0.45,0.87-0.95C706.31,514.57,705.93,514.19,705.46,514.17z"/>
	<path id="Path_103" class="st2" d="M701.2,511.45c-0.5,0.02-0.89,0.45-0.87,0.95c0.02,0.47,0.4,0.84,0.87,0.87
		c0.5-0.02,0.89-0.45,0.87-0.95C702.05,511.85,701.67,511.48,701.2,511.45z"/>
	<path id="Path_104" class="st2" d="M677.79,507.75c-0.5,0.01-0.9,0.41-0.91,0.91v0.3c0,0.5,0.41,0.91,0.91,0.9
		c0.5,0,0.9-0.41,0.9-0.9v-0.3C678.69,508.15,678.29,507.75,677.79,507.75z"/>
	<path id="Path_105" class="st2" d="M679.12,510.62c-0.5,0.02-0.89,0.45-0.87,0.95c0.02,0.47,0.4,0.84,0.87,0.87
		c0.5-0.02,0.89-0.45,0.87-0.95C679.96,511.02,679.59,510.64,679.12,510.62z"/>
	<g id="Group_188" transform="translate(497.62 566.886)">
		<g id="Group_187">
			<g id="Group_186">
				<path id="Path_106" class="st5" d="M27.77,41.47c0.01,0.1-0.03,0.21-0.1,0.28c-0.61,0.96-2.19,2.34-4.07,0.06
					c-0.08-0.1-0.14-0.22-0.17-0.34v-2.13l0,0c-0.01-0.01,0.01,0.01,0.01,0l-0.45-0.2c-0.59-0.28-1.15-0.59-1.72-0.89
					c-3.69-2.12-7.03-4.82-9.88-7.98c-2.81-3.14-5.22-6.61-7.18-10.34l-1.79-3.78c0,0-0.04-0.1-0.1-0.29s-0.14-0.47-0.24-0.81
					c-0.2-0.68-0.48-1.66-0.8-2.77c-0.34-1.21-0.6-2.43-0.79-3.67C0.38,7.97,0.27,7.33,0.16,6.69c-0.05-0.31-0.1-0.63-0.14-0.94
					s-0.04-0.61-0.06-0.91c-0.34-4.01-0.1-5.22,0.39-4.89s1.26,2.21,1.98,4.5c0.02-0.13,0.14,0.51,0.54,1.49
					c0.36,0.98,0.85,2.33,1.35,3.7c0.54,1.34,1.19,2.65,1.62,3.66c0.23,0.56,0.49,1.11,0.8,1.63l1.42,2.99
					c1.79,3.39,3.99,6.55,6.54,9.41c2.54,2.82,5.51,5.22,8.8,7.12c0.49,0.25,0.98,0.52,1.47,0.75l0.37,0.17
					c0.26,0.13,0.56,0.25,0.83,0.36l1.72,0.63v5.11L27.77,41.47z"/>
			</g>
		</g>
	</g>
	<g id="Group_191" transform="translate(443.924 458.603)">
		<path id="Path_107" class="st2" d="M2.46,154.08c0,0-5.46-150.97,19.55-152.02C44.09,1.14,51.18,49.9,53.19,106.2
			c1.22,34.05,0,47.23,0,47.23L2.46,154.08z"/>
		<g id="Group_190">
			<g id="Group_189">
				<path id="Path_108" class="st2" d="M4.58,152.49c0.01,0.11-0.03,0.21-0.1,0.29c-0.59,0.96-2.12,2.42-4.06,0.19
					c-0.08-0.1-0.14-0.21-0.19-0.34c-0.01-0.14-0.07-2.79-0.17-6.68c-0.02-0.92-0.04-1.86-0.06-2.83c-0.04-2.89-0.09-5.83-0.14-8.82
					c-0.07-5.98-0.09-12.14-0.07-18.49C-0.15,103.13,0.11,89.78,0.8,76C1.15,69.1,1.6,62.1,2.24,55.02s1.45-14.23,2.6-21.42
					c0.59-3.59,1.26-7.19,2.1-10.78c0.83-3.65,1.91-7.23,3.23-10.73c0.69-1.81,1.52-3.56,2.49-5.24C13.66,5.03,15,3.4,16.59,2.04
					c0.44-0.37,0.91-0.69,1.42-0.96l0.78-0.42c0.28-0.12,0.57-0.22,0.86-0.31c0.29-0.1,0.58-0.19,0.88-0.25l0.91-0.13l0.46-0.06
					l0.39-0.01l0.79-0.01c2.12,0.06,4.21,0.56,6.14,1.45c1.87,0.88,3.59,2.06,5.07,3.5c1.42,1.38,2.7,2.9,3.8,4.54
					c2.1,3.18,3.83,6.58,5.18,10.14c2.58,6.9,4.53,14.01,5.85,21.26c2.52,13.91,4.2,27.96,5.04,42.08
					c0.92,13.68,1.38,26.9,1.61,39.43c0.1,6.27,0.15,12.38,0.06,18.28c-0.04,2.95-0.12,5.86-0.24,8.73
					c-0.03,0.72-0.07,1.43-0.11,2.14l-0.06,0.95l-0.08,1.03c-0.06,0.68-0.11,1.37-0.17,2.05c-1.24,0.15-2.74,0.1-4.02,0.13
					c-0.69,0.01-1.38,0.01-2.05,0.03c-18.43,0.23-30.69,0.39-30.69,0.39s-6.61-0.36-11.26-0.96c-7.87-0.82-4.74-1.82,0.13-2.4
					c-0.51-0.09,11.65-0.97,11.65-0.97s12.87-0.16,32.22-0.41c0.02-0.45,0.05-0.9,0.07-1.35c0.03-0.67,0.06-1.35,0.09-2.03
					c0.04-1.36,0.08-2.74,0.13-4.12c0.07-2.78,0.1-5.61,0.11-8.5c0.01-5.78-0.06-11.75-0.2-17.9c-0.31-12.3-0.8-25.28-1.82-38.64
					c-0.51-6.68-1.15-13.47-2-20.3s-1.93-13.72-3.41-20.55c-1.37-6.84-3.44-13.52-6.2-19.93c-1.35-3.1-3.13-6-5.3-8.6
					c-1.96-2.46-4.7-4.19-7.77-4.9c-0.75-0.15-1.5-0.22-2.26-0.21c-0.18,0.01-0.41-0.01-0.55,0.01s-0.29,0.05-0.43,0.06
					c-0.29,0.04-0.58,0.12-0.85,0.24c-1.29,0.59-2.38,1.53-3.17,2.71c-0.95,1.34-1.78,2.76-2.46,4.26c-0.7,1.57-1.32,3.17-1.86,4.8
					c-2.07,6.71-3.59,13.59-4.53,20.55C6.68,50.82,5.72,64.76,5.06,78.26c-0.63,13.51-0.87,26.62-0.91,39.08
					c-0.02,6.23,0.01,12.29,0.09,18.17c0.06,3.61,0.12,7.1,0.18,10.46C4.5,149.75,4.57,152.35,4.58,152.49z"/>
			</g>
		</g>
	</g>
	<g id="Group_192" transform="translate(452.248 466.881)">
		<path id="Path_109" class="st1" d="M0.21,138.91c0,0-4.59-138.02,16.43-139c18.56-0.86,24.51,44.28,26.2,96.4
			c1.02,31.53,0,42.18,0,42.18H0.21V138.91z"/>
	</g>
	<g id="Group_193" transform="translate(461.427 505.608)">
		<path id="Path_110" class="st5" d="M12.13,0.13C7.96-0.82,2.17,1.26,0.64,5.1c-2.2,5.5-0.57,14.8,9.44,16.09
			c5.56,0.72,9.16-3.72,10.34-7.83c1.73-5.34-1.2-11.08-6.54-12.81c-0.19-0.06-0.39-0.12-0.59-0.17
			C13.01,0.31,12.53,0.22,12.13,0.13z"/>
	</g>
	<g id="Group_196" transform="translate(453.41 494.399)">
		<g id="Group_195" transform="translate(0 0)">
			<g id="Group_194">
				<path id="Path_111" class="st2" d="M1.21,4.89C1.1,4.89,1,4.84,0.93,4.76C-0.01,4.07-1.21,2.39,1.19,0.7
					C1.3,0.64,1.41,0.59,1.54,0.56c2.35,0.18,4.71,0.3,7.05,0.32L9.3,0.9c1.31,0,2.61-0.02,3.9-0.08c0,0,1.61,0.06,3.78,0.01
					s4.91-0.2,7.18-0.45c1.92-0.24,3.18-0.45,3.94-0.48S29.12,0.01,29,0.28c-0.38,0.47-0.85,0.86-1.4,1.12
					c-0.97,0.53-1.97,0.98-3.01,1.35c-1.83,0.67-3.71,1.18-5.63,1.52c-0.75,0.16-1.52,0.27-2.23,0.4c-0.72,0.1-1.4,0.2-1.97,0.28
					c-1.16,0.13-1.94,0.22-1.94,0.22c-1.18,0.04-2.36,0.06-3.54,0.06L8.54,5.21C6.09,5.2,3.64,5.07,1.21,4.89z"/>
			</g>
		</g>
	</g>
	<g id="Group_199" transform="translate(475.077 508.456)">
		<g id="Group_198" transform="translate(0 0)">
			<g id="Group_197">
				<path id="Path_112" class="st2" d="M0.47,15.24c-0.03,0.01-0.07,0.02-0.1,0.01C0,15.23-0.46,15.13-0.07,14.38
					c0.02-0.03,0.04-0.06,0.06-0.09c0.01-0.01,0.18-0.12,0.45-0.3c0.16-0.11,0.31-0.24,0.45-0.38c0.19-0.16,0.37-0.33,0.54-0.51
					c0.17-0.2,0.35-0.43,0.54-0.66c0.15-0.26,0.32-0.53,0.49-0.81c0.14-0.29,0.26-0.61,0.4-0.91c0.09-0.32,0.18-0.65,0.27-0.98
					c0.04-0.34,0.1-0.67,0.13-1c-0.01-0.34,0.03-0.66,0-0.96c-0.03-0.31-0.06-0.61-0.1-0.89S3.04,6.35,2.99,6.11
					C2.88,5.74,2.74,5.38,2.57,5.03c-0.13-0.24-0.2-0.38-0.2-0.38s-0.02-0.1-0.06-0.27C2.22,4.17,2.15,3.96,2.09,3.74
					C2.03,3.45,1.86,3.19,1.75,2.86S1.47,2.24,1.36,1.91C0.84,0.94,0.76,0.31,1.1,0.04c0.23-0.14,0.5-0.19,0.76-0.13
					c0.39,0.05,0.76,0.19,1.09,0.41C2.94,0.28,3.14,0.41,3.44,0.65c0.38,0.31,0.72,0.66,1.02,1.04C4.77,2.08,5.05,2.5,5.3,2.93
					c0.11,0.2,0.21,0.41,0.29,0.62l0.17,0.6c0.11,0.53,0.19,1.07,0.24,1.61c0.01,0.34,0.03,0.7,0.03,1.08
					c-0.03,0.38-0.06,0.78-0.1,1.19C5.87,8.43,5.78,8.85,5.69,9.27C5.55,9.68,5.42,10.1,5.27,10.5c-0.2,0.39-0.37,0.79-0.59,1.15
					c-0.24,0.36-0.45,0.71-0.71,1.03s-0.52,0.6-0.78,0.86c-0.28,0.24-0.55,0.45-0.8,0.66c-0.42,0.3-0.86,0.56-1.32,0.8
					C0.7,15.14,0.5,15.23,0.47,15.24z"/>
			</g>
		</g>
	</g>
	<g id="Group_202" transform="translate(463.402 517.037)">
		<g id="Group_201" transform="translate(0 0)">
			<g id="Group_200">
				<path id="Path_113" class="st2" d="M0.12,0.02L0.13,0C0.19-0.08,0.1-0.18,0.21-0.01l0.02,0.02c0.01,0.01,0.13,0.2,0.34,0.46
					c0.24,0.31,0.5,0.59,0.79,0.86c0.38,0.36,0.81,0.68,1.26,0.94C2.71,2.6,2.68,2.94,2.53,3.24c-0.14,0.43-0.42,0.8-0.8,1.05
					c-0.29,0.22-0.65,0.3-1,0.23C0.7,4.57,0.45,4.42,0.25,4.23C0.11,4.1-0.01,3.95-0.12,3.8C-0.21,3.15-0.24,2.5-0.2,1.86
					c0.02-0.43,0.08-0.85,0.17-1.26C0.05,0.26,0.12,0.04,0.12,0.02z"/>
			</g>
		</g>
	</g>
	<g id="Group_205" transform="translate(462.729 507.635)">
		<g id="Group_204">
			<g id="Group_203">
				<path id="Path_114" class="st2" d="M7.3-0.07c0.02,0,0.03,0,0.05,0.01c0.17,0.06,0.4-0.04,0.02,0.08
					C7.35,0.03,7.33,0.04,7.31,0.04C7.3,0.05,7.19,0.08,7,0.14C6.75,0.24,6.5,0.36,6.27,0.48c-0.32,0.18-0.62,0.38-0.91,0.6
					C5.21,1.21,5.06,1.34,4.91,1.47S4.62,1.76,4.5,1.91c-0.25,0.3-0.48,0.61-0.68,0.94C3.66,3.14,3.51,3.43,3.38,3.73
					C3.28,4,3.2,4.21,3.16,4.37S3.1,4.61,3.1,4.61S3.06,4.65,3,4.74S2.87,4.93,2.77,5.05S2.55,5.32,2.4,5.46
					C2.26,5.61,2.1,5.76,1.94,5.89C1.6,6.31,1.06,6.51,0.54,6.4C0.1,6.21-0.19,5.78-0.19,5.31c-0.03,0.02-0.03-0.12-0.02-0.34
					c0.03-0.28,0.08-0.55,0.15-0.82c0.08-0.29,0.2-0.58,0.29-0.8L0.4,3c0,0,0.08-0.1,0.23-0.27S1.01,2.32,1.3,2.07
					c0.32-0.29,0.66-0.55,1.01-0.8c0.2-0.12,0.41-0.25,0.61-0.38s0.43-0.22,0.66-0.33S4.04,0.39,4.25,0.3
					C4.48,0.23,4.7,0.16,4.92,0.1c0.22-0.04,0.43-0.08,0.63-0.13c0.2-0.02,0.39-0.04,0.57-0.06C6.39-0.11,6.67-0.11,6.96-0.1
					C7.07-0.1,7.18-0.09,7.3-0.07z"/>
			</g>
		</g>
	</g>
	<g id="Group_208" transform="translate(414.217 609.519)">
		<g id="Group_207" transform="translate(0 0)">
			<g id="Group_206">
				<path id="Path_115" class="st5" d="M108.52-0.1c0.1-0.01,0.21,0.03,0.28,0.1c0.96,0.61,2.34,2.19,0.06,4.07
					c-0.1,0.08-0.22,0.14-0.34,0.17H81.34v0.01l0.08,0.16c0.24,0.5,0.52,1.04,0.82,1.59l0.45,0.85l0.22,0.44l0.31,0.64
					c0.52,1.04,0.85,2.17,0.98,3.32c0.06,0.54,0.09,1.01,0.14,1.59l0.03,0.42c0.03,0.09-0.05,0.08-0.11,0.1l-0.19,0.03l-0.74,0.15
					l-0.74,0.15c-0.26,0.07-0.53,0.1-0.8,0.1h-46.2c-0.15,0-0.32,0.01-0.46-0.01l-0.36-0.08l-1.41-0.34L33,13.27l-0.09-0.02
					c-0.01-0.02,0-0.06,0-0.1l0.01-0.2l0.03-0.8l0.03-0.76c0-0.26,0.02-0.52,0.08-0.77c0.09-0.56,0.25-1.11,0.47-1.64
					c0.13-0.28,0.22-0.56,0.37-0.84l0.41-0.8l0.45-0.82l0.01-0.03c0.01-0.01,0-0.01-0.01-0.01L15.8,6.48c0,0-6.61-0.45-11.24-1.11
					c-7.86-0.92-4.72-1.89,0.15-2.4C4.2,2.87,16.37,2.15,16.37,2.15h21.26c0.13,0,0.26,0.01,0.39,0.05l0.35,0.08l0.7,0.16l0.7,0.16
					l0.17,0.04l0.08,0.02c0.03,0.01,0.06,0.01,0.05,0.05l-0.03,0.41l-0.1,1.52c-0.11,1.12-0.44,2.21-0.98,3.2l-0.85,1.59h41L79,9.2
					l-0.84-1.6l-0.45-0.85L77.49,6.3l-0.12-0.25c-0.07-0.13-0.13-0.27-0.17-0.41c-0.48-1.05-0.78-2.16-0.88-3.31L76.2,0.74
					l-0.03-0.41c0.11-0.03,0.24-0.05,0.36-0.07l0.74-0.14l0.74-0.14l0.37-0.07c0.15-0.02,0.29-0.02,0.44-0.01h29.7L108.52-0.1z"/>
			</g>
		</g>
	</g>
	<g id="Group_211" transform="translate(453.407 492.224)">
		<g id="Group_210" transform="translate(0 0)">
			<g id="Group_209">
				<path id="Path_116" class="st5" d="M1.21,4.24C1.1,4.24,1,4.19,0.93,4.11C0,3.41-1.22,1.73,1.19,0.05
					C1.3-0.02,1.42-0.07,1.54-0.1c2.36,0.18,4.73,0.32,7.1,0.4l0.39,0.03c1.32,0.04,2.64,0.07,3.96,0.08c0,0,6.24,0.45,11.16,0.8
					c3.92,0.21,5.15,0.53,4.78,1s-2.35,1.01-4.78,1.41c-1.87,0.33-3.77,0.56-5.66,0.69c-3,0.29-6.09,0.43-6.09,0.43
					C11.23,4.72,10.07,4.7,8.9,4.66L8.49,4.65C6.07,4.56,3.64,4.43,1.21,4.24z"/>
			</g>
		</g>
	</g>
	<g id="Group_212" transform="translate(487.984 396.329)">
		<path id="Path_117" class="st0" d="M22.76,7.08c-2.01-2.1-4.14-4.08-6.37-5.94c-2.23-1.93-4.38-1.44-6.47,0.38
			C6.24,4.72,3.3,8.68,1.28,13.13c-0.7,1.55-3.23,6.56,0.44,6.76c6,1,12.1,1.33,18.18,0.97c2.01-0.12,4.34-0.02,6.01-1.35
			c2.65-2.1,1.53-5.9,0.03-8.33C25.02,9.72,23.95,8.34,22.76,7.08z"/>
	</g>
	<g id="Group_215" transform="translate(635.841 551.972)">
		<g id="Group_214" transform="translate(0)">
			<g id="Group_213">
				<path id="Path_118" class="st0" d="M1.33,7.16C1.3,7.13,1.29,7.13,1.33,7.02C1.51,6.51,1.8,6.05,2.17,5.67
					c0.59-0.62,1.3-1.12,2.08-1.47c0.06-0.03,0.13-0.05,0.2-0.06l0.31,0.29L4.72,4.39l0,0c0.18-0.22,0.11-0.14,0.13-0.15
					s0.01-0.01,0-0.01H4.74c-0.43-0.01-0.87-0.01-1.3,0.01C3.41,4.23,3.38,4.23,3.35,4.23C3.26,4.22,3.17,4.2,3.08,4.18
					C2.98,4.16,2.9,4.14,2.81,4.1C2.78,4.09,2.76,4.07,2.75,4.04C2.73,3.97,2.71,3.9,2.69,3.82c-0.03-0.11-0.06-0.2-0.08-0.27
					c-0.03-0.1-0.08-0.2-0.13-0.29L2.46,3.23L2.45,3.23l0,0C2.42,3.2,2.49,3.27,2.48,3.26l0,0L2.47,3.25
					C2.45,3.23,2.43,3.2,2.4,3.18C2.33,3.12,2.38,3.19,2.6,3.22c0.04,0,0.12,0.01,0.18,0.01h0.08L2.83,3.24
					c-0.04,0.02-0.08,0.05-0.1,0.09c-0.06,0.11-0.1,0.24-0.11,0.36C2.61,4.16,2.71,4.64,2.66,4.94c0.01,0.25-0.13,0.48-0.34,0.61
					C2.06,5.64,1.77,5.62,1.51,5.5C1.33,5.43,1.16,5.34,1,5.23C0.9,5.17,0.81,5.1,0.72,5.02c-0.1-0.1-0.2-0.2-0.29-0.31
					C0.44,4.77,0.24,4.56,0,4.03c-0.15-0.36-0.22-0.75-0.22-1.14c0.02-0.62,0.26-1.22,0.67-1.69c0.39-0.42,0.88-0.74,1.42-0.91
					c0.3-0.09,0.61-0.17,0.92-0.23C3.13-0.02,3.4-0.08,3.4-0.08C3.91-0.1,4.42-0.11,4.93-0.1c0.89,0.02,1.78,0.11,2.66,0.26
					c0.6,0.04,1.17,0.27,1.63,0.66C9.41,0.98,9.58,1.17,9.7,1.39c0.15,0.24,0.26,0.5,0.32,0.78c0.12,0.56,0.08,1.15-0.1,1.69
					C9.7,4.51,9.42,5.14,9.07,5.73C8.73,6.3,8.35,6.84,7.92,7.34c-0.46,0.55-1,1.02-1.6,1.41C5.74,9.09,5.07,9.24,4.4,9.18
					c-0.67-0.07-1.3-0.35-1.8-0.8L1.33,7.16z"/>
			</g>
		</g>
	</g>
	<g id="Group_218" transform="translate(570.02 461.48)">
		<g id="Group_217" transform="translate(0 0)">
			<g id="Group_216">
				<path id="Path_119" class="st0" d="M3.73,19.91c-0.05,0.1-0.07,0.14-0.23,0.23c-0.57,0.42-1.29,0.58-1.99,0.45
					c-0.71-0.18-1.31-0.84-1.69-2.18c-0.03-0.11-0.04-0.23-0.02-0.35c0.91-2.05,1.59-4.2,2.05-6.4l0.53-2.48l0.13-0.63l0.1-0.57
					l0.22-1.28c0.16-1.01,0.44-2,0.83-2.95C3.9,3.19,4.22,2.66,4.6,2.17c0.43-0.54,0.95-0.99,1.54-1.35
					C7.22,0.19,8.45-0.12,9.71-0.1c1.01,0.01,2.01,0.12,2.99,0.33c0.91,0.18,1.77,0.4,2.56,0.58l2.49,0.52l5.04,1.05l2.52,0.52
					l1.89,0.4l0.63,0.13c0.15,0.08,0.29,0.17,0.43,0.27l0.84,0.56l0.03,0.01l0.01,0.01c-0.18,0.14,0.43-0.29-0.41,0.31l0.03,0.04
					l0.06,0.08l0.13,0.17l0.28,0.38l0.15,0.21c0.07,0.06,0.11,0.15,0.1,0.24l0.01,0.6c-0.01,0.41-0.09,0.85-0.13,1.26l-0.1,0.76
					l-0.36,2.58c-0.24,1.71-0.51,3.42-0.8,5.14c-0.31,1.81-0.64,3.62-1.02,5.45c-0.2,0.91-0.41,1.83-0.66,2.77
					c-0.13,0.47-0.27,0.94-0.44,1.44c-0.05,0.13-0.08,0.23-0.15,0.4l-0.26,0.59c-0.09,0.2-0.19,0.39-0.31,0.57l-0.17,0.29
					l-0.22,0.23c-0.15,0.16-0.3,0.31-0.47,0.45c-0.18,0.13-0.37,0.23-0.57,0.3c-0.2,0.09-0.4,0.16-0.61,0.2
					c-0.21,0.07-0.42,0.12-0.64,0.13l-0.67,0.02c-0.11,0-0.22,0.01-0.34,0.01l-0.27-0.03c-0.29-0.03-0.59-0.07-0.84-0.13
					s-0.54-0.1-0.78-0.17l-0.42-0.1c-0.27-0.06-0.52-0.15-0.78-0.22c-1.01-0.31-1.97-0.65-2.91-1c0,0-0.38-0.17-1.02-0.47
					s-1.52-0.75-2.4-1.11c-2.08-0.83-4.69-1.9-6.82-2.88c-7.26-3.15-3.98-3.16,0.84-2.26c-0.23-0.12,2.62,0.52,5.53,1.19L12.81,22
					c0.36,0.08,0.7,0.15,1.12,0.28c0.75,0.22,1.37,0.42,1.91,0.59c1.06,0.33,1.77,0.55,1.77,0.55c0.84,0.31,1.68,0.6,2.49,0.82
					c0.22,0.06,0.36,0.09,0.62,0.16c0.33,0.08,0.66,0.14,1,0.18l0.08,0.01l0.01-0.03l0.04-0.11c0.06-0.17,0.12-0.33,0.17-0.52
					c0.11-0.36,0.22-0.75,0.32-1.14c0.2-0.78,0.39-1.6,0.56-2.42c0.35-1.64,0.65-3.32,0.93-5s0.54-3.35,0.78-5.04l0.41-3.04
					L16.86,5.6l-2.55-0.54c-0.89-0.2-1.7-0.41-2.47-0.56c-0.69-0.15-1.4-0.24-2.11-0.25C9.27,4.22,8.8,4.32,8.38,4.54
					C8.24,4.63,8.1,4.74,8,4.88C7.86,5.07,7.74,5.28,7.64,5.5c-0.25,0.64-0.43,1.32-0.54,2L6.89,8.76L6.76,9.45l-0.13,0.64
					l-0.55,2.56C5.55,15.14,4.76,17.58,3.73,19.91z"/>
			</g>
		</g>
	</g>
	<g id="Group_221" transform="translate(393.578 445.21)">
		<g id="Group_220" transform="translate(0)">
			<g id="Group_219">
				<path id="Path_120" class="st0" d="M0.7,4.24C0.65,4.25,0.6,4.25,0.56,4.22c-0.3-0.09-0.54-0.3-0.68-0.58
					c-0.13-0.3-0.05-0.68,0.32-1.16c0.03-0.04,0.07-0.08,0.12-0.1C1.28,2.16,2.21,1.84,3.1,1.42l1.01-0.46l0.48-0.23L5.1,0.47
					C5.5,0.26,5.91,0.1,6.35-0.01c0.56-0.15,1.14-0.11,1.68,0.1C8.53,0.3,8.96,0.65,9.28,1.1c0.26,0.36,0.48,0.74,0.66,1.14
					c0.34,0.75,0.6,1.36,0.94,2.06l0.95,2.04l0.48,1.02l0.36,0.77l0.12,0.25C12.8,8.45,12.8,8.52,12.8,8.6l0.03,0.44v0.02
					c-0.1-0.03,0.22,0.07-0.22-0.06l-0.01,0.02l-0.01,0.04l-0.03,0.09l-0.06,0.2c-0.04,0.07-0.01,0.16-0.09,0.21l-0.21,0.16
					c-0.15,0.1-0.32,0.19-0.48,0.29l-0.29,0.17l-1,0.55c-0.67,0.36-1.34,0.72-2.01,1.07C7.72,12.17,7,12.52,6.25,12.86
					c-0.37,0.17-0.75,0.33-1.14,0.49c-0.2,0.08-0.4,0.15-0.62,0.22l-0.17,0.06L4.04,13.7c-0.09,0.02-0.19,0.04-0.29,0.04
					c-0.09,0.01-0.19,0.01-0.29,0c-0.38-0.05-0.73-0.23-0.98-0.52c-0.12-0.14-0.24-0.29-0.33-0.45c-0.06-0.11-0.13-0.22-0.18-0.33
					s-0.1-0.22-0.15-0.31l-0.07-0.17l-0.13-0.33c-0.16-0.43-0.29-0.86-0.41-1.29c0,0-0.04-0.18-0.1-0.48S0.98,9.14,0.88,8.73
					C0.62,7.79,0.31,6.59,0.1,5.59c-0.8-3.37,0.06-2.22,1.01-0.3c-0.02-0.11,0.5,1.05,1.03,2.25C2.28,7.85,2.4,8.1,2.53,8.45
					c0.1,0.3,0.21,0.59,0.29,0.82c0.16,0.46,0.27,0.77,0.27,0.77c0.11,0.38,0.23,0.75,0.36,1.09l0.1,0.26
					c0.06,0.14,0.13,0.27,0.2,0.4l0.01,0.03l0.29-0.1c0.15-0.06,0.32-0.12,0.48-0.19c0.33-0.13,0.66-0.29,1-0.44
					c0.67-0.31,1.33-0.64,2-0.98s1.32-0.69,1.97-1.05l1.17-0.65L9.15,5.09C8.84,4.44,8.5,3.67,8.22,3.04
					C8.05,2.55,7.73,2.13,7.3,1.84c-0.22-0.13-0.75,0-1.38,0.33l-0.5,0.25L4.89,2.68L3.85,3.16C2.84,3.63,1.79,4,0.7,4.24z"/>
			</g>
		</g>
	</g>
	<g id="Group_224" transform="translate(326.259 497.273)">
		<g id="Group_223" transform="translate(0 0)">
			<g id="Group_222">
				<path id="Path_121" class="st0" d="M27.44,32.86c0.11,0.03,0.2,0.1,0.25,0.2c0.46,0.53,0.69,1.23,0.64,1.93
					c-0.1,0.73-0.68,1.41-2,1.91c-0.11,0.04-0.23,0.06-0.36,0.06c-2.14-0.74-4.34-1.27-6.59-1.59c-2.41-0.37-4.92-0.59-7.43-0.82
					c-1.14-0.1-2.46-0.12-3.86-0.27C6.52,34.15,5,33.7,3.61,32.96c-1.57-0.91-2.74-2.37-3.29-4.1c-0.44-1.46-0.62-2.99-0.53-4.51
					c0.04-1.4,0.21-2.72,0.36-3.98c0.08-0.64,0.14-1.2,0.2-1.84l0.17-1.9l0.7-7.59l0.35-3.79l0.22-2.37l0.09-0.94
					C1.98,1.7,2.08,1.47,2.2,1.24l0.33-0.68l0.02-0.04L2.57,0.5C2.3,0.2,2.96,0.9,2.89,0.82l0.06-0.06l0.1-0.11l0.23-0.24l0.26-0.27
					c0.1-0.08,0.22-0.15,0.33-0.22C4.18-0.1,4.49-0.11,4.8-0.1L6.38-0.1L8.3-0.07l3.83,0.1c2.56,0.08,5.11,0.2,7.67,0.34
					c3.08,0.19,6.15,0.41,9.3,0.86c0.79,0.12,1.58,0.25,2.42,0.45c0.46,0.1,0.92,0.23,1.36,0.39c0.36,0.13,0.7,0.29,1.03,0.47
					c0.31,0.2,0.6,0.44,0.85,0.72c0.45,0.61,0.75,1.31,0.88,2.05c0.09,0.51,0.13,1.03,0.13,1.54c-0.01,0.87-0.08,1.73-0.21,2.59
					c-0.24,1.63-0.59,3.17-0.96,4.69l-0.75,2.94l-0.37,1.49c-0.06,0.24-0.11,0.47-0.15,0.67l-0.14,0.78c0,0-1.61,6.42-3.08,10.87
					c-2.3,7.58-2.69,4.31-2.34-0.58c-0.13,0.35,0.57-5.77,0.98-9.26c0.16-1.38,0.28-2.35,0.28-2.35c0.2-1.15,0.48-2.14,0.73-3.12
					l0.36-1.37l0.51-2.07c0.33-1.33,0.57-2.68,0.74-4.04c0.07-0.58,0.09-1.16,0.05-1.75l-0.03-0.22h-0.01
					c-0.07-0.03-0.24-0.08-0.36-0.11c-0.28-0.08-0.59-0.15-0.92-0.22c-0.65-0.13-1.33-0.24-2.02-0.34
					c-2.78-0.38-5.66-0.59-8.54-0.76c-2.51-0.15-5.03-0.26-7.55-0.34L8.2,4.26L5.99,4.23l-1.18,12.8l-0.17,1.9
					c-0.06,0.63-0.13,1.33-0.21,1.95c-0.15,1.27-0.3,2.47-0.33,3.6c-0.07,1.02,0.04,2.04,0.31,3.02c0.11,0.37,0.29,0.71,0.52,1.01
					c0.22,0.29,0.5,0.53,0.82,0.7c0.87,0.44,1.82,0.69,2.79,0.76c1.13,0.13,2.36,0.15,3.74,0.26c2.55,0.23,5.11,0.45,7.72,0.84
					C22.54,31.42,25.03,32.02,27.44,32.86z"/>
			</g>
		</g>
	</g>
	<g id="Group_225" transform="translate(311.174 510.475)">
		<path id="Path_122" class="st0" d="M30.17,9.42c-2.55,3.54-3.87,7.74-5.21,11.85c-0.8,2.47-1.31,6.11-4.35,6.86
			c-2.41,0.6-5.48-0.81-7.78-1.57c-4.35-1.42-8.7-2.84-13.04-4.26C-0.33,22.28,4.8,1.1,6.94,0.05c2.01-0.98,8.7,3.11,10.79,4
			c4.12,1.75,8.24,3.49,12.36,5.24"/>
	</g>
	<g id="Group_228" transform="translate(517.972 503.537)">
		<g id="Group_227">
			<g id="Group_226">
				<path id="Path_123" class="st0" d="M4.18,5.47c0,0.01,0,0.02-0.1,0.06C3.8,5.66,3.28,5.93,2.62,6.18
					c-0.79,0.36-1.67,0.43-2.51,0.2c-0.07-0.03-0.14-0.07-0.2-0.13c-0.11-0.5-0.15-1.02-0.12-1.53c0.02-0.55,0.12-1.09,0.29-1.61
					c0.19-0.59,0.5-1.14,0.9-1.62C1.43,0.96,2,0.55,2.64,0.28c0.57-0.24,1.18-0.36,1.8-0.38C4.96-0.11,5.48-0.06,6,0.04
					C6.59,0.16,7.15,0.39,7.66,0.7c0.34,0.21,0.65,0.48,0.91,0.78C8.9,1.87,9.13,2.33,9.25,2.82L8.91,2.08
					c0.42,0.61,0.68,1.3,0.78,2.03c0.07,0.64,0.03,1.28-0.11,1.9C9.43,6.63,9.18,7.21,8.84,7.73C8.49,8.28,8.03,8.75,7.5,9.12
					C7.34,9.22,7.16,9.3,6.98,9.36c-0.44,0.17-0.9,0.28-1.37,0.31c-0.6,0.05-1.2-0.03-1.77-0.22C3.23,9.26,2.7,8.89,2.31,8.4
					L2.3,8.38c-0.42-0.46-0.58-1.1-0.43-1.7c0.06-0.25,0.28-0.43,0.54-0.44C2.65,6.26,2.88,6.31,3.1,6.4
					c0.21,0.07,0.43,0.09,0.65,0.08h0.02c0-0.03,0.1-0.03,0.23-0.07c0.07-0.02,0.11-0.05,0.2-0.08c0.1-0.04,0.2-0.08,0.29-0.14
					c0.24-0.13,0.43-0.35,0.53-0.61c0.08-0.06,0.15-0.14,0.2-0.23c0.07-0.11,0.11-0.23,0.13-0.36c0.03-0.11,0.03-0.22,0.02-0.34
					c0-0.09-0.08-0.04,0.1-0.15l0.61-0.91c-0.3,0.17-0.55,0.43-0.71,0.75C5.32,4.41,5.35,4.35,5.33,4.36L5.27,4.34
					c-0.06-0.03-0.13-0.04-0.2-0.06C4.9,4.25,4.72,4.23,4.55,4.23c-0.08,0-0.17,0.01-0.24,0.04c-0.02,0.01,0-0.01-0.01,0.01
					c-0.04,0.06-0.08,0.13-0.1,0.2C4.14,4.63,4.12,4.78,4.11,4.93C4.11,5.11,4.13,5.3,4.18,5.47z"/>
			</g>
		</g>
	</g>
	<g id="Group_231" transform="translate(362.289 418.373)">
		<g id="Group_230" transform="translate(0 0)">
			<g id="Group_229">
				<path id="Path_124" class="st0" d="M4.52,19.58c0.03,0.09,0.01,0.19-0.05,0.27c-0.25,0.61-0.67,1.14-1.21,1.52
					c-0.61,0.36-1.52,0.48-2.74-0.55c-0.1-0.1-0.19-0.21-0.25-0.33c-0.54-2.6-0.63-5.28-0.29-7.91c0.36-3.01,1.58-5.86,3.5-8.21
					c1.03-1.21,2.29-2.21,3.7-2.93c1.38-0.7,2.87-1.16,4.41-1.36c1.45-0.19,2.93-0.21,4.39-0.08c1.45,0.12,2.88,0.39,4.27,0.8
					c1.48,0.43,2.88,1.09,4.15,1.96c1.48,1,2.59,2.46,3.15,4.16c-0.01,0.01,0,0.01,0,0.01c-0.06-0.1,0.04,0.05,0.08,0.12l0.16,0.25
					c0.21,0.34,0.4,0.69,0.57,1.05c0.17,0.35,0.32,0.72,0.45,1.09c0.14,0.36,0.26,0.74,0.35,1.12c0.38,1.48,0.53,3,0.45,4.53
					c-0.14,2.99-1.04,5.89-2.61,8.44c-1.63,2.55-3.93,4.59-6.65,5.91l-0.47,0.23l-0.28,0.12L19.06,30c-0.38,0.15-0.76,0.27-1.14,0.4
					c-0.78,0.24-1.57,0.42-2.37,0.55c-0.42,0.05-0.85,0.07-1.27,0.07c-1.06,0.02-2.12-0.07-3.16-0.28
					c-1.38-0.27-2.71-0.77-3.92-1.48c-1.23-0.73-2.28-1.74-3.05-2.95c-0.5-0.74-0.89-1.55-1.15-2.41c-0.17-0.52-0.27-1.06-0.31-1.6
					c-0.04-0.79,0.14-1.03,0.4-0.89c0.52,0.24,1.42,2.05,2.99,3.46c-0.05-0.1,0.35,0.32,1.08,0.81c0.94,0.6,1.99,1.01,3.09,1.19
					c1.16,0.19,2.35,0.21,3.51,0.04c0.48-0.07,0.87-0.15,1.15-0.22c0.15-0.03,0.29-0.06,0.43-0.11c0.58-0.11,1.15-0.27,1.71-0.48
					c0.29-0.09,0.56-0.21,0.83-0.32l0.2-0.08l0.33-0.16c0.25-0.11,0.49-0.24,0.73-0.38c1.9-1.06,3.47-2.63,4.53-4.53
					c1.06-1.94,1.62-4.11,1.63-6.31c0.01-1.06-0.15-2.11-0.45-3.12l-0.27-0.71l-0.33-0.67c-0.06-0.11-0.13-0.21-0.2-0.31L23.74,9
					c-0.1-0.13-0.17-0.27-0.21-0.43l-0.13-0.4c-0.02-0.09-0.05-0.17-0.09-0.25c-0.38-0.77-0.98-1.41-1.72-1.83
					c-0.91-0.56-1.9-0.97-2.93-1.24c-0.54-0.15-1.09-0.27-1.64-0.36c-0.57-0.09-1.15-0.15-1.73-0.2c-1.11-0.09-2.23-0.05-3.33,0.11
					C9.93,4.67,8.05,5.69,6.72,7.26c-1.34,1.71-2.18,3.76-2.43,5.92C4.01,15.31,4.08,17.47,4.52,19.58z"/>
			</g>
		</g>
	</g>
	<g id="Group_234" transform="translate(620.166 394.189)">
		<g id="Group_233">
			<g id="Group_232">
				<path id="Path_125" class="st0" d="M4.16,7.97c0.01,0.08,0.01,0.1-0.08,0.22C3.74,8.72,3.29,9.17,2.76,9.51
					c-0.34,0.22-0.75,0.3-1.15,0.24C0.99,9.61,0.44,9.27,0.05,8.76c-0.09-0.12-0.17-0.26-0.22-0.4C-0.34,6.79-0.11,5.2,0.5,3.75
					c0.36-0.82,0.88-1.55,1.53-2.17c0.68-0.63,1.5-1.1,2.39-1.37c0.9-0.26,1.83-0.36,2.76-0.3c0.43,0.02,0.85,0.07,1.27,0.15
					c0.44,0.08,0.88,0.19,1.31,0.33c0.7,0.23,1.36,0.58,1.95,1.03c0.35,0.28,0.67,0.61,0.94,0.98c0.29,0.42,0.51,0.89,0.64,1.39
					l-0.34-0.73c0.32,0.45,0.57,0.95,0.75,1.47c0.05,0.14,0.08,0.28,0.11,0.43c0.09,0.38,0.14,0.77,0.15,1.17
					c0.05,1.25-0.21,2.49-0.75,3.61c-0.33,0.71-0.78,1.36-1.32,1.92c-0.57,0.58-1.23,1.06-1.96,1.41c-1.38,0.68-2.96,0.86-4.46,0.52
					c-1-0.19-1.9-0.72-2.56-1.5c-0.37-0.46-0.62-1.02-0.71-1.61C2.1,9.67,2.31,9.44,2.56,9.57s0.61,0.61,1.15,1.03
					c0.62,0.47,1.39,0.68,2.16,0.61c-0.09-0.04,0.41,0,1.17-0.23c1.89-0.53,3.09-2.38,2.81-4.32C9.81,6.41,9.74,6.17,9.63,5.95
					C9.59,5.88,9.55,5.81,9.5,5.75C9.47,5.68,9.42,5.64,9.4,5.58l-0.09-0.8C9.23,4.81,9.16,4.85,9.09,4.9L9.01,4.82
					C8.81,4.68,8.59,4.57,8.36,4.5C8.14,4.43,7.92,4.38,7.7,4.34c-0.25-0.05-0.5-0.07-0.75-0.08C6.53,4.22,6.11,4.26,5.7,4.37
					c-0.57,0.17-1.03,0.6-1.24,1.16C4.17,6.31,4.06,7.14,4.16,7.97z"/>
			</g>
		</g>
	</g>
</g>
</svg>
