<?xml version="1.0" encoding="utf-8"?>
<!-- Generator: Adobe Illustrator 25.2.1, SVG Export Plug-In . SVG Version: 6.00 Build 0)  -->
<svg version="1.1" id="Layer_1" xmlns="http://www.w3.org/2000/svg" xmlns:xlink="http://www.w3.org/1999/xlink" x="0px" y="0px"
	 viewBox="0 0 403.7 398.68" style="enable-background:new 0 0 403.7 398.68;" xml:space="preserve">
<style type="text/css">
	.st0{fill:#4149F1;}
	.st1{fill:#FFFFFF;}
	.st2{fill:#202020;}
	.st3{fill:none;stroke:#000000;stroke-width:6;stroke-linecap:round;stroke-miterlimit:10;}
	.st4{fill:#0B0511;}
</style>
<g id="svg2" transform="translate(-365.21 -140.05)">
	<path id="Path_193" class="st0" d="M696.16,478.65c-0.69-2.65-0.79-18.47-0.79-18.47l-6.61,3.28c1.01,2.98,0.84,6.24-0.48,9.1
		c-3.94,8.99-10.93,16.3-19.73,20.64c-7.94,3.81-16.4,5.45-25.13,6.09c-3.44,0.21-5.82,2.8-9.36,2.54
		c-1.11-0.11-2.43,6.77-21.27,19.37c-0.42,0.27,13.97-13.97,15.4-22.49c-6.7-0.9-13.15-3.17-18.94-6.67
		c-2.46-1.62-5.31-2.56-8.25-2.7c-2.75,0-4.13,2.06-5.87,3.81c-1.63,1.69-3.42,3.21-5.34,4.55c-4.18,2.88-8.95,4.8-13.97,5.61
		c-5.24,0.85-10.26,0.32-15.45-0.53c-2.43-0.42-5.29-1.06-7.72-0.74c0,1.69,2.54,3.81,3.6,5.08c1.74,2.1,3.63,4.06,5.66,5.87
		c5.4,4.84,11.54,8.77,18.2,11.64c9.22,3.93,19.04,6.29,29.05,6.98c4.36,0.36,8.74,0.49,13.12,0.37
		C679.86,530.77,696.85,481.3,696.16,478.65z"/>
	<g id="Group_365" transform="translate(375.892 219.28)">
		<g id="Group_364" transform="translate(0)">
			<g id="Group_363">
				<path id="Path_194" class="st1" d="M68.41,13.92c0.05,0,0.11-0.05,0.21,0c0.85,0.21,2.22,0.95,1.06,2.86
					c0,0.05-0.11,0.16-0.21,0.21l-3.65,1.32l-5.5,1.96l-9.95,3.55l-2.49,0.9l-1.06,0.37l-0.64,0.21l-0.58-0.37l-1.53-0.9
					c-1.48-0.9-3.02-1.8-4.55-2.65c-3.6-2.06-7.3-4.07-11.01-5.93c-3.65-1.89-7.44-3.52-11.32-4.87c-1.76-0.65-3.62-0.98-5.5-0.95
					C10.78,9.71,9.87,9.9,9,10.21c-0.72,0.19-1.36,0.6-1.85,1.16c-0.38,0.48-0.52,1.1-0.37,1.69c0.14,0.84,0.45,1.65,0.9,2.38
					c1.01,1.68,2.19,3.24,3.55,4.66c2.84,2.96,5.9,5.71,9.15,8.2l0.95,0.74L22.6,30l2.49,1.9l0.16,0.11l0.05,0.05l0.05,0.05H25.3
					l-0.37,0.16l-0.79,0.27l-1.59,0.53c-0.51,0.16-1,0.36-1.48,0.58l-1.27,0.53c-1.87,0.79-3.69,1.69-5.45,2.7
					c-1.75,0.99-3.41,2.12-4.97,3.39C7.85,41.47,6.51,42.9,5.4,44.5c-0.53,0.76-0.98,1.57-1.32,2.43c-0.19,0.41-0.33,0.83-0.42,1.27
					L3.5,48.83c-0.07,0.22-0.1,0.46-0.11,0.69l-0.05,0.69v0.69c0.01,0.44,0.04,0.88,0.11,1.32c0.08,0.45,0.19,0.89,0.32,1.32
					c0.14,0.43,0.29,0.86,0.48,1.27c0.54,1.18,1.38,2.21,2.43,2.96c1.14,0.75,2.42,1.25,3.76,1.48c2.96,0.41,5.98,0.27,8.89-0.42
					c0.74-0.16,1.48-0.32,2.27-0.48l1.11-0.26l1.01-0.37c0.32-0.11,0.69-0.27,1.06-0.42l1.06-0.48c0.74-0.32,1.43-0.64,2.17-0.95
					c2.91-1.27,5.77-2.65,8.62-3.97c11.48-5.4,22.96-10.95,34.39-16.51l17.14-8.36l1.06-0.53c0.32-0.16,0.64-0.32,1.01-0.53
					c0.64-0.37,1.27-0.74,1.9-1.16c1.22-0.85,2.36-1.78,3.44-2.8c2.07-1.96,3.45-4.54,3.92-7.35c0.05-0.32,0.05-0.69,0.11-1.01
					v-1.11c0-0.73-0.05-1.45-0.16-2.17l-0.05-0.53c0.01-0.07-0.01-0.15-0.05-0.21l-0.16-0.79c-0.11-0.53-0.26-1.01-0.42-1.53
					c-0.22-0.84-0.52-1.65-0.9-2.43c-0.36-0.7-0.82-1.34-1.38-1.9C95.93,2.4,95.25,2,94.5,1.81c-0.52-0.13-1.07-0.13-1.59,0
					c-0.21,0-0.42,0.11-0.58,0.11l-0.48,0.16c-0.53,0.16-0.74,0.16-0.74-0.05c0.18-0.46,0.49-0.84,0.9-1.11
					c0.37-0.24,0.76-0.46,1.16-0.64c0.51-0.17,1.05-0.26,1.59-0.27c0.51,0,1.01,0.09,1.48,0.27c1.15,0.43,2.18,1.12,3.02,2.01
					c0.8,0.87,1.48,1.85,2.01,2.91c0.21,0.42,0.37,0.79,0.48,1.06s0.16,0.42,0.16,0.42c0.21,0.58,0.32,1.22,0.48,1.8
					c0.05,0.32,0.11,0.64,0.16,0.9l0.11,0.69c0.06,0.42,0.1,0.84,0.11,1.27c0.05,0.83,0.05,1.66,0,2.49
					c-0.09,1.75-0.49,3.47-1.16,5.08c-1.43,3.07-3.62,5.72-6.35,7.73c-1.31,0.98-2.69,1.86-4.13,2.65l-4.18,2.06l-16.61,8.1
					c-11.11,5.4-22.24,10.74-33.39,16.03c-2.8,1.32-5.61,2.59-8.47,3.86c-0.69,0.32-1.43,0.64-2.17,0.95l-1.11,0.48l-1.22,0.42
					c-0.21,0.05-0.42,0.16-0.58,0.21l-0.58,0.16l-1.16,0.27c-0.79,0.21-1.59,0.32-2.33,0.48c-1.59,0.28-3.2,0.47-4.82,0.58
					c-1.66,0.11-3.34,0-4.97-0.32c-1.75-0.31-3.41-0.99-4.87-2.01c-1.46-1.1-2.64-2.53-3.44-4.18c-0.21-0.58-0.48-1.11-0.64-1.69
					c-0.17-0.57-0.31-1.16-0.42-1.75c-0.05-0.58-0.16-1.16-0.16-1.8v-0.9l0.05-0.9c0-0.31,0.06-0.61,0.16-0.9
					c0.05-0.32,0.11-0.58,0.16-0.9c0.14-0.58,0.33-1.15,0.58-1.69c0.43-1.08,0.98-2.11,1.64-3.07c1.31-1.84,2.86-3.49,4.6-4.92
					c1.71-1.36,3.52-2.6,5.4-3.7c1.9-1.06,3.81-2.01,5.82-2.91l0.16-0.05l-0.27-0.21c-3.38-2.61-6.57-5.48-9.52-8.57
					c-0.37-0.37-0.74-0.79-1.11-1.22c-0.37-0.42-0.69-0.85-1.06-1.27c-0.71-0.88-1.34-1.82-1.9-2.8c-0.64-1.07-1.07-2.26-1.27-3.49
					c-0.07-0.35-0.09-0.7-0.05-1.06c-0.01-0.18,0.01-0.36,0.05-0.53l0.11-0.58c0.17-0.76,0.52-1.46,1.01-2.06
					c0.45-0.54,0.98-1.01,1.59-1.38c0.55-0.33,1.14-0.6,1.75-0.79c1.12-0.37,2.27-0.62,3.44-0.74l0.42-0.05h0.95l0.48,0.05
					c0.59,0.06,1.17,0.15,1.75,0.27c1.09,0.23,2.17,0.51,3.23,0.85c4.05,1.41,7.99,3.11,11.8,5.08c3.81,1.9,7.51,3.92,11.16,6.03
					l4.6,2.7l0.74,0.48l0.21-0.05l2.49-0.9l9.95-3.55l5.5-1.96L68.41,13.92z"/>
			</g>
		</g>
	</g>
	<g id="Group_368" transform="translate(365.21 254.198)">
		<g id="Group_367" transform="translate(0 0)">
			<g id="Group_366">
				<path id="Path_195" class="st1" d="M18.83,2.34c0.08,0.05,0.13,0.12,0.16,0.21c0.27,0.49,0.31,1.07,0.11,1.59
					c-0.4,0.6-1.07,0.98-1.8,1.01h-0.27c-1.29-0.9-2.78-1.49-4.34-1.69c-0.53-0.05-1.06-0.05-1.59,0c-0.51,0.04-1.01,0.17-1.48,0.37
					c-1,0.38-1.89,1-2.59,1.8C6.24,6.46,5.57,7.4,5.02,8.42c-0.54,1.02-0.95,2.11-1.22,3.23c-0.54,2.33-0.57,4.75-0.11,7.09
					c0.46,2.39,1.28,4.69,2.43,6.83c1.17,2.15,2.63,4.13,4.34,5.87c1.65,1.69,3.66,2.99,5.87,3.81c0.56,0.19,1.12,0.35,1.69,0.48
					c0.29,0.1,0.59,0.16,0.9,0.16l0.9,0.16c1.16,0.15,2.33,0.17,3.49,0.05l0.58-0.05c0.11,0,0.21-0.05,0.32-0.05l0.69-0.16
					c0.21-0.05,0.42-0.16,0.64-0.21c0.22-0.05,0.43-0.12,0.64-0.21c0,0,0.27-0.11,0.64-0.27c0.23-0.09,0.46-0.2,0.69-0.32
					c0.14-0.08,0.28-0.15,0.42-0.21c0.16-0.11,0.27-0.21,0.42-0.32c0.15-0.09,0.29-0.2,0.42-0.32c0.28-0.28,0.56-0.56,0.85-0.85
					c0.11-0.16,0.27-0.32,0.37-0.48c0.48-0.69,0.87-1.44,1.16-2.22c0.13-0.29,0.22-0.59,0.27-0.9c0.05-0.27,0.16-0.53,0.21-0.79
					c0.06-0.38,0.15-0.75,0.27-1.11c0.16-0.53,0.32-0.69,0.48-0.58c0.59,1.22,0.76,2.59,0.48,3.92v0.32c0,0.11-0.05,0.26-0.05,0.42
					c0,0.11-0.05,0.16-0.05,0.27c-0.05,0.11-0.05,0.21-0.11,0.32c-0.05,0.21-0.16,0.48-0.21,0.69c-0.06,0.12-0.1,0.24-0.11,0.37
					c-0.05,0.13-0.12,0.26-0.21,0.37c-0.16,0.27-0.27,0.53-0.42,0.85c-0.16,0.27-0.37,0.53-0.53,0.79c-0.39,0.52-0.83,1-1.32,1.43
					c-0.48,0.37-0.95,0.74-1.38,1.01s-0.79,0.42-1.06,0.58c-0.11,0.04-0.22,0.1-0.32,0.16c-0.03,0.03-0.07,0.05-0.11,0.05
					c-0.56,0.23-1.15,0.39-1.75,0.48l-0.9,0.16l-0.69,0.05c-0.35,0.06-0.7,0.1-1.06,0.11c-0.71,0.04-1.41,0.02-2.12-0.05l-1.06-0.1
					l-1.01-0.16c-0.69-0.11-1.32-0.26-2.01-0.42c-0.35-0.06-0.69-0.16-1.01-0.32c-0.35-0.09-0.68-0.22-1.01-0.37
					c-2.57-1.11-4.88-2.75-6.77-4.82c-1.87-1.97-3.46-4.2-4.71-6.61c-1.23-2.44-2.11-5.04-2.59-7.73c-0.49-2.76-0.4-5.59,0.26-8.31
					c0.38-1.37,0.89-2.7,1.53-3.97c0.67-1.27,1.53-2.42,2.54-3.44c1.05-1.1,2.33-1.95,3.76-2.49c1.46-0.51,3.01-0.69,4.55-0.53
					C15.06,0.37,17.07,1.14,18.83,2.34z"/>
			</g>
		</g>
	</g>
	<g id="Group_371" transform="translate(375.251 255.117)">
		<g id="Group_370" transform="translate(0)">
			<g id="Group_369">
				<path id="Path_196" class="st1" d="M6.3,6.28L6.25,6.34C5.55,7.1,4.68,7.68,3.71,8.03c-0.05,0.03-0.1,0.04-0.16,0.05
					C3.5,8.03,0.22,3.06,0.22,3.06c-0.15-0.6-0.22-1.23-0.21-1.85C-0.05-0.12,0.8-0.17,1.54,0.2c0.52,0.32,1.01,0.67,1.48,1.06
					C3.02,1.26,6.25,6.23,6.3,6.28z"/>
			</g>
		</g>
	</g>
	<g id="Group_374" transform="translate(369.066 259.51)">
		<g id="Group_373" transform="translate(0 0)">
			<g id="Group_372">
				<path id="Path_197" class="st1" d="M10.06,4.59V4.7c-0.25,1.02-0.8,1.94-1.59,2.65c0,0-0.11,0.05-0.11,0.11
					C8.26,7.4,1.75,3.37,1.75,3.37c-0.52-0.55-0.98-1.16-1.38-1.8c-0.9-1.38,0-1.69,0.95-1.53c0.75,0.17,1.49,0.38,2.22,0.64
					C3.55,0.68,9.95,4.54,10.06,4.59z"/>
			</g>
		</g>
	</g>
	<g id="Group_377" transform="translate(383.353 280.818)">
		<g id="Group_376" transform="translate(0 0)">
			<g id="Group_375">
				<path id="Path_198" class="st1" d="M1.38,0h0.11c1,0.23,1.96,0.61,2.86,1.11l0.11,0.05c0,0.05-1.43,3.6-1.43,3.6
					C2.67,5.06,2.28,5.3,1.85,5.45C1.3,5.78,0.6,5.59,0.28,5.04C0.23,4.96,0.19,4.86,0.16,4.77C0.06,4.35,0,3.92,0,3.5
					C0,3.5,1.38,0.06,1.38,0z"/>
			</g>
		</g>
	</g>
	<g id="Group_380" transform="translate(389.385 281.188)">
		<g id="Group_379" transform="translate(0 0)">
			<g id="Group_378">
				<path id="Path_199" class="st1" d="M0,0.37l0.05-0.05C1.06,0.11,2.09,0,3.12,0h0.16c0,0.05,0.32,2.91,0.32,2.91
					c-0.19,0.35-0.44,0.65-0.74,0.9C2.39,4.33,1.61,4.4,1.06,3.97C1.01,4.02,0.37,3.23,0.37,3.23S0,0.43,0,0.37z"/>
			</g>
		</g>
	</g>
	<g id="Group_383" transform="translate(447.427 222.669)">
		<g id="Group_382" transform="translate(0)">
			<g id="Group_381">
				<path id="Path_200" class="st1" d="M18.2,3.7c0.05,0.05,0.11,0.05,0.16,0.16c0.31,0.43,0.44,0.96,0.37,1.48
					c-0.11,0.53-0.53,1.06-1.59,1.32c-0.05,0-0.21,0.05-0.26,0c-1.64-0.74-3.28-1.38-4.92-1.96c-1.72-0.65-3.52-1.1-5.34-1.32
					C6.4,3.39,6.19,3.38,5.98,3.33H5.4C5.07,3.35,4.75,3.42,4.45,3.54c-0.51,0.19-0.92,0.6-1.11,1.11C3.16,5.24,3.22,5.86,3.5,6.4
					c0.06,0.2,0.13,0.39,0.21,0.58c0.26,0.53,0.6,1.01,1.01,1.43c0.55,0.65,1.17,1.23,1.85,1.75c0.71,0.58,1.45,1.11,2.22,1.59
					c1.22,0.74,2.06,1.27,2.54,1.59c0.48,0.37,0.53,0.58,0.37,0.64c-0.37,0.21-1.96,0-3.76-0.69c-1.45-0.48-2.83-1.18-4.07-2.06
					c-1-0.67-1.89-1.49-2.65-2.43C0.85,8.3,0.55,7.76,0.32,7.2C0.1,6.62,0,6.01,0,5.4c0-0.65,0.11-1.29,0.32-1.9
					C0.85,2.16,1.9,1.09,3.23,0.53c0.62-0.26,1.28-0.42,1.96-0.48L5.67,0h0.42c0.28-0.01,0.57,0.01,0.85,0.05
					c2.09,0.29,4.15,0.78,6.14,1.48C14.82,2.28,16.51,2.97,18.2,3.7z"/>
			</g>
		</g>
	</g>
	<g id="Group_386" transform="translate(474.293 230.024)">
		<g id="Group_385" transform="translate(0 0)">
			<g id="Group_384">
				<path id="Path_201" class="st1" d="M3.19,2.97C3.14,2.91,3.08,2.91,3.03,2.81C2.76,2.36,2.65,1.84,2.71,1.33
					C2.82,0.8,3.24,0.27,4.35,0h0.32c1.64,0.85,3.28,1.75,4.92,2.75c0.53,0.32,1.01,0.69,1.53,1.06c0.53,0.4,1.03,0.84,1.48,1.32
					c0.25,0.28,0.48,0.58,0.69,0.9c0.12,0.22,0.21,0.45,0.26,0.69c0.06,0.22,0.1,0.46,0.11,0.69v0.37C13.67,7.89,13.65,8,13.61,8.1
					c0,0.2-0.04,0.39-0.11,0.58c-0.12,0.41-0.3,0.8-0.53,1.16c-0.08,0.08-0.15,0.17-0.21,0.27c-0.21,0.25-0.46,0.46-0.74,0.64
					c-0.36,0.25-0.75,0.47-1.16,0.64c-0.45,0.15-0.91,0.28-1.38,0.37c-1.98,0.23-3.98,0.14-5.93-0.27
					c-3.02-0.53-3.81-1.01-3.49-1.27c0.32-0.32,1.85-0.42,3.7-0.53C3.55,9.63,5.78,9.63,7.79,9.26c0.8-0.13,1.56-0.43,2.22-0.9
					c0.32-0.32,0.27-0.48,0.32-0.48c0.05-0.05,0.05-0.11,0.05-0.21V7.51l0,0c-0.06-0.09-0.13-0.18-0.21-0.27
					C9.44,6.56,8.64,5.94,7.79,5.4C6.31,4.6,4.78,3.76,3.19,2.97z"/>
			</g>
		</g>
	</g>
	<path id="Path_202" d="M440.13,241.08c-2.7,0-2.75,4.23,0,4.23C442.83,245.32,442.83,241.08,440.13,241.08z"/>
	<path id="Path_203" d="M432.35,244.1c-2.7,0-2.75,4.23,0,4.23C435.05,248.33,435.1,244.1,432.35,244.1z"/>
	<path id="Path_204" d="M398.49,255.37c-2.7,0-2.75,4.23,0,4.23C401.18,259.6,401.24,255.37,398.49,255.37z"/>
	<path id="Path_205" d="M391.77,258.92c-2.7,0-2.75,4.23,0,4.23S394.52,258.92,391.77,258.92z"/>
	<g id="Group_389" transform="translate(391.66 194.145)">
		<g id="Group_388" transform="translate(0)">
			<g id="Group_387">
				<path id="Path_206" class="st1" d="M1.11,24.98c-0.05,0-0.05,0.05-0.11,0.05c-0.42,0.05-1.22-0.11-0.95-1.22l0.05-0.11
					l2.12-1.69L26.14,3.13c0,0,2.06-1.43,3.6-2.33c2.54-1.59,1.85-0.53,0.53,0.74c0.16-0.11-3.28,2.96-3.28,2.96L3.29,23.29
					L1.11,24.98z"/>
			</g>
		</g>
	</g>
	<g id="Group_392" transform="translate(412.295 186.896)">
		<g id="Group_391" transform="translate(0 0)">
			<g id="Group_390">
				<path id="Path_207" class="st1" d="M1.11,25.04c-0.05,0-0.05,0.05-0.11,0.05c-0.42,0.05-1.22-0.11-0.95-1.22
					c0.03-0.05,0.04-0.1,0.05-0.16l2.12-1.69L26.14,3.13c0,0,2.06-1.43,3.6-2.33c2.54-1.59,1.85-0.53,0.53,0.74
					c0.16-0.11-3.28,2.96-3.28,2.96L3.29,23.29L1.11,25.04z"/>
			</g>
		</g>
	</g>
	<g id="Group_395" transform="translate(459.972 252.352)">
		<g id="Group_394" transform="translate(0 0)">
			<g id="Group_393">
				<path id="Path_208" class="st1" d="M1,13.55c-0.05,0-0.05,0.05-0.11,0c-0.42,0-1.16-0.27-0.79-1.32l0.05-0.11l2.33-1.43
					l12.33-7.46l1.32-0.79c0,0,2.22-1.16,3.86-1.85c2.75-1.22,1.9-0.32,0.42,0.79c0.16-0.05-3.6,2.54-3.6,2.54l-1.11,0.69
					L3.38,12.07L1,13.55z"/>
			</g>
		</g>
	</g>
	<g id="Group_398" transform="translate(473.57 249.495)">
		<g id="Group_397" transform="translate(0)">
			<g id="Group_396">
				<path id="Path_209" class="st1" d="M1,13.49c-0.05,0-0.05,0.05-0.11,0c-0.42,0-1.16-0.27-0.79-1.32l0.05-0.11l2.33-1.43
					l12.33-7.41l1.32-0.79c0,0,2.22-1.16,3.86-1.85c2.75-1.22,1.9-0.32,0.42,0.79c0.16-0.05-3.6,2.54-3.6,2.54l-1.11,0.69
					L3.38,12.07L1,13.49z"/>
			</g>
		</g>
	</g>
	<g id="Group_401" transform="translate(417.736 258.754)">
		<g id="Group_400" transform="translate(0 0)">
			<g id="Group_399">
				<path id="Path_210" class="st1" d="M23.19,2.86c-0.05-0.05-0.11-0.05-0.16-0.16c-0.26-0.45-0.34-0.98-0.21-1.48
					C22.97,0.69,23.4,0.21,24.56,0h0.32c1.59,0.95,3.17,1.9,4.71,2.91c1.32,0.9,2.64,1.8,3.92,2.8c1.33,1,2.55,2.14,3.65,3.39
					c0.67,0.72,1.19,1.57,1.53,2.49c0.1,0.29,0.17,0.59,0.21,0.9c0.05,0.16,0,0.37,0.05,0.53c0.01,0.2-0.01,0.39-0.05,0.58
					c-0.05,0.21-0.11,0.37-0.16,0.58c-0.07,0.19-0.16,0.36-0.26,0.53l-0.16,0.27l-0.16,0.16l-0.32,0.32
					c-0.75,0.71-1.65,1.24-2.65,1.53c-0.83,0.29-1.68,0.5-2.54,0.64c-1.98,0.29-3.98,0.39-5.98,0.32c-1.96-0.05-3.92-0.16-5.82-0.37
					s-3.81-0.48-5.71-0.79l-1.16-0.21l-0.9-0.16l-1.75-0.32c0,0-1.22-0.32-2.86-0.85c-1.8-0.58-3.56-1.25-5.29-2.01
					c-2.8-1.22-3.49-1.9-3.07-2.06c0.42-0.21,1.9,0.05,3.7,0.37c-0.16-0.11,1.96,0.37,4.18,0.79c2.22,0.37,4.44,0.69,4.44,0.69
					l1.64,0.32l0.85,0.16l1.32,0.21c1.8,0.27,3.6,0.53,5.4,0.69c3.51,0.44,7.07,0.46,10.58,0.05c0.67-0.1,1.32-0.26,1.96-0.48
					c0.5-0.16,0.97-0.41,1.38-0.74c0-0.05,0.05-0.05,0.11-0.11l0.05-0.05l0,0v-0.05c-0.05-0.05,0-0.11-0.05-0.21
					c-0.25-0.52-0.57-1-0.95-1.43c-0.98-1.08-2.06-2.05-3.23-2.91c-1.16-0.9-2.43-1.8-3.7-2.65C26.32,4.74,24.78,3.75,23.19,2.86z"
					/>
			</g>
		</g>
	</g>
	<g id="Group_404" transform="translate(488.472 201.717)">
		<g id="Group_403" transform="translate(0 0)">
			<g id="Group_402">
				<path id="Path_211" class="st1" d="M12.24,7.62v0.11c-0.04,0.25-0.15,0.49-0.32,0.69c-0.16,0.21-0.48,0.37-1.06,0.11
					c0,0-0.11-0.05-0.11-0.11c-0.51-0.94-0.73-2.01-0.64-3.07c0.06-0.98,0.45-1.92,1.11-2.65c0.31-0.34,0.64-0.66,1.01-0.95
					c0.16-0.16,0.37-0.27,0.53-0.42l0.58-0.32c0.79-0.43,1.65-0.74,2.54-0.9c0.46-0.06,0.91-0.1,1.38-0.11
					c0.42,0.05,0.9,0.05,1.32,0.11c1.74,0.31,3.39,1.01,4.82,2.06c0.7,0.53,1.34,1.13,1.9,1.8l0.42,0.53l0.37,0.58
					c0.14,0.18,0.24,0.37,0.32,0.58l0.32,0.64l0.21,0.69c0.05,0.27,0.05,0.48,0.11,0.74c0.03,0.44,0.03,0.88,0,1.32
					c-0.05,0.94-0.3,1.86-0.74,2.7c-0.27,0.42-0.59,0.81-0.95,1.16c-0.37,0.33-0.8,0.58-1.27,0.74l-0.32,0.11
					c-0.05,0-0.05,0-0.11,0.05h-0.11l0.37,0.27c0.16,0.16,0.37,0.32,0.53,0.48c0.16,0.21,0.32,0.37,0.48,0.58
					c0.53,0.8,0.84,1.74,0.9,2.7c0,0.89-0.09,1.77-0.27,2.64c-0.11,0.37-0.21,0.79-0.32,1.16c-0.13,0.38-0.29,0.76-0.48,1.11
					l-0.26,0.53c-0.12,0.17-0.22,0.35-0.32,0.53c-0.22,0.34-0.47,0.66-0.74,0.95c-1.5,1.67-3.54,2.78-5.77,3.12
					c-2.1,0.37-4.24,0.42-6.35,0.16c-1.14-0.1-2.24-0.44-3.23-1.01c-1.05-0.56-1.91-1.4-2.48-2.44c-0.59-1.05-0.84-2.24-0.74-3.44
					c0.03-0.3,0.08-0.61,0.16-0.9l0.05-0.21V20H4.36c-0.6-0.05-1.18-0.17-1.75-0.37C2,19.41,1.46,19.05,1.02,18.57L0.71,18.2
					c-0.09-0.13-0.16-0.27-0.21-0.42c-0.14-0.29-0.24-0.59-0.32-0.9c-0.08-0.29-0.13-0.6-0.16-0.9c-0.04-0.32-0.02-0.64,0.05-0.95
					c0.09-0.65,0.34-1.27,0.74-1.8c0.38-0.49,0.87-0.89,1.43-1.16c0.16-0.05,0.27-0.16,0.42-0.21h0.05l-0.21-0.32
					c-0.29-0.49-0.54-1-0.74-1.53C1.56,9.44,1.43,8.85,1.39,8.26C1.39,7.94,1.4,7.62,1.45,7.3C1.49,7,1.56,6.7,1.66,6.4
					c0.45-1.13,1.27-2.06,2.33-2.65C4.5,3.47,5.03,3.22,5.57,3.02c0.29-0.11,0.59-0.16,0.9-0.16h0.32C7.39,2.81,7.98,2.9,8.54,3.12
					c0.28,0.11,0.55,0.25,0.79,0.42c0.5,0.36,0.93,0.81,1.27,1.32c0.36,0.57,0.66,1.17,0.9,1.8c0.53,1.48,0.42,1.96,0.21,1.85
					c-0.42-0.44-0.77-0.94-1.06-1.48c-0.23-0.29-0.44-0.59-0.64-0.9C9.6,5.6,9.08,5.15,8.49,4.82C8.27,4.7,8.04,4.61,7.8,4.55
					C7.49,4.44,7.17,4.4,6.85,4.45H6.58c-0.2,0-0.39,0.04-0.58,0.11C5.58,4.68,5.17,4.86,4.78,5.08C4.07,5.5,3.49,6.13,3.14,6.88
					C3.01,7.25,2.95,7.65,2.98,8.04C3.02,8.48,3.11,8.9,3.25,9.31c0.16,0.42,0.36,0.83,0.58,1.22l0.21,0.32l0.48,0.64
					c0.32,0.42,0.74,0.85,1.11,1.27c0.05,0.05,0,0.05-0.05,0.05H5.47l-0.27,0.11l-0.48,0.05c-0.32,0.05-0.58,0.11-0.85,0.16
					c-0.13,0.03-0.25,0.06-0.37,0.11c-0.05,0-0.11,0.05-0.16,0.05l-0.11,0.05c-0.1,0.04-0.18,0.09-0.27,0.16
					c-0.35,0.17-0.66,0.43-0.9,0.74c-0.46,0.65-0.57,1.47-0.32,2.22c0.16,0.76,0.7,1.37,1.43,1.64c0.41,0.15,0.84,0.24,1.27,0.27
					h0.79c0.54-0.02,1.07-0.11,1.59-0.27l0.9-0.21l0.42-0.11l0.21-0.05h0.11c0.05,0,0,0,0,0.05l-0.05,0.05l-1.16,1.59l-0.32,0.42
					c-0.11,0.11-0.11,0.27-0.21,0.37c-0.05,0.1-0.09,0.21-0.11,0.32l-0.05,0.16c0,0.21-0.11,0.42-0.11,0.64
					C6.41,22.19,6.59,23.05,7,23.81c0.44,0.76,1.08,1.39,1.85,1.8c0.81,0.42,1.69,0.69,2.59,0.79c1.95,0.24,3.93,0.19,5.87-0.16
					c1.85-0.29,3.55-1.21,4.82-2.59c0.22-0.24,0.42-0.51,0.58-0.79c0.11-0.16,0.16-0.27,0.27-0.42l0.21-0.42
					c0.29-0.63,0.5-1.28,0.64-1.96c0.16-0.71,0.25-1.44,0.27-2.17c-0.04-0.66-0.26-1.3-0.64-1.85c-0.09-0.13-0.2-0.26-0.32-0.37
					c-0.14-0.11-0.26-0.23-0.37-0.37l-0.21-0.16c-0.04-0.05-0.1-0.08-0.16-0.11c-0.1-0.04-0.18-0.09-0.27-0.16l-0.58-0.32
					c-0.05,0-0.11-0.05-0.16-0.05l-0.21-0.05l-0.42-0.11l-0.21-0.05H20.5v-1.01l0.05-0.37V12.7c0-0.03,0.02-0.05,0.05-0.05
					c0,0,0,0,0,0l0.74-0.05c0.27,0,0.53-0.05,0.74-0.05l0.53-0.11l0.48-0.11l0.21-0.11c0.61-0.22,1.11-0.65,1.43-1.22
					c0.32-0.6,0.51-1.27,0.53-1.96c0.03-0.37,0.03-0.74,0-1.11l-0.05-0.48l-0.16-0.48c-0.27-0.67-0.66-1.28-1.16-1.8
					c-0.24-0.29-0.5-0.56-0.79-0.79c-0.27-0.27-0.58-0.48-0.9-0.74c-1.2-0.9-2.59-1.5-4.07-1.75c-1.44-0.27-2.92,0-4.18,0.74
					l-0.48,0.27c-0.16,0.11-0.26,0.21-0.42,0.32c-0.27,0.2-0.52,0.43-0.74,0.69c-0.42,0.49-0.68,1.1-0.74,1.75
					C11.69,6.34,11.92,7,12.24,7.62z"/>
			</g>
		</g>
	</g>
	<g id="Group_407" transform="translate(518.274 191)">
		<g id="Group_406" transform="translate(0 0)">
			<g id="Group_405">
				<path id="Path_212" class="st1" d="M14.39,7.97h-0.11c-0.25,0-0.49-0.07-0.69-0.21c-0.21-0.16-0.42-0.42-0.21-1.06
					c0.03-0.06,0.06-0.11,0.11-0.16c0.47-0.31,0.99-0.52,1.53-0.63c0.58-0.1,1.18-0.06,1.75,0.11c0.6,0.21,1.14,0.55,1.59,1.01
					c0.43,0.43,0.8,0.91,1.11,1.43c0.57,1.07,0.8,2.29,0.69,3.49c-0.12,1.15-0.5,2.25-1.11,3.23c-0.16,0.26-0.32,0.48-0.48,0.74
					c-0.16,0.21-0.37,0.48-0.53,0.69c-0.2,0.22-0.41,0.44-0.64,0.63c-0.27,0.16-0.48,0.37-0.79,0.53c-0.15,0.08-0.31,0.15-0.48,0.21
					c-0.16,0.05-0.32,0.11-0.53,0.16c-0.28,0.06-0.56,0.1-0.85,0.11c-0.63,0.08-1.26,0.01-1.85-0.21c-0.64-0.23-1.2-0.66-1.59-1.22
					c-0.16-0.21-0.11-0.21-0.11-0.21l0,0l-0.11,0.16c-0.39,0.54-0.92,0.97-1.53,1.22c-0.29,0.12-0.59,0.23-0.9,0.32
					c-0.3,0.06-0.6,0.09-0.9,0.11c-0.75,0.01-1.49-0.06-2.22-0.21c-0.72-0.16-1.4-0.45-2.01-0.85c-1.32-0.86-2.29-2.15-2.75-3.65
					C0.3,12.3,0.03,10.86,0,9.4c-0.03-0.79,0.08-1.58,0.32-2.33C0.58,6.27,1.05,5.55,1.69,5C2.34,4.46,3.13,4.11,3.97,4
					C4.18,4,4.39,3.95,4.6,3.95h0.11V3.36C4.7,3.15,4.72,2.94,4.76,2.73c0.11-0.95,0.66-1.79,1.48-2.27
					c0.39-0.22,0.82-0.36,1.27-0.42C8-0.05,8.49,0.01,8.94,0.19c0.44,0.17,0.84,0.44,1.16,0.79l0.21,0.26l0.11,0.11l0,0l0.11-0.11
					c0.17-0.11,0.33-0.23,0.48-0.37c0.71-0.5,1.56-0.76,2.43-0.74h0.37l0.32,0.05c0.21,0.05,0.42,0.16,0.64,0.21l0.32,0.16
					l0.27,0.21l0.27,0.21l0.05,0.05l0.32,0.32l0.21,0.21l0.21,0.26c0.14,0.17,0.26,0.34,0.37,0.53c0,0,0.05,0.16,0.16,0.42
					c0.01,0.08,0.05,0.15,0.11,0.21c0,0.11,0.05,0.16,0.05,0.26c0.07,0.2,0.09,0.42,0.05,0.63c0,0.61-0.18,1.2-0.53,1.69
					c-0.32,0.48-0.74,0.89-1.22,1.22c-0.42,0.33-0.91,0.57-1.43,0.69c-0.32,0.05-0.37,0-0.37-0.11c0.05-0.21,0.69-0.69,1.22-1.32
					c0.18-0.2,0.34-0.41,0.48-0.63c0.48-0.61,0.53-1.46,0.11-2.12c-0.05-0.11-0.11-0.16-0.11-0.21l-0.05-0.05
					c-0.16-0.16-0.27-0.42-0.42-0.58L14.6,2.26L14.55,2.2L14.39,2.1l-0.16-0.11c-0.04-0.04-0.1-0.06-0.16-0.05
					c-0.1-0.06-0.2-0.09-0.32-0.11L13.6,1.78h-0.16c-0.51,0.01-1.01,0.18-1.43,0.48c-0.11,0.11-0.27,0.16-0.37,0.26l-0.11,0.05
					l-0.16,0.16C11.24,2.84,11.11,2.97,11,3.1L10.26,4L10.1,4.21L10,4.32L9.95,4.21L9.73,3.63L9.52,3.05
					C9.47,2.89,9.36,2.68,9.31,2.52C9.26,2.47,9.2,2.36,9.15,2.31L9.1,2.2L8.99,2.04c-0.14-0.17-0.32-0.3-0.53-0.37
					C8.26,1.6,8.04,1.58,7.83,1.62C7.59,1.64,7.35,1.71,7.14,1.83C7.03,1.89,6.98,1.94,6.87,1.99C6.82,2.1,6.72,2.15,6.66,2.2
					C6.55,2.4,6.48,2.62,6.45,2.84v0.85C6.52,4.05,6.62,4.4,6.77,4.74l0.48,1.22c0.11,0.37,0.53,1.01-0.11,0.53
					C6.7,6.23,6.24,6,5.76,5.8L5.18,5.54L5.02,5.48H4.33C3.8,5.53,3.3,5.75,2.9,6.12C2.49,6.47,2.18,6.93,2,7.44
					C1.85,8.01,1.78,8.6,1.79,9.19c0.03,1.3,0.27,2.58,0.69,3.81c0.38,1.14,1.12,2.12,2.12,2.8c0.45,0.3,0.95,0.51,1.48,0.63
					c0.59,0.13,1.2,0.19,1.8,0.16c0.8,0.04,1.58-0.31,2.06-0.95l0.05-0.05v-0.05c0.03-0.03,0.05-0.07,0.05-0.11
					c0.05-0.11,0.11-0.26,0.16-0.37l0.16-0.37l0.11-0.58v-0.16c0-0.05,0.05,0,0.05-0.05h0.58l0.48-0.05h0.32
					c0.05,0,0.16-0.05,0.21,0l0.05,0.26l0.05,0.21l0.16,0.42c0.03,0.13,0.09,0.26,0.16,0.37l0.16,0.32l0.11,0.21
					c0.18,0.3,0.46,0.52,0.79,0.63c0.39,0.12,0.81,0.16,1.22,0.11c0.23-0.01,0.46-0.04,0.69-0.11c0.17-0.05,0.33-0.12,0.48-0.21
					c0.16-0.05,0.32-0.21,0.53-0.32c0.17-0.15,0.33-0.3,0.48-0.48c0.17-0.15,0.31-0.33,0.42-0.53c0.15-0.17,0.28-0.37,0.37-0.58
					c0.48-0.79,0.79-1.68,0.9-2.59c0.12-0.88-0.05-1.77-0.48-2.54c-0.22-0.39-0.48-0.74-0.79-1.06c-0.27-0.3-0.62-0.51-1.01-0.63
					C15.69,7.4,15.01,7.62,14.39,7.97z"/>
			</g>
		</g>
	</g>
	<g id="Group_410" transform="translate(545.787 176.672)">
		<g id="Group_409">
			<g id="Group_408">
				<path id="Path_213" class="st1" d="M5.5,9.81c0-0.03,0.02-0.05,0.05-0.05c0,0,0,0,0,0C5.78,9.67,6.01,9.6,6.24,9.54
					c0.27,0,0.64,0.11,0.74,0.74v0.16c-0.28,0.58-0.72,1.06-1.27,1.38c-0.55,0.29-1.19,0.38-1.8,0.26c-0.77-0.12-1.5-0.43-2.12-0.9
					c-0.58-0.49-1.03-1.1-1.32-1.8C0.21,8.71,0.05,7.99,0,7.27C-0.04,6.48,0.12,5.7,0.47,4.99C0.6,4.81,0.74,4.63,0.9,4.46
					l0.37-0.37c0.3-0.28,0.66-0.5,1.06-0.63c0.44-0.17,0.92-0.2,1.38-0.11h0.05C3.75,3.25,3.76,3.14,3.81,3.04
					c0.08-0.44,0.26-0.86,0.53-1.22C4.45,1.67,4.57,1.53,4.71,1.4c0.13-0.12,0.27-0.23,0.42-0.32C5.39,0.87,5.68,0.7,5.98,0.55
					c0.57-0.3,1.2-0.48,1.85-0.53C8.92-0.06,10,0.24,10.9,0.87c0.82,0.57,1.57,1.25,2.22,2.01c1.35,1.28,1.48,3.37,0.32,4.82
					l-0.32,0.32l-0.11,0.05l0,0c0,0-0.05-0.05,0.11,0.16c0.17,0.27,0.31,0.55,0.42,0.85c0.1,0.34,0.11,0.71,0.05,1.06
					c-0.09,0.32-0.23,0.63-0.42,0.9c-0.19,0.28-0.45,0.52-0.74,0.69c-0.31,0.21-0.68,0.32-1.06,0.32c-0.18,0.01-0.36-0.01-0.53-0.05
					c-0.11,0-0.11-0.05-0.11,0l0,0c-0.04,0.19-0.11,0.36-0.21,0.53c-0.05,0.11-0.05,0.16-0.11,0.26c-0.18,0.35-0.44,0.65-0.74,0.9
					c-0.18,0.14-0.37,0.24-0.58,0.32C9.02,14,8.95,14.02,8.88,14.04C8.73,14.1,8.57,14.1,8.3,14.15c-0.57-0.01-1.13-0.13-1.64-0.37
					c-0.11-0.05-0.16-0.11-0.27-0.16c-0.11-0.04-0.2-0.11-0.27-0.21c-0.32-0.29-0.55-0.65-0.69-1.06c-0.1-0.36-0.11-0.74-0.05-1.11
					c0.08-0.54,0.3-1.05,0.64-1.48C6.24,9.55,6.34,9.49,6.34,9.6c0.11,0.21-0.16,0.95-0.11,1.69c0.01,0.12,0.02,0.25,0.05,0.37
					c0.06,0.27,0.23,0.5,0.48,0.63c0.04,0.04,0.1,0.06,0.16,0.05l0.16,0.05c0.32,0.12,0.67,0.14,1.01,0.05
					c0.05,0,0.11-0.05,0.16-0.05s0.05-0.05,0.11-0.05c0.03,0,0.05-0.02,0.05-0.05c0,0,0,0,0,0c0.05,0,0.05-0.05,0.11-0.05
					c0.13-0.12,0.24-0.26,0.32-0.42c0.04-0.04,0.06-0.1,0.05-0.16c0.02-0.08,0.06-0.15,0.11-0.21v-0.21l0.05-0.32
					c0.05-0.11,0-0.26,0.05-0.32l0.27-0.11l0.32-0.16l0.69-0.32c0.11,0,0.21,0.11,0.32,0.16c0.07,0.01,0.14,0.03,0.21,0.05h0.16
					c0.11,0,0.16-0.05,0.27-0.05c0.19-0.16,0.33-0.36,0.42-0.58c0.04-0.23-0.04-0.47-0.21-0.63l-0.05-0.05L11.37,8.8
					c-0.05-0.05-0.11-0.16-0.21-0.21l-0.32-0.21c-0.11-0.05-0.27-0.16-0.37-0.21l-1.43-0.9L8.99,7.21H9.1l0.27-0.05l0.58-0.11
					l0.58-0.11c0.16-0.05,0.42-0.05,0.53-0.11l0.37-0.16l0.16-0.05l0.05-0.05c0.05-0.05,0.16-0.11,0.16-0.16
					c0.2-0.22,0.32-0.5,0.37-0.79c0.06-0.69-0.19-1.37-0.69-1.85c-0.51-0.67-1.14-1.24-1.85-1.69C9,1.66,8.26,1.46,7.51,1.5
					C7.08,1.54,6.67,1.67,6.29,1.87c-0.42,0.21-0.8,0.5-1.11,0.85C5.07,2.85,5,3.02,4.97,3.19v0.16c0.01,0.18,0.05,0.36,0.11,0.53
					c0.05,0.11,0,0.16,0.11,0.26l0.16,0.32L5.08,4.67L4.44,5.26L4.23,5.41C4.18,5.47,4.12,5.52,4.07,5.52
					C3.96,5.47,3.91,5.36,3.81,5.31L3.33,4.99L2.96,4.83C2.8,4.77,2.62,4.79,2.48,4.88C2.29,4.95,2.11,5.06,1.95,5.2
					C1.85,5.31,1.74,5.36,1.69,5.47C1.64,5.52,1.64,5.57,1.58,5.57c0,0.05-0.05,0.05-0.05,0.11c-0.18,0.43-0.27,0.9-0.27,1.38
					C1.29,7.58,1.4,8.1,1.58,8.59c0.19,0.46,0.48,0.88,0.85,1.22c0.36,0.3,0.8,0.49,1.27,0.53C4.87,10.6,5.24,10.39,5.5,9.81z"/>
			</g>
		</g>
	</g>
	<g id="Group_413" transform="translate(570.789 158.361)">
		<g id="Group_412" transform="translate(0 0)">
			<g id="Group_411">
				<path id="Path_214" class="st1" d="M7.7,4.73H7.65C7.44,4.66,7.24,4.55,7.07,4.42C6.85,4.26,6.64,3.94,7.01,3.36L7.17,3.2
					c0.34-0.11,0.7-0.16,1.06-0.16c0.37,0.05,0.71,0.2,1.01,0.42c0.49,0.39,0.87,0.9,1.11,1.48c0.16,0.48,0.21,0.98,0.16,1.48
					c-0.07,0.45-0.19,0.9-0.37,1.32c-0.2,0.41-0.47,0.79-0.79,1.11c-0.35,0.41-0.81,0.7-1.32,0.85C7.9,9.75,7.78,9.76,7.65,9.76
					H7.28C7.01,9.75,6.75,9.71,6.49,9.65C6.19,9.55,5.93,9.39,5.69,9.18L5.64,9.12l0,0C5.32,9.38,4.94,9.54,4.53,9.6
					c-0.33,0.05-0.67,0.05-1.01,0c-0.6-0.07-1.18-0.26-1.69-0.58C1.21,8.59,0.72,7.98,0.46,7.27C0.21,6.65,0.07,5.99,0.03,5.31
					C-0.06,4.59,0.05,3.86,0.35,3.2c0.21-0.38,0.5-0.7,0.85-0.95c0.34-0.25,0.74-0.4,1.16-0.42h0.05V1.66
					c0-0.11,0.05-0.21,0.05-0.32C2.55,1.1,2.67,0.86,2.84,0.66c0.17-0.2,0.39-0.37,0.64-0.48c0.21-0.11,0.45-0.16,0.69-0.16
					c0.25-0.04,0.5-0.02,0.74,0.05c0.11,0.05,0.27,0.11,0.37,0.16S5.48,0.4,5.59,0.45L5.64,0.5h0.11c0.05,0,0.05-0.05,0.11-0.05
					C5.91,0.4,6.01,0.4,6.12,0.34C6.61,0.2,7.13,0.23,7.6,0.45C8.05,0.71,8.41,1.12,8.6,1.61c0.06,0.12,0.1,0.24,0.11,0.37
					c0,0.16,0.05,0.26,0.05,0.42C8.75,2.67,8.68,2.92,8.55,3.15C8.37,3.47,8.1,3.73,7.76,3.89C7.58,3.99,7.38,4.06,7.17,4.1
					C6.86,4.15,6.8,4.1,6.8,3.99c0.12-0.17,0.26-0.33,0.42-0.48C7.45,3.3,7.62,3.03,7.7,2.72V2.51C7.65,2.29,7.54,2.09,7.39,1.93
					C7.17,1.66,6.96,1.61,6.8,1.66C6.69,1.68,6.58,1.71,6.49,1.77C6.43,1.82,6.17,1.98,5.9,2.19C5.7,2.14,5.48,2.1,5.27,2.09
					L4.9,1.98L4.58,1.88c-0.05,0-0.05-0.16-0.11-0.16L4.37,1.56L4.32,1.5c-0.07,0-0.15,0.02-0.21,0.05C4,1.61,4,1.61,4,1.66
					S3.95,1.72,3.95,1.82C3.89,1.98,4.16,2.46,3.84,2.51L3.31,2.93L2.84,3.3c-0.04,0.04-0.1,0.06-0.16,0.05L2.46,3.3H2.36
					C2.05,3.36,1.8,3.58,1.72,3.89c-0.07,0.17-0.1,0.35-0.11,0.53v0.74C1.58,6.04,1.95,6.9,2.62,7.48C2.92,7.65,3.24,7.76,3.57,7.8
					c0.29,0.07,0.59,0.03,0.85-0.11l0.11-0.11l0.05-0.16c0.07-0.11,0.13-0.24,0.16-0.37C4.79,7.01,4.9,7.06,5,7.01h1.43
					C6.42,7.08,6.44,7.16,6.49,7.22l0.11,0.37L6.7,7.8C6.75,7.91,6.8,7.85,6.86,7.91c0.1,0.03,0.21,0.04,0.32,0.05h0.37
					c0.21-0.07,0.39-0.2,0.53-0.37c0.58-0.58,0.82-1.42,0.64-2.22c-0.1-0.26-0.26-0.5-0.48-0.69C8.05,4.67,7.87,4.69,7.7,4.73z"/>
			</g>
		</g>
	</g>
	<g id="Group_416" transform="translate(590.705 140.05)">
		<g id="Group_415" transform="translate(0)">
			<g id="Group_414">
				<path id="Path_215" class="st1" d="M2.44,4.9L2.44,4.9C2.6,4.95,2.86,4.95,3.13,5C3.28,5,3.42,5.08,3.5,5.21
					c0.16,0.21,0.2,0.49,0.11,0.74C3.59,6.03,3.56,6.11,3.5,6.16C3.16,6.44,2.72,6.58,2.28,6.53C1.93,6.53,1.58,6.42,1.28,6.22
					C0.66,5.9,0.23,5.31,0.11,4.63c-0.18-0.66-0.14-1.37,0.11-2.01C0.3,2.44,0.39,2.26,0.49,2.09C0.54,1.99,0.61,1.9,0.7,1.83
					C0.8,1.72,0.91,1.67,0.96,1.61c0.33-0.23,0.71-0.38,1.11-0.42c0.24,0,0.47,0.06,0.69,0.16c0.18,0.09,0.36,0.2,0.53,0.32
					c0.14,0.09,0.24,0.22,0.32,0.37l0.05,0.11L3.71,2.2l0,0C3.08,2.57,5.14,1.4,2.28,2.99l0,0C2.26,2.88,2.22,2.78,2.18,2.67
					c-0.11-0.38-0.1-0.79,0.05-1.16C2.37,1.09,2.65,0.74,3.03,0.5l0,0c0.17-0.11,0.34-0.2,0.53-0.26c0.16-0.05,0.37-0.11,0.53-0.16
					c0.4-0.11,0.82-0.11,1.22,0c0.39,0.09,0.75,0.27,1.06,0.53C6.63,0.83,6.88,1.08,7.1,1.35C7.29,1.6,7.47,1.87,7.63,2.14
					C7.83,2.5,7.94,2.9,7.95,3.31c0.01,0.48-0.13,0.94-0.42,1.32C7.41,4.77,7.29,4.89,7.15,5l0,0v0.05c0,0.05,0.05,0.21,0.05,0.32
					c0,0.26-0.06,0.51-0.16,0.74C7,6.16,6.97,6.21,6.94,6.27C6.87,6.39,6.78,6.5,6.68,6.59C6.52,6.73,6.34,6.84,6.15,6.9
					c-0.13,0.07-0.28,0.1-0.42,0.11H5.46c-0.11,0-0.16,0-0.16-0.05C5.27,6.93,5.25,6.89,5.25,6.85c-0.03,0-0.05,0.02-0.05,0.05
					c0,0,0,0,0,0l0,0L5.09,7.01C4.98,7.12,4.88,7.17,4.77,7.28C4.52,7.45,4.22,7.53,3.92,7.49C3.66,7.48,3.41,7.41,3.18,7.28
					c-0.11-0.04-0.2-0.11-0.26-0.21C2.83,6.99,2.76,6.9,2.71,6.8C2.56,6.6,2.49,6.36,2.49,6.11c0-0.18,0.04-0.36,0.11-0.53
					c0.08-0.2,0.21-0.38,0.37-0.53C3.18,4.84,3.34,4.89,3.34,5C3.32,5.2,3.28,5.39,3.23,5.58C3.21,5.72,3.21,5.86,3.23,6
					c0.04,0.08,0.09,0.15,0.16,0.21c0-0.05,0.11,0.05,0.32,0.11c0.11,0.05,0.21,0,0.27,0l0.11-0.11c0.03-0.03,0.05-0.07,0.05-0.11
					C4.2,6.01,4.25,5.9,4.29,5.79C4.5,5.71,4.71,5.63,4.93,5.58C5.16,5.55,5.39,5.5,5.62,5.42l0.05,0.05v0.11
					c0-0.05,0-0.05-0.05-0.11c0,0,0.05-0.05,0-0.05l0.11,0.05H5.56L5.51,5.37c0-0.05-0.05-0.11-0.16-0.21l0.32-0.69l0.05-0.05
					l0.21-0.53C5.96,3.8,6.02,3.72,6.09,3.68l0.05-0.05C6.2,3.54,6.21,3.45,6.2,3.36C6.19,3.2,6.13,3.06,6.04,2.93
					c-0.11-0.2-0.23-0.4-0.37-0.58C5.32,1.72,4.53,1.48,3.89,1.83C3.87,1.85,3.84,1.86,3.82,1.88C3.77,1.93,3.71,1.93,3.71,1.98V2.3
					l0,0C0.86,3.89,2.92,2.72,2.28,3.09l0,0V3.04L2.23,2.99L2.07,2.83C2.02,2.78,2.02,2.78,1.97,2.78l0,0
					C1.87,2.79,1.78,2.82,1.7,2.88c-0.05,0.05-0.05,0-0.05,0l0,0c0,0.05-0.05,0.11-0.05,0.16C1.5,3.37,1.48,3.71,1.54,4.05
					c0.04,0.25,0.2,0.46,0.42,0.58c0.08,0.05,0.17,0.09,0.27,0.11C2.44,4.9,2.39,4.9,2.44,4.9z"/>
			</g>
		</g>
	</g>
	<path id="Path_216" class="st1" d="M604.89,465.11c0.71-10.97,0.21-21.99-1.48-32.86c-2.8-17.3-19.42-32.12-28.94-23.97
		s-34.07,33.07-53.76,20.58c-10.74-6.77-7.99-13.97-5.29-19.79c6.03-13.02,27.99-23.39,27.99-23.39l1.43,14.82
		c0,0,10.21-23.65,30.69-30l-2.49,22.59c0,0,8.1-18.36,25.4-29.26c0,0,13.76,21.85,11.64,49.89l4.92-5.82c0,0,3.86,15.18,0,27.14
		l7.04-4.6C622.14,430.5,617.96,455.95,604.89,465.11z"/>
	<g id="Group_419" transform="translate(510.232 384.588)">
		<g id="Group_418" transform="translate(0)">
			<g id="Group_417">
				<path id="Path_217" class="st2" d="M31.54,0.04c0.05-0.05,0.11-0.05,0.21,0c0.52,0.05,1,0.32,1.32,0.74
					c0.36,0.67,0.32,1.49-0.11,2.12c0,0.05-0.11,0.16-0.16,0.21c-1.64,0.69-3.23,1.43-4.82,2.28c-4.46,2.24-8.68,4.94-12.59,8.04
					c-3.89,3-7.14,6.74-9.58,11.01c-1.13,2.08-1.9,4.33-2.28,6.67c-0.38,2.21-0.06,4.48,0.9,6.51c0.51,0.98,1.17,1.87,1.96,2.65
					c0.83,0.79,1.73,1.5,2.7,2.12l0.48,0.32l0.32,0.16l0.64,0.32c0.42,0.21,0.9,0.42,1.38,0.64c0.24,0.1,0.47,0.23,0.69,0.37
					c0.48,0.21,1.11,0.48,1.85,0.79c1.68,0.68,3.39,1.26,5.13,1.75c2.86,0.74,3.76,1.06,3.39,1.38c-0.32,0.32-1.9,0.48-3.81,0.37
					c-2.57-0.17-5.1-0.63-7.57-1.38c-0.42-0.16-0.79-0.27-1.06-0.37s-0.37-0.16-0.37-0.16c-0.53-0.21-1.01-0.48-1.53-0.74
					c-0.27-0.16-0.53-0.27-0.74-0.42l-0.58-0.32c-0.32-0.16-0.58-0.37-0.85-0.53c-2.39-1.55-4.28-3.75-5.45-6.35
					c-0.53-1.34-0.85-2.75-0.95-4.18C0,33.64,0.06,33.32,0,32.95v-1.06c0.04-0.69,0.12-1.38,0.26-2.06c0.5-2.65,1.43-5.21,2.75-7.57
					c1.3-2.3,2.87-4.45,4.66-6.4c1.75-1.93,3.66-3.7,5.71-5.29c4.03-3.18,8.37-5.95,12.96-8.25C28.1,1.58,29.79,0.78,31.54,0.04z"/>
			</g>
		</g>
	</g>
	<g id="Group_422" transform="translate(497.682 350.818)">
		<g id="Group_421">
			<g id="Group_420">
				<path id="Path_218" class="st1" d="M15.73,0.06C15.78,0,15.83,0,15.94,0c0.53-0.03,1.05,0.11,1.48,0.42
					c0.48,0.58,0.6,1.37,0.32,2.06c-0.01,0.1-0.05,0.19-0.11,0.26c-1.43,1.02-2.81,2.11-4.13,3.28c-3.7,3.22-6.66,7.21-8.68,11.69
					c-0.42,1.11-0.79,2.22-1.11,3.39c-0.26,1.15-0.42,2.32-0.48,3.49c-0.15,2.17,0.6,4.31,2.06,5.93c0.61,0.65,1.28,1.24,2.01,1.75
					c0.05,0.04,0.1,0.08,0.16,0.11c0.11,0.05,0.27,0.21,0.42,0.32c0.37,0.26,0.95,0.64,1.64,1.06c1.56,0.85,3.19,1.57,4.87,2.17
					c1.38,0.48,2.33,0.74,2.86,1.01c0.53,0.21,0.69,0.37,0.53,0.53c-0.37,0.32-1.9,0.42-3.81,0.21c-1.49-0.17-2.96-0.49-4.39-0.95
					c-1.07-0.34-2.11-0.77-3.12-1.27c-0.48-0.23-0.94-0.5-1.38-0.79c-0.8-0.58-1.55-1.24-2.22-1.96c-1.02-1.12-1.79-2.43-2.28-3.86
					c-0.45-1.42-0.65-2.9-0.58-4.39c0.07-1.39,0.25-2.77,0.53-4.13c0.32-1.34,0.74-2.65,1.27-3.91c1.04-2.5,2.41-4.85,4.07-6.98
					c1.63-2.12,3.46-4.09,5.45-5.87C12.71,2.33,14.19,1.17,15.73,0.06z"/>
			</g>
		</g>
	</g>
	<g id="Group_425" transform="translate(577.721 367.643)">
		<g id="Group_424" transform="translate(0 0)">
			<g id="Group_423">
				<path id="Path_219" class="st1" d="M3.05,27.99c0,0.05-0.05,0.11-0.16,0.16c-0.38,0.33-0.87,0.52-1.38,0.53
					c-0.53,0-1.16-0.37-1.48-1.43c0-0.05-0.05-0.21,0-0.27c0.37-0.9,0.69-1.75,1.11-2.59c0.37-0.85,0.79-1.69,1.16-2.54l0.74-1.43
					c0.26-0.48,0.48-0.95,0.74-1.43l0.79-1.43l0.85-1.38c0.25-0.48,0.53-0.94,0.85-1.38l0.85-1.38c0.27-0.46,0.57-0.9,0.9-1.32
					l0.9-1.32C9.24,10.37,9.56,10,9.87,9.57l0.95-1.22c0,0,0.85-0.95,1.96-2.22l1.96-1.96c0.69-0.69,1.43-1.32,2.06-1.9
					C18.55,0.8,19.03,0.43,19.56,0c-0.27,0.21-0.53,0.48-0.95,0.85c-0.28,0.23-0.54,0.48-0.79,0.74c-0.16,0.16-0.32,0.27-0.48,0.42
					l-0.48,0.48c0.05-0.05-0.26,0.32-0.85,0.9c-0.27,0.32-0.58,0.64-0.95,1.06c-0.32,0.42-0.69,0.85-1.01,1.27
					c-0.66,0.8-1.26,1.65-1.8,2.54c-0.27,0.37-0.42,0.64-0.58,0.85c-0.05,0.12-0.13,0.22-0.21,0.32l-0.69,1.11
					c-0.21,0.37-0.48,0.74-0.69,1.11l-0.79,1.38c-0.27,0.48-0.53,0.9-0.74,1.38l-0.74,1.38c-0.26,0.48-0.48,0.95-0.69,1.43
					l-0.69,1.43L5.8,20.06c-0.21,0.48-0.42,0.95-0.58,1.43l-0.58,1.48c-0.32,0.85-0.64,1.69-0.9,2.54
					C3.52,26.3,3.25,27.15,3.05,27.99z"/>
			</g>
		</g>
	</g>
	<g id="Group_428" transform="translate(512.945 427.687)">
		<g id="Group_427" transform="translate(0)">
			<g id="Group_426">
				<path id="Path_220" class="st1" d="M5.91,0.38C5.96,0.3,6.04,0.25,6.12,0.22C6.6-0.02,7.15-0.06,7.66,0.12
					c0.63,0.4,1.01,1.1,1.01,1.85v0.27C7.72,3.68,6.9,5.2,6.23,6.78C5,9.61,4.13,12.58,3.64,15.62c-0.49,3.06-0.62,6.17-0.37,9.26
					c0.23,3.1,0.78,6.17,1.64,9.15c0.87,3,1.98,5.92,3.33,8.73c1.35,2.83,2.88,5.57,4.6,8.2c0.9,1.32,1.75,2.65,2.7,3.92l1.43,1.9
					l1.48,1.75c4.25,4.44,9.72,7.53,15.71,8.89c3.02,0.67,6.11,1.03,9.21,1.06c0.79,0,1.53,0,2.33-0.05l2.33-0.16
					c1.54-0.13,3.08-0.34,4.6-0.64c3.08-0.57,6.11-1.4,9.05-2.49c0.74-0.27,1.48-0.53,2.17-0.85c0.74-0.32,1.43-0.58,2.17-0.95
					l2.12-1.01l2.06-1.16c2.7-1.55,5.25-3.34,7.62-5.34c2.38-2.01,4.56-4.24,6.51-6.67l1.43-1.9l0.48-0.64
					c0.16-0.21,0.26-0.42,0.42-0.64c0.14-0.22,0.3-0.44,0.48-0.64c0.16-0.21,0.32-0.42,0.53-0.74c0.24-0.3,0.45-0.62,0.64-0.95
					c0.48-0.69,0.95-1.48,1.48-2.28c0.48-0.79,0.95-1.64,1.43-2.38c1.32-2.59,1.96-3.39,2.17-2.96c0.11,0.43,0.11,0.89,0,1.32
					c-0.05,0.32-0.11,0.69-0.21,1.11s-0.16,0.85-0.32,1.32c-0.09,0.41-0.22,0.82-0.37,1.22c-0.18,0.45-0.34,0.91-0.48,1.38
					c-0.21,0.48-0.48,1.01-0.69,1.53c-0.27,0.53-0.48,1.06-0.74,1.59c-0.26,0.48-0.53,0.95-0.74,1.32
					c-0.42,0.79-0.74,1.32-0.74,1.32c-0.29,0.46-0.61,0.9-0.95,1.32l-0.48,0.64l-0.69,0.95l-1.59,1.9c-0.53,0.64-1.11,1.22-1.64,1.8
					c-0.58,0.58-1.11,1.16-1.75,1.75c-0.58,0.53-1.22,1.11-1.8,1.64l-1.9,1.53c-2.57,2-5.32,3.77-8.2,5.29
					c-2.89,1.49-5.88,2.78-8.94,3.86c-3.09,1.03-6.26,1.79-9.47,2.28c-3.24,0.47-6.52,0.64-9.79,0.53
					c-3.29-0.12-6.56-0.62-9.74-1.48c-3.21-0.85-6.29-2.13-9.15-3.81c-2.86-1.74-5.43-3.92-7.62-6.46
					c-1.11-1.27-2.01-2.59-2.96-3.86c-0.48-0.64-0.9-1.32-1.38-2.01c-0.42-0.69-0.9-1.32-1.32-2.01C8,49.27,6.45,46.42,5.06,43.5
					c-1.35-2.96-2.47-6.02-3.33-9.15c-0.87-3.17-1.42-6.41-1.64-9.68c-0.45-6.61,0.67-13.23,3.28-19.31
					C3.98,3.58,4.84,1.91,5.91,0.38z"/>
			</g>
		</g>
	</g>
	<g id="Group_431" transform="translate(505.867 419.277)">
		<g id="Group_430" transform="translate(0 0)">
			<g id="Group_429">
				<path id="Path_221" class="st1" d="M90.87,0.59c0.05-0.05,0.05-0.11,0.16-0.16c0.4-0.29,0.88-0.44,1.38-0.42
					c0.31-0.02,0.62,0.1,0.85,0.32c0.34,0.31,0.56,0.72,0.64,1.16c0,0.05,0.05,0.21,0,0.32c-0.16,0.37-0.32,0.69-0.48,1.06
					c-0.16,0.32-0.32,0.69-0.48,1.01l-0.53,1.01l-0.58,0.95c-0.21,0.32-0.37,0.64-0.58,0.95l-0.42,0.64
					c-0.32,0.42-0.58,0.85-0.9,1.22L88.97,9.8c-1.27,1.56-2.63,3.04-4.07,4.45c-0.69,0.74-1.48,1.38-2.17,2.01l-1.11,1.01
					c-0.37,0.32-0.79,0.64-1.16,0.9c-0.79,0.58-1.53,1.22-2.33,1.8l-2.43,1.69c-0.79,0.58-1.64,1.06-2.49,1.59s-1.69,1.06-2.54,1.53
					l-2.59,1.43c-0.85,0.48-1.69,0.95-2.59,1.38c-7.01,3.56-14.39,6.33-22.01,8.25c-7.68,1.98-15.63,2.74-23.54,2.28
					c-2.01-0.14-4.01-0.45-5.98-0.9c-1.01-0.22-2-0.52-2.96-0.9c-1.1-0.36-2.12-0.91-3.02-1.64c-0.06-0.07-0.13-0.12-0.21-0.16
					l-0.21-0.21l-0.21-0.21l-0.05-0.05l0.11,0.11c-0.05-0.05-0.11-0.11-0.11-0.16c-0.22-0.27-0.41-0.55-0.58-0.85
					c-0.29-0.53-0.54-1.07-0.74-1.64c-0.34-1.06-0.54-2.17-0.58-3.28l-0.05-0.79l0.05-0.79c0-0.53,0.11-1.06,0.16-1.59
					c0.06-0.52,0.15-1.03,0.27-1.53l0.16-0.74V22.6l0,0l-0.27,0.37c-0.11,0.16-0.26,0.37-0.37,0.53L5,24.03
					c-0.12,0.18-0.21,0.37-0.27,0.58c-0.19,0.37-0.35,0.76-0.48,1.16c-0.08,0.19-0.13,0.38-0.16,0.58
					c-0.05,0.21-0.11,0.37-0.16,0.58c-0.05,0.42-0.11,0.74-0.16,1.27l-0.16,1.48l-0.27,2.86l0,0c-0.32,3.33-0.27,6.61,0.9,9.42
					c0.29,0.72,0.64,1.41,1.06,2.06c0.19,0.33,0.41,0.65,0.64,0.95l0.32,0.48l0.32,0.37c1.13,1.05,2.42,1.92,3.81,2.59
					c2.49,1.22,5.1,2.19,7.78,2.91c2.71,0.74,5.47,1.33,8.25,1.75c1.38,0.21,2.75,0.32,4.18,0.42c1.36,0.06,2.72,0.04,4.07-0.05
					c0.61-0.06,1.21-0.19,1.8-0.37c0.27-0.09,0.54-0.2,0.79-0.32c0.27-0.16,0.58-0.26,0.79-0.42c1.09-0.72,2.08-1.58,2.96-2.54
					c0.48-0.53,1.06-1.06,1.64-1.64c0.67-0.58,1.42-1.06,2.22-1.43c0.2-0.11,0.41-0.2,0.64-0.26l0.69-0.16
					c0.43-0.12,0.88-0.19,1.32-0.21c0.42-0.03,0.85-0.03,1.27,0c0.41,0.01,0.81,0.04,1.22,0.11c0.79,0.11,1.53,0.32,2.33,0.48
					c0.09,0.01,0.18,0.03,0.27,0.05l0.21,0.05l0.37,0.05c0.27,0,0.58,0.05,0.85,0.05c1.31-0.05,2.6-0.24,3.86-0.58
					c2.67-0.76,5.26-1.79,7.72-3.07c2.5-1.29,4.94-2.7,7.3-4.23c4.71-3.1,9.04-6.74,12.91-10.85c1.9-2.04,3.64-4.24,5.18-6.56
					c1.54-2.26,2.79-4.72,3.7-7.3l0.48-1.43c0.08-0.22,0.13-0.45,0.16-0.69l0.27-1.22c0.07-0.88,0.09-1.76,0.05-2.65
					c-0.05-0.86-0.18-1.71-0.37-2.54c-0.18-0.85-0.44-1.69-0.79-2.49c-0.11-0.32-0.32-0.58-0.42-0.85
					c-0.11-0.25-0.25-0.48-0.42-0.69c-0.09-0.18-0.2-0.36-0.32-0.53c-0.11-0.13-0.2-0.27-0.27-0.42c-0.26-0.48-0.32-0.74-0.11-0.74
					c0.47,0.08,0.91,0.28,1.27,0.58c0.33,0.23,0.63,0.5,0.9,0.79c0.34,0.35,0.66,0.72,0.95,1.11c0.31,0.33,0.56,0.7,0.74,1.11
					c0.53,0.97,0.96,2,1.27,3.07c0.35,1.08,0.56,2.2,0.64,3.33c0,0.21,0.05,0.42,0.05,0.64v0.58c0,0.16-0.02,0.32-0.05,0.48v0.11
					l-0.37,1.59c-0.05,0.27-0.16,0.53-0.21,0.79l-0.21,0.69c-0.21,0.69-0.48,1.38-0.74,2.06s-0.58,1.32-0.9,2.01
					c-2.65,5.13-6.14,9.78-10.32,13.76c-4.08,3.96-8.56,7.47-13.39,10.48c-2.43,1.49-4.94,2.85-7.51,4.07
					c-2.63,1.26-5.4,2.2-8.25,2.8c-1.59,0.34-3.22,0.35-4.82,0.05l-0.32-0.05l-0.27-0.05l-0.48-0.11c-0.32-0.05-0.64-0.16-0.9-0.21
					l-0.9-0.16c-0.28-0.04-0.56-0.06-0.85-0.05c-1.05-0.03-2.09,0.27-2.96,0.85c-0.99,0.84-1.92,1.74-2.8,2.7
					c-1.09,1.12-2.36,2.05-3.76,2.75c-0.16,0.11-0.37,0.16-0.53,0.26l-0.64,0.21c-0.4,0.13-0.81,0.24-1.22,0.32l-0.58,0.11
					l-0.58,0.05c-0.37,0.05-0.74,0.05-1.11,0.11c-2.9,0.12-5.81-0.06-8.68-0.53c-2.82-0.42-5.62-1.02-8.36-1.8
					c-2.79-0.77-5.5-1.8-8.1-3.07c-1.72-0.83-3.31-1.92-4.71-3.23l-0.53-0.58c-0.16-0.21-0.27-0.37-0.42-0.58
					c-0.29-0.37-0.56-0.76-0.79-1.16c-0.53-0.79-0.95-1.64-1.27-2.54c-0.71-1.75-1.12-3.61-1.22-5.5c-0.12-1.82-0.09-3.64,0.11-5.45
					l0,0l0.27-2.91L0.6,28.1c0.05-0.42,0.11-1.06,0.21-1.59c0.05-0.27,0.12-0.54,0.21-0.79c0.11-0.26,0.11-0.53,0.21-0.79
					c0.18-0.52,0.39-1.04,0.64-1.53c0.11-0.27,0.27-0.48,0.37-0.74l0.42-0.69c0.17-0.22,0.33-0.45,0.48-0.69l0.21-0.32l0.16-0.16
					l0.21-0.26l0.95-1.06c0.32-0.37,0.64-0.64,0.95-0.95l0.48-0.48l0.48-0.37l0.48-0.37c0.15-0.14,0.3-0.26,0.48-0.37
					c0.32-0.21,0.64-0.42,0.9-0.64l0.85-0.53l1.75-1.06l1.53-0.9l0.16-0.11c0.05,0,0.16-0.16,0.05,0.05l-0.32,0.74l-0.58,1.53
					l-1.27,3.28l-0.32,0.79c-0.09,0.22-0.16,0.45-0.21,0.69l-0.42,1.38l-0.42,1.38c-0.01,0.04-0.02,0.08-0.05,0.11v0.11l-0.05,0.16
					l-0.05,0.32c-0.1,0.44-0.17,0.88-0.21,1.32c-0.06,0.44-0.1,0.88-0.11,1.32L8.7,27.53v0.64c0.01,0.43,0.04,0.85,0.11,1.27
					c0.11,0.42,0.16,0.79,0.27,1.16c0.11,0.35,0.25,0.68,0.42,1.01c0.08,0.12,0.15,0.24,0.21,0.37l0,0
					c-0.16-0.21,0.21,0.21,0.16,0.21l0,0l0.05,0.05l0.05,0.05c0.03,0.03,0.07,0.05,0.11,0.05c0.62,0.47,1.32,0.83,2.06,1.06
					c0.84,0.33,1.71,0.58,2.59,0.74c1.81,0.41,3.65,0.7,5.5,0.85c7.56,0.46,15.15-0.27,22.49-2.17c7.38-1.86,14.53-4.54,21.32-7.99
					c0.85-0.37,1.69-0.9,2.54-1.32l2.49-1.38c0.79-0.48,1.64-1.01,2.43-1.48c0.82-0.46,1.62-0.97,2.38-1.53l2.33-1.64
					c0.79-0.53,1.48-1.16,2.22-1.75c0.37-0.32,0.74-0.58,1.11-0.9l1.06-0.95c0.69-0.64,1.43-1.22,2.06-1.9
					c1.32-1.31,2.58-2.69,3.76-4.13l0.85-1.11l0.79-1.11l0.42-0.58c0.2-0.27,0.37-0.55,0.53-0.85l0.53-0.85l0.48-0.85
					c0.17-0.28,0.31-0.59,0.42-0.9C90.61,1.17,90.77,0.91,90.87,0.59z"/>
			</g>
		</g>
	</g>
	<path id="Path_222" class="st1" d="M532.77,459.07c-5.77,0-5.82,8.99,0,8.99S538.59,459.07,532.77,459.07z"/>
	<path id="Path_223" class="st1" d="M566.64,451.93c-5.77,0-5.82,8.99,0,8.99S572.46,451.93,566.64,451.93z"/>
	<path id="Path_224" class="st3" d="M522.19,448.76c0,0,12.17-0.27,12.43-5.29"/>
	<path id="Path_225" class="st3" d="M554.73,435c1.49,1.78,3.78,2.68,6.09,2.38c3.7-0.64,7.14-1.69,8.36-1.16"/>
	<path id="Path_226" class="st3" d="M547.32,470.82c0.52,2.28,1.83,4.3,3.7,5.71c2.33,1.59,6.35,1.85,8.36-1.32"/>
	<g id="Group_434" transform="translate(562.56 472.842)">
		<g id="Group_433">
			<g id="Group_432">
				<path id="Path_227" class="st1" d="M5.03,0.04c0.08-0.05,0.18-0.05,0.27,0c0.58,0.11,1.07,0.48,1.32,1.01
					c0.07,0.7-0.12,1.39-0.53,1.96C6.06,3.08,6,3.14,5.93,3.16C4.7,3.54,3.77,4.55,3.49,5.81c-0.15,0.62-0.24,1.26-0.27,1.9
					C3.19,8.05,3.21,8.39,3.28,8.72C3.27,8.89,3.29,9.07,3.34,9.24l0.05,0.48c0.17,1.15,0.76,2.2,1.64,2.96
					c0.92,0.71,2.08,1.01,3.23,0.85c1.17-0.11,2.27-0.61,3.12-1.43c0.53-0.53,0.91-1.18,1.11-1.9c0.01-0.06,0.02-0.11,0.05-0.16
					c0.05-0.16,0.08-0.32,0.11-0.48c0.14-0.55,0.21-1.12,0.21-1.69c-0.02-0.76-0.16-1.51-0.42-2.22c-0.33-0.75-0.77-1.45-1.32-2.06
					c-0.65-0.69-1.4-1.28-2.22-1.75C8.42,1.52,8.31,1.37,8.47,1.21C8.93,1.06,9.42,1.04,9.9,1.15c0.89,0.21,1.74,0.58,2.49,1.11
					c-0.05-0.11,0.42,0.21,1.06,0.9c0.83,0.86,1.46,1.89,1.85,3.02c0.4,1.19,0.57,2.45,0.48,3.7c-0.05,0.53-0.11,0.9-0.16,1.22
					c-0.02,0.16-0.06,0.32-0.11,0.48c-0.36,1.05-0.96,2.01-1.75,2.8c-1.37,1.39-3.19,2.25-5.13,2.43c-1.98,0.24-3.98-0.31-5.56-1.53
					c-0.77-0.63-1.42-1.4-1.9-2.28c-0.44-0.85-0.76-1.76-0.95-2.7L0.11,9.61C0.07,9.4,0.05,9.19,0.06,8.98
					c0-0.42-0.05-0.85-0.05-1.32c0.01-0.44,0.04-0.88,0.11-1.32l0.11-0.69l0.05-0.32l0.11-0.32c0.3-1.14,0.86-2.19,1.64-3.07
					C2.83,1.04,3.87,0.38,5.03,0.04z"/>
			</g>
		</g>
	</g>
	<g id="Group_437" transform="translate(469.741 432.347)">
		<g id="Group_436" transform="translate(0)">
			<g id="Group_435">
				<path id="Path_228" class="st1" d="M37.79,26.73c0.05,0,0.11,0.05,0.16,0.11c0.34,0.39,0.56,0.87,0.64,1.38
					c0,0.53-0.32,1.16-1.32,1.64c-0.05,0-0.21,0.05-0.27,0.05c-1.8-0.48-3.54-1.01-5.34-1.59c-2.33-0.74-4.6-1.59-6.88-2.54
					c-1.11-0.48-2.22-0.95-3.39-1.48c-1.11-0.53-2.22-1.06-3.28-1.64c-1.11-0.58-2.17-1.22-3.23-1.85
					c-0.53-0.32-1.04-0.68-1.53-1.06l-0.79-0.53l-0.74-0.58c-0.48-0.37-1.01-0.79-1.48-1.16L8.96,16.3l-2.75-2.33
					c-0.79-0.64-1.59-1.32-2.33-2.01c0,0-0.21-0.21-0.58-0.64c-0.24-0.22-0.45-0.47-0.64-0.74C2.4,10.27,2.13,9.95,1.87,9.58
					S1.34,8.74,1.07,8.31c-0.25-0.49-0.44-1-0.58-1.53c-0.28-0.98-0.43-2-0.48-3.02c-0.06-1.04,0-2.09,0.16-3.12
					C0.28,0.06,0.44-0.1,0.6,0.06c0.37,0.27,0.74,1.8,1.22,3.49c0.33,1.22,0.85,2.38,1.53,3.44c0.6,0.7,1.25,1.36,1.96,1.96
					C5.94,9.48,6.36,9.8,6.36,9.8c0.64,0.58,1.27,1.11,1.96,1.64l2.75,2.28l1.38,1.16c0.48,0.37,0.9,0.69,1.38,1.06l0.69,0.53
					l0.69,0.48l1.43,0.95c1.01,0.58,1.96,1.22,3.02,1.75c1.01,0.58,2.06,1.06,3.12,1.59c1.06,0.48,2.12,0.95,3.23,1.43
					c2.17,0.9,4.39,1.69,6.61,2.43C34.35,25.72,36.1,26.25,37.79,26.73z"/>
			</g>
		</g>
	</g>
	<g id="Group_440" transform="translate(452.171 445.96)">
		<g id="Group_439">
			<g id="Group_438">
				<path id="Path_229" class="st1" d="M74.57,36.66c0.05,0,0.11,0,0.21,0.11c0.64,0.53,1.59,1.85-0.32,3.07
					c-0.05,0-0.21,0.11-0.27,0.11l-5.45-0.69c-6.24-0.79-12.49-1.69-18.73-2.75c-3.12-0.58-6.24-1.11-9.36-1.9l-2.38-0.64
					c-0.41-0.12-0.82-0.26-1.22-0.42c-0.4-0.13-0.79-0.29-1.16-0.48l-1.11-0.48l-1.11-0.53c-0.74-0.37-1.43-0.74-2.17-1.11
					c-2.81-1.56-5.53-3.27-8.15-5.13c-2.59-1.85-5.13-3.81-7.57-5.93c-2.43-2.06-4.71-4.29-6.98-6.56l-2.43-2.65
					c0,0-0.21-0.27-0.53-0.69S5.1,8.99,4.57,8.25C4.04,7.57,3.51,6.77,2.98,5.93S1.93,4.29,1.5,3.49c-3.02-5.24-0.95-3.7,1.53-1.01
					C2.93,2.33,4.41,3.92,5.95,5.56c0.79,0.79,1.59,1.59,2.17,2.22s1.01,1.01,1.01,1.01l1.06,1.11l0.53,0.58l0.48,0.48l0.79,0.79
					l1.64,1.59c0.53,0.53,1.11,1.06,1.64,1.53c1.11,1.06,2.28,2.01,3.44,3.02c4.62,3.95,9.64,7.41,14.97,10.32
					c1.32,0.74,2.7,1.38,4.02,1.96c1.32,0.48,2.75,0.9,4.18,1.27c2.91,0.74,5.98,1.27,8.99,1.8c6.03,1.06,12.17,1.9,18.25,2.7
					L74.57,36.66z"/>
			</g>
		</g>
	</g>
	<g id="Group_443" transform="translate(457.619 416.835)">
		<g id="Group_442" transform="translate(0 0)">
			<g id="Group_441">
				<path id="Path_230" class="st1" d="M11.34,11.13c0,0.05,0,0.05-0.11,0.05c-0.41,0.15-0.85,0.19-1.27,0.11
					c-0.63-0.15-1.22-0.42-1.75-0.79c0,0-0.11-0.05-0.11-0.11c0.04-0.14,0.08-0.28,0.11-0.42C8.29,9.6,8.33,9.23,8.33,8.85
					c0.02-1.05-0.22-2.08-0.69-3.02c-0.5-0.88-1.26-1.58-2.17-2.01C5.15,3.66,4.81,3.52,4.47,3.41C4.33,3.35,4.19,3.31,4.04,3.3
					c0,0-0.37-0.21-0.9-0.48S1.93,2.24,1.29,1.98C0.23,1.55-0.09,1.18,0.02,0.87s0.69-0.58,1.43-0.74C2.02-0.01,2.61-0.05,3.2,0.02
					c0.44,0,0.88,0.04,1.32,0.11c0.37,0.05,0.64,0.11,0.64,0.11s0.21,0.05,0.53,0.16C5.84,0.44,6.05,0.55,6.26,0.6
					c0.21,0.11,0.48,0.21,0.79,0.37c0.66,0.33,1.27,0.76,1.8,1.27c0.64,0.59,1.18,1.29,1.59,2.06c0.72,1.43,1.08,3,1.06,4.6
					C11.54,9.65,11.48,10.4,11.34,11.13z"/>
			</g>
		</g>
	</g>
	<g id="Group_446" transform="translate(444.073 415.21)">
		<g id="Group_445">
			<g id="Group_444">
				<path id="Path_231" class="st1" d="M14.89,7.36v0.11c-0.17,0.39-0.47,0.7-0.85,0.9C13.5,8.71,12.88,8.93,12.24,9h-0.16
					c0,0-0.11-0.16-0.27-0.42s-0.42-0.64-0.69-1.06C10.43,6.5,9.6,5.6,8.64,4.82c-0.82-0.73-1.8-1.26-2.86-1.53
					C5.48,3.21,5.16,3.17,4.83,3.18H4.25c-0.16,0-0.37-0.05-0.64-0.05s-0.58,0.05-0.9,0.05C2.4,3.23,2.03,3.28,1.71,3.34
					c-0.4,0.1-0.81,0.18-1.22,0.21c-0.27,0-0.42-0.11-0.48-0.27c-0.04-0.22,0-0.44,0.11-0.64C0.19,2.5,0.28,2.35,0.39,2.23
					C0.5,2.07,0.62,1.93,0.76,1.8C1.18,1.32,1.7,0.94,2.29,0.69c0.43-0.24,0.9-0.41,1.38-0.53C4.09,0.06,4.36,0,4.36,0h0.64
					c0.55,0.01,1.1,0.08,1.64,0.21c1.54,0.43,2.96,1.19,4.18,2.22c1.12,0.97,2.11,2.07,2.96,3.28C14.47,6.62,14.84,7.36,14.89,7.36z
					"/>
			</g>
		</g>
	</g>
	<g id="Group_449" transform="translate(435.557 420.992)">
		<g id="Group_448" transform="translate(0 0)">
			<g id="Group_447">
				<path id="Path_232" class="st1" d="M19.34,3.59c0.05,0,0.05,0.05,0.05,0.11c0,0.42-0.09,0.83-0.27,1.22
					c-0.34,0.57-0.84,1.03-1.43,1.32c-0.05,0.03-0.1,0.04-0.16,0.05c-0.18-0.1-0.36-0.2-0.53-0.32c-0.32-0.21-0.74-0.42-1.32-0.74
					c-1.32-0.7-2.73-1.23-4.18-1.59C10.12,3.3,8.69,3.17,7.27,3.27C7,3.28,6.74,3.31,6.48,3.38C6.26,3.43,6.05,3.43,5.89,3.48
					C5.58,3.53,5.37,3.59,5.37,3.59C5.26,3.59,5.15,3.61,5.05,3.64C4.76,3.66,4.48,3.69,4.2,3.75C3.83,3.8,3.46,3.91,3.09,3.96
					C2.7,4.04,2.31,4.15,1.93,4.28c-0.44,0.17-0.9,0.28-1.38,0.32c-0.32,0-0.48-0.05-0.53-0.27c-0.11-0.32,0.26-1.01,0.95-1.64
					c0.48-0.52,1.06-0.95,1.69-1.27C3.13,1.14,3.6,0.89,4.1,0.68c0.21-0.11,0.37-0.16,0.48-0.21c0.07-0.03,0.14-0.05,0.21-0.05
					l0.64-0.16C5.84,0.2,6.42,0.09,7.16,0.04c1.74-0.11,3.49,0.05,5.18,0.48c1.67,0.41,3.29,1.01,4.81,1.8
					C18.44,3,19.28,3.59,19.34,3.59z"/>
			</g>
		</g>
	</g>
	<g id="Group_452" transform="translate(432.377 426.427)">
		<g id="Group_451" transform="translate(0)">
			<g id="Group_450">
				<path id="Path_233" class="st1" d="M18.81,3.97c0.07,0.06,0.12,0.13,0.16,0.21c0.22,0.53,0.2,1.13-0.05,1.64
					c-0.19,0.23-0.45,0.4-0.74,0.48c-0.39,0.14-0.8,0.22-1.22,0.27c-0.05,0-0.21,0-0.26-0.05c-1.32-0.99-2.78-1.75-4.34-2.28
					c-0.37-0.11-0.74-0.27-1.11-0.37l-0.58-0.16c-0.06-0.04-0.14-0.06-0.21-0.05L10.24,3.6c-0.7-0.11-1.41-0.16-2.12-0.16
					C7.37,3.46,6.63,3.53,5.9,3.65C5.24,3.74,4.6,3.94,4,4.24C3.77,4.32,3.57,4.46,3.42,4.66C3.35,4.72,3.3,4.79,3.26,4.87l0,0v0.79
					c0.02,0.25,0.08,0.5,0.16,0.74c0.18,0.43,0.49,0.78,0.9,1.01c0.6,0.33,1.24,0.58,1.9,0.74c0.9,0.27,1.9,0.53,2.91,0.79
					c0,0,0.32,0.11,0.85,0.32c0.71,0.26,1.39,0.56,2.06,0.9c0.42,0.21,0.85,0.48,1.27,0.74c0.43,0.25,0.83,0.53,1.22,0.85
					c0.81,0.61,1.54,1.32,2.17,2.12c0.68,0.79,1.27,1.66,1.75,2.59c0.27,0.53,0.21,0.74,0,0.74c-0.42,0-1.64-1.01-3.02-2.06
					c0.05,0.11-0.32-0.21-0.95-0.64c-0.79-0.52-1.62-0.96-2.49-1.32c-0.89-0.37-1.81-0.67-2.75-0.9c-0.79-0.21-1.32-0.32-1.32-0.32
					c-0.79-0.21-1.64-0.42-2.54-0.69c-0.94-0.25-1.85-0.62-2.7-1.11C2.16,9.88,1.71,9.51,1.35,9.05c-0.42-0.46-0.74-1-0.95-1.59
					C0.2,6.92,0.07,6.35,0.02,5.77C0,5.51,0,5.24,0.02,4.98V4.34l0.05-0.27c0.16-0.72,0.52-1.39,1.06-1.9
					c0.41-0.42,0.89-0.76,1.43-1.01c0.89-0.41,1.83-0.71,2.8-0.9c0.91-0.17,1.83-0.25,2.75-0.26c0.94-0.03,1.88,0.04,2.8,0.21
					l0.37,0.11c0.11,0.05,0.26,0.05,0.37,0.11l0.64,0.21c0.43,0.12,0.85,0.26,1.27,0.42C15.43,1.8,17.2,2.77,18.81,3.97z"/>
			</g>
		</g>
	</g>
	<g id="Group_455" transform="translate(608.833 385.104)">
		<g id="Group_454" transform="translate(0 0)">
			<g id="Group_453">
				<path id="Path_234" class="st1" d="M1.93,77.94c-0.05,0.05-0.11,0.05-0.21,0c-0.48-0.11-0.93-0.33-1.32-0.64
					c-0.37-0.37-0.64-1.06-0.05-2.12c0-0.05,0.16-0.21,0.21-0.26c1.81-0.73,3.69-1.27,5.61-1.59c1.16-0.21,2.33-0.42,3.39-0.64
					l0.79-0.21l0.37-0.11l0.21-0.05h0.05c0.21,0.53-0.42-1.16,0.48,1.16l0,0v-0.11c0.01-0.06-0.01-0.12-0.05-0.16
					c0-0.05-0.05-0.16-0.05-0.21s-0.05-0.16-0.05-0.21c-0.05-0.05-0.05-0.16-0.11-0.27l-0.05-0.16c-0.01-0.04-0.02-0.08-0.05-0.11
					l0,0l0.11-0.05c0.08-0.06,0.17-0.12,0.26-0.16c0.28-0.2,0.58-0.38,0.9-0.53l0,0l0.16-0.05l0.21-0.11
					c0.09-0.02,0.18-0.06,0.27-0.11l0.16-0.05c0.07,0.01,0.15-0.01,0.21-0.05h0.27c0.05,0-0.58,0.05-0.32,0.05h0.11l0.21-0.05
					l0.79-0.16l1.64-0.32l0,0c6.93-1.27,13.92-2.22,20.79-3.39c3.44-0.58,6.83-1.27,10.21-2.06c1.69-0.42,3.33-0.85,4.97-1.32
					c1.64-0.53,3.28-1.06,4.87-1.64c6.5-2.37,12.76-5.36,18.68-8.94c5.91-3.62,11.51-7.71,16.77-12.22
					c0.64-0.58,1.32-1.11,1.96-1.69l0.95-0.85l0.48-0.42l0.27-0.21l0.05-0.05l0.05-0.05c0.23-0.29,0.44-0.59,0.64-0.9
					c0.11-0.21,0.27-0.37,0.42-0.64c0.1-0.11,0.19-0.24,0.27-0.37l0.21-0.21l0.21-0.16l1.96-1.64c2.53-2.3,4.89-4.8,7.04-7.46
					c4.34-5.34,8.15-11.27,12.75-16.77l0.85-1.01l0.9-1.01l0.9-1.01l0.95-0.95l0.95-0.95l0.16-0.16l0.21-0.16l0.32-0.21
					c0.2-0.16,0.41-0.3,0.64-0.42c0.81-0.5,1.66-0.94,2.54-1.32c1.71-0.74,3.48-1.32,5.29-1.75c0.9-0.21,1.8-0.37,2.75-0.53
					l1.43-0.16c0.21,0,0.48-0.05,0.69-0.05h0.64c1.2-0.04,2.41,0.14,3.54,0.53c0.09,0.04,0.17,0.08,0.26,0.11
					c0.05,0,0.11,0.05,0.16,0.11c0.04,0.01,0.08,0.02,0.11,0.05l0.32,0.16c0.48,0.27,1.11,0.64,1.85,1.11
					c1.63,1.02,3.16,2.21,4.55,3.54c0.82,0.68,1.49,1.53,1.96,2.49c0.21,0.58,0.16,0.79-0.05,0.74c-0.39-0.17-0.77-0.38-1.11-0.64
					c-0.53-0.32-1.16-0.74-1.96-1.22c0.11,0.16-1.64-1.01-3.65-1.9c-1.01-0.48-2.01-0.9-2.8-1.22c-0.18-0.06-0.36-0.13-0.53-0.21
					c-0.11-0.05-0.11-0.05-0.16-0.05h-0.16c-0.09-0.03-0.17-0.05-0.27-0.05c-0.16-0.05-0.37-0.05-0.58-0.11l-0.32-0.05h-0.32
					c-0.21,0-0.42-0.05-0.64-0.05h-0.85c-0.21,0-0.37,0.05-0.58,0.05c-0.39,0.01-0.78,0.04-1.16,0.11
					c-1.62,0.22-3.21,0.59-4.76,1.11c-1.52,0.45-2.98,1.09-4.34,1.9c-0.3,0.17-0.58,0.36-0.85,0.58l-0.79,0.79
					c-0.58,0.58-1.16,1.22-1.75,1.85s-1.11,1.27-1.64,1.9s-1.11,1.27-1.64,1.96c-4.23,5.29-7.99,11.11-12.54,16.46
					c-2.27,2.71-4.77,5.22-7.46,7.51l-0.53,0.42l-0.27,0.21l-0.05,0.05l0,0c-0.16,0.16-0.37,0.53-0.64,0.85
					c-0.29,0.49-0.65,0.93-1.06,1.32l-0.95,0.9c-1.27,1.16-2.59,2.33-3.91,3.44c-2.65,2.22-5.4,4.39-8.25,6.4
					c-2.86,2.06-5.77,3.92-8.78,5.71c-3,1.8-6.1,3.44-9.27,4.93c-3.17,1.48-6.4,2.86-9.68,4.02c-0.79,0.32-1.64,0.58-2.49,0.85
					s-1.64,0.58-2.54,0.79c-1.69,0.48-3.39,0.9-5.08,1.32c-3.39,0.79-6.83,1.48-10.21,2.06c-6.83,1.16-13.65,2.12-20.37,3.33l0,0
					L15,74.5l-0.79,0.16l-0.21,0.05h-0.11c0.26,1.11-0.37-1.48-0.32-1.22l0,0v0.16c-0.01,0.06,0.01,0.12,0.05,0.16
					c-0.01,0.07,0.01,0.15,0.05,0.21c0.06,0.14,0.11,0.28,0.16,0.42c0.05,0.11,0.05,0.16,0.11,0.27h-0.05
					c-0.2,0.11-0.4,0.23-0.58,0.37c-0.15,0.1-0.31,0.19-0.48,0.27c-0.24,0.15-0.51,0.26-0.79,0.32c-0.27,0.05-0.58,0.16-0.9,0.21
					l-0.9,0.21c-1.22,0.26-2.38,0.42-3.49,0.64C5.09,76.9,3.47,77.31,1.93,77.94z"/>
			</g>
		</g>
	</g>
	<g id="Group_458" transform="translate(748.797 397.249)">
		<g id="Group_457" transform="translate(0)">
			<g id="Group_456">
				<path id="Path_235" class="st1" d="M0.59,3.09c-0.05-0.05-0.1-0.05-0.16-0.16c-0.29-0.4-0.44-0.88-0.42-1.38
					c0-0.53,0.32-1.16,1.48-1.53c0.05,0,0.21-0.05,0.32,0c1.82,0.69,3.55,1.62,5.13,2.75c0.42,0.27,0.79,0.58,1.22,0.9
					c0.42,0.32,0.79,0.64,1.16,0.95l0.64,0.53l0.58,0.53c0.37,0.37,0.79,0.74,1.16,1.11c0,0,0.21,0.27,0.58,0.69
					c0.46,0.57,0.89,1.17,1.27,1.8c0.27,0.37,0.48,0.79,0.74,1.22c0.26,0.42,0.49,0.87,0.69,1.32l0.16,0.32l0.11,0.16l0.11,0.27
					c0.16,0.35,0.33,0.68,0.53,1.01l0.05,0.11l0.05,0.05c0,0.03-0.02,0.05-0.05,0.05c0,0,0,0,0,0L15.78,14l-0.32,0.48
					c-0.21,0.27-0.42,0.58-0.58,0.74c-3.7,4.71-3.07,2.28-1.48-1.06V14.1c0-0.03,0.02-0.05,0.05-0.05c0,0,0,0,0,0V14
					c0-0.05,0.11-0.16,0.05-0.27c-0.17-0.18-0.33-0.38-0.48-0.58c-0.26-0.42-0.64-0.85-0.95-1.27c-0.32-0.43-0.68-0.84-1.06-1.22
					c-0.37-0.37-0.64-0.74-0.95-1.01C9.48,9.07,9.06,8.7,9.06,8.7C8.5,8.12,7.9,7.57,7.26,7.06C6.94,6.8,6.57,6.48,6.2,6.22
					S5.51,5.69,5.14,5.42C3.71,4.5,2.18,3.72,0.59,3.09z"/>
			</g>
		</g>
	</g>
	<g id="Group_461" transform="translate(752.825 393.463)">
		<g id="Group_460" transform="translate(0 0)">
			<g id="Group_459">
				<path id="Path_236" class="st1" d="M1.01,3.28c-0.05,0-0.11,0-0.16-0.11C0.47,2.86,0.2,2.43,0.05,1.96
					c-0.16-0.53,0-1.22,1.06-1.85C1.16,0.11,1.32,0,1.43,0c1.97,0.27,3.9,0.82,5.71,1.64L7.3,1.75c0.99,0.47,1.94,1,2.86,1.59
					c0,0,0.27,0.21,0.69,0.58c0.21,0.16,0.48,0.42,0.74,0.64l0.9,0.9l0.48,0.48c0.16,0.16,0.32,0.37,0.48,0.53
					c0.16,0.21,0.32,0.37,0.48,0.58c0.26,0.29,0.51,0.59,0.74,0.9c0.42,0.58,0.9,1.16,1.32,1.8l0.05,0.11l0.05,0.05
					c-0.03,0-0.05,0.02-0.05,0.05c0,0,0,0,0,0l-0.27,0.11l-0.53,0.21c-0.32,0.11-0.69,0.26-1.01,0.37
					c-0.53,0.21-1.01,0.37-1.43,0.53c-0.32,0.11-0.58,0.16-0.79,0.21c-0.38,0.12-0.77,0.21-1.16,0.27c-0.58,0.11-0.79,0-0.69-0.21
					c0.05-0.21,0.42-0.53,0.95-0.95c0.27-0.21,0.58-0.42,0.9-0.64c0.21-0.16,0.27-0.16,0.32-0.27l0.16-0.16l0.05-0.05l0.05-0.05
					l0.05-0.05c0,0,0.05,0,0-0.05c-0.11-0.11-0.24-0.19-0.37-0.27c-0.05-0.05-0.11-0.05-0.21-0.11c-0.22-0.15-0.41-0.33-0.58-0.53
					c-0.37-0.37-0.85-0.64-1.22-0.95C9.91,7.09,9.54,6.84,9.15,6.62C8.88,6.44,8.6,6.28,8.31,6.14L7.99,5.98
					C7.67,5.77,7.3,5.56,6.93,5.35c-0.34-0.2-0.7-0.37-1.06-0.53L5.71,4.76C4.25,3.99,2.65,3.49,1.01,3.28z"/>
			</g>
		</g>
	</g>
	<g id="Group_464" transform="translate(744.927 404.151)">
		<g id="Group_463" transform="translate(0)">
			<g id="Group_462">
				<path id="Path_237" class="st1" d="M0.23,3.23c-0.05,0-0.05,0-0.05-0.11c-0.36-1.04-0.13-2.19,0.58-3.02
					c0,0,0.11-0.11,0.16-0.11c0.8,0.17,1.6,0.38,2.38,0.64c1.66,0.52,3.24,1.25,4.71,2.17c1.5,0.92,2.84,2.09,3.97,3.44
					c0.27,0.37,0.53,0.69,0.79,1.01c0.32,0.42,0.48,0.79,0.69,1.11c0.37,0.64,0.58,1.01,0.58,1.01s0.11,0.21,0.32,0.58
					c0,0.05,0.05,0.11,0.05,0.16l0.05,0.05v0.05h-0.05c-0.16,0.05-0.27,0.11-0.42,0.16c-0.32,0.11-0.64,0.21-1.01,0.32
					c-0.69,0.21-1.53,0.42-2.22,0.58c-0.42,0.05-0.9,0.11-1.32,0.16c-2.75,0.32-2.01-0.74-0.64-1.69c-0.05,0,0.16-0.11,0.48-0.32
					C9.44,9.31,9.65,9.21,9.81,9.1C9.86,9.05,9.86,9,9.91,8.94C9.97,8.79,9.65,8.73,9.7,8.73l0,0L9.65,8.68
					C9.59,8.63,9.59,8.57,9.54,8.52C9.44,8.41,9.38,8.31,9.28,8.2C8.36,7.15,7.29,6.24,6.1,5.5C4.87,4.75,3.56,4.14,2.19,3.7
					C1.72,3.56,1.24,3.43,0.76,3.33C0.44,3.28,0.23,3.28,0.23,3.23z"/>
			</g>
		</g>
	</g>
	<g id="Group_467" transform="translate(656.951 411.294)">
		<g id="Group_466">
			<g id="Group_465">
				<path id="Path_238" class="st1" d="M3.33,71.96c0,0.11,0,0.11-0.11,0.21c-0.48,0.74-1.64,1.75-3.07,0.05
					c0-0.05-0.11-0.16-0.16-0.27v-5.29l2.12-0.9c8.53-3.77,16.87-7.98,24.97-12.59c4.03-2.26,7.9-4.78,11.59-7.57
					c3.63-2.87,7.09-5.94,10.37-9.21c6.67-6.51,13.02-13.39,19.26-20.37C71.43,12.54,74.5,9,77.57,5.45L80,2.6l0.42-0.42
					c0.17-0.16,0.33-0.34,0.48-0.53c0.17-0.17,0.33-0.34,0.48-0.53c0.22-0.22,0.44-0.45,0.64-0.69c0.42,0.05,0.85,0.05,1.27,0.11
					c0.21,0,0.48,0.05,0.74,0.05c0.51,0.03,1.02,0.03,1.53,0c1.06-0.02,2.12-0.09,3.17-0.21c1.43-0.21,2.38-0.32,2.96-0.37
					c0.58,0,0.79,0.05,0.69,0.27c-0.16,0.42-1.53,1.22-3.33,1.9c-0.63,0.27-1.28,0.47-1.96,0.58c-0.7,0.18-1.4,0.32-2.12,0.42
					c-0.37,0.05-0.74,0.11-1.16,0.16h-0.32c-0.03,0-0.05,0.02-0.05,0.05c0,0,0,0,0,0v0.11c-0.05,0.05-0.11,0.16-0.16,0.21
					c-0.21,0.27-0.37,0.48-0.53,0.69c-0.27,0.37-0.48,0.64-0.48,0.64l-3.28,3.81c-3.02,3.49-6.09,6.98-9.15,10.42
					c-6.19,6.88-12.49,13.65-19.15,20.11c-3.33,3.31-6.86,6.4-10.58,9.26c-3.79,2.74-7.73,5.26-11.8,7.57
					c-8.1,4.6-16.4,8.73-24.87,12.49l-0.16,0.05v3.23L3.33,71.96z"/>
			</g>
		</g>
	</g>
	<path id="Path_239" class="st1" d="M534.62,492.94c0,0,11.27,32.12,59.26,39.15s84.6-12.59,98.15-33.18
		c8.1-12.33,2.75-38.73,2.75-38.73s-1.32,1.01-4.07,2.7c0.74,8.2,0.26,21.8-3.33,28.99c-8.47,16.93-40.58,47.62-93.12,34.92
		c-23.28-8.47-34.55-16.09-40.9-29.58C553.35,497.22,542.03,496.49,534.62,492.94z"/>
	<path id="Path_240" d="M610.07,456.85c0,0,2.54,17.57,32.17,27.51s42.7-11.75,47.25-20.85c0,0,1.11,31.59-38.04,34.18
		s-50.11-26.93-50.11-26.93L610.07,456.85z"/>
	<g id="Group_470" transform="translate(610.639 490.818)">
		<g id="Group_469" transform="translate(0)">
			<g id="Group_468">
				<path id="Path_241" class="st1" d="M22.87,1.9c0-0.16,0.05-0.16,0.21-0.32c0.3-0.32,0.64-0.6,1.01-0.85
					c0.43-0.3,0.92-0.51,1.43-0.64c0.27-0.09,0.56-0.13,0.85-0.11c0.33,0,0.65,0.07,0.95,0.21c0.35,0.18,0.67,0.41,0.95,0.69
					c0.37,0.38,0.69,0.81,0.95,1.27c0.09,0.2,0.17,0.42,0.21,0.64c-0.27,2.04-0.77,4.05-1.48,5.98c-0.16,0.48-0.32,0.95-0.53,1.43
					l-0.58,1.38c-0.39,0.91-0.85,1.8-1.38,2.65l-0.21,0.32c-1.09,1.91-2.33,3.73-3.7,5.45c0,0-0.11,0.11-0.32,0.37
					c-0.28,0.33-0.58,0.65-0.9,0.95c-0.42,0.37-0.9,0.85-1.43,1.38c-0.27,0.27-0.58,0.53-0.9,0.79c-0.32,0.32-0.64,0.53-1.01,0.85
					c-0.69,0.53-1.43,1.11-2.22,1.75c-0.38,0.31-0.79,0.59-1.22,0.85l-1.27,0.79l-1.27,0.79l-0.64,0.37
					c-0.22,0.1-0.44,0.23-0.64,0.37c-0.85,0.48-1.75,0.9-2.54,1.27c-0.62,0.33-1.25,0.63-1.9,0.9c-0.58,0.27-1.11,0.42-1.59,0.64
					c-0.74,0.3-1.5,0.53-2.28,0.69c-1.11,0.27-1.53,0.11-1.43-0.32c0.41-0.8,1.01-1.49,1.75-2.01c0.95-0.9,2.33-1.85,3.65-3.07
					c0.56-0.56,1.16-1.07,1.8-1.53c0.64-0.48,1.27-1.11,2.01-1.8c0.37-0.32,0.74-0.69,1.16-1.06c0.21-0.16,0.37-0.37,0.58-0.53
					l0.53-0.58c0.74-0.79,1.48-1.53,2.17-2.28c0.64-0.79,1.22-1.53,1.69-2.12c0.41-0.5,0.78-1.03,1.11-1.59
					c0.26-0.37,0.42-0.58,0.42-0.58l0.74-0.95c0.21-0.32,0.42-0.69,0.64-1.01l0.64-1.01l0.32-0.48l0.27-0.53l0.16-0.26
					c0.37-0.74,0.79-1.43,1.11-2.22l0.48-1.11c0.16-0.37,0.26-0.74,0.42-1.16C22.25,5.06,22.66,3.5,22.87,1.9z"/>
			</g>
		</g>
	</g>
	<g id="Group_473" transform="translate(625.658 421.082)">
		<g id="Group_472" transform="translate(0 0)">
			<g id="Group_471">
				<path id="Path_242" class="st1" d="M2.99,36.03c-0.05,0.05-0.05,0.11-0.16,0.16c-0.42,0.29-0.92,0.42-1.43,0.37
					c-0.53-0.05-1.11-0.48-1.38-1.59c0-0.05-0.05-0.21,0-0.32c0.79-1.69,1.64-3.39,2.54-4.97c1.37-2.48,2.91-4.87,4.6-7.14
					c1.68-2.29,3.5-4.48,5.45-6.56c3.92-4.2,8.47-7.75,13.49-10.53l0.95-0.53l0.95-0.48l1.96-0.9l2.01-0.79l1.01-0.37l1.06-0.32
					l2.06-0.64l2.12-0.48l1.06-0.21c0.37-0.05,0.69-0.11,1.06-0.16l2.12-0.32c0.69-0.11,1.43-0.11,2.17-0.16S46.05,0,46.79,0
					l2.17,0.05h1.06c0.35,0.01,0.71,0.04,1.06,0.11l1.9,0.16c0.53,0.05,1.11,0.11,1.64,0.21l2.96,0.74C58,1.38,58.43,1.54,58.9,1.7
					c0.42,0.16,0.9,0.32,1.38,0.48c0.91,0.28,1.79,0.63,2.65,1.06c5.5,2.54,2.91,2.43-0.64,1.69c0.11,0.05-0.37-0.11-1.16-0.21
					c-0.79-0.16-1.85-0.32-2.96-0.53l-0.79-0.16c-0.26-0.05-0.53-0.05-0.79-0.11c-0.53-0.05-1.01-0.11-1.43-0.16
					C54.3,3.65,53.77,3.6,53.77,3.6c-0.53-0.05-1.01-0.11-1.53-0.16l-2.38-0.21L47.9,3.17c-0.64,0-1.32-0.05-1.96,0l-1.96,0.11
					c-0.32,0-0.64,0.05-1.01,0.05l-0.95,0.16l-1.96,0.27c-0.64,0.11-1.27,0.27-1.9,0.42c-1.29,0.28-2.56,0.63-3.81,1.06
					c-2.5,0.82-4.91,1.88-7.2,3.17c-1.16,0.58-2.28,1.38-3.39,2.06l-1.59,1.16c-0.26,0.21-0.53,0.37-0.79,0.58l-0.79,0.64
					c-2.08,1.65-4.02,3.45-5.82,5.4c-3.62,3.9-6.76,8.22-9.36,12.86C4.57,32.86,3.73,34.45,2.99,36.03z"/>
			</g>
		</g>
	</g>
	<g id="Group_476" transform="translate(688.645 459.012)">
		<g id="Group_475" transform="translate(0)">
			<g id="Group_474">
				<path id="Path_243" class="st1" d="M2.8,40.17c-0.05,0.08-0.12,0.13-0.21,0.16c-0.48,0.22-1.03,0.26-1.53,0.11
					c-0.68-0.34-1.09-1.04-1.06-1.8c0-0.05,0-0.21,0.05-0.27c1.01-1.48,1.9-3.02,2.8-4.55c1.71-3.03,3.23-6.15,4.55-9.36
					c1.32-3.21,2.43-6.49,3.33-9.84l0.69-2.91c0,0,0.11-0.32,0.21-0.79s0.32-1.22,0.53-2.01l0.32-1.27c0.11-0.42,0.21-0.9,0.32-1.38
					s0.21-0.95,0.32-1.38c0.11-0.48,0.21-0.9,0.32-1.32c0.48-2.91,0.85-3.81,1.16-3.49s0.53,1.85,0.64,3.76
					c0.06,1.46,0.02,2.93-0.11,4.39c-0.11,1.16-0.27,2.33-0.37,3.17c-0.05,0.42-0.11,0.79-0.16,1.06c-0.03,0.14-0.05,0.28-0.05,0.42
					l-0.64,2.59c-1.84,7-4.6,13.72-8.2,20C4.82,36.99,3.86,38.58,2.8,40.17z"/>
			</g>
		</g>
	</g>
	<g id="Group_479" transform="translate(618.145 368.119)">
		<g id="Group_478">
			<g id="Group_477">
				<path id="Path_244" class="st1" d="M17.7,71.85c0,0.05,0.05,0.11,0,0.21c-0.21,0.85-1.06,2.17-2.91,0.95
					c-0.05,0-0.16-0.16-0.21-0.21l-1.64-5.24c-2.8-8.99-5.5-17.99-8.1-27.09c-1.27-4.55-2.54-9.1-3.65-13.7
					c-0.27-1.16-0.53-2.33-0.74-3.49c-0.11-0.58-0.21-1.22-0.32-1.85c-0.05-0.32-0.05-0.64-0.11-1.01c-0.03-0.35-0.03-0.71,0-1.06
					c0.15-2.48,0.59-4.93,1.32-7.3C2.07,9.63,3.2,7.33,4.67,5.25c0.78-1.07,1.73-2.02,2.8-2.8C8.56,1.62,9.78,1,11.07,0.6
					c1.28-0.4,2.62-0.6,3.97-0.58c1.3,0.04,2.6,0.22,3.86,0.53c2.52,0.61,4.88,1.74,6.93,3.33c2.03,1.55,3.77,3.45,5.13,5.61
					c1.35,2.1,2.43,4.36,3.23,6.72l0.32,1.01c0.05,0.16,0.05,0.27,0.11,0.42c0.05,0.27,0.16,0.58,0.21,0.85
					c0.11,0.53,0.21,1.11,0.32,1.64c0.11,1,0.16,2.01,0.16,3.02c0.06,1.91-0.01,3.82-0.21,5.71c-0.05,1.06-0.3,2.1-0.74,3.07
					c-0.16,0.27-0.37,0.42-0.48,0.42c-0.08,0.01-0.15-0.04-0.16-0.12c0-0.01,0-0.03,0-0.04c-0.09-0.36-0.14-0.74-0.16-1.11
					c-0.05-0.64-0.16-1.43-0.27-2.33c-0.05,0.21-0.21-1.96-0.58-4.13c-0.16-1.11-0.37-2.17-0.58-3.02
					c-0.16-0.79-0.32-1.38-0.32-1.38c-0.11-0.48-0.16-1.01-0.27-1.48l-0.16-0.69l-0.27-0.79c-0.16-0.53-0.32-1.01-0.53-1.53
					c-0.79-2.02-1.84-3.92-3.12-5.66c-1.25-1.72-2.81-3.19-4.6-4.34c-1.77-1.13-3.75-1.89-5.82-2.22c-1.97-0.43-4.02-0.22-5.87,0.58
					c-1.8,0.89-3.32,2.26-4.39,3.97c-1.15,1.81-2.01,3.79-2.54,5.87c-0.29,1.06-0.51,2.14-0.69,3.23c-0.1,0.54-0.17,1.09-0.21,1.64
					c-0.07,0.49-0.09,0.99-0.05,1.48c0.05,0.48,0.11,1.01,0.21,1.53c0.05,0.53,0.21,1.11,0.32,1.64c0.21,1.11,0.48,2.22,0.74,3.33
					c1.06,4.44,2.33,8.89,3.54,13.33c2.54,8.89,5.19,17.72,7.94,26.51L17.7,71.85z"/>
			</g>
		</g>
	</g>
	<g id="Group_482" transform="translate(638.129 383.236)">
		<g id="Group_481" transform="translate(0)">
			<g id="Group_480">
				<path id="Path_245" class="st1" d="M0.04,1.92c-0.05-0.05-0.05-0.11,0-0.21c0.11-0.85,0.69-2.33,2.75-1.43
					C2.85,0.28,3,0.39,3,0.44l2.43,4.87l6.93,13.91l1.38,2.7c0,0,1.96,4.66,3.07,7.99c2.01,5.66,0.32,3.86-1.69,0.69
					c0.11,0.37-4.5-7.62-4.5-7.62l-1.16-2.33L2.53,6.74L0.04,1.92z"/>
			</g>
		</g>
	</g>
	<g id="Group_485" transform="translate(634.092 402.723)">
		<g id="Group_484">
			<g id="Group_483">
				<path id="Path_246" class="st1" d="M13.87,0h0.11c0.38,0.16,0.72,0.39,1.01,0.69c0.47,0.46,0.78,1.05,0.9,1.69v0.16
					c-0.05,0-0.69,0.53-1.64,1.16s-2.28,1.48-3.6,2.22C9.4,6.6,8.13,7.2,6.83,7.73C6.3,7.94,5.82,8.1,5.5,8.2L5.03,8.36
					c0,0-0.53,0.05-1.22,0.11C3.05,8.53,2.29,8.51,1.54,8.42C-0.9,8.15,0,7.25,1.22,6.62c0.46-0.26,0.94-0.49,1.43-0.69l1.48-0.74
					c0,0,0.16-0.05,0.42-0.16s0.69-0.21,1.16-0.42c1.17-0.47,2.32-1,3.44-1.59c1.14-0.6,2.23-1.27,3.28-2.01
					C13.28,0.43,13.81,0,13.87,0z"/>
			</g>
		</g>
	</g>
	<g id="Group_488" transform="translate(670.602 342.979)">
		<g id="Group_487">
			<g id="Group_486">
				<path id="Path_247" class="st1" d="M3.28,77.42c0,0.11,0,0.11-0.11,0.21c-0.48,0.74-1.69,1.75-3.07,0
					c0-0.05-0.11-0.16-0.11-0.27l0.11-5.45L0.74,42.6l0.32-14.66l0.16-7.35l0.05-3.65v-0.9c-0.01-0.34,0.01-0.67,0.05-1.01
					c0.05-0.64,0.11-1.27,0.16-1.96c0.31-2.65,1.11-5.22,2.38-7.57c0.69-1.24,1.61-2.33,2.7-3.23c1.15-0.92,2.49-1.59,3.91-1.96
					c1.37-0.32,2.78-0.41,4.18-0.26c0.69,0.11,1.38,0.16,2.01,0.32c0.65,0.13,1.28,0.3,1.9,0.53c2.55,0.84,4.89,2.21,6.88,4.02
					c0.98,0.9,1.86,1.89,2.65,2.96C28.51,8.42,28.83,9,29.2,9.53l0.95,1.75c0.57,1.17,1.07,2.37,1.48,3.6
					c0.42,1.22,0.74,2.48,0.95,3.76l0.16,0.85l0.05,0.21l0.05,0.42c0.06,0.28,0.1,0.56,0.11,0.85c0.05,0.58,0.16,1.11,0.16,1.69
					c0.07,2.96-0.36,5.91-1.27,8.73c-0.27,1.01-0.7,1.98-1.27,2.86c-0.32,0.48-0.53,0.58-0.64,0.37c-0.12-1.22-0.06-2.45,0.16-3.65
					c-0.05,0.16,0.21-1.96,0.11-4.13c-0.01-1.01-0.08-2.02-0.21-3.02c-0.11-0.79-0.16-1.38-0.16-1.38
					c-0.05-0.48-0.11-1.01-0.16-1.48l-0.11-0.74l-0.05-0.21l-0.11-0.69c-0.11-0.58-0.27-1.11-0.37-1.69
					c-0.97-4.38-3.35-8.32-6.77-11.22c-0.42-0.37-0.9-0.64-1.32-0.95C20.47,5.2,20,4.93,19.52,4.72c-0.99-0.46-2.02-0.83-3.07-1.11
					c-1.04-0.27-2.1-0.41-3.17-0.42c-0.99,0.01-1.98,0.19-2.91,0.53c-1.84,0.82-3.3,2.32-4.07,4.18c-0.88,2.03-1.42,4.19-1.59,6.4
					c-0.05,0.58-0.11,1.11-0.11,1.69v1.8l-0.05,3.6l-0.16,7.2L4.07,43.03L3.43,71.87L3.28,77.42z"/>
			</g>
		</g>
	</g>
	<g id="Group_491" transform="translate(693.367 362.19)">
		<g id="Group_490" transform="translate(0)">
			<g id="Group_489">
				<path id="Path_248" class="st1" d="M6.92,55.99c0.01,0.07-0.01,0.15-0.05,0.21c-0.42,0.74-1.59,1.85-3.07,0.21
					c-0.06-0.08-0.12-0.17-0.16-0.27l-0.32-5.45C2.9,43.97,2.47,37.26,1.95,30.54C1.68,27.2,1.42,23.82,1.1,20.48l-0.48-5.03
					l-0.37-3.28c0,0-0.05-1.27-0.11-2.91C0.09,7.57,0.04,5.46,0.04,3.71c-0.27-5.93,0.85-3.81,1.8-0.16c0-0.21,0.48,1.96,0.9,4.23
					c0.21,1.11,0.42,2.22,0.58,3.12c0.16,0.85,0.26,1.43,0.26,1.43l0.37,3.49l0.48,4.97c0.32,3.33,0.58,6.61,0.85,9.95
					c0.53,6.61,0.95,13.23,1.38,19.89L6.92,55.99z"/>
			</g>
		</g>
	</g>
	<g id="Group_494" transform="translate(672.758 392.194)">
		<g id="Group_493" transform="translate(0 0)">
			<g id="Group_492">
				<path id="Path_249" class="st1" d="M0.23,3.23c-0.05,0-0.05,0-0.05-0.11c-0.15-0.39-0.2-0.8-0.16-1.22
					C0.1,1.26,0.33,0.64,0.7,0.11L0.81,0c0,0,0.21,0.05,0.53,0.11s0.79,0.11,1.32,0.16c1.11,0.11,2.59,0.27,4.07,0.32
					s2.96,0.05,4.07,0c0.44-0.04,0.88-0.06,1.32-0.05c0.18,0,0.36-0.02,0.53-0.05c0,0,0.48,0.05,1.16,0.16
					c0.75,0.08,1.49,0.2,2.22,0.37c2.38,0.37,1.64,1.22,0.21,1.8c-0.53,0.26-1.1,0.44-1.69,0.53c-0.42,0.11-0.9,0.21-1.22,0.32
					c-0.19,0.06-0.39,0.12-0.58,0.16c-0.18,0-0.35,0.02-0.53,0.05c-0.32,0-0.79,0.05-1.38,0.05c-1.16,0.05-2.7,0.05-4.23,0
					S3.56,3.76,2.34,3.6C1.07,3.39,0.28,3.23,0.23,3.23z"/>
			</g>
		</g>
	</g>
	<g id="Group_497" transform="translate(500.602 503.995)">
		<g id="Group_496" transform="translate(0)">
			<g id="Group_495">
				<path id="Path_250" class="st1" d="M35.66,1.16c0.11,0.05,0.11,0.05,0.16,0.21c0.31,0.47,0.39,1.05,0.21,1.59
					c-0.38,0.61-1.03,1-1.75,1.06c-0.05,0-0.21,0.05-0.27,0c-0.61-0.35-1.27-0.58-1.96-0.69c-0.58-0.06-1.17,0.05-1.69,0.32
					c-0.82,0.53-1.48,1.28-1.9,2.17c-0.53,1.02-0.92,2.1-1.16,3.23c-0.55,2.46-0.97,4.95-1.27,7.46c-0.32,2.62-0.81,5.22-1.48,7.78
					c-0.35,1.35-0.83,2.66-1.43,3.91c-0.63,1.33-1.47,2.54-2.49,3.6c-1.1,1.09-2.44,1.9-3.91,2.38c-1.42,0.43-2.91,0.61-4.39,0.53
					c-0.71-0.04-1.42-0.12-2.12-0.27c-0.69-0.11-1.38-0.27-2.06-0.42c-1.42-0.37-2.76-0.98-3.97-1.8c-1.31-0.85-2.37-2.04-3.07-3.44
					c-0.7-1.36-1.08-2.86-1.11-4.39v-1.16c0-0.32,0.05-0.58,0.05-0.9c0.05-0.58,0.16-1.16,0.27-1.75c0,0,0.11-0.32,0.27-0.85
					c0.22-0.72,0.49-1.43,0.79-2.12c0.78-1.77,1.73-3.45,2.86-5.03c1.75-2.49,2.65-2.96,2.7-2.54c-0.2,1.22-0.59,2.4-1.16,3.49
					c0.11-0.16-0.79,1.8-1.43,3.91c-0.3,0.93-0.53,1.89-0.69,2.86c-0.05,0.37-0.11,0.74-0.16,0.95c-0.03,0.12-0.05,0.25-0.05,0.37
					c-0.06,0.22-0.1,0.46-0.11,0.69l-0.05,0.69v1.22c-0.01,0.27,0.01,0.53,0.05,0.79c0.2,2.04,1.41,3.85,3.23,4.82
					c0.21,0.16,0.48,0.21,0.74,0.37l0.37,0.16l0.37,0.16l0.79,0.27l0.85,0.21c0.56,0.14,1.12,0.24,1.69,0.32
					c0.28,0.04,0.56,0.06,0.85,0.05l0.42,0.05h0.42c2.1,0.11,4.14-0.73,5.56-2.28c1.4-1.79,2.37-3.87,2.86-6.08
					c0.58-2.33,0.95-4.76,1.32-7.3c0.37-2.49,0.69-5.03,1.32-7.67c0.32-1.36,0.82-2.68,1.48-3.91c0.34-0.67,0.76-1.3,1.27-1.85
					c0.55-0.62,1.19-1.16,1.9-1.59c1.09-0.62,2.36-0.86,3.6-0.69C33.54,0.21,34.65,0.59,35.66,1.16z"/>
			</g>
		</g>
	</g>
	<path id="Path_251" class="st1" d="M508.27,510.93c0,0-6.77-1.96-7.99,2.8c-1.22,4.76,3.54,3.7,5.93,1.96
		C508.54,513.94,509.92,512.51,508.27,510.93z"/>
	<g id="Group_500" transform="translate(655.18 265.344)">
		<g id="Group_499" transform="translate(0)">
			<g id="Group_498">
				<path id="Path_252" class="st1" d="M36.96,53.47c0.08,0.15,0.1,0.32,0.05,0.48c-0.06,1.03-0.54,1.98-1.32,2.65
					c-0.85,0.69-2.22,0.9-4.13-0.16c-0.15-0.11-0.3-0.23-0.42-0.37c-0.32-0.85-0.64-1.69-1.01-2.49c-0.32-0.85-0.69-1.69-1.01-2.49
					c-0.69-1.69-1.38-3.33-2.12-4.97c-0.74-1.8-1.59-3.55-2.38-5.34l-1.22-2.65c-0.42-0.9-0.79-1.75-1.22-2.65
					c-0.85-1.75-1.69-3.49-2.59-5.24l-1.32-2.59c-0.42-0.85-0.9-1.69-1.38-2.59l-1.43-2.65c-0.48-0.9-1.01-1.75-1.48-2.65
					c0,0-0.32-0.53-0.79-1.48c-0.27-0.48-0.53-1.01-0.9-1.64c-0.37-0.58-0.79-1.27-1.22-2.01s-0.9-1.48-1.38-2.27L8.12,9.97
					C7.59,9.18,7.06,8.38,6.48,7.59C5.9,6.85,5.37,6.11,4.79,5.42c-0.48-0.58-0.9-1.11-1.27-1.59c-0.37-0.48-0.79-0.9-1.11-1.27
					C1.77,1.82,1.24,1.29,0.82,0.87C0.08,0.08-0.13-0.13,0.08,0.08s0.85,0.9,1.8,1.8c0.48,0.48,1.01,1.01,1.59,1.53
					c0.58,0.58,1.16,1.27,1.8,1.96C5.16,5.21,5.79,5.95,6.9,7.17c0.53,0.58,1.16,1.38,1.8,2.17c0.69,0.79,1.43,1.64,2.12,2.54
					s1.43,1.8,2.06,2.65c0.69,0.85,1.32,1.64,1.8,2.33c1.06,1.38,1.75,2.33,1.75,2.33l0.79,1.06c0.27,0.37,0.48,0.74,0.74,1.11
					l1.48,2.17c0.53,0.79,1.11,1.64,1.64,2.43l1.59,2.49c1.06,1.64,2.06,3.33,3.12,5.03c0.53,0.85,1.01,1.69,1.53,2.54l1.48,2.54
					c0.95,1.69,1.96,3.44,2.91,5.13c0.9,1.59,1.8,3.23,2.65,4.82c0.42,0.79,0.85,1.64,1.27,2.43
					C36.13,51.75,36.57,52.59,36.96,53.47z"/>
			</g>
		</g>
	</g>
	<g id="Group_503" transform="translate(595.231 249.707)">
		<g id="Group_502" transform="translate(0 0)">
			<g id="Group_501">
				<path id="Path_253" class="st1" d="M27.38,60.06c0.05,0.15,0.05,0.32,0,0.48c-0.24,0.99-0.87,1.85-1.75,2.38
					c-0.95,0.53-2.33,0.48-4.02-0.85c-0.14-0.13-0.26-0.27-0.37-0.42c-0.37-1.75-0.74-3.55-1.11-5.29l-0.58-2.65l-0.64-2.64
					c-0.48-2.01-1.01-3.97-1.48-5.93l-0.79-2.96c-0.26-1.01-0.53-1.96-0.79-2.96L15,36.24c-0.27-1.01-0.58-1.96-0.9-2.91l-0.9-2.91
					c-0.32-0.95-0.64-1.96-0.95-2.91l-0.95-2.86c-0.32-0.95-0.69-1.9-1.06-2.86c0,0-0.21-0.58-0.53-1.59s-0.85-2.38-1.48-3.92
					c-0.32-0.79-0.64-1.64-0.95-2.49c-0.37-0.85-0.74-1.75-1.16-2.59c-0.42-0.9-0.74-1.75-1.16-2.59S4.1,6.98,3.68,6.19
					c-0.37-0.64-0.69-1.27-0.95-1.8C2.41,3.86,2.09,3.38,1.88,2.96C1.35,2.11,0.98,1.48,0.66,1C0.08,0.05-0.13-0.16,0.08,0.1
					c0.16,0.27,0.69,1.01,1.43,2.06c0.37,0.53,0.79,1.16,1.27,1.8c0.48,0.69,0.9,1.43,1.38,2.22C4.05,6.03,4.58,6.87,5.48,8.25
					c0.85,1.38,1.9,3.33,3.07,5.34c1.06,2.01,2.17,4.02,2.96,5.56s1.32,2.59,1.32,2.59c0.37,0.79,0.79,1.59,1.11,2.38L15,26.5
					l1.27,2.86l1.22,2.86c0.42,0.95,0.79,1.9,1.16,2.86l1.16,2.86c0.37,0.95,0.74,1.9,1.11,2.91l1.11,2.91
					c0.69,1.96,1.43,3.86,2.06,5.82l0.9,2.59l0.85,2.59C26.32,56.56,26.85,58.31,27.38,60.06z"/>
			</g>
		</g>
	</g>
	<g id="Group_506" transform="translate(551.184 282.764)">
		<g id="Group_505" transform="translate(0 0)">
			<g id="Group_504">
				<path id="Path_254" class="st1" d="M6.14,50.22c-0.04,0.16-0.11,0.3-0.21,0.42c-0.65,0.78-1.58,1.27-2.59,1.38
					c-1.11,0-2.33-0.64-3.23-2.54C0.04,49.31,0,49.13,0,48.95c0.48-1.75,0.95-3.44,1.38-5.18c0.48-1.75,0.85-3.49,1.27-5.24
					c0.32-1.43,0.64-2.8,0.95-4.23l0.48-2.12c0.16-0.69,0.27-1.43,0.42-2.12c0.21-1.01,0.37-1.96,0.58-2.96l0.53-2.96
					c0,0,0.16-0.64,0.32-1.64c0.21-1.01,0.48-2.49,0.74-4.13c0.27-1.69,0.58-3.55,0.79-5.45l0.32-2.86
					c0.11-0.95,0.16-1.85,0.21-2.75C8.04,6.57,8.1,5.88,8.1,5.25c0.05-0.64,0.05-1.16,0.05-1.69c0-0.95,0.05-1.75,0.05-2.33V0.12
					c0,0.32,0.05,1.22,0.11,2.54C8.36,3.3,8.36,4.09,8.42,4.88c0,0.85,0.05,1.69,0.11,2.64c0-0.21,0.05,0.79,0.11,2.43
					c0,0.79,0,1.8,0.05,2.8c0,1.06,0.05,2.17,0.05,3.33v3.33c0,1.06,0,2.06-0.05,2.96v2.91l-0.11,2.64l-0.16,2.65
					c-0.05,0.74-0.11,1.48-0.16,2.22L8.1,35.04c-0.11,1.48-0.27,2.91-0.42,4.39c-0.21,1.85-0.37,3.65-0.64,5.5
					C6.67,46.52,6.4,48.37,6.14,50.22z"/>
			</g>
		</g>
	</g>
	<g id="Group_509" transform="translate(524.379 395.186)">
		<g id="Group_508" transform="translate(0)">
			<g id="Group_507">
				<path id="Path_255" class="st1" d="M0.25,9.07L0.25,9.07c-0.21,0.16-0.37,0.42-0.11,0l0.05-0.05c0,0,0.32-0.53,0.74-1.22
					c0.42-0.74,1.01-1.64,1.64-2.59c1.22-1.85,2.59-3.6,2.59-3.6c0.2-0.19,0.41-0.37,0.64-0.53c0.43-0.35,0.91-0.64,1.43-0.85
					C8.02-0.14,8.5-0.03,8.61,0.29C8.72,0.71,8.62,1.16,8.34,1.5C8.14,1.85,7.89,2.17,7.6,2.46L6.75,3.41c0,0-1.69,1.27-3.28,2.7
					C2.68,6.8,1.89,7.54,1.3,8.12C0.67,8.65,0.3,9.02,0.25,9.07z"/>
			</g>
		</g>
	</g>
	<g id="Group_512" transform="translate(516.414 406.79)">
		<g id="Group_511" transform="translate(0)">
			<g id="Group_510">
				<path id="Path_256" class="st1" d="M17.31,25.41c0.05,0,0.11,0,0.21,0.11c0.39,0.33,0.67,0.77,0.79,1.27
					c0.11,0.53-0.11,1.16-1.11,1.75c-0.05,0-0.21,0.11-0.27,0.11c-1.91-0.27-3.79-0.73-5.61-1.38c-0.69-0.27-1.38-0.53-2.01-0.85
					C9,26.25,8.63,26.09,8.32,25.93l-0.95-0.58c-0.34-0.17-0.66-0.39-0.95-0.64c-0.32-0.21-0.64-0.42-0.9-0.64l-0.85-0.74
					c-0.16-0.11-0.27-0.27-0.42-0.37l-0.37-0.42c-1.1-1.1-2-2.39-2.65-3.81c-0.32-0.72-0.59-1.46-0.79-2.22
					c-0.12-0.38-0.21-0.77-0.27-1.16l-0.11-1.16c-0.08-0.56-0.08-1.13,0-1.69c-0.01-0.28,0.01-0.57,0.05-0.85l0.11-0.85
					c0,0,0.05-0.32,0.21-0.9c0.2-0.74,0.45-1.46,0.74-2.17C1.88,5.91,2.85,4.2,4.03,2.65C4.61,1.8,5.28,1.02,6.04,0.32
					C6.52-0.05,6.73-0.1,6.78,0.17c0.11,0.42-0.53,1.85-1.22,3.49c0.11-0.16-0.79,1.8-1.38,3.86c-0.3,0.93-0.5,1.89-0.58,2.86
					c-0.05,0.37-0.05,0.74-0.11,0.95v0.37c-0.04,0.39-0.06,0.78-0.05,1.16c-0.03,0.37-0.03,0.74,0,1.11l0.11,0.9
					c0.05,0.32,0.16,0.58,0.21,0.85c0.14,0.56,0.33,1.11,0.58,1.64c0.51,1.08,1.21,2.07,2.06,2.91l0.32,0.32
					c0.11,0.12,0.24,0.22,0.37,0.32l0.69,0.58l0.74,0.53c0.26,0.16,0.53,0.37,0.79,0.53l0.79,0.48c0.26,0.16,0.58,0.27,0.85,0.42
					c0.58,0.32,1.16,0.48,1.75,0.74C14.17,24.82,15.72,25.23,17.31,25.41z"/>
			</g>
		</g>
	</g>
	<g id="Group_515" transform="translate(408.961 241.399)">
		<g id="Group_514" transform="translate(0)">
			<g id="Group_513">
				<path id="Path_257" class="st1" d="M12.49,0c0.04,0,0.08,0.02,0.11,0.05c0.7,0.8,1.05,1.85,0.95,2.91
					c0.01,0.06-0.01,0.12-0.05,0.16c-0.11,0.05-9.31,2.96-9.31,2.96c-0.93,0.09-1.87,0.09-2.8,0C-0.63,5.98-0.1,5.08,0.85,4.34
					c0.78-0.53,1.59-1.01,2.43-1.43C3.29,2.91,12.38,0.06,12.49,0z"/>
			</g>
		</g>
	</g>
	<g id="Group_518" transform="translate(640.167 492.194)">
		<g id="Group_517" transform="translate(0)">
			<g id="Group_516">
				<path id="Path_258" class="st1" d="M0.12,3.23L0.07,3.12c-0.16-1.03,0.01-2.08,0.48-3.02L0.6,0c0,0,0.48,0.05,1.11,0.16
					s1.53,0.21,2.38,0.26c1.75,0.16,3.44,0.27,3.44,0.27c0.66,0.23,1.3,0.53,1.9,0.9c1.38,0.69,0.85,1.43-0.05,1.8
					C9.43,3.44,8.9,3.6,8.37,3.71S7.31,3.97,7.31,3.97s-1.8-0.05-3.6-0.27C2.81,3.6,1.91,3.5,1.23,3.39
					C0.65,3.28,0.17,3.23,0.12,3.23z"/>
			</g>
		</g>
	</g>
	<g id="Group_521" transform="translate(611.33 477.262)">
		<g id="Group_520" transform="translate(0 0)">
			<g id="Group_519">
				<path id="Path_259" class="st1" d="M0.07,2.18C0.01,2.13,0.01,2.08,0.01,1.97c-0.06-0.52,0.08-1.05,0.37-1.48
					c0.55-0.52,1.36-0.67,2.06-0.37c0.1,0.01,0.19,0.05,0.27,0.11c1.05,1.39,2.2,2.7,3.44,3.91c1.13,1.09,2.33,2.1,3.6,3.02
					c0.79,0.58,1.59,1.11,2.43,1.64c0,0,0.95,0.69,2.33,1.59s3.17,1.96,4.71,2.75c0.64,0.32,1.22,0.58,1.64,0.85
					c0.35,0.17,0.69,0.36,1.01,0.58c0.48,0.32,0.58,0.53,0.37,0.64c-1.29,0.15-2.59,0-3.81-0.42c-0.41-0.09-0.82-0.19-1.22-0.32
					c-0.79-0.27-1.85-0.64-2.96-1.06c-1.06-0.42-2.17-0.95-2.96-1.32l-0.95-0.48c-0.13-0.06-0.25-0.13-0.37-0.21
					c-0.79-0.48-1.53-1.01-2.28-1.53C6.31,8.84,4.98,7.74,3.72,6.58C2.45,5.15,1.23,3.72,0.07,2.18z"/>
			</g>
		</g>
	</g>
	<g id="Group_524" transform="translate(556.065 500.302)">
		<g id="Group_523" transform="translate(0)">
			<g id="Group_522">
				<path id="Path_260" class="st4" d="M0.04,1.89c-0.05-0.05-0.05-0.11,0-0.27C0.03,0.7,0.78-0.06,1.71-0.07
					c0.39,0,0.78,0.13,1.08,0.38c0.05,0,0.16,0.11,0.21,0.16C3.76,2.02,4.65,3.5,5.65,4.91c2.03,2.9,4.45,5.49,7.2,7.72l0.48,0.42
					l0.53,0.42l1.06,0.79l1.06,0.79l1.11,0.74c0.74,0.48,1.48,1.01,2.22,1.43l2.33,1.27c0.86,0.48,1.74,0.9,2.65,1.27
					c0.24,0.14,0.49,0.26,0.74,0.37c0.48,0.21,1.06,0.64,1.8,0.95c0.74,0.37,1.59,0.74,2.43,1.16l1.27,0.64
					c0.41,0.2,0.84,0.38,1.27,0.53c5.45,2.33,3.07,2.38-0.64,1.69c-0.41-0.03-0.82-0.1-1.22-0.21c-0.79-0.21-1.9-0.53-3.02-0.85
					c-0.53-0.16-1.11-0.32-1.64-0.48s-1.01-0.37-1.43-0.53c-0.85-0.32-1.38-0.53-1.38-0.53c-0.79-0.37-1.64-0.74-2.43-1.16
					c-6.81-3.46-12.71-8.48-17.2-14.66C1.78,5.18,0.85,3.57,0.04,1.89z"/>
			</g>
		</g>
	</g>
</g>
</svg>
