<?xml version="1.0" encoding="utf-8"?>
<!-- Generator: Adobe Illustrator 25.2.1, SVG Export Plug-In . SVG Version: 6.00 Build 0)  -->
<svg version="1.1" id="Layer_1" xmlns="http://www.w3.org/2000/svg" xmlns:xlink="http://www.w3.org/1999/xlink" x="0px" y="0px"
	 viewBox="0 0 377.69 367.2" style="enable-background:new 0 0 377.69 367.2;" xml:space="preserve">
<style type="text/css">
	.st0{fill:#FFFFFF;}
	.st1{fill:#4149F1;}
	.st2{fill:none;stroke:#000000;stroke-width:0.5;stroke-miterlimit:10;}
	.st3{fill:#202020;}
	.st4{fill:#0B0511;}
</style>
<g id="svg7" transform="translate(-431.75 -184.728)">
	<g id="Group_237" transform="translate(755.311 524.505)">
		<g id="Group_236" transform="translate(0 0)">
			<g id="Group_235">
				<path id="Path_126" class="st0" d="M4.93,3.42c-0.11,0-0.11,0-0.22-0.11C3.96,2.82,2.93,1.63,4.66,0.16
					c0.05,0,0.16-0.11,0.27-0.16h18.53c0.2,0,0.4,0.01,0.6,0.05c0.48,0.05,0.94,0.2,1.35,0.43c0.85,0.49,1.47,1.28,1.73,2.22
					c0.06,0.23,0.1,0.46,0.11,0.7v22.22H0V12.84c0,0,0.05-0.7,0.11-1.9c0.16-1.68,0.38-4.55,0.7-6.83c0-0.22,0.05-0.38,0.05-0.54
					c0.02-0.22,0.08-0.44,0.16-0.65C1.16,2.56,1.39,2.25,1.67,2c0.35-0.33,0.81-0.53,1.3-0.54C3.19,1.44,3.4,1.5,3.57,1.62
					c0.11,0.11,0.11,0.16,0,0.27c-0.16,0.16-0.54,0.33-0.76,0.7C2.69,2.79,2.6,3.01,2.54,3.24v0.38c0,0.22,0.05,0.43,0.05,0.65
					C2.65,4,2.92,8.23,3.09,10.99c0.05,1.3,0.16,2.33,0.16,2.33v9h20.48V3.58l0,0V3.52c0-0.09-0.08-0.16-0.16-0.16
					c-0.05,0-0.05-0.05-0.11-0.05H4.93L4.93,3.42z"/>
			</g>
		</g>
	</g>
	<g id="Group_240" transform="translate(773.845 529.045)">
		<g id="Group_239" transform="translate(0 0)">
			<g id="Group_238">
				<path id="Path_127" class="st0" d="M3.41,13.72c0,0,0,0.05-0.11,0.05c-1.01,0.4-2.13,0.4-3.14,0C0.11,13.75,0.05,13.71,0,13.67
					V3.86c0.2-0.93,0.49-1.84,0.87-2.71c0.7-1.9,1.46-1.14,1.84,0.05C2.76,1.1,3.36,3.97,3.36,3.97S3.41,13.62,3.41,13.72z"/>
			</g>
		</g>
	</g>
	<g id="Group_243" transform="translate(773.845 544.66)">
		<g id="Group_242" transform="translate(0 0)">
			<g id="Group_241">
				<path id="Path_128" class="st0" d="M3.41,3.8H3.31c-1.04,0.11-2.1,0.11-3.14,0H0V1.09c0.24-0.3,0.54-0.56,0.87-0.76
					c0.54-0.44,1.31-0.44,1.84,0c0.05-0.05,0.65,0.76,0.65,0.76L3.41,3.8z"/>
			</g>
		</g>
	</g>
	<g id="Group_244" transform="translate(472.506 378.673)">
		<path id="Path_129" class="st1" d="M102.29,8.02c-0.38-2.55-0.54-5.15-0.7-7.75c-0.88-0.26-1.8-0.34-2.71-0.22
			c-9.43,1.08-19.4,2.11-28.51,4.99c-5.15,1.63-9.78,4.58-13.44,8.56c-2.42,2.42-4.54,5.13-6.29,8.08L28.37,59.99
			c-5.58,10.68-10.84,21.52-17.72,31.49c-7.1,10.35-13.49,21.73-9.32,34.68c4.66,14.36,17.29,22.33,30.02,28.89
			c4.34,2.22,10.35,1.3,12.79-3.36c2.28-4.28,1.3-10.41-3.36-12.79c-1.03-0.54-2.06-1.03-3.09-1.57c-3.91-6.53-6.47-13.77-7.53-21.3
			c-0.02-0.2-0.06-0.4-0.11-0.6c0-0.16-0.05-0.38-0.05-0.76c-0.11-1.14-0.22-2.22-0.27-3.36c-0.11-2.09-0.11-4.19,0-6.29
			c0.05-1.14,0.11-2.28,0.22-3.36c0.06-0.43,0.1-0.86,0.11-1.3c0.01-0.18,0.05-0.37,0.11-0.54v-0.11
			c6.97-9.26,14.67-17.94,23.03-25.96c4.38-4.23,9.15-8.04,14.25-11.37c7.42-3.52,16.1-3.9,25.31-3.58s18.37,1.25,27.53,0.65
			c13.17,2.06,26.39,4.44,39.51,7.1c0.68,0.16,1.37,0.23,2.06,0.22c6.76,1.54,13.34,3.73,19.67,6.56c2.22,1.03,4.39,2.22,6.5,3.47
			c1.03,0.65,2.11,1.3,3.09,1.95c0.65,0.43,1.25,0.87,1.9,1.3c0.17,0.11,0.34,0.24,0.49,0.38c1.4,1.12,2.74,2.32,4.01,3.58
			c4.32,6.7,9.4,12.88,15.12,18.43c0.63,0.86,1.4,1.61,2.28,2.22l0.22,0.22c3.79,3.58,7.75,6.99,11.65,10.41
			c4.34,3.85,8.62,8.4,13.49,11.6c7.15,4.66,14.85,0.65,18.97-5.85c2.83-4.68,4.93-9.76,6.23-15.07c3.09-11.92,3.79-24.82,3.9-37.12
			c0.05-13.19-1.09-26.36-3.41-39.34c-0.76-4.28-5.2-6.5-9-6.88c-5.15-0.49-9.65,3.09-11.87,7.42c-2.01,3.9-2.28,8.4-2.76,12.73
			c-0.69,7.57-0.99,15.16-0.92,22.76c0.06,7.36-0.27,14.73-0.97,22.06c0,0-0.22,1.79-0.22,1.9c-0.11,0.81-0.27,1.63-0.43,2.49
			c-0.27,1.63-0.65,3.2-1.03,4.77c-0.27,1.14-0.6,2.28-0.97,3.41c-3.41-2.98-4.39-9.05-7.1-13.77
			c-5.36-14.47-7.75-15.61-15.61-28.94c-0.22-0.7-5.53-8.29-7.04-11.6c-4.82-10.41-9.05-17.88-12.63-19.4
			c-3.47-1.46-16.31-2.66-20.38-3.14c-2.98-0.49-7.91-1.84-10.57,1.14c-1.35,1.21-2.76,2.35-4.23,3.41
			c-0.27,0.27-2.06,1.35-2.33,1.57c-0.6,0.43-1.19,0.81-1.79,1.19c-1.35,0.87-2.76,1.57-4.23,2.33c-0.16,0.11-0.22,0.11-0.27,0.16
			c-0.11,0.05-0.22,0.05-0.33,0.11c-0.81,0.33-1.63,0.6-2.49,0.87c-1.55,0.49-3.12,0.88-4.72,1.19c-0.4,0.04-0.8,0.11-1.19,0.22
			c-0.65,0.05-1.35,0.11-2.06,0.16c-1.61,0.11-3.22,0.11-4.82,0c-0.76-0.05-1.46-0.11-2.22-0.16c1.95,0.11-0.87-0.16-1.08-0.16
			c-3.13-0.58-6.2-1.47-9.16-2.66c0.05,0-0.81-0.38-1.14-0.54c-0.7-0.33-1.35-0.65-2.06-1.03c-1.62-0.85-3.19-1.8-4.72-2.82
			c-0.65-0.43-1.25-0.87-1.9-1.3c-0.22-0.16-0.76-0.6-0.97-0.76c-1.19-0.97-2.39-2.01-3.52-3.09
			C105.53,18.86,103.12,13.61,102.29,8.02z"/>
	</g>
	<g id="Group_245" transform="translate(575.823 333.853)">
		<path id="Path_130" class="st2" d="M0,0"/>
	</g>
	<g id="Group_248" transform="translate(651.82 322.816)">
		<g id="Group_247" transform="translate(0)">
			<g id="Group_246">
				<path id="Path_131" class="st0" d="M4.37,68.43c-0.16,0.11-0.22,0.11-0.49,0.11c-1.08,0.12-2.16-0.22-2.98-0.92
					c-0.81-0.76-1.19-2.11-0.65-4.28c0.06-0.18,0.15-0.34,0.27-0.49l1.08-0.7l1.03-0.81l1.03-0.81c0.33-0.27,0.7-0.54,0.97-0.81
					l1.9-1.79c0.65-0.6,1.19-1.25,1.79-1.9c6.69-7.27,11.13-16.33,12.79-26.07l0.43-2.87c0.11-0.98,0.16-1.95,0.22-2.93
					c0.01-0.15,0.02-0.29,0.05-0.43c0.05-0.27,0.05-0.65,0.11-1.19c0.05-1.03,0.27-2.44,0.27-4.06c0.16-3.66,0-7.32-0.49-10.95
					c-0.43-2.93-0.87-4.88-0.98-6.07s0.05-1.57,0.49-1.41c0.87,0.33,2.71,3.04,4.12,6.72c0.39,0.77,0.69,1.59,0.87,2.44
					c0.62,2.1,1.1,4.24,1.46,6.39c0.16,1.19,0.27,2.44,0.43,3.58c0.09,0.56,0.12,1.12,0.11,1.68c0,0.54,0.05,1.03,0.05,1.52
					s0.05,0.92,0.05,1.3v1.84l-0.11,1.41c-0.03,0.47-0.08,0.94-0.16,1.41l-0.43,2.82c-1.88,11.02-6.91,21.25-14.47,29.48
					c-0.7,0.7-1.35,1.46-2.06,2.17L8.92,64.8l-1.14,0.98L6.59,66.7L5.4,67.62L4.37,68.43z"/>
			</g>
		</g>
	</g>
	<g id="Group_251" transform="translate(580.297 335.473)">
		<g id="Group_250" transform="translate(0 0)">
			<g id="Group_249">
				<path id="Path_132" class="st0" d="M0.94,0.82C0.98,0.74,1.04,0.66,1.11,0.6C1.5,0.22,2.02,0,2.57,0
					c0.54,0.05,1.14,0.49,1.57,1.46c0,0.05,0.05,0.22,0.05,0.27C3.71,3.39,3.43,5.11,3.38,6.83c-0.04,3.72,0.45,7.42,1.46,11
					c0.49,1.84,1.03,3.69,1.63,5.53c0.6,1.84,1.19,3.68,1.79,5.47c1.27,3.59,2.79,7.08,4.55,10.46c0.43,0.87,0.92,1.63,1.41,2.44
					s1.03,1.57,1.57,2.33c1.07,1.52,2.27,2.95,3.58,4.28c2.53,2.72,5.48,5.02,8.72,6.83c3.23,1.83,6.72,3.16,10.35,3.96
					c3.65,0.78,7.38,1.07,11.11,0.87h0.81l0.38-0.05c0.27,0,0.54-0.05,0.81-0.05c0.53-0.05,1.05-0.12,1.57-0.22
					c0,0,1.25-0.05,2.93-0.27s3.79-0.54,5.53-0.92c1-0.25,2.01-0.45,3.03-0.6c0.6-0.05,0.81,0.05,0.7,0.27
					c-0.16,0.43-1.52,1.3-3.25,2.11c-1.37,0.61-2.79,1.14-4.23,1.57c-1.14,0.38-2.33,0.65-3.2,0.87s-1.52,0.33-1.52,0.33
					c-0.54,0.05-1.08,0.16-1.68,0.22l-0.81,0.05h-0.87c-0.49,0-0.98,0.05-1.46,0.05c-3.98,0.11-7.95-0.33-11.81-1.3
					c-3.87-0.97-7.58-2.5-11-4.55c-3.41-2.07-6.51-4.6-9.21-7.53c-2.67-2.95-4.94-6.23-6.77-9.76c-1.77-3.46-3.3-7.05-4.55-10.73
					C4.3,27.64,3.7,25.8,3.16,24.01c-0.54-1.84-1.14-3.68-1.63-5.58c-1.08-3.84-1.59-7.82-1.52-11.81C0.04,4.65,0.35,2.7,0.94,0.82z
					"/>
			</g>
		</g>
	</g>
	<g id="Group_254" transform="translate(578.998 294.258)">
		<g id="Group_253" transform="translate(0 0)">
			<g id="Group_252">
				<path id="Path_133" class="st3" d="M1.81,44.2c-0.05,0.05-0.11,0.05-0.22,0c-0.92-0.16-2.28-0.92-1.19-2.93
					c0-0.05,0.11-0.16,0.16-0.22c0.81-0.33,1.68-0.65,2.49-1.03l2.44-1.19l0.6-0.27l0.54-0.33l1.14-0.65
					c0.76-0.43,1.52-0.81,2.22-1.3l2.17-1.41c0.7-0.49,1.35-1.03,2.06-1.52l1.03-0.76l0.97-0.81c0.65-0.54,1.3-1.08,1.95-1.68
					c1.25-1.19,2.49-2.33,3.63-3.63c1.19-1.25,2.28-2.6,3.36-3.9c0.54-0.65,1.03-1.36,1.52-2.06l0.76-1.03l0.7-1.08
					c0.43-0.7,0.92-1.46,1.35-2.17l1.25-2.22l0.43-0.81l0.33-0.7l0.7-1.46c0,0,0.16-0.27,0.43-0.7s0.6-1.14,0.97-1.9
					c0.81-1.52,1.68-3.47,2.44-5.09c1.08-2.82,1.68-3.63,1.95-3.25c0.18,1.3,0.12,2.62-0.16,3.9c-0.04,0.42-0.13,0.84-0.27,1.25
					c-0.11,0.43-0.22,0.92-0.38,1.41c-0.12,0.57-0.28,1.13-0.49,1.68l-1.03,3.09c-0.33,0.81-0.6,1.41-0.6,1.41l-0.7,1.52
					c-0.1,0.26-0.23,0.52-0.38,0.76l-0.6,1.03c-0.43,0.76-0.87,1.57-1.3,2.33l-1.41,2.22c-1.97,2.96-4.19,5.75-6.61,8.35l-0.92,0.98
					c-0.33,0.33-0.65,0.6-0.98,0.92l-1.9,1.84l-2.01,1.73c-0.33,0.27-0.65,0.6-1.03,0.87l-1.08,0.81c-2.81,2.18-5.83,4.08-9,5.69
					l-2.6,1.25C3.6,43.5,2.68,43.82,1.81,44.2z"/>
			</g>
		</g>
	</g>
	<g id="Group_257" transform="translate(613.162 278.677)">
		<g id="Group_256" transform="translate(0 0)">
			<g id="Group_255">
				<path id="Path_134" class="st0" d="M0.33,1.09c0-0.11,0-0.11,0.11-0.22c0.31-0.44,0.78-0.74,1.3-0.87
					c0.54-0.05,1.19,0.22,1.84,1.14c0,0.05,0.11,0.16,0.11,0.27L3.58,2.77c-0.05,0.43,0,0.87-0.05,1.36v1.36
					c0,0.43,0.05,0.87,0.05,1.36c0.15,3.01,0.66,6,1.52,8.89c0.86,2.91,2,5.72,3.41,8.4c0.38,0.65,0.7,1.36,1.14,2.01l1.19,1.9
					l1.3,1.84c0.44,0.62,0.91,1.22,1.41,1.79c1.94,2.33,4.1,4.47,6.45,6.39c4.8,3.78,10.26,6.65,16.1,8.45
					c2.92,0.93,5.91,1.62,8.94,2.06l1.9,0.27L48.51,49c0,0,1.25,0.22,2.93,0.43c0.87,0.11,1.79,0.22,2.76,0.33
					c0.97,0.11,1.95,0.16,2.82,0.27c0.76,0.05,1.41,0.11,1.9,0.16s0.92,0.11,1.19,0.16c0.6,0.11,0.76,0.27,0.6,0.43
					c-0.37,0.27-0.8,0.46-1.25,0.54c-0.81,0.27-1.65,0.45-2.49,0.54c-0.41,0.1-0.83,0.16-1.25,0.16c-0.87,0.11-2.01,0.16-3.2,0.22
					s-2.39,0.05-3.31,0.05c-0.92-0.05-1.52-0.05-1.52-0.05l-1.63-0.16l-0.81-0.11l-0.7-0.11c-0.38-0.05-0.81-0.11-1.19-0.16
					c-3.15-0.51-6.25-1.29-9.27-2.33c-6.09-2.01-11.77-5.11-16.75-9.16c-2.48-2.04-4.75-4.33-6.77-6.83
					c-2.04-2.48-3.82-5.17-5.31-8.02c-3.04-5.7-4.82-11.98-5.2-18.43c0-0.49-0.05-0.98-0.05-1.46V4.01
					C0.01,3.53,0.03,3.04,0.07,2.55L0.33,1.09z"/>
			</g>
		</g>
	</g>
	<g id="Group_260" transform="translate(556.263 260.62)">
		<g id="Group_259">
			<g id="Group_258">
				<path id="Path_135" class="st0" d="M27.42,105.91c0.05-0.05,0.05-0.05,0.16,0c0.49,0.07,0.95,0.26,1.35,0.54
					c0.43,0.38,0.76,0.98,0.27,2.17c-0.04,0.11-0.11,0.21-0.22,0.27c-0.05,0-0.22,0.11-0.49,0.22c-0.16,0.05-0.33,0.16-0.49,0.22
					l-0.33,0.16c-0.12,0.04-0.25,0.08-0.38,0.11c-1.35,0.44-2.76,0.62-4.17,0.54h-0.6c-0.33-0.01-0.65-0.05-0.97-0.11
					c-0.33-0.05-0.65-0.05-0.97-0.11c-2.55-0.44-5-1.3-7.26-2.55c-1.19-0.61-2.31-1.34-3.36-2.17c-0.49-0.43-0.97-0.81-1.46-1.25
					l-1.46-1.3C5,100.8,3.33,98.58,2.11,96.11c-0.27-0.65-0.6-1.3-0.81-2.01c-0.26-0.67-0.46-1.36-0.6-2.06
					c-0.16-0.7-0.27-1.41-0.38-2.06c-0.05-0.7-0.16-1.41-0.22-2.11c-0.15-2.76-0.12-5.53,0.11-8.29c0.29-5.63,1.11-11.22,2.44-16.69
					c1.56-5.61,3.7-11.04,6.4-16.2c2.67-5.29,5.71-10.38,9.1-15.23c3.43-4.93,7.18-9.64,11.22-14.09
					c4.13-4.61,9.06-8.45,14.53-11.34c1.35-0.7,2.82-1.3,4.28-1.9c0.72-0.28,1.47-0.52,2.22-0.7l0.92-0.27l1.08-0.43
					c2.9-1.13,5.92-1.91,9-2.33c6.08-0.72,12.25-0.37,18.21,1.03c1.46,0.33,2.93,0.65,4.34,1.03c0.74,0.17,1.46,0.38,2.17,0.65
					c0.7,0.22,1.46,0.43,2.17,0.7s1.41,0.6,2.11,0.87c0.33,0.16,0.7,0.27,1.03,0.43l1.03,0.54c0.65,0.38,1.35,0.7,2.01,1.03
					c0.65,0.38,1.3,0.81,1.9,1.19c0.64,0.4,1.25,0.84,1.84,1.3c0.6,0.43,1.19,0.87,1.79,1.36c0.54,0.49,1.14,0.98,1.68,1.46
					l0.43,0.38l0.38,0.38l0.76,0.76c1.08,1.03,2.01,2.11,2.98,3.2c0.49,0.54,0.92,1.14,1.35,1.68s0.92,1.14,1.3,1.68
					c3.26,4.51,6.21,9.24,8.83,14.14c0.65,1.19,1.3,2.33,1.95,3.52s1.3,2.38,1.84,3.58c0.6,1.19,1.14,2.39,1.63,3.63
					c0.27,0.6,0.49,1.19,0.76,1.84c0.22,0.6,0.43,1.25,0.7,1.84c1.79,4.78,2.97,9.77,3.52,14.85c0.05,0.6,0.11,1.25,0.16,1.84
					s0.05,1.25,0.11,1.84s0.05,1.19,0.05,1.84v1.79c-0.09,2.34-0.33,4.68-0.7,6.99c-0.36,2.22-0.87,4.41-1.52,6.56
					c-0.27,1.08-0.65,2.06-0.98,3.09c-0.38,0.98-0.7,2.01-1.08,2.98c-0.7,1.95-1.52,3.79-2.28,5.58c-0.49,1.03-0.92,2.06-1.35,3.04
					c-0.27,0.54-0.49,1.03-0.65,1.41c-0.21,0.4-0.39,0.82-0.54,1.25c0,0-0.6,1.14-1.46,2.66c-0.81,1.52-1.84,3.41-2.66,4.99
					c-0.25,0.58-0.54,1.14-0.87,1.68c-0.17,0.36-0.37,0.7-0.6,1.03c-0.33,0.49-0.54,0.6-0.65,0.43c-0.18-1.31-0.05-2.65,0.38-3.9
					c0.35-1.45,0.79-2.88,1.3-4.28c0.76-2.22,1.63-4.44,1.63-4.44s0.22-0.43,0.54-1.19c0.43-0.92,0.92-2.06,1.46-3.31
					c1.53-3.39,2.87-6.87,4.01-10.4c1.23-3.89,2.03-7.91,2.38-11.98c0.33-4.42,0.09-8.86-0.7-13.22c-0.92-4.69-2.33-9.27-4.23-13.66
					c-0.43-1.14-1.03-2.28-1.57-3.41c-0.49-1.14-1.14-2.22-1.73-3.36s-1.25-2.28-1.84-3.41c-0.65-1.14-1.25-2.28-1.95-3.41
					c-2.58-4.64-5.55-9.04-8.89-13.17c-0.43-0.54-0.87-0.98-1.35-1.52c-0.42-0.51-0.88-1-1.35-1.46c-0.49-0.49-0.97-0.92-1.41-1.41
					c-0.49-0.43-1.03-0.87-1.52-1.3l-0.76-0.65c-0.27-0.22-0.54-0.38-0.81-0.6c-0.54-0.38-1.08-0.81-1.63-1.19
					c-0.6-0.38-1.14-0.7-1.73-1.08l-0.87-0.54l-0.92-0.49c-0.6-0.33-1.19-0.6-1.79-0.92c-0.65-0.27-1.25-0.54-1.9-0.76l-0.92-0.38
					l-0.97-0.33L84,6.09c-2.73-0.75-5.5-1.37-8.29-1.84c-5.54-1.02-11.22-0.98-16.75,0.11c-0.33,0.05-0.7,0.16-1.03,0.22L56.9,4.84
					C56.2,5,55.55,5.22,54.9,5.44s-1.3,0.49-1.95,0.76l-0.49,0.22l-0.22,0.11l-0.22,0.05l-0.27,0.05L50.72,6.9
					c-2.69,0.86-5.27,2.03-7.7,3.47c-2.44,1.47-4.74,3.16-6.88,5.04c-2.15,1.89-4.16,3.94-6.02,6.12
					c-3.8,4.35-7.33,8.93-10.57,13.71c-3.18,4.71-6.02,9.64-8.51,14.74c-2.47,4.92-4.37,10.1-5.69,15.45
					c-1.12,5.25-1.8,10.58-2.06,15.93c-0.2,2.54-0.18,5.1,0.05,7.64c0.12,1.19,0.35,2.37,0.7,3.52l0.27,0.81l0.16,0.43l0.16,0.38
					l0.33,0.81l0.43,0.76c0.12,0.26,0.27,0.52,0.43,0.76l0.49,0.7c0.38,0.43,0.7,0.92,1.08,1.36s0.76,0.87,1.19,1.3l0.65,0.65
					l0.65,0.6c0.43,0.41,0.88,0.79,1.35,1.14c0.22,0.16,0.49,0.38,0.7,0.54l0.65,0.49c0.92,0.64,1.9,1.21,2.93,1.68
					c1,0.47,2.03,0.87,3.09,1.19c1.03,0.29,2.08,0.51,3.14,0.65c0.25,0.04,0.5,0.06,0.76,0.05h0.49c1.02,0.02,2.05-0.11,3.03-0.38
					c0.11,0,0.16-0.05,0.27-0.05c0.05-0.05,0.16-0.05,0.22-0.11l0.33-0.16C27.31,105.97,27.42,105.91,27.42,105.91z"/>
			</g>
		</g>
	</g>
	<g id="Group_263" transform="translate(607.106 344.075)">
		<g id="Group_262" transform="translate(0 0)">
			<g id="Group_261">
				<path id="Path_136" class="st0" d="M1.08,3.22C1.11,3.14,1.17,3.06,1.24,3C1.66,2.63,2.2,2.44,2.75,2.46
					C3.3,2.57,3.84,3,4.22,3.98c0,0.05,0.05,0.22,0.05,0.27C3.73,5.8,3.51,7.44,3.62,9.07c0,0.22,0.05,0.43,0.05,0.6l0.05,0.38v0.05
					l0,0L3.78,10c0.11-0.15,0.2-0.31,0.27-0.49c0.16-0.33,0.33-0.65,0.49-1.03c0.25-0.72,0.4-1.46,0.43-2.22
					c0.05-0.75-0.04-1.5-0.27-2.22C4.61,3.68,4.48,3.33,4.32,3C4.26,2.83,4.16,2.67,4.05,2.52L4,2.41h2.87v0.05L6.82,2.52L6.65,2.79
					C5.85,4.24,5.3,5.81,5.03,7.45l0,0c-0.11,0.7-0.16,1.41-0.16,2.11c-0.04,0.47,0.06,0.94,0.27,1.36l0.05,0.05l0,0l0.05,0.05
					l0.11,0.05l0,0l0.05-0.16l0.16-0.43c0.39-1.26,0.48-2.6,0.27-3.9C5.72,5.93,5.54,5.3,5.3,4.68c-0.05-0.15-0.12-0.3-0.22-0.43
					C5.02,4.12,4.95,3.99,4.86,3.87C4.81,3.77,4.73,3.68,4.65,3.6L4.54,3.49L4.49,3.44l0,0c-0.05,0-0.16,0.16-0.27,0.33L4.05,3.92
					L3.94,4.14c-0.1,0.13-0.18,0.27-0.22,0.43L3.56,5.06c0.01,0.09-0.01,0.19-0.05,0.27V5.5C3.41,6.21,3.5,6.94,3.78,7.61v0.05l0,0
					C3.75,7.69,3.73,7.73,3.73,7.77c0,0.09,0.01,0.19,0.05,0.27c0.07,0.17,0.18,0.32,0.33,0.43c0.11,0,0.22-0.05,0.33-0.27
					C4.49,8.11,4.53,8,4.54,7.88c0-0.05,0.05-0.16,0.05-0.22V7.34c-0.13-0.96-0.4-1.89-0.81-2.76c-0.22-0.54-0.22-0.76,0-0.76
					C4.27,3.96,4.7,4.24,5.03,4.63C5.68,5.3,6.16,6.12,6.44,7.01v0.05C6.46,7.18,6.5,7.29,6.54,7.39C6.6,7.55,6.6,7.77,6.65,7.99
					c0.05,0.27,0.05,0.54,0.11,0.87c0.03,0.69-0.04,1.39-0.22,2.06c-0.19,0.79-0.42,1.57-0.7,2.33c-0.41-0.14-0.8-0.3-1.19-0.49
					c-0.38-0.15-0.74-0.33-1.08-0.54c-0.38-0.18-0.72-0.42-1.03-0.7c-0.32-0.28-0.61-0.59-0.87-0.92c-0.22-0.38-0.49-0.7-0.65-0.98
					C0.91,9.46,0.86,9.3,0.75,9.13C0.7,9.03,0.64,8.86,0.59,8.76C0.54,8.63,0.49,8.5,0.42,8.38C0.39,8.33,0.38,8.27,0.37,8.21
					C0.27,7.95,0.2,7.68,0.15,7.4c-0.07-0.28-0.1-0.58-0.11-0.87c-0.05-0.29-0.05-0.58,0-0.87V5.23L0.1,4.69
					c0.17-1.23,0.7-2.37,1.52-3.31c0.25-0.28,0.52-0.53,0.81-0.76c0.37-0.28,0.79-0.47,1.25-0.54c0.91-0.19,1.86,0.03,2.6,0.6
					c0.05,0.05,0.16,0.11,0.22,0.16l0.16,0.16l0.33,0.33c0.2,0.19,0.36,0.41,0.49,0.65C7.63,2.2,7.74,2.47,7.85,2.63l0.33,0.65
					c0.38,0.85,0.65,1.74,0.81,2.65c0.31,1.85,0.18,3.74-0.38,5.53l-0.22,0.65c-0.06,0.12-0.12,0.25-0.16,0.38
					c-0.07,0.17-0.16,0.34-0.27,0.49c-0.42,0.67-1.08,1.16-1.84,1.36c-0.76,0.2-1.57,0.12-2.28-0.22c-0.34-0.13-0.66-0.34-0.92-0.6
					c-0.14-0.11-0.27-0.24-0.38-0.38l-0.16-0.22l-0.16-0.22c-0.32-0.52-0.56-1.09-0.7-1.68c-0.1-0.5-0.16-1.01-0.16-1.52
					C1.34,8.62,1.41,7.73,1.56,6.86l0,0c0.31-2.04,0.99-4.01,2.01-5.8l0.22-0.33l0.05-0.11V0.57h2.87l0.11,0.16
					C6.93,1,7.09,1.22,7.2,1.49C7.43,2,7.63,2.53,7.8,3.06c0.32,1.07,0.44,2.19,0.38,3.31C8.12,7.48,7.9,8.57,7.53,9.62
					c-0.18,0.53-0.41,1.04-0.7,1.52c-0.16,0.22-0.27,0.49-0.43,0.7l-0.33,0.49c-0.16,0.15-0.3,0.31-0.43,0.49
					c-0.27,0.35-0.6,0.64-0.97,0.87c-0.33,0.21-0.7,0.34-1.08,0.38c-0.81,0.09-1.62-0.21-2.17-0.81c-0.29-0.3-0.53-0.65-0.7-1.03
					c-0.18-0.4-0.3-0.82-0.38-1.25l-0.05-0.33c-0.01-0.09-0.03-0.18-0.05-0.27L0.17,10c-0.04-0.25-0.06-0.5-0.05-0.76
					C0.09,7.19,0.41,5.16,1.08,3.22z"/>
			</g>
		</g>
	</g>
	<g id="Group_266" transform="translate(648.258 344.427)">
		<g id="Group_265" transform="translate(0)">
			<g id="Group_264">
				<path id="Path_137" class="st0" d="M1.97,3.46C2.03,3.41,2.03,3.36,2.14,3.3c0.76-0.49,2.28-0.98,2.93,1.19
					c0,0.05,0.05,0.22,0,0.27C4.34,6.32,3.81,7.96,3.49,9.64c-0.07,0.58-0.09,1.16-0.05,1.73c0,0.27,0.05,0.6,0.05,0.87l0.05,0.43
					l0.05,0.22c0,0.05,0,0.05,0.05,0.11c0.16,0.51,0.38,1,0.65,1.46c0.05,0.11,0.16,0.22,0.22,0.33l0.16,0.22l0,0l0.05-0.05
					l0.6-0.65c0.16-0.22,0.38-0.49,0.54-0.7c0.64-0.9,1.05-1.94,1.19-3.04c0.05-0.52,0.05-1.05,0-1.57L6.91,8.18
					C6.85,7.96,6.74,7.53,6.74,7.64V7.59l0,0c0-0.05,0,0.05-0.05,0.11L6.64,7.91C6.52,8.17,6.43,8.44,6.36,8.72
					c-0.29,1.17-0.44,2.37-0.43,3.58c-0.08,0.77-0.01,1.54,0.22,2.28c0.08,0.25,0.21,0.49,0.38,0.7c0.14,0.16,0.3,0.28,0.49,0.38
					c0.22,0.11,0.38,0.11,0.43,0.05c0.05,0,0.05,0,0.05-0.05l0.11-0.11c0.18-0.27,0.32-0.56,0.43-0.87
					c0.15-0.39,0.28-0.79,0.38-1.19c0.42-1.65,0.5-3.36,0.22-5.04C8.49,7.61,8.25,6.8,7.94,6.01C7.78,5.62,7.6,5.24,7.4,4.87
					C7.24,4.54,7.04,4.23,6.8,3.95c-0.17-0.2-0.37-0.36-0.6-0.49C6.03,3.41,6.03,3.41,5.98,3.41C5.79,3.47,5.62,3.59,5.49,3.73
					C5.37,3.87,5.26,4.01,5.17,4.17C5.06,4.33,4.9,4.44,4.84,4.6C3.98,5.91,3.58,7.48,3.7,9.05c0.03,0.38,0.08,0.76,0.16,1.14
					l0.16,0.54c0,0.05,0,0.05,0.05,0.05v0.05l0.05,0.11c0.08,0.23,0.18,0.45,0.33,0.65l0.22,0.38l0,0v0.05c0,0.05,0,0.05,0.05,0.11
					s0.11,0.16,0.11,0.11c0.05,0,0.05,0,0.11-0.05c0.05-0.11,0.11,0,0.27-0.7c0.29-0.96,0.53-1.94,0.7-2.93
					c0.09-0.95,0-1.9-0.27-2.82C5.49,5.2,5.54,4.93,5.76,4.98c0.46,0.2,0.84,0.54,1.08,0.98c0.55,0.78,0.87,1.7,0.92,2.65
					c0.07,0.7,0.07,1.41,0,2.11c-0.05,0.33-0.05,0.65-0.11,0.98C7.6,12.14,7.55,12.57,7.49,13c-0.09,0.7-0.13,1.41-0.11,2.11
					c0,0.76-0.05,1.52-0.05,2.22c-0.53-0.19-1.06-0.41-1.57-0.65c-0.54-0.22-0.97-0.43-1.41-0.65c-0.1-0.04-0.19-0.1-0.27-0.16
					c-0.11-0.05-0.16-0.11-0.27-0.16c-0.16-0.11-0.27-0.22-0.38-0.27c-0.11-0.08-0.22-0.17-0.33-0.27
					c-0.43-0.38-0.81-0.92-1.25-1.36c-0.23-0.32-0.43-0.67-0.6-1.03l-0.22-0.54l-0.11-0.27l-0.05-0.05c0-0.04-0.02-0.08-0.05-0.11
					l-0.11-0.43c-0.33-1.07-0.48-2.19-0.43-3.31c0.06-2.26,0.88-4.44,2.33-6.18C3,1.38,3.48,0.94,4.02,0.59
					C4.74,0.1,5.61-0.09,6.46,0.05c0.78,0.12,1.51,0.46,2.11,0.98c0.49,0.4,0.91,0.88,1.25,1.41c0.18,0.23,0.32,0.49,0.43,0.76
					c0.11,0.22,0.27,0.49,0.38,0.7l0.33,0.7l0.27,0.76c0.34,0.98,0.58,2,0.7,3.04c0.29,2.08,0.14,4.21-0.43,6.23
					c-0.16,0.49-0.33,1.03-0.49,1.52c-0.24,0.63-0.59,1.22-1.03,1.73c-0.6,0.64-1.41,1.04-2.28,1.14c-0.77,0.08-1.54-0.07-2.22-0.43
					c-0.67-0.32-1.26-0.78-1.73-1.36c-0.41-0.53-0.7-1.14-0.87-1.79c-0.3-1.07-0.43-2.19-0.38-3.31c0-1.5,0.18-2.99,0.54-4.44
					c0.1-0.39,0.23-0.77,0.38-1.14l0.11-0.27l0.16-0.33c0.16-0.33,0.27-0.6,0.43-0.92c0.6-1.19,1.3-2.22,1.95-3.36l0.49-0.81
					l0.11-0.22l0.05-0.11l0.05-0.05c0,0,0-0.05,0.05,0l0.22,0.38l0.98,1.63c0.33,0.54,0.6,1.03,0.92,1.63l0.43,0.87l0.38,0.92
					c0.17,0.44,0.32,0.89,0.43,1.36c0.1,0.39,0.18,0.79,0.22,1.19c0.11,0.81,0.11,1.63,0,2.44c-0.29,1.98-1.14,3.84-2.44,5.36
					l-0.76,0.87l-0.33,0.33c-0.11,0.11-0.27,0.22-0.38,0.33c-0.26,0.21-0.55,0.38-0.87,0.49c-0.29,0.12-0.6,0.2-0.92,0.22
					c-0.16,0.01-0.33-0.01-0.49-0.05c-0.16-0.05-0.33-0.05-0.49-0.11c-0.61-0.25-1.15-0.64-1.57-1.14L2.01,17L1.9,16.84
					c-0.05-0.11-0.16-0.16-0.22-0.27c-0.12-0.17-0.23-0.35-0.33-0.54c-0.21-0.34-0.39-0.71-0.54-1.08
					c-0.18-0.38-0.32-0.78-0.43-1.19c-0.05-0.11-0.05-0.27-0.11-0.38L0.22,13.1l-0.11-0.54c-0.06-0.38-0.1-0.76-0.11-1.14
					C-0.04,10.64,0,9.86,0.12,9.09C0.52,7.15,1.14,5.26,1.97,3.46z"/>
			</g>
		</g>
	</g>
	<g id="Group_269" transform="translate(603.462 366.388)">
		<g id="Group_268" transform="translate(0 0)">
			<g id="Group_267">
				<path id="Path_138" class="st0" d="M0,1.45c-0.01-0.08,0.01-0.15,0.05-0.22c0.19-0.51,0.58-0.92,1.08-1.14
					C1.68-0.13,2.33,0.04,3.2,0.74c0.05,0,0.16,0.16,0.16,0.22c0.28,1.73,0.7,3.43,1.25,5.09c0.89,2.51,2.25,4.83,4.01,6.83
					c0.87,0.98,1.85,1.85,2.93,2.6c1.07,0.72,2.24,1.29,3.47,1.68c0.88,0.3,1.79,0.52,2.71,0.65c0.07,0.01,0.15,0.03,0.22,0.05
					c0.18,0.02,0.36,0.06,0.54,0.11c0.28,0.07,0.57,0.11,0.87,0.11c0.36,0.07,0.72,0.09,1.08,0.05c1.76,0.06,3.52-0.18,5.2-0.7
					c0.33-0.11,0.65-0.27,0.92-0.38c0.25-0.12,0.5-0.23,0.76-0.33c0.49-0.22,0.81-0.38,1.08-0.49c0.54-0.22,0.76-0.22,0.76,0
					c-0.14,0.46-0.38,0.89-0.7,1.25l-0.87,0.87c-0.38,0.27-0.76,0.6-1.19,0.87c-0.38,0.25-0.77,0.47-1.19,0.65
					c-1.04,0.48-2.13,0.83-3.25,1.03c-0.33,0.05-0.6,0.11-0.92,0.16c-0.3,0.06-0.61,0.1-0.92,0.11c-0.6,0-1.14,0.11-1.63,0.05
					c-0.4,0.01-0.8-0.01-1.19-0.05c-0.14-0.03-0.29-0.05-0.43-0.05l-0.7-0.11l-0.7-0.16c-0.22-0.05-0.49-0.11-0.7-0.16l-0.7-0.22
					c-1.53-0.48-2.97-1.2-4.28-2.11c-1.3-0.88-2.48-1.92-3.52-3.09c-2.08-2.32-3.68-5.03-4.72-7.97C0.8,5.41,0.28,3.45,0,1.45z"/>
			</g>
		</g>
	</g>
	<g id="Group_272" transform="translate(631.349 333.407)">
		<g id="Group_271">
			<g id="Group_270">
				<path id="Path_139" class="st0" d="M60.83,34.64c0-0.11,0-0.16,0.16-0.27c0.47-0.65,1.14-1.12,1.9-1.36
					c0.81-0.22,1.84,0,2.82,1.46c0.09,0.13,0.14,0.28,0.16,0.43c-0.07,1.51-0.25,3.01-0.54,4.5c-0.16,0.76-0.38,1.46-0.54,2.22
					l-0.27,1.08c-0.11,0.38-0.27,0.7-0.38,1.08c-5.55,16.01-22.32,25.21-38.8,21.3c-7.97-1.88-14.95-6.68-19.56-13.44
					c-7-10.29-7.67-23.63-1.73-34.58C7.98,9.92,14.46,4.47,22.19,1.81c3.84-1.29,7.87-1.9,11.92-1.79c8.19,0.24,16,3.57,21.84,9.32
					c0.19,0.17,0.38,0.35,0.54,0.54l0.38,0.43l0.22,0.27l0.43,0.49l0.92,0.98l1.63,2.11c0.06,0.11,0.14,0.22,0.22,0.33
					c0.11,0.22,0.27,0.54,0.49,0.92s0.43,0.87,0.7,1.36c0.11,0.27,0.27,0.54,0.38,0.81c0.1,0.32,0.23,0.62,0.38,0.92
					c1.16,2.81,1.83,5.8,1.95,8.83c0,0.6,0.05,1.14,0.05,1.63v0.7c0,0.22-0.05,0.43-0.05,0.65c-0.08,0.62-0.18,1.23-0.33,1.84
					c-0.22,0.87-0.49,1.08-0.7,0.87c-0.41-0.56-0.67-1.21-0.76-1.9c-0.16-0.49-0.22-1.03-0.43-1.57c-0.16-0.6-0.38-1.19-0.54-1.84
					c0,0.05-0.05-0.05-0.11-0.38c-0.11-0.33-0.27-0.76-0.43-1.3c-0.11-0.27-0.22-0.6-0.33-0.92s-0.22-0.65-0.38-1.03
					c-0.33-0.7-0.65-1.41-0.97-2.17c-0.38-0.7-0.81-1.41-1.19-2.06c-0.16-0.33-0.43-0.65-0.6-0.92c-0.2-0.26-0.38-0.53-0.54-0.81
					c-0.33-0.49-0.65-0.92-0.87-1.19s-0.38-0.43-0.38-0.43l-0.65-0.87l-0.33-0.43l-0.38-0.43l-0.76-0.81l-0.16-0.22l-0.27-0.33
					c-0.13-0.16-0.28-0.3-0.43-0.43c-0.65-0.54-1.25-1.14-1.9-1.68C45.46,7,38.8,4.78,32,5.05c-6.81,0.24-13.29,2.98-18.21,7.7
					c-2.44,2.33-4.44,5.09-5.91,8.13c-1.45,3.05-2.35,6.34-2.66,9.7c-0.58,6.79,1.35,13.56,5.42,19.02
					c8.37,11.37,23.93,14.68,36.2,7.7c2.94-1.67,5.57-3.86,7.75-6.45c2.17-2.6,3.84-5.57,4.93-8.78c0.11-0.33,0.22-0.6,0.33-0.92
					l0.22-0.92c0.16-0.6,0.33-1.25,0.49-1.84C60.56,37.19,60.83,35.94,60.83,34.64z"/>
			</g>
		</g>
	</g>
	<g id="Group_275" transform="translate(582.651 367.737)">
		<g id="Group_274">
			<g id="Group_273">
				<path id="Path_140" class="st0" d="M40.21,28.49c0.05-0.05,0.1-0.09,0.16-0.11c0.46-0.2,0.97-0.25,1.46-0.16
					c0.54,0.16,1.03,0.54,1.14,1.68c0,0.11-0.01,0.22-0.05,0.33c-1.04,1.68-2.41,3.13-4.01,4.28c-2.08,1.48-4.47,2.46-6.99,2.87
					c-2.42,0.4-4.89,0.42-7.32,0.05c-2.38-0.32-4.72-0.87-6.99-1.63c-2.29-0.75-4.49-1.75-6.56-2.98c-2.12-1.22-4.05-2.73-5.74-4.5
					c-1.73-1.79-3.14-3.86-4.17-6.12c-0.27-0.6-0.43-1.19-0.65-1.79c-0.09-0.3-0.16-0.61-0.22-0.92c-0.08-0.32-0.13-0.65-0.16-0.97
					C0.05,18.2,0.01,17.87,0,17.54v-1.03c0.05-0.6,0.11-1.19,0.16-1.79l0.16-1.79l0.16-1.57c0,0,0.22-1.19,0.6-2.82
					c0.41-1.8,0.92-3.57,1.52-5.31c0.92-2.82,1.57-3.52,1.79-3.14C4.57,1.3,4.55,2.53,4.34,3.73c0.05-0.16-0.22,1.95-0.38,4.12
					c-0.22,2.17-0.33,4.39-0.33,4.39l-0.16,1.52l-0.22,2.11L3.2,16.68v0.7c0,0.22,0.05,0.49,0.05,0.7c0.01,0.24,0.05,0.47,0.11,0.7
					l0.16,0.7l0.22,0.7l0.11,0.38l0.16,0.33l0.33,0.7c0.92,1.87,2.17,3.56,3.68,4.99c1.52,1.49,3.23,2.76,5.09,3.79
					c1.88,1.05,3.86,1.9,5.91,2.55c2.05,0.66,4.15,1.13,6.29,1.41c2.09,0.29,4.21,0.25,6.29-0.11c1.99-0.32,3.88-1.1,5.53-2.28
					C38.33,30.96,39.37,29.8,40.21,28.49z"/>
			</g>
		</g>
	</g>
	<g id="Group_278" transform="translate(463.892 372.084)">
		<g id="Group_277">
			<g id="Group_276">
				<path id="Path_141" class="st0" d="M112.85,1.44c0.05,0,0.11,0,0.22,0.11c0.65,0.6,1.52,1.95-0.43,3.14
					c-0.05,0-0.22,0.11-0.27,0.11c-1.84-0.27-3.68-0.54-5.47-0.76c-4.96-0.64-9.97-0.82-14.96-0.54C89.44,3.66,87,3.99,84.51,4.36
					c-2.4,0.41-4.76,1.05-7.04,1.9c-4.55,1.77-8.68,4.47-12.14,7.91c-1.75,1.75-3.38,3.61-4.88,5.58l-1.08,1.52l-1.08,1.57
					l-2.17,3.14c-2.87,4.17-5.74,8.4-8.51,12.63l-2.06,3.2l-2,3.25l-4.01,6.5l-7.97,13.01l-4.01,6.5c-1.3,2.17-2.55,4.39-3.85,6.56
					c-5.2,8.71-9.94,17.68-14.2,26.88c-1.03,2.33-2.01,4.61-2.87,6.99c-0.94,2.32-1.76,4.69-2.44,7.1
					c-0.67,2.27-0.94,4.63-0.81,6.99c0.09,1.16,0.3,2.3,0.65,3.41c0.16,0.6,0.38,1.14,0.54,1.73c0.22,0.54,0.43,1.14,0.65,1.68
					c2,4.49,4.79,8.58,8.24,12.09c3.43,3.59,7.27,6.78,11.44,9.48l1.52,0.98l0.33,0.22l0.7,0.43c0.43,0.27,0.92,0.54,1.41,0.81
					c0,0,1.03,0.7,2.49,1.57c1.46,0.92,3.31,1.95,4.88,2.82c1.35,0.7,2.22,1.19,2.71,1.52s0.6,0.54,0.38,0.65
					c-0.38,0.22-2.01,0-3.85-0.49c-1.45-0.37-2.86-0.85-4.23-1.46c-2.22-0.87-4.39-1.95-4.39-1.95c-0.49-0.27-0.97-0.54-1.41-0.81
					c-0.22-0.16-0.49-0.27-0.7-0.43l-1.46-0.92c-1.08-0.7-2.11-1.41-3.2-2.17c-4.17-3.04-7.97-6.55-11.33-10.46
					c-3.45-3.97-6.07-8.6-7.7-13.6c-0.22-0.65-0.38-1.3-0.54-1.95l-0.22-1.03l-0.16-1.03c-0.15-1.37-0.17-2.75-0.05-4.12
					c0.26-2.63,0.85-5.21,1.73-7.7c1.64-4.8,3.54-9.5,5.69-14.09c4.28-9.16,9.27-17.94,14.36-26.61c2.49-4.39,5.2-8.62,7.8-12.9
					l7.86-12.84l3.96-6.4c0.65-1.08,1.3-2.11,2.01-3.2l2.06-3.14c2.76-4.17,5.58-8.35,8.45-12.46c1.46-2.06,2.82-4.12,4.44-6.18
					c1.59-2.06,3.33-4,5.2-5.8c3.79-3.64,8.29-6.47,13.22-8.29c2.46-0.89,5-1.54,7.59-1.95c2.53-0.42,5.08-0.71,7.64-0.87
					c5.12-0.29,10.26-0.09,15.34,0.6C109.11,0.9,110.96,1.17,112.85,1.44z"/>
			</g>
		</g>
	</g>
	<g id="Group_281" transform="translate(669.204 400.063)">
		<g id="Group_280" transform="translate(0 0)">
			<g id="Group_279">
				<path id="Path_142" class="st0" d="M2.27,3.54c-0.04,0-0.08-0.02-0.11-0.05C1.99,3.41,1.81,3.36,1.62,3.32
					C1.36,3.27,1.11,3.19,0.86,3.1c-0.29-0.1-0.53-0.29-0.7-0.54c-0.23-0.5-0.21-1.09,0.05-1.57c0.06-0.13,0.15-0.25,0.27-0.33
					C1.13,0.3,1.86,0.07,2.6,0.02c0.66-0.04,1.32,0.03,1.95,0.22c1.22,0.35,2.31,1.05,3.14,2.01c0.91,1.15,1.7,2.39,2.38,3.69
					c0.33,0.6,0.7,1.25,0.97,1.84c0.33,0.6,0.65,1.25,0.92,1.84c1.25,2.44,2.38,4.93,3.52,7.42l1.3,2.82c0,0,0.43,1.19,1.03,2.82
					s1.3,3.68,1.84,5.42c0.49,1.41,0.81,2.38,0.97,2.93c0.11,0.6,0.05,0.81-0.16,0.76c-0.42-0.21-0.77-0.53-1.03-0.92
					c-0.53-0.65-1.02-1.34-1.46-2.06c0.05,0.22-1.08-1.79-2.22-3.85c-1.08-2.06-2.22-4.12-2.22-4.12l-1.08-2.44
					c-1.14-2.44-2.28-4.93-3.47-7.32c-0.27-0.6-0.6-1.19-0.92-1.79c-0.32-0.6-0.6-1.19-0.92-1.73c-0.62-1.09-1.3-2.14-2.06-3.15
					C4.68,3.96,4.15,3.65,3.57,3.48C3.15,3.33,2.68,3.35,2.27,3.54z"/>
			</g>
		</g>
	</g>
	<g id="Group_284" transform="translate(707.513 402.686)">
		<g id="Group_283">
			<g id="Group_282">
				<path id="Path_143" class="st0" d="M6.5,1.13c0-0.05,0-0.11,0.11-0.22C7.1,0.26,8.4-0.82,9.75,1.02c0,0.05,0.11,0.22,0.11,0.27
					c-0.11,1.9-0.33,3.79-0.49,5.58c-0.11,1.3-0.16,2.55-0.22,3.79v1.14l-0.11,0.97l-0.22,1.95c-0.27,2.6-0.6,5.2-0.92,7.8
					L5.9,38.14c-0.65,5.2-1.3,10.41-1.79,15.55c-0.27,2.6-0.49,5.2-0.65,7.8l-0.22,3.52c0,0-0.16,1.25-0.38,2.98
					s-0.49,3.85-0.76,5.64c-0.76,6.07-1.46,3.68-1.84-0.16c-0.15-1.46-0.22-2.92-0.22-4.39c0-1.19-0.05-2.33-0.05-3.25v-1.46
					l0.27-4.01l0.33-3.9l0.38-3.85c0.49-5.15,1.14-10.3,1.79-15.39l1.95-15.34c0.33-2.55,0.65-5.09,0.92-7.64l0.22-1.9l0.11-0.97
					v-0.05l0,0V10.5c0.05-1.35,0.11-2.66,0.22-3.96C6.18,4.76,6.4,2.92,6.5,1.13z"/>
			</g>
		</g>
	</g>
	<g id="Group_287" transform="translate(714.666 378.991)">
		<g id="Group_286">
			<g id="Group_285">
				<path id="Path_144" class="st0" d="M0.22,0.33c0,0,0-0.05,0.11-0.05c1.02-0.4,2.16-0.37,3.14,0.11c0,0,0.11,0.05,0.11,0.11
					c0,0.16-0.27,10.35-0.27,10.35c-0.22,0.97-0.53,1.91-0.92,2.82c-0.76,1.95-1.46,1.14-1.84-0.11C0.49,13.66,0,10.57,0,10.57
					S0.22,0.49,0.22,0.33z"/>
			</g>
		</g>
	</g>
	<g id="Group_290" transform="translate(692.764 399.393)">
		<g id="Group_289" transform="translate(0)">
			<g id="Group_288">
				<path id="Path_145" class="st0" d="M46.62,1.61c0-0.08,0.02-0.15,0.05-0.22c0.27-0.81,1.25-2.17,3.03-0.81
					c0.05,0,0.16,0.16,0.22,0.22c0.43,1.84,0.92,3.63,1.3,5.47c2.96,12.5,4.64,25.26,4.99,38.1c0.17,6.43-0.12,12.86-0.87,19.24
					c-0.75,6.4-2.01,12.72-3.79,18.91c-0.43,1.57-0.87,3.09-1.35,4.66s-1.08,3.09-1.68,4.61c-1.25,3.02-2.74,5.94-4.44,8.72
					c-0.22,0.33-0.43,0.7-0.65,1.03l-0.33,0.49l-0.11,0.16c0,0.05-0.05,0.05-0.11,0.11l-0.05,0.05l-0.16,0.22l-1.46,1.9
					c-0.98,1.25-1.95,2.55-3.09,3.79c-1.1,1.28-2.32,2.46-3.63,3.52c-1.36,1.1-2.88,2-4.5,2.66c-0.41,0.17-0.82,0.31-1.25,0.43
					l-1.08,0.33c-0.22,0.11-0.38,0-0.54-0.11l-0.54-0.22l-1.25-0.49l-1.14-0.49c-0.76-0.33-1.46-0.7-2.22-1.08s-1.46-0.76-2.17-1.14
					c-2.83-1.58-5.55-3.35-8.13-5.31l-1.35-1.03l-0.65-0.49l-1.3-1.03c0,0-0.22-0.22-0.65-0.6c-0.38-0.38-0.97-0.92-1.57-1.52
					c-1.25-1.25-2.76-2.82-3.96-4.23c-4.07-4.61-1.73-3.52,1.3-1.3c-0.11-0.16,1.68,1.25,3.52,2.6s3.74,2.71,3.74,2.71l1.25,0.97
					l0.65,0.49l0.92,0.7c0.6,0.49,1.25,0.92,1.84,1.35c2.48,1.77,5.09,3.37,7.8,4.77c0.65,0.33,1.35,0.7,2.06,0.97l1.03,0.49
					l1.03,0.43l0.27,0.11l0,0l0.22-0.05l0.49-0.16c0.65-0.26,1.28-0.55,1.9-0.87c2.5-1.53,4.68-3.52,6.45-5.85
					c0.97-1.19,1.9-2.39,2.87-3.63l0.65-0.87l0.6-0.92c0.43-0.65,0.81-1.3,1.19-1.95c1.52-2.62,2.82-5.36,3.9-8.18
					c0.54-1.41,1.03-2.87,1.46-4.34s0.87-2.98,1.3-4.44c3.19-11.94,4.57-24.29,4.12-36.64c-0.4-12.4-2.05-24.73-4.93-36.8
					C47.48,5.18,46.99,3.39,46.62,1.61z"/>
			</g>
		</g>
	</g>
	<g id="Group_293" transform="translate(724.624 355.826)">
		<g id="Group_292">
			<g id="Group_291">
				<path id="Path_146" class="st0" d="M11.4,1.17c0-0.05,0-0.11,0.11-0.22c0.29-0.45,0.73-0.78,1.25-0.92
					c0.78-0.11,1.54,0.28,1.9,0.98c0,0.05,0.11,0.22,0.11,0.27c-0.05,1.9-0.22,3.79-0.38,5.69c-0.26,3.13-0.71,6.24-1.35,9.32
					c-0.33,1.57-0.7,3.09-1.19,4.66c-0.48,1.61-1.16,3.16-2.01,4.61c-0.67,1.09-1.53,2.04-2.55,2.82c-0.09,0.05-0.18,0.1-0.27,0.16
					c-0.16,0.11-0.49,0.22-0.81,0.38c-0.16,0.05-0.38,0.11-0.6,0.16c-0.23,0.06-0.46,0.1-0.7,0.11H4.08l-0.81-0.16
					c-0.17-0.01-0.34-0.07-0.49-0.16c-0.16-0.05-0.33-0.16-0.49-0.22c-0.31-0.19-0.6-0.4-0.87-0.65c-0.43-0.47-0.77-1.02-0.97-1.63
					c-0.11-0.26-0.21-0.53-0.27-0.81l-0.11-0.49l-0.05-0.49c-0.04-0.57,0.03-1.14,0.22-1.68c0.18-0.65,0.45-1.27,0.81-1.84
					c0.27-0.43,0.43-0.81,0.6-1.03c0.33-0.49,0.54-0.6,0.65-0.38c0.14,0.46,0.16,0.94,0.05,1.41c-0.05,0.7-0.27,1.52-0.27,2.33
					c0.05-0.11,0,0.38,0.11,0.92c0.05,0.16,0.11,0.27,0.16,0.43c0.07,0.19,0.16,0.37,0.27,0.54c0.16,0.33,0.4,0.61,0.7,0.81
					c0.1,0.06,0.21,0.1,0.33,0.11h0.43c0.16,0,0.33-0.05,0.43-0.05c0.13-0.04,0.26-0.1,0.38-0.16c0.22-0.16,0.43-0.22,0.54-0.38
					c0.06-0.06,0.14-0.12,0.22-0.16c0.53-0.46,0.97-1.01,1.3-1.63c0.69-1.22,1.25-2.51,1.68-3.85c0.44-1.4,0.81-2.83,1.08-4.28
					c0.58-2.96,0.99-5.94,1.25-8.94C11.21,4.9,11.35,3.03,11.4,1.17z"/>
			</g>
		</g>
	</g>
	<g id="Group_296" transform="translate(701.606 338.323)">
		<g id="Group_295">
			<g id="Group_294">
				<path id="Path_147" class="st0" d="M10.68,12.33c0-0.05,0-0.11,0.11-0.16c0.37-0.37,0.84-0.61,1.35-0.7
					c0.54-0.05,1.25,0.16,1.73,1.25c0,0.05,0.05,0.22,0.05,0.33c-0.42,2.09-1.31,4.05-2.6,5.74c-1.52,1.98-3.72,3.33-6.18,3.79
					c-0.3,0.06-0.61,0.1-0.92,0.11c-0.38,0.03-0.76,0.03-1.14,0c-0.26-0.01-0.51-0.05-0.76-0.11c-0.24-0.03-0.47-0.08-0.7-0.16
					l-0.65-0.27c-0.2-0.1-0.37-0.25-0.49-0.43c-0.27-0.34-0.44-0.76-0.49-1.19c0.05-0.49,0.05-0.98,0.16-1.52l0.16-0.92l0.16-0.81
					c0.41-2.17,1.09-4.28,2.01-6.29c0.48-0.99,1.02-1.95,1.63-2.87c0.27-0.43,0.6-0.92,0.87-1.36C5.16,6.54,5.26,6.38,5.53,6
					l0.7-0.7c0.82-0.75,1.71-1.42,2.66-2.01l0.33-0.22l0.22-0.16L9.65,2.8c0.33-0.16,0.54-0.27,0.81-0.38l0.38-0.16l0.22-0.05
					c0.1-0.05,0.21-0.09,0.33-0.11l0.76-0.22c2.01-0.54,4.07-1.03,6.18-1.41c2.15-0.36,4.32-0.51,6.5-0.43
					c2.26,0.08,4.48,0.58,6.56,1.46l0.76,0.33l0.76,0.38c0.49,0.27,0.97,0.54,1.46,0.87l0.7,0.43l0.65,0.54
					c0.43,0.33,0.87,0.7,1.3,1.08c1.65,1.51,3.05,3.29,4.12,5.26c2.08,3.91,3.11,8.3,2.98,12.73c0,0.54,0,1.08-0.05,1.63l-0.16,1.63
					L43.62,28c-0.11,0.54-0.22,1.03-0.33,1.57c-0.49,2.06-1.08,4.06-1.73,6.07l-1.14,3.58c0,0-0.49,1.19-1.08,2.76
					s-1.25,3.63-1.73,5.31c-0.38,1.46-0.6,2.44-0.76,2.98c-0.22,0.54-0.38,0.7-0.54,0.54c-0.22-0.4-0.37-0.84-0.43-1.3
					c-0.12-0.84-0.16-1.7-0.11-2.55c0.04-1.51,0.22-3.02,0.54-4.5c0.22-1.19,0.49-2.33,0.7-3.2s0.33-1.46,0.33-1.46l1.47-4.56
					c0.6-1.9,1.14-3.85,1.52-5.69c0.33-1.86,0.48-3.75,0.43-5.64c-0.05-1.89-0.32-3.76-0.81-5.58c-0.49-1.8-1.24-3.51-2.22-5.09
					c-0.97-1.57-2.17-2.98-3.58-4.17c-0.38-0.27-0.7-0.6-1.08-0.81l-1.19-0.76c-0.38-0.22-0.81-0.43-1.19-0.65
					c-0.43-0.16-0.81-0.38-1.25-0.54c-3.41-1.25-7.32-1.08-11.11-0.38c-1.94,0.35-3.86,0.8-5.74,1.36L12.3,5.34l-0.27,0.11
					c-0.2,0.08-0.4,0.17-0.6,0.27c-0.11,0.05-0.16,0.11-0.22,0.11l-0.05,0.05L11,5.99l-0.6,0.38C9.65,6.88,8.94,7.44,8.28,8.05
					L8.12,8.22L8.06,8.27c0,0-0.05,0.11-0.11,0.11l-0.43,0.6c-0.27,0.38-0.54,0.81-0.76,1.19c-0.5,0.8-0.96,1.63-1.35,2.49
					c-0.77,1.73-1.31,3.55-1.63,5.42l-0.11,0.7l-0.05,0.38v0.05h0.54c0.22,0,0.38-0.05,0.6-0.05c0.79-0.18,1.54-0.49,2.22-0.92
					c0.69-0.42,1.3-0.98,1.79-1.63C9.74,15.36,10.39,13.89,10.68,12.33z"/>
			</g>
		</g>
	</g>
	<g id="Group_299" transform="translate(716.184 355.574)">
		<g id="Group_298" transform="translate(0)">
			<g id="Group_297">
				<path id="Path_148" class="st0" d="M0,19.36c-0.01-0.08,0.01-0.15,0.05-0.22c0.19-0.51,0.58-0.92,1.08-1.14
					c0.54-0.22,1.19-0.11,2.06,0.65c0.05,0,0.16,0.16,0.16,0.22c0.27,1.74,0.7,3.44,1.3,5.09c0.23,0.69,0.52,1.36,0.87,2.01
					c0.06,0.1,0.13,0.19,0.22,0.27c0.08,0.08,0.17,0.16,0.27,0.22l0.22,0.16l0.11,0.11l0,0l0.05-0.05l0.16-0.16l0.16-0.16l0.16-0.22
					c0.45-0.57,0.84-1.18,1.14-1.84c1.34-2.99,2.36-6.11,3.03-9.32c0.22-0.97,0.43-2.01,0.65-2.98c0,0,0.33-1.25,0.76-2.87
					c0.43-1.68,0.92-3.74,1.41-5.53c0.65-2.98,1.08-3.85,1.35-3.52c0.33,0.33,0.49,1.95,0.49,3.85c0.02,1.48-0.05,2.97-0.22,4.44
					c-0.22,2.33-0.54,4.72-0.54,4.72c-0.16,0.87-0.38,1.79-0.6,2.66c-0.73,3.47-1.84,6.85-3.31,10.08
					c-0.43,0.88-0.93,1.71-1.52,2.49l-0.27,0.33l-0.27,0.33l-0.33,0.33l-0.22,0.16c-0.11,0.05-0.16,0.16-0.27,0.22
					c-0.17,0.11-0.35,0.2-0.54,0.27l-0.27,0.16c-0.11,0.05-0.22,0.05-0.27,0.11c-0.41,0.08-0.84,0.08-1.25,0
					c-0.4-0.11-0.78-0.27-1.14-0.49l-0.22-0.16l-0.16-0.11L4,29.22c-0.24-0.17-0.46-0.37-0.65-0.6c-0.21-0.23-0.39-0.48-0.54-0.76
					c-0.29-0.44-0.52-0.91-0.7-1.41c-0.16-0.43-0.33-0.81-0.49-1.25C0.82,23.34,0.27,21.37,0,19.36z"/>
			</g>
		</g>
	</g>
	<g id="Group_302" transform="translate(705.724 353.968)">
		<g id="Group_301">
			<g id="Group_300">
				<path id="Path_149" class="st0" d="M0.05,23.73C0,23.68,0,23.62,0,23.51c0-0.92,0.49-2.44,2.66-1.73
					c0.1,0.03,0.19,0.09,0.27,0.16l0.76,1.19c0.27,0.43,0.54,0.87,0.76,1.25l0.7,1.25c0.22,0.38,0.43,0.7,0.65,1.08
					c0.22,0.33,0.43,0.6,0.65,0.87c0.11,0.11,0.22,0.27,0.33,0.38l0.05,0.05h0.05c0.18-0.03,0.35-0.1,0.49-0.22
					c0.05-0.05,0.16-0.11,0.22-0.22l0.11-0.11l0,0l0.54-1.08c0.33-0.7,0.7-1.41,0.98-2.17c1.26-2.91,2.22-5.95,2.87-9.05
					c0.22-0.98,0.38-1.95,0.54-2.98c0,0,0.27-1.19,0.6-2.87s0.6-3.79,0.81-5.58c0.27-3.04,0.43-3.96,0.81-3.68s0.81,1.84,1.03,3.74
					c0.22,1.49,0.29,3,0.22,4.5c0,2.39-0.27,4.82-0.27,4.82c-0.16,0.92-0.33,1.79-0.49,2.71c-0.71,3.3-1.72,6.53-3.03,9.65
					c-0.33,0.76-0.7,1.57-1.08,2.28l-0.54,1.14c-0.05,0.11-0.11,0.16-0.16,0.27l-0.22,0.27c-0.11,0.16-0.22,0.22-0.33,0.38
					c-0.21,0.23-0.44,0.43-0.7,0.6c-0.52,0.4-1.14,0.66-1.79,0.76c-0.77,0.16-1.57,0.07-2.28-0.27l-0.49-0.33
					c-0.14-0.11-0.27-0.24-0.38-0.38c-0.16-0.16-0.33-0.38-0.49-0.54c-0.3-0.33-0.58-0.7-0.81-1.08c-0.27-0.43-0.6-0.87-0.81-1.3
					l-0.76-1.25l-0.65-1.14L0.05,23.73z"/>
			</g>
		</g>
	</g>
	<g id="Group_305" transform="translate(695.036 359.124)">
		<g id="Group_304" transform="translate(0 0)">
			<g id="Group_303">
				<path id="Path_150" class="st0" d="M1.53,6.43c-0.08,0-0.15-0.02-0.22-0.05C0.5,6.05-0.8,5.02,0.66,3.29
					c0-0.05,0.16-0.16,0.22-0.16L6.35,2.1l3.52-0.65l3.09-0.6c0,0,5.09-0.6,8.72-0.76c6.12-0.43,3.85,0.76,0.22,1.84
					c0.38,0-8.78,2.28-8.78,2.28L10.47,4.7L6.95,5.35L1.53,6.43z"/>
			</g>
		</g>
	</g>
	<g id="Group_308" transform="translate(691.039 372.833)">
		<g id="Group_307">
			<g id="Group_306">
				<path id="Path_151" class="st0" d="M1.57,7.03c-0.08,0-0.15-0.02-0.22-0.05c-0.81-0.33-2.17-1.25-0.7-3.09
					c0-0.05,0.16-0.16,0.22-0.22L6.4,2.53l4.77-0.92l3.03-0.6c0,0,5.09-0.6,8.72-0.87c3.03-0.27,4.01-0.16,3.79,0.27
					C26.5,0.8,25.04,1.45,23.2,1.99c0.22,0-2.01,0.6-4.23,1.19s-4.55,1.19-4.55,1.19l-2.6,0.49L7.05,5.78
					C5.2,6.27,3.36,6.65,1.57,7.03z"/>
			</g>
		</g>
	</g>
	<g id="Group_311" transform="translate(741.273 354.648)">
		<g id="Group_310">
			<g id="Group_309">
				<path id="Path_152" class="st0" d="M1.36,17.63c-0.08,0.01-0.15-0.01-0.22-0.05c-0.49-0.24-0.87-0.64-1.08-1.14
					c-0.16-0.54,0-1.19,0.81-2.01c0.05-0.05,0.16-0.11,0.22-0.16c1.79-0.11,3.58-0.38,5.42-0.65c1.68-0.27,3.36-0.54,4.99-0.92
					c0.76-0.12,1.5-0.32,2.22-0.6c0.63-0.25,1.22-0.59,1.73-1.03c0.49-0.44,0.9-0.95,1.25-1.52c0.05-0.16,0.16-0.33,0.22-0.49
					l0.11-0.22l0.05-0.22c0.11-0.29,0.17-0.61,0.16-0.92c0.15-1.29-0.2-2.59-0.98-3.63c-0.17-0.23-0.4-0.41-0.65-0.54
					c-0.11-0.05-0.22-0.05-0.33-0.11c-0.22-0.05-0.38-0.05-0.6-0.11c0,0-0.27-0.05-0.7-0.11c-0.66-0.07-1.33-0.11-2-0.11
					C10.36,3.05,8.19,3.16,6.4,3.27C3.37,3.48,2.39,3.37,2.61,2.94c0.22-0.38,1.68-1.03,3.58-1.57c1.43-0.44,2.9-0.77,4.39-0.98
					c1.11-0.19,2.23-0.32,3.36-0.38C14.5-0.02,15.06,0,15.62,0.07L16,0.12l0.49,0.16c0.33,0.11,0.65,0.27,0.92,0.38
					c0.27,0.16,0.54,0.38,0.81,0.54c0.23,0.2,0.45,0.42,0.65,0.65c0.7,0.87,1.2,1.89,1.46,2.98c0.28,1.02,0.37,2.09,0.27,3.14
					c-0.06,0.55-0.16,1.1-0.33,1.63l-0.16,0.43l-0.16,0.38c-0.11,0.22-0.22,0.49-0.33,0.7c-0.49,0.96-1.18,1.81-2.01,2.49
					c-0.8,0.69-1.72,1.24-2.71,1.63c-0.9,0.34-1.82,0.59-2.76,0.76c-1.73,0.38-3.47,0.65-5.15,0.92C5.15,17.2,3.31,17.47,1.36,17.63
					z"/>
			</g>
		</g>
	</g>
	<g id="Group_312" transform="translate(494.897 431.671)">
		<path id="Path_153" class="st0" d="M9.88,116.9C7.44,83.24,1.59,47.96,0.02,14.26C-0.36,6.46,6.52-0.05,15.08,0
			c58.96,0.38,119.6,1.46,178.57,3.36c8.94,0.27,15.66,7.64,14.31,15.72C202.37,52.3,197.23,84,192.51,116.9L9.88,116.9z"/>
	</g>
	<g id="Group_315" transform="translate(431.75 548.513)">
		<g id="Group_314">
			<g id="Group_313">
				<path id="Path_154" class="st0" d="M1.22,3.42c-0.11,0-0.11,0-0.22-0.11C0.24,2.82-0.79,1.63,0.95,0.16C1,0.16,1.11,0.06,1.22,0
					h364.02c0,0,5.15,0.33,8.72,0.87c6.12,0.7,3.68,1.46-0.11,1.84c0.38,0.05-9.05,0.65-9.05,0.65L1.22,3.42z"/>
			</g>
		</g>
	</g>
	<g id="Group_316" transform="translate(568.995 312.392)">
		<path id="Path_155" class="st2" d="M0,0"/>
	</g>
	<path id="Path_156" class="st2" d="M680.25,337.38"/>
	<path id="Path_157" class="st0" d="M676.89,339c0,0,6.56-13.6-5.69-36.64s-30.73-38.96-54.52-37.66
		c-26.34,1.46-48.29,35.33-50.89,53s-8.56,35.55,1.63,46.88s17.45,3.63,17.12-7.1s-4.44-19.02,2.87-24.01
		c7.37-4.93,24.39-17.77,29.27-39.18c0,0,18.32,32.52,57.88,33.44C674.56,327.73,677.06,329.25,676.89,339z"/>
	<g id="Group_317" transform="translate(587.655 482.027)">
		<path id="Path_158" class="st4" d="M27.03,7.2c0-2.76-2.71-4.88-5.53-5.96c-5.21-1.94-11-1.58-15.93,0.98
			c-1.26,0.64-2.4,1.51-3.36,2.55c-2.44,2.82-2.55,6.77-1.79,10.3c0.6,2.76,1.84,5.64,4.44,7.21c2.55,1.57,6.72,1.3,8.18-1.19
			c0.7-1.19,0.65-2.66,0.98-3.96c0.33-1.35,1.25-2.76,2.71-2.93c0.64-0.01,1.28,0.06,1.9,0.22c4.12,0.7,8.45-2.49,8.62-6.23"/>
	</g>
	<g id="Group_318" transform="translate(715.046 391.406)">
		<path id="Path_159" class="st2" d="M0,0"/>
	</g>
	<g id="Group_321" transform="translate(708.746 388.1)">
		<g id="Group_320" transform="translate(0 0)">
			<g id="Group_319">
				<path id="Path_160" class="st0" d="M28.3,0c0.09,0,0.19,0.01,0.27,0.05c0.5,0.24,0.89,0.67,1.08,1.19
					c0.16,0.54-0.11,1.19-0.81,1.95c-0.05,0.05-0.16,0.16-0.22,0.16c-1.74,0.21-3.47,0.57-5.15,1.08l-3.85,1.19
					c-0.69,0.22-1.4,0.4-2.11,0.54c-0.7,0.16-1.35,0.27-2.06,0.38c-1.35,0.22-2.76,0.38-4.12,0.49c-0.7,0.05-1.41,0.11-2.11,0.11
					H7.11C6.55,7.14,5.99,7.16,5.43,7.21C5.03,7.26,4.65,7.43,4.35,7.7L4.13,7.91L3.91,8.18C3.79,8.36,3.69,8.54,3.59,8.73
					c-0.21,0.41-0.34,0.85-0.38,1.3c-0.06,0.4,0,0.82,0.16,1.19c0.06,0.15,0.15,0.28,0.27,0.38c0.11,0.12,0.24,0.23,0.38,0.33
					c0.42,0.24,0.88,0.41,1.35,0.49c0.28,0.07,0.58,0.1,0.87,0.11h0.43c0.09-0.01,0.19,0.01,0.27,0.05l0.54,0.16
					c1.21,0.32,2.44,0.55,3.68,0.7c0.65,0.05,1.25,0.11,1.9,0.11h1.95c2.6-0.07,5.2-0.36,7.75-0.87c1.25-0.27,2.55-0.54,3.74-0.92
					c0.3-0.12,0.61-0.21,0.92-0.27l0.81-0.27l1.73-0.87l0.92-0.49c0.23-0.11,0.45-0.23,0.65-0.38c0.37-0.19,0.71-0.43,1.03-0.7
					l0.11-0.11c0.05-0.05,0.11-0.05,0.16-0.11l0.22-0.22c0.39-0.37,0.7-0.81,0.92-1.3c0.05-0.05,0.05-0.16,0.11-0.22
					c0-0.05,0.05-0.11,0.05-0.16c0.05-0.14,0.07-0.29,0.05-0.43c0.02-0.35-0.02-0.69-0.11-1.03c-0.12-0.36-0.28-0.71-0.49-1.03
					c-0.22-0.31-0.48-0.6-0.76-0.87c-0.45-0.34-0.94-0.62-1.46-0.81c-0.43-0.16-0.81-0.33-1.08-0.43c-0.54-0.22-0.7-0.38-0.54-0.54
					c0.42-0.26,0.91-0.39,1.41-0.38c0.96-0.06,1.92,0.15,2.76,0.6c0.47,0.22,0.9,0.53,1.25,0.92c0.99,0.95,1.6,2.22,1.73,3.58
					c0.04,0.42,0.02,0.84-0.05,1.25c-0.06,0.35-0.15,0.7-0.27,1.03c-0.22,0.59-0.51,1.16-0.87,1.68c-0.13,0.19-0.28,0.37-0.43,0.54
					c-0.16,0.16-0.27,0.33-0.38,0.43l-0.38,0.38c-0.5,0.4-1.05,0.75-1.63,1.03l-0.76,0.38l-1.46,0.76l-0.87,0.49
					c-0.11,0.08-0.24,0.14-0.38,0.16l-0.27,0.11l-0.49,0.16c-0.65,0.22-1.3,0.43-2.01,0.6c-1.35,0.38-2.66,0.65-4.01,0.92
					c-2.7,0.5-5.44,0.75-8.18,0.76c-1.39,0.04-2.79-0.04-4.17-0.22L8.2,16.38c-0.33-0.05-0.7-0.16-1.03-0.22l-0.49-0.11L6.41,16
					L6.3,15.94l0,0c-0.13-0.01-0.25-0.03-0.38-0.05c-0.16,0-0.38-0.05-0.54-0.05C5,15.78,4.62,15.67,4.24,15.62
					c-0.87-0.22-1.69-0.63-2.39-1.19c-0.78-0.65-1.34-1.52-1.63-2.49c-0.24-0.88-0.3-1.81-0.16-2.71c0.14-0.87,0.46-1.69,0.92-2.44
					C1.46,6,2.11,5.33,2.89,4.83c0.78-0.47,1.65-0.78,2.55-0.92c0.75-0.1,1.52-0.12,2.28-0.05c2.54,0.06,5.08-0.12,7.59-0.54
					c0.6-0.11,1.3-0.22,1.9-0.33c0.61-0.12,1.21-0.28,1.79-0.49l3.79-1.14C24.53,0.6,26.4,0.14,28.3,0z"/>
			</g>
		</g>
	</g>
	<path id="Path_161" d="M698.52,366.91c0,0,0.54,5.64-2.01,8.89l22-2.93c0.81-3.5,1.43-7.05,1.84-10.62
		C720.52,359.33,698.52,366.91,698.52,366.91z"/>
	<path id="Path_162" d="M744.15,358.24c0,0,12.41-3.09,13.44,1.08c1.08,4.33-2.33,8.45-13.44,9.32
		C744.15,368.7,746.37,362.96,744.15,358.24z"/>
	<g id="Group_324" transform="translate(703.115 456.719)">
		<g id="Group_323">
			<g id="Group_322">
				<path id="Path_163" class="st0" d="M7.27,11.7c0,0.04-0.02,0.08-0.05,0.11c-0.76,0.77-1.79,1.24-2.87,1.3H4.18
					C4.13,13,0.28,4.22,0.28,4.22C0.1,3.31,0.01,2.38,0.01,1.45c-0.11-2.01,0.87-1.63,1.73-0.7c0.6,0.73,1.16,1.49,1.68,2.28
					C3.42,3.03,7.22,11.53,7.27,11.7z"/>
			</g>
		</g>
	</g>
	<g id="Group_327" transform="translate(573.648 291.51)">
		<g id="Group_326" transform="translate(0 0)">
			<g id="Group_325">
				<path id="Path_164" class="st4" d="M7.27,0.23L7.27,0.23c0.22-0.16,0.38-0.43,0.11,0L7.32,0.29c0,0.05-0.33,0.54-0.7,1.3
					C6.19,2.35,5.65,3.38,5.16,4.35C4.13,6.36,3.21,8.42,3.21,8.42C2.74,9.1,2.17,9.72,1.53,10.26c-0.7,0.6-1.14,0.65-1.35,0.38
					c-0.22-0.4-0.24-0.88-0.05-1.3c0.13-0.41,0.29-0.81,0.49-1.19l0.65-1.19c0,0,1.41-1.73,2.93-3.47C4.95,2.62,5.7,1.81,6.3,1.16
					C6.65,0.87,6.97,0.56,7.27,0.23z"/>
			</g>
		</g>
	</g>
	<g id="Group_330" transform="translate(586.878 267.683)">
		<g id="Group_329" transform="translate(0)">
			<g id="Group_328">
				<path id="Path_165" class="st4" d="M25.63,0.11h0.22C26.23,0.06,26.66,0,26.83,0s-0.05,0-0.92,0.22c-0.05,0-0.22,0.05-0.27,0.05
					l-0.7,0.16c-0.22,0.05-0.44,0.12-0.65,0.22l-1.35,0.43l-1.3,0.49c-0.22,0.11-0.43,0.16-0.65,0.27l-0.65,0.27L19.24,2.6
					l-1.03,0.6c-0.35,0.18-0.7,0.38-1.03,0.6l-1.03,0.65L15.18,5.1c-0.34,0.22-0.66,0.45-0.97,0.7c-0.65,0.49-1.3,0.92-1.9,1.46
					c-0.38,0.33-0.81,0.65-1.19,0.98L9.97,9.27c0,0-0.27,0.22-0.65,0.54s-0.97,0.81-1.63,1.36c-1.3,1.08-2.98,2.49-4.39,3.58
					C0.92,16.65,0,16.97,0,16.53s0.98-1.68,2.28-3.09c1.01-1.07,2.08-2.08,3.2-3.04C6.35,9.65,7.27,8.89,7.92,8.3
					C8.3,7.97,8.7,7.66,9.11,7.38l1.08-0.81l1.14-0.76c0.65-0.49,1.41-0.87,2.11-1.3c0.33-0.22,0.7-0.38,1.08-0.6
					c0.35-0.22,0.71-0.42,1.08-0.6l1.08-0.54l1.14-0.49l1.14-0.49l1.14-0.43l0.65-0.22c0.24-0.06,0.47-0.13,0.7-0.22l1.35-0.38
					l1.41-0.27c0.23-0.07,0.46-0.1,0.7-0.11L25.63,0.11z"/>
			</g>
		</g>
	</g>
	<path id="Path_166" class="st0" d="M759,525.27c1.6,1.21,3.69,1.54,5.58,0.87c0.65,0.17,1.33,0.26,2.01,0.27
		c0.49,0,0.98-0.06,1.46-0.16c0.11,0.43,0.16,0.92,0.27,1.35h1.41c0.45,0.01,0.91,0.04,1.35,0.11c0.11,0,0.22-0.05,0.32-0.05
		c1.83-0.52,3.75-0.67,5.64-0.43c2.59-2.34,3.84-5.81,3.36-9.27c2.86-1.06,4.76-3.78,4.77-6.83c-0.09-3.57-2.67-6.6-6.18-7.26
		c0.79-0.85,1.22-1.98,1.19-3.14c-0.05-2.66-2.21-4.8-4.88-4.82c-2.62,0.01-4.75,2.1-4.82,4.72c-0.22-0.31-0.48-0.6-0.76-0.87
		c-0.64-0.71-1.47-1.24-2.39-1.52c-0.88-0.43-1.84-0.65-2.82-0.65c-0.65,0.11-1.3,0.16-1.95,0.27c-0.11,0.05-0.22,0.05-0.32,0.11
		c0.76-2.06-0.27-4.82-3.09-4.82c-4.44,0-4.44,6.88-0.05,6.94c-0.27,0.38-0.6,0.76-0.87,1.14c-0.64,1.12-0.98,2.39-0.97,3.68v0.81
		c-0.05,0.94,0.15,1.88,0.6,2.71c-0.85-0.51-1.83-0.77-2.82-0.76c-2.87,0-5.69,2.55-5.53,5.53c0.06,2.93,2.34,5.32,5.26,5.53
		C755.36,521.33,756.86,523.65,759,525.27z M771.84,504.08c0.48,0.5,1.05,0.91,1.68,1.19c-0.7,0.48-1.31,1.09-1.79,1.79
		c0.06-0.43,0.1-0.86,0.11-1.3v-0.81C771.84,504.67,771.84,504.35,771.84,504.08z M773.95,519.09c-0.05-0.64-0.16-1.28-0.32-1.9
		c1.19,0.85,2.6,1.32,4.06,1.35c0.59,4.19-2.33,8.07-6.53,8.66c-0.03,0-0.06,0.01-0.09,0.01c-0.11-0.7-0.27-1.35-0.38-2.01
		C772.75,523.84,773.97,521.54,773.95,519.09L773.95,519.09z M769.73,510.96c0.26-0.38,0.55-0.75,0.87-1.08
		c-0.06,0.43-0.1,0.86-0.11,1.3c0.05,0.64,0.16,1.28,0.32,1.9c-0.71-0.5-1.5-0.88-2.33-1.14
		C768.92,511.64,769.34,511.32,769.73,510.96L769.73,510.96z M760.46,513.23c-0.01-0.52-0.1-1.03-0.27-1.52
		c0.44,0.32,0.94,0.56,1.46,0.7c0.33,0.18,0.67,0.32,1.03,0.43c-2.18,1.29-3.51,3.64-3.47,6.18c0.06,1.27,0.41,2.52,1.03,3.63
		c-0.2-0.13-0.39-0.3-0.54-0.49c-1.06-1.16-1.87-2.52-2.38-4.01C759.27,517.31,760.52,515.36,760.46,513.23L760.46,513.23z"/>
	<g id="Group_333" transform="translate(778.669 506.188)">
		<g id="Group_332">
			<g id="Group_331">
				<path id="Path_167" class="st4" d="M2.01,1.41c-0.03,0-0.05-0.02-0.05-0.05c0,0,0,0,0,0c-0.1-0.22-0.13-0.46-0.11-0.7
					c0.05-0.27,0.22-0.6,0.87-0.65h0.16c0.96,0.61,1.68,1.53,2.06,2.6c0.26,0.73,0.39,1.5,0.38,2.28C5.29,5.47,5.18,6.06,4.99,6.62
					C4.8,7.15,4.52,7.64,4.17,8.08C3.58,8.93,2.8,9.63,1.9,10.14c-0.46,0.29-0.98,0.48-1.52,0.54C0.05,10.73,0,10.68,0,10.57
					c0.11-0.22,0.7-0.6,1.35-1.25c0.48-0.46,0.92-0.97,1.3-1.52c0.26-0.41,0.46-0.84,0.6-1.3c0.11-0.38,0.16-0.6,0.16-0.6
					C3.67,5,3.63,4.03,3.31,3.15C3.09,2.43,2.63,1.82,2.01,1.41z"/>
			</g>
		</g>
	</g>
	<g id="Group_336" transform="translate(766.515 499.739)">
		<g id="Group_335">
			<g id="Group_334">
				<path id="Path_168" class="st4" d="M0.18,1.46c-0.05,0-0.05,0-0.05-0.05c-0.1-0.24-0.14-0.5-0.11-0.76
					C0.07,0.38,0.23,0.05,0.88,0h0.16c0.93,0.54,1.72,1.3,2.28,2.22C3.38,2.33,3.48,2.49,3.54,2.6c0.28,0.53,0.48,1.09,0.6,1.68
					c0.01,0.16,0.02,0.33,0.05,0.49c0.04,1.49-0.53,2.94-1.57,4.01C2.25,9.2,1.78,9.54,1.27,9.76C0.99,9.86,0.89,9.81,0.89,9.7
					c0.05-0.22,0.6-0.76,0.98-1.52c0.33-0.57,0.55-1.19,0.65-1.84c0.08-0.45,0.08-0.91,0-1.35C2.46,4.61,2.4,4.39,2.4,4.39
					c-0.07-0.36-0.2-0.71-0.38-1.03c-0.04-0.1-0.1-0.19-0.16-0.27C1.46,2.4,0.88,1.84,0.18,1.46z"/>
			</g>
		</g>
	</g>
	<g id="Group_339" transform="translate(751.843 508.8)">
		<g id="Group_338" transform="translate(0 0)">
			<g id="Group_337">
				<path id="Path_169" class="st4" d="M1.08,2.59L1.08,2.59C0.59,2.33,0.21,1.91,0,1.4V1.35c0.21-0.2,0.45-0.39,0.7-0.54
					c0.54-0.37,1.15-0.63,1.79-0.76c0.67-0.09,1.36-0.03,2.01,0.16c0.28,0.09,0.55,0.2,0.81,0.33l0.11,0.11l0.27,0.27
					C5.92,1.15,6.1,1.42,6.23,1.73c0.49,0.92-0.11,0.87-0.6,0.7c0,0.05-0.27-0.11-0.6-0.22C4.91,2.15,4.78,2.12,4.65,2.1
					C4.6,2.07,4.54,2.05,4.49,2.05c-0.05-0.04-0.1-0.06-0.16-0.05C4.2,1.93,4.08,1.87,3.94,1.83C3.56,1.7,3.15,1.68,2.75,1.78
					C2.34,1.84,1.95,2.01,1.61,2.26C1.3,2.43,1.14,2.59,1.08,2.59z"/>
			</g>
		</g>
	</g>
	<g id="Group_342" transform="translate(760.785 516.549)">
		<g id="Group_341" transform="translate(0 0)">
			<g id="Group_340">
				<path id="Path_170" class="st4" d="M0.43,0.32c0-0.05,0.05-0.05,0.11-0.11c0.23-0.19,0.53-0.25,0.81-0.16
					c0.27,0.11,0.43,0.38,0.6,0.87v0.11C1.68,1.71,1.63,2.47,1.79,3.19C1.86,3.47,1.95,3.74,2.06,4c0.18,0.43,0.42,0.83,0.7,1.19
					C2.83,5.31,2.9,5.41,2.98,5.52c0.18,0.27,0.38,0.52,0.6,0.76c0.54,0.65,1.29,1.11,2.11,1.3c0.46,0.1,0.94,0.11,1.41,0.05
					c0.27-0.05,0.38,0,0.38,0.11C7.36,7.95,7.17,8.12,6.94,8.23C6.52,8.44,6.06,8.55,5.59,8.55C5.35,8.58,5.11,8.56,4.89,8.5
					c-0.6-0.14-1.16-0.37-1.68-0.7C2.72,7.46,2.27,7.08,1.85,6.66c-0.32-0.33-0.54-0.6-0.54-0.6c-0.3-0.41-0.55-0.84-0.76-1.3
					C0.38,4.4,0.25,4.02,0.17,3.62C-0.12,2.52-0.03,1.35,0.43,0.32z"/>
			</g>
		</g>
	</g>
	<g id="Group_343" transform="translate(502.125 225.913)">
		<path id="Path_171" class="st0" d="M38.74,29.79c0-0.43,0.05-0.81,0.05-1.25V27.3c-0.03-0.86-0.14-1.71-0.33-2.55
			c-0.23-0.94-0.68-1.81-1.3-2.55c-0.58-0.7-1.28-1.28-2.06-1.73c-0.7-0.43-1.41-0.81-2.06-1.19l-0.27-0.16l-0.11-0.05
			c-0.04-0.01-0.08-0.02-0.11-0.05c-0.05-0.05-0.16-0.11-0.22-0.16c-0.15-0.13-0.26-0.3-0.33-0.49c-0.17-0.52-0.24-1.08-0.22-1.63
			c0-0.65,0.11-1.36,0.16-2.11c0-0.05-0.05-0.22-0.11-0.22c-0.54-0.81-1.08-0.92-1.52-0.81c-0.17,0.05-0.34,0.12-0.49,0.22
			c-0.65-0.57-1.47-0.89-2.33-0.92c-2.98,0-7.04-0.27-8.94,2.39l0,0c-0.17-0.65-0.39-1.28-0.65-1.9c-0.11-0.34-0.3-0.66-0.54-0.92
			c-0.16-0.11-0.27,0.05-0.33,0.49c-0.03,0.81-0.01,1.63,0.05,2.44c0.02,0.72-0.02,1.45-0.11,2.17c-0.03,0.63-0.16,1.25-0.38,1.84
			c-0.05,0.11-0.11,0.16-0.11,0.22s-0.05,0-0.05,0.05h-0.76c-0.38,0.05-0.81,0.05-1.35,0.11l-0.81,0.16
			c-0.11,0.05-0.27,0.05-0.38,0.11l-0.22,0.05l-0.27,0.11l-0.33,0.16c-0.88,0.49-1.59,1.22-2.06,2.11
			c-0.44,0.78-0.77,1.62-0.98,2.49c-0.37,1.62-0.49,3.28-0.38,4.93c0.05,0.81,0.11,1.63,0.22,2.44c0.1,0.83,0.28,1.65,0.54,2.44
			c0.27,0.83,0.64,1.63,1.08,2.39c0.48,0.72,1.03,1.39,1.63,2.01c1.23,1.17,2.66,2.1,4.23,2.76c1.53,0.63,3.13,1.05,4.77,1.25
			c0.39,0.06,0.79,0.1,1.19,0.11l1.19,0.05h1.25c0.42,0.02,0.84-0.02,1.25-0.11l1.25-0.16c0.41-0.12,0.83-0.21,1.25-0.27
			c0.41-0.09,0.81-0.22,1.19-0.38c0.41-0.14,0.8-0.3,1.19-0.49c1.56-0.73,2.93-1.81,4.01-3.14c1.09-1.3,1.93-2.79,2.49-4.39
			C38.33,32.95,38.7,31.39,38.74,29.79z"/>
		<path id="Path_172" class="st0" d="M33.38,10.18c0.11,0.05,0.11,0.11,0.22,0.27c0.17,0.28,0.21,0.61,0.11,0.92
			c-0.14,0.25-0.37,0.42-0.65,0.49c-0.11,0.05-0.27,0.11-0.38,0.16h-0.54c-0.14,0.01-0.28,0.06-0.38,0.16
			c-0.03,0.03-0.07,0.05-0.11,0.05c-0.03,0-0.05-0.02-0.05-0.05c0,0,0,0,0,0l-0.22-0.11c-0.16-0.05-0.27-0.16-0.43-0.22
			c-0.29-0.16-0.6-0.29-0.92-0.38c-0.64-0.24-1.29-0.44-1.95-0.6c-1-0.23-2.01-0.37-3.03-0.43c-0.76-0.05-1.52-0.05-2.33-0.05
			c0,0-0.97-0.05-2.28,0c-1.47,0.07-2.94,0.21-4.39,0.43c-0.8,0.17-1.62,0.28-2.44,0.33c-0.49,0-0.65-0.05-0.54-0.22
			c0.76-0.71,1.67-1.24,2.66-1.57c1.1-0.47,2.24-0.84,3.41-1.08c0.92-0.22,1.9-0.38,2.6-0.49c0.39-0.06,0.79-0.1,1.19-0.11
			c0.76,0,1.46,0,2.22,0.05c1.14,0.11,2.33,0.27,3.47,0.49c0.77,0.18,1.53,0.42,2.28,0.7l1.14,0.49c0.16,0.11,0.38,0.16,0.54,0.27
			l0.27,0.16C33.16,10.01,33.27,10.12,33.38,10.18z"/>
		<path id="Path_173" class="st0" d="M32.51,5.84c0.05,0.05,0.11,0.05,0.16,0.11c0.28,0.33,0.39,0.77,0.33,1.19
			c-0.05,0.43-0.43,0.87-1.3,1.08c-0.05,0-0.16,0.05-0.22,0c-1.27-0.55-2.6-0.96-3.96-1.25c-0.98-0.23-1.98-0.37-2.98-0.43
			l-0.6-0.05h-0.6c-0.38-0.03-0.76-0.03-1.14,0c-0.22-0.01-0.43-0.02-0.65-0.05h-1.62c-1.44,0.08-2.87,0.26-4.28,0.54
			c-0.48,0.1-0.95,0.23-1.41,0.38c-0.38,0.11-0.65,0.22-0.92,0.27c-0.43,0.11-0.65,0.05-0.6-0.16c0.2-0.32,0.46-0.59,0.76-0.81
			c0.22-0.16,0.49-0.33,0.76-0.54c0.31-0.2,0.64-0.38,0.98-0.54c0.3-0.16,0.61-0.31,0.92-0.43c0.33-0.11,0.7-0.27,1.14-0.38
			s0.87-0.27,1.35-0.38c0.46-0.12,0.93-0.21,1.41-0.27c0.43-0.05,0.87-0.11,1.25-0.16c0.7-0.05,1.25-0.11,1.25-0.11h1.14
			c0.38,0,0.76,0.05,1.08,0.05c1.11,0.11,2.21,0.27,3.31,0.49C29.58,4.74,31.07,5.23,32.51,5.84z"/>
		<path id="Path_174" class="st0" d="M28.99,0.75c0.03,0,0.05,0.02,0.05,0.05c0,0,0,0,0,0c0.12,0.86-0.14,1.73-0.7,2.39l-0.11,0.11
			c0,0-0.49-0.16-1.19-0.33c-0.84-0.2-1.69-0.32-2.55-0.38c-0.85-0.05-1.7-0.05-2.55,0c-0.7,0.05-1.14,0.11-1.14,0.11
			c-0.23-0.04-0.47-0.05-0.7-0.05c-0.43-0.05-0.98-0.11-1.46-0.16c-0.76-0.05-1.08-0.27-1.08-0.54s0.33-0.6,0.76-0.87
			c0.35-0.21,0.71-0.39,1.08-0.54c0.27-0.11,0.54-0.2,0.81-0.27c0.22-0.05,0.38-0.11,0.38-0.11s0.54-0.05,1.3-0.11
			c0.96-0.05,1.92-0.05,2.87,0c0.97,0.07,1.93,0.22,2.87,0.43C28.1,0.53,28.55,0.62,28.99,0.75z"/>
		<path id="Path_175" class="st0" d="M5.74,23.19v0.05c-0.22,0.81-0.61,1.57-1.14,2.22l-0.05,0.05c-0.05,0-3.68-1.9-3.68-1.9
			c-0.29-0.34-0.53-0.72-0.7-1.14c-0.43-0.87,0.11-1.25,0.65-1.3c0.44,0.01,0.87,0.05,1.3,0.11C2.11,21.29,5.69,23.19,5.74,23.19z"
			/>
		<path id="Path_176" class="st0" d="M7.37,40.96L7.37,40.96c0.58,0.63,1.04,1.37,1.35,2.17l0.05,0.11
			c-0.17,0.09-0.34,0.2-0.49,0.33c-0.33,0.16-0.7,0.38-1.08,0.6c-0.81,0.38-1.68,0.7-1.68,0.7c-0.4-0.04-0.78-0.15-1.14-0.33
			c-0.47-0.13-0.74-0.62-0.6-1.09c0.03-0.12,0.09-0.23,0.17-0.32c-0.05,0,0.16-0.22,0.33-0.38l0.38-0.38c0,0,0.7-0.27,1.41-0.6
			c0.32-0.14,0.63-0.3,0.92-0.49C7.1,41.16,7.23,41.05,7.37,40.96z"/>
		<path id="Path_177" class="st0" d="M24.06,47.41l0.05-0.05c0.82-0.2,1.67-0.22,2.49-0.05c0,0,0.11,0,0.11,0.05
			s0.05,3.74,0.05,3.74c-0.17,0.37-0.39,0.72-0.65,1.03c-0.22,0.4-0.73,0.55-1.14,0.32c-0.14-0.08-0.25-0.19-0.32-0.32
			c-0.21-0.33-0.39-0.67-0.54-1.03C24.11,51.09,24.06,47.46,24.06,47.41z"/>
		<path id="Path_178" class="st0" d="M42.1,41.18l-0.05-0.05c-0.15-0.84-0.08-1.7,0.22-2.49l0.05-0.11c0,0,0.38,0.05,0.87,0.11
			s1.19,0.11,1.84,0.22c1.35,0.22,2.66,0.49,2.66,0.49c0.48,0.26,0.92,0.59,1.3,0.98c0.87,0.81,0.33,1.25-0.38,1.41
			c0,0.05-0.38,0.05-0.76,0.11c-0.25,0.03-0.51,0.05-0.76,0.05c0,0-1.25-0.27-2.44-0.43c-0.6-0.11-1.25-0.16-1.73-0.22
			C42.65,41.19,42.38,41.18,42.1,41.18z"/>
		<path id="Path_179" class="st0" d="M42.59,23.62L42.59,23.62c-0.46-0.72-0.76-1.54-0.87-2.39v-0.11c0,0,0.27-0.11,0.65-0.22
			c0.38-0.16,0.87-0.33,1.35-0.54c0.65-0.26,1.28-0.55,1.9-0.87c0.45-0.03,0.91-0.01,1.35,0.05c0.97,0.11,0.97,0.76,0.65,1.3
			c0.05,0-0.16,0.27-0.43,0.54c-0.15,0.18-0.31,0.34-0.49,0.49c0,0-0.98,0.49-2.01,0.92c-0.46,0.21-0.93,0.39-1.41,0.54
			C43.07,23.45,42.83,23.54,42.59,23.62z"/>
	</g>
	<path id="Path_180" class="st4" d="M528.84,260.75c-1.55,0.09-3.09-0.41-4.28-1.41c-0.49-0.43-2.22-2.55-1.46-3.14
		c1.46-1.25-0.65-3.36-2.11-2.11c-1.9,1.68-0.7,4.71,0.6,6.39c1.78,2.19,4.5,3.4,7.32,3.25
		C530.73,263.73,530.73,260.75,528.84,260.75z"/>
	<g id="Group_346" transform="translate(455.844 273.387)">
		<g id="Group_345" transform="translate(0 0)">
			<g id="Group_344">
				<path id="Path_181" class="st0" d="M29.26,14.51c-0.01-0.06,0.01-0.12,0.05-0.16c0.26-0.32,0.59-0.56,0.97-0.7
					c0.43-0.11,0.97,0,1.52,0.81c0,0.05,0.11,0.16,0.11,0.22c-0.05,0.76-0.11,1.46-0.16,2.11c-0.03,0.55,0.05,1.1,0.22,1.63
					c0.06,0.19,0.17,0.36,0.33,0.49c0.05,0.05,0.16,0.11,0.22,0.16c0.03,0.03,0.07,0.05,0.11,0.05l0.11,0.05L33,19.34
					c0.65,0.38,1.35,0.76,2.06,1.19c0.78,0.45,1.48,1.04,2.06,1.73c0.6,0.75,1.04,1.62,1.3,2.55c0.2,0.84,0.33,1.69,0.38,2.55v1.25
					c0,0.43-0.05,0.81-0.05,1.25c-0.11,1.64-0.44,3.27-0.98,4.82c-0.58,1.59-1.43,3.07-2.49,4.39c-1.11,1.31-2.47,2.38-4.01,3.14
					c-0.38,0.2-0.78,0.36-1.19,0.49c-0.38,0.18-0.78,0.3-1.19,0.38c-0.41,0.12-0.83,0.21-1.25,0.27l-1.25,0.16
					c-0.43,0.05-0.81,0.05-1.25,0.11c-0.41,0.03-0.83,0.03-1.25,0l-1.19-0.05c-0.39-0.06-0.79-0.1-1.19-0.11
					c-1.64-0.2-3.24-0.62-4.77-1.25c-1.56-0.66-2.99-1.6-4.23-2.76c-0.62-0.6-1.16-1.28-1.63-2.01c-0.47-0.74-0.83-1.54-1.08-2.38
					c-0.25-0.8-0.43-1.61-0.54-2.44c-0.13-0.81-0.2-1.62-0.22-2.44c-0.09-1.65,0.04-3.31,0.38-4.93c0.21-0.87,0.53-1.71,0.98-2.49
					c0.5-0.87,1.2-1.59,2.06-2.11l0.33-0.16l0.27-0.11l0.22-0.05c0.12-0.06,0.25-0.1,0.38-0.11c0.27-0.08,0.54-0.13,0.81-0.16
					c0.45-0.06,0.9-0.09,1.36-0.11h0.76c0.03,0,0.05-0.02,0.05-0.05c0,0,0,0,0,0c0.05-0.05,0.11-0.05,0.11-0.22
					c0.24-0.58,0.37-1.21,0.38-1.84c0.09-0.72,0.12-1.44,0.11-2.17c-0.07-0.81-0.08-1.63-0.05-2.44c0.05-0.49,0.16-0.6,0.33-0.49
					c0.25,0.26,0.43,0.58,0.54,0.92c0.26,0.62,0.48,1.25,0.65,1.9c0.12,0.33,0.19,0.68,0.22,1.03c0.07,0.39,0.1,0.79,0.11,1.19
					c0.05,0.49,0.07,0.97,0.05,1.46c-0.01,0.27-0.05,0.55-0.11,0.81c-0.08,0.32-0.19,0.62-0.33,0.92l-0.11,0.22
					c-0.05,0.05-0.11,0.16-0.16,0.22c-0.1,0.15-0.23,0.28-0.38,0.38c-0.24,0.21-0.52,0.37-0.81,0.49c-0.11,0.05-0.27,0.05-0.38,0.11
					c-0.09,0.01-0.18,0.03-0.27,0.05c-0.25,0.03-0.51,0.06-0.76,0.11c-0.43,0.05-0.81,0.05-1.08,0.11
					c-0.16,0.05-0.27,0.05-0.43,0.11l-0.11,0.05l-0.11,0.05c-0.05,0-0.11,0.05-0.16,0.11c-0.22,0.11-0.42,0.26-0.6,0.43
					c-0.79,0.96-1.28,2.13-1.41,3.36c-0.2,1.38-0.24,2.78-0.11,4.17c0.05,1.38,0.35,2.73,0.87,4.01c0.51,1.2,1.31,2.26,2.33,3.09
					c2.18,1.72,4.83,2.73,7.59,2.92c0.36,0.05,0.72,0.06,1.08,0.05h1.08l1.03-0.05c0.33,0,0.7-0.11,1.03-0.11l0.49-0.05
					c0.17-0.01,0.33-0.05,0.49-0.11c0.33-0.11,0.65-0.16,0.98-0.27l0.92-0.38l0.22-0.11l0.22-0.11l0.43-0.22
					c1.18-0.62,2.22-1.49,3.03-2.55c0.83-1.08,1.48-2.28,1.9-3.58c0.44-1.31,0.7-2.68,0.76-4.06c0.05-0.7,0-1.41,0-2.11
					c-0.03-0.66-0.12-1.31-0.27-1.95c-0.14-0.54-0.4-1.04-0.76-1.46c-0.42-0.46-0.91-0.85-1.46-1.14c-0.6-0.38-1.25-0.7-1.9-1.08
					l-0.27-0.11c-0.1-0.03-0.19-0.09-0.27-0.16c-0.25-0.14-0.48-0.31-0.7-0.49c-0.42-0.38-0.75-0.84-0.97-1.36
					c-0.32-0.87-0.46-1.79-0.43-2.71C29.15,15.97,29.21,15.22,29.26,14.51z"/>
				<path id="Path_182" class="st0" d="M33.38,10.23c0.11,0.05,0.11,0.11,0.22,0.27c0.17,0.28,0.21,0.61,0.11,0.92
					c-0.14,0.25-0.37,0.42-0.65,0.49c-0.11,0.05-0.27,0.11-0.38,0.16h-0.54c-0.14,0.01-0.28,0.06-0.38,0.16
					c-0.03,0.03-0.07,0.05-0.11,0.05c-0.03,0-0.05-0.02-0.05-0.05c0,0,0,0,0,0l-0.22-0.11c-0.16-0.05-0.27-0.16-0.43-0.22
					c-0.29-0.16-0.6-0.29-0.92-0.38c-0.64-0.24-1.29-0.44-1.95-0.6c-1-0.23-2.01-0.37-3.03-0.43c-0.76-0.05-1.52-0.05-2.33-0.05
					c0,0-0.98-0.05-2.28,0c-1.47,0.07-2.94,0.21-4.39,0.43c-0.8,0.17-1.62,0.28-2.44,0.33c-0.49,0-0.65-0.05-0.54-0.22
					c0.76-0.71,1.67-1.24,2.65-1.57c1.1-0.47,2.24-0.84,3.41-1.08c0.92-0.22,1.9-0.38,2.6-0.49c0.39-0.06,0.79-0.1,1.19-0.11
					c0.76,0,1.46,0,2.22,0.05c1.17,0.06,2.33,0.22,3.47,0.49c0.78,0.16,1.54,0.39,2.28,0.7c0.39,0.14,0.77,0.3,1.14,0.49
					c0.16,0.11,0.38,0.16,0.54,0.27l0.27,0.16C33.03,9.99,33.21,10.1,33.38,10.23z"/>
				<path id="Path_183" class="st0" d="M32.51,5.9c0.05,0.05,0.11,0.05,0.16,0.11C32.95,6.34,33.07,6.77,33,7.2
					c-0.05,0.43-0.43,0.87-1.3,1.14c-0.05,0-0.16,0.05-0.22,0c-1.27-0.55-2.6-0.96-3.96-1.25c-0.98-0.23-1.98-0.37-2.98-0.43
					l-0.6-0.05h-1.73c-0.22-0.01-0.43-0.02-0.65-0.05h-1.62c-1.44,0.07-2.88,0.27-4.28,0.6c-0.48,0.1-0.95,0.23-1.41,0.38
					c-0.38,0.11-0.65,0.22-0.92,0.27c-0.43,0.11-0.65,0.05-0.6-0.16c0.2-0.32,0.46-0.59,0.76-0.81c0.22-0.16,0.49-0.33,0.76-0.54
					c0.31-0.2,0.64-0.38,0.98-0.54c0.3-0.16,0.61-0.31,0.92-0.43c0.33-0.11,0.7-0.27,1.14-0.43c0.43-0.11,0.87-0.27,1.36-0.38
					c0.46-0.12,0.93-0.21,1.41-0.27c0.43-0.05,0.87-0.11,1.25-0.16c0.7-0.05,1.25-0.11,1.25-0.11h1.14c0.38,0,0.76,0.05,1.08,0.05
					c1.11,0.08,2.22,0.24,3.31,0.49C29.59,4.82,31.08,5.29,32.51,5.9z"/>
				<path id="Path_184" class="st0" d="M28.99,0.8c0.03,0,0.05,0.02,0.05,0.05c0,0,0,0,0,0c0.12,0.86-0.14,1.73-0.7,2.38l-0.11,0.11
					c0,0-0.49-0.16-1.19-0.33c-0.84-0.2-1.69-0.32-2.55-0.38c-0.85-0.05-1.7-0.05-2.55,0c-0.7,0.05-1.14,0.11-1.14,0.11
					c-0.23-0.04-0.47-0.05-0.7-0.05c-0.43-0.05-0.98-0.11-1.46-0.16c-0.76-0.05-1.08-0.27-1.08-0.54s0.33-0.6,0.76-0.87
					c0.35-0.21,0.71-0.39,1.08-0.54c0.27-0.11,0.6-0.22,0.81-0.33c0.22-0.05,0.38-0.11,0.38-0.11s0.54-0.05,1.3-0.11
					c0.96-0.05,1.92-0.05,2.87,0c0.97,0.04,1.93,0.19,2.87,0.43C28.39,0.64,28.94,0.8,28.99,0.8z"/>
				<path id="Path_185" class="st0" d="M5.74,23.3v0.05c-0.22,0.81-0.61,1.57-1.14,2.22l-0.05,0.05c-0.05,0-3.68-1.9-3.68-1.9
					c-0.29-0.34-0.53-0.72-0.7-1.14c-0.43-0.87,0.11-1.25,0.65-1.3c0.44,0.01,0.87,0.05,1.3,0.11C2.11,21.4,5.69,23.24,5.74,23.3z"
					/>
				<path id="Path_186" class="st0" d="M7.42,41.01L7.42,41.01c0.58,0.63,1.04,1.37,1.36,2.17l0.05,0.11
					c-0.17,0.09-0.34,0.2-0.49,0.33c-0.33,0.16-0.7,0.38-1.08,0.6c-0.81,0.38-1.68,0.7-1.68,0.7c-0.4-0.04-0.78-0.15-1.14-0.33
					c-0.47-0.13-0.74-0.61-0.61-1.07c0.03-0.12,0.09-0.24,0.18-0.33c-0.05,0,0.16-0.22,0.33-0.38l0.38-0.38c0,0,0.7-0.27,1.41-0.6
					c0.32-0.14,0.63-0.3,0.92-0.49C7.2,41.12,7.42,41.07,7.42,41.01z"/>
				<path id="Path_187" class="st0" d="M24.06,47.46l0.05-0.05c0.82-0.2,1.67-0.22,2.49-0.05c0,0,0.11,0,0.11,0.05
					s0.05,3.74,0.05,3.74c-0.17,0.37-0.39,0.72-0.65,1.03c-0.2,0.4-0.7,0.57-1.1,0.36c-0.16-0.08-0.28-0.21-0.36-0.36
					c-0.21-0.33-0.39-0.67-0.54-1.03C24.11,51.15,24.06,47.52,24.06,47.46z"/>
				<path id="Path_188" class="st0" d="M42.16,41.17l-0.05-0.05c-0.18-0.83-0.1-1.7,0.22-2.49l0.05-0.11c0,0,0.38,0.05,0.87,0.11
					s1.19,0.11,1.84,0.22c1.35,0.22,2.66,0.49,2.66,0.49c0.48,0.26,0.92,0.59,1.3,0.98c0.87,0.81,0.33,1.25-0.38,1.41
					c0,0.05-0.38,0.05-0.76,0.11c-0.25,0.03-0.51,0.05-0.76,0.05c0,0-1.25-0.27-2.44-0.43c-0.6-0.11-1.25-0.16-1.73-0.22
					C42.7,41.23,42.43,41.21,42.16,41.17z"/>
				<path id="Path_189" class="st0" d="M42.59,23.62L42.59,23.62c-0.46-0.72-0.76-1.53-0.87-2.38v-0.11c0,0,0.27-0.11,0.65-0.22
					c0.38-0.16,0.87-0.33,1.35-0.54c0.65-0.26,1.28-0.55,1.9-0.87c0.45-0.03,0.91-0.01,1.35,0.05c0.97,0.11,0.97,0.76,0.7,1.3
					c0.05,0-0.16,0.27-0.43,0.54c-0.15,0.18-0.31,0.34-0.49,0.49c0,0-0.97,0.49-2.01,0.92c-0.46,0.21-0.93,0.39-1.41,0.54
					C43.1,23.45,42.85,23.54,42.59,23.62z"/>
			</g>
			<path id="Path_190" class="st0" d="M22.54,35.21c-1.56-0.12-3.02-0.84-4.07-2.01c-0.43-0.49-1.84-2.82-1.03-3.36
				c1.63-1.03-0.22-3.41-1.79-2.39c-2.11,1.41-1.36,4.61-0.33,6.39c1.45,2.41,3.97,3.98,6.77,4.23c0.79,0.12,1.53-0.43,1.65-1.22
				C23.88,36.07,23.33,35.33,22.54,35.21z"/>
		</g>
	</g>
	<g id="Group_349" transform="translate(523.906 184.728)">
		<g id="Group_348" transform="translate(0)">
			<g id="Group_347">
				<path id="Path_191" class="st0" d="M3.41,35.05c0,0.11,0,0.11-0.11,0.22c-0.49,0.76-1.68,1.79-3.14,0.05
					c0-0.05-0.11-0.16-0.16-0.27v-22.6c0,0,0.33-5.15,0.87-8.73c0.7-6.12,1.46-3.68,1.84,0.11c0.05-0.38,0.65,9.05,0.65,9.05v22.16
					L3.41,35.05z"/>
			</g>
		</g>
	</g>
	<g id="Group_352" transform="translate(477.028 250.223)">
		<g id="Group_351">
			<g id="Group_350">
				<path id="Path_192" class="st0" d="M3.41,16.92c0,0.05,0,0.05-0.11,0.11c-0.98,0.51-2.16,0.51-3.14,0
					C0.11,17,0.05,16.96,0,16.92V4.73C0.19,3.6,0.48,2.49,0.87,1.42c0.7-2.33,1.46-1.41,1.84,0.05c0.05-0.16,0.65,3.47,0.65,3.47
					S3.41,16.76,3.41,16.92z"/>
			</g>
		</g>
	</g>
</g>
</svg>
