<?xml version="1.0" encoding="utf-8"?>
<!-- Generator: Adobe Illustrator 25.2.1, SVG Export Plug-In . SVG Version: 6.00 Build 0)  -->
<svg version="1.1" id="Layer_1" xmlns="http://www.w3.org/2000/svg" xmlns:xlink="http://www.w3.org/1999/xlink" x="0px" y="0px"
	 viewBox="0 0 339.65 383.58" style="enable-background:new 0 0 339.65 383.58;" xml:space="preserve">
<style type="text/css">
	.st0{fill:#4149F1;}
	.st1{fill:#5C11F2;}
	.st2{fill:#FFFFFF;}
	.st3{fill:#0B0511;}
</style>
<path id="Path_261" class="st0" d="M101.52,252.15c1.51-3.55,2.46-7.32,2.81-11.17c0.93-9.24,0.6-18.54,0.5-27.84
	c-0.05-9.3-0.22-18.65-0.6-27.95c-0.33-8.36-2.26-17.66,3.08-24.92c5.12-6.99,13.53-13.81,22.34-14.74
	c7.92-0.83,15.08,4.79,16.12,12.16c3.36,0.71,6.77,1.38,10.18,1.98c0-0.05-0.05-0.17-0.05-0.22c-1.38-5.93-4.42-11.35-8.75-15.63
	c0.01-0.42-0.08-0.84-0.28-1.21c-1.38-3.2-3.03-6.28-4.95-9.19c-0.04-0.08-0.1-0.16-0.16-0.22c1.49-2.04,4.73-3.08,6.93-1.54
	c8.62,5.97,14.78,14.86,17.33,25.03c0.44,1.57,0.07,3.27-0.99,4.51c2.42,0.33,4.84,0.61,7.26,0.83c5.12,0.44,10.29,0.33,15.41,0.88
	s9.96,2.2,15.02,2.92c4.79,0.71,9.52-0.39,14.2-1.38c5.09-1.07,10.23-1.84,15.41-2.31c10.34-0.93,20.8-0.61,31.14-0.27
	c1.4,0.06,2.73,0.63,3.74,1.6c-0.61,5.46,0.19,10.99,2.31,16.07c1.13,2.6,2.53,5.07,4.18,7.37c-7.1,0.05-14.25-0.05-21.35-0.11
	c-4.35-1.05-8.69-2.09-13.09-2.97c-11.77-0.66-23.55-2.59-35.27-3.74c-7.26,0.03-14.49,0.84-21.57,2.42
	c-2.37,0.55-4.79,1.15-7.21,1.87c-1.18,1.94-2.09,4.03-2.7,6.22c-0.44,1.27-0.77,2.53-1.16,3.8c0.55,3.25,1.1,6.49,1.6,9.74
	c0.31,4.13,0.85,8.25,1.6,12.33c0.03,1.73,0.2,3.46,0.5,5.17c0.11,2.37,0.39,4.73,0.72,7.1c-0.93,9.13,0,18.27-0.6,27.46
	c-0.38,6.58-2.36,12.96-5.78,18.6c-0.33,0.25-0.63,0.55-0.88,0.88c-0.69,0.88-1.45,1.7-2.26,2.48c-0.4,0.4-0.82,0.76-1.27,1.1
	c-0.05,0.05-0.05,0.05-0.11,0.05l-0.05,0.05c-1.71,1.21-3.54,2.26-5.45,3.14c0.11-0.05-1.71,0.66-2.09,0.77
	c-0.83,0.28-1.65,0.55-2.48,0.77c-2.27,0.2-4.56,0.18-6.82-0.05c-8.03-1.6-15.9-5.06-23.38-8.25c-7.32-3.08-14.36-6.93-20.14-12.43
	c-1.48-1.22-2.67-2.76-3.47-4.51C99.92,256.39,100.52,254.41,101.52,252.15z"/>
<path id="Path_262" class="st1" d="M247.32,260.02c-0.17-1.65,0.22-2.7,1.71-5.61c4.24-8.42,8.75-16.69,13.54-24.81
	c0.41-0.79,1.13-1.39,1.98-1.65c0.15-0.15,0.32-0.27,0.5-0.39c1.93-1.16,4.02-0.28,5.28,1.38c4.62,6.27,11.11,10.84,16.95,15.96
	c5.72,5.06,11.94,10.34,13.65,14.97c0.64,1.63,0.62,3.45-0.05,5.06c-0.3,0.68-0.63,1.34-0.99,1.98c-4.68,8.03-11.83,14.25-17,22.01
	c-0.34,0.52-0.79,0.95-1.32,1.27c-0.88,1.82-2.97,2.97-5.12,1.43c-6.27-4.46-11.11-9.79-16.01-15.68c-2.2-2.64-4.79-4.68-7.21-7.1
	c-1.35-1.39-2.56-2.9-3.63-4.51C248.25,262.5,247.43,261.23,247.32,260.02z"/>
<path id="Path_263" class="st2" d="M105.09,306.57c1.89-6.03-0.79-12.56-6.38-15.52c-11.72-6.27-30.32-16.89-32.3-22.34
	c-2.92-8.03-42.53,41.32-44.4,62.45s43.08,40.44,55.85,38.62C84.95,368.8,98.82,326.76,105.09,306.57z"/>
<g id="Group_527" transform="translate(112.424 44.092)">
	<g id="Group_526">
		<g id="Group_525">
			<path id="Path_264" class="st2" d="M25.4-0.02c-0.05-0.05-0.11-0.05-0.22-0.05c-0.88-0.11-2.53,0.17-2.09,2.42
				c0.01,0.1,0.05,0.19,0.11,0.27c1.43,1.21,2.81,2.42,4.18,3.69c1.49,1.38,2.86,2.75,4.24,4.24c1.31,1.42,2.47,2.97,3.47,4.62
				c1,1.68,1.88,3.43,2.64,5.23c0.73,1.81,1.35,3.67,1.87,5.56c0.49,1.9,0.88,3.83,1.16,5.78c0.28,1.98,0.44,3.91,0.55,5.89
				c0.05,1.98,0.05,3.96-0.05,5.94c-0.11,1.97-0.33,3.94-0.66,5.89c-0.64,3.86-1.81,7.62-3.47,11.17c-0.83,1.71-1.89,3.3-3.14,4.73
				c-1.28,1.21-2.83,2.11-4.51,2.64c-1.84,0.65-3.74,1.13-5.67,1.43c-1.93,0.33-3.91,0.61-5.89,0.77l-1.27,0.11l-0.83,0.05
				c-0.55,0.05-1.1,0.05-1.65,0.05c0,0-1.27,0.17-2.97,0.27c-1.71,0.17-3.91,0.27-5.67,0.27c-1.54,0-2.48-0.05-3.08-0.11
				c-0.55-0.05-0.83,0.05-0.72,0.27c0.09,0.17,0.22,0.33,0.39,0.44c0.26,0.19,0.54,0.36,0.83,0.5c0.81,0.37,1.66,0.65,2.53,0.83
				c1.48,0.35,2.99,0.57,4.51,0.66c2.42,0.22,4.84,0.27,4.84,0.27c0.55,0,1.1-0.05,1.65-0.11l0.83-0.05l0.83-0.05l1.54-0.17
				c2.05-0.2,4.09-0.52,6.11-0.93c2.07-0.42,4.09-1.03,6.05-1.82c1.03-0.45,2.03-0.98,2.97-1.6c0.5-0.34,0.96-0.73,1.38-1.15
				c0.2-0.21,0.38-0.43,0.55-0.66l0.55-0.61c1.33-1.69,2.43-3.54,3.3-5.5c2.46-5.75,3.84-11.91,4.07-18.16
				c0.32-6.19-0.33-12.39-1.93-18.38c-1.08-4.05-2.73-7.92-4.9-11.5c-1.11-1.8-2.4-3.47-3.85-5.01c-1.38-1.54-2.86-2.97-4.35-4.35
				C28.32,2.51,26.89,1.24,25.4-0.02z"/>
		</g>
	</g>
</g>
<g id="Group_530" transform="translate(86.176 103.974)">
	<g id="Group_529">
		<g id="Group_528">
			<path id="Path_265" class="st2" d="M3.84-0.04C3.78-0.1,3.73-0.1,3.62-0.1C3.08-0.13,2.54,0.05,2.13,0.4
				C1.66,1.04,1.56,1.87,1.86,2.6C1.87,2.7,1.91,2.8,1.97,2.88c0.39,0.21,0.75,0.45,1.1,0.71l1.04,0.83l0.5,0.44l0.5,0.44l0.93,0.93
				c2.53,2.74,4.57,5.88,6.05,9.3c1.56,3.48,2.81,7.09,3.74,10.78c0.5,1.87,0.94,3.74,1.32,5.61l0.28,1.43l0.33,1.49
				c0.22,0.93,0.44,1.87,0.6,2.81c0.16,0.89,0.27,1.79,0.33,2.7c0.06,0.79,0.01,1.59-0.16,2.37c-0.24,0.8-0.6,1.56-1.04,2.26
				c-0.44,0.77-0.99,1.54-1.54,2.31l-0.88,1.21l-0.83,1.21l-1.65,2.42c-1.15,1.68-2.2,3.42-3.14,5.23
				c-2.02,3.81-2.59,8.23-1.6,12.43c0.16,0.99,0.39,1.98,0.6,2.92l0.6,2.86l1.21,5.72c0.83,3.85,1.65,7.65,2.31,11.44
				s1.27,7.65,1.54,11.44c0.28,3.85,0.44,7.7,0.39,11.55c-0.11,7.75-0.72,15.49-1.82,23.16L9.28,162.1l-0.39,2.7
				c-0.11,0.5-0.16,1.04-0.28,1.54c0,0-0.05,0.28-0.11,0.83c-0.11,0.5-0.22,1.21-0.44,1.98c-0.41,1.71-1.2,3.31-2.31,4.68
				c-0.69,0.71-1.44,1.36-2.26,1.93c-0.5,0.33-0.6,0.55-0.39,0.66c0.18,0.06,0.36,0.07,0.55,0.05c0.32,0.01,0.63-0.03,0.93-0.11
				c0.92-0.23,1.78-0.64,2.53-1.21c-0.05,0.05,0.05,0,0.28-0.16c0.11-0.05,0.22-0.16,0.39-0.28l0.44-0.44
				c0.83-0.85,1.53-1.81,2.09-2.86c0.56-1.04,1.02-2.12,1.38-3.25c0.28-0.93,0.44-1.54,0.44-1.54c0.11-0.55,0.22-1.16,0.28-1.71
				l0.72-5.01l1.71-11.44l0.88-5.72c0.28-1.93,0.55-3.85,0.77-5.78c1.03-7.7,1.56-15.45,1.6-23.22c0-3.91-0.16-7.81-0.55-11.66
				c-0.39-3.91-0.99-7.76-1.71-11.55c-0.72-3.8-1.54-7.59-2.31-11.33l-1.21-5.67l-0.6-2.81c-0.22-0.91-0.38-1.83-0.5-2.75
				c-0.31-1.69-0.29-3.43,0.05-5.12c0.41-1.72,1.04-3.39,1.87-4.95c0.89-1.64,1.88-3.22,2.97-4.73l1.65-2.37
				c0.55-0.77,1.04-1.54,1.65-2.37c0.61-0.84,1.16-1.73,1.65-2.64c0.58-1,0.97-2.1,1.16-3.25c0.15-1.09,0.17-2.2,0.05-3.3
				c-0.11-1.05-0.28-2.04-0.44-3.03s-0.39-1.93-0.6-2.86l-0.55-2.81c-0.39-1.93-0.83-3.8-1.32-5.72c-0.98-3.83-2.29-7.56-3.91-11.17
				c-1.66-3.68-3.89-7.08-6.6-10.07l-1.1-1.05L7.2,2l-0.6-0.5L5.44,0.56C4.86,0.51,4.31,0.3,3.84-0.04z"/>
		</g>
	</g>
</g>
<g id="Group_533" transform="translate(50.66)">
	<g id="Group_532">
		<g id="Group_531">
			<path id="Path_266" class="st2" d="M20.43,73.56c-0.05,0.05-0.11,0.05-0.16,0.17c-0.3,0.43-0.44,0.96-0.39,1.49
				c0.11,0.55,0.5,1.15,1.65,1.43c0.05,0,0.22,0.05,0.33,0c0.93-0.44,1.82-0.88,2.7-1.32l1.32-0.66l2.86-1.49l0.83-0.44
				c0.28-0.11,0.5-0.27,0.83-0.39l1.71-0.77l3.47-1.54l7.04-3.03c4.68-1.98,9.41-4.02,14.09-6.05c9.45-4.02,18.69-8.52,27.67-13.49
				c4.51-2.53,8.86-5.28,13.09-8.2l1.6-1.1c0.23-0.16,0.47-0.31,0.72-0.44c0.28-0.16,0.6-0.38,0.88-0.55
				c1.18-0.78,2.27-1.68,3.25-2.7c1.05-1.11,1.87-2.42,2.42-3.85c0.06-0.14,0.1-0.29,0.11-0.44l0.05-0.5v-0.38
				c0-0.16-0.05-0.27-0.05-0.44s-0.05-0.27-0.05-0.44c-0.05-0.16-0.11-0.27-0.16-0.44c-0.11-0.27-0.26-0.53-0.44-0.77
				c-0.16-0.24-0.36-0.45-0.6-0.6c-0.21-0.17-0.43-0.31-0.66-0.44c-0.4-0.23-0.82-0.41-1.27-0.55c-0.76-0.2-1.53-0.33-2.31-0.38
				c-0.37-0.03-0.73-0.03-1.1,0h-2.81l-1.93-0.11c-2.59-0.11-5.12-0.22-7.7-0.27c-5.12-0.16-10.18-0.27-15.24-0.55l-3.8-0.22
				c-0.66-0.05-1.27-0.05-1.82-0.11c-0.53-0.05-1.04-0.16-1.54-0.33c-0.46-0.14-0.89-0.37-1.27-0.66c-0.21-0.12-0.39-0.26-0.55-0.44
				l-0.77-0.66c-0.82-0.75-1.54-1.6-2.15-2.53c-0.61-0.98-1.09-2.03-1.43-3.14c-0.33-1.14-0.61-2.3-0.83-3.47
				c-0.22-1.21-0.39-2.48-0.55-3.69l-0.28-1.93L57.02,6.2l-0.16-1.1l-0.22-0.66c-0.05-0.19-0.12-0.38-0.22-0.55
				c-0.22-0.38-0.39-0.77-0.6-1.1l-0.39-0.5c-0.13-0.16-0.28-0.31-0.44-0.44c-0.3-0.3-0.64-0.58-0.99-0.82
				c-1.42-0.9-3.11-1.29-4.79-1.1c-0.81,0.09-1.61,0.29-2.37,0.6c-0.74,0.33-1.43,0.78-2.04,1.32c-0.33,0.27-0.5,0.5-0.77,0.71
				l-0.66,0.71L42.72,4l-0.66,0.71c-3.46,3.86-6.63,7.98-9.46,12.32l0,0c-2.2,3.25-4.24,6.6-6.33,9.9l-3.08,4.9
				c-0.55,0.82-1.04,1.6-1.6,2.42s-1.1,1.6-1.6,2.48c-4.07,6.71-7.81,13.59-11.28,20.63c-1.71,3.52-3.36,7.1-4.9,10.67l-1.16,2.7
				l-0.44,1.05l-0.22,0.55l-0.05,0.11l-0.05,0.22l-0.11,0.44c-0.04,0.12-0.06,0.25-0.05,0.39v0.88c0.07,0.89,0.27,1.76,0.6,2.59
				c0.79,1.95,2.02,3.7,3.58,5.12c0.83,0.8,1.85,1.37,2.97,1.65c0.66,0,0.83-0.17,0.72-0.33c-0.08-0.14-0.19-0.25-0.33-0.33
				c-0.16-0.11-0.33-0.33-0.55-0.5c-0.53-0.54-1.01-1.13-1.43-1.76c0.05,0.05,0-0.05-0.11-0.22s-0.28-0.44-0.5-0.77
				c-0.5-0.83-0.9-1.72-1.21-2.64c-0.29-0.85-0.46-1.74-0.5-2.64c0-0.17,0.05-0.27,0.05-0.39s0.05-0.17,0.05-0.22
				c0.03-0.05,0.05-0.11,0.05-0.17l0.83-1.93l0.22-0.5l0.83-1.98l1.1-2.53c1.49-3.36,3.08-6.66,4.68-9.96
				c1.65-3.3,3.36-6.55,5.12-9.74c0.88-1.6,1.82-3.19,2.75-4.79l1.38-2.37l1.43-2.31c4.13-6.16,7.87-12.6,11.94-18.65l0,0
				c2.75-4.21,5.82-8.2,9.19-11.94l0.6-0.71l0.66-0.66l0.66-0.66c0.19-0.22,0.39-0.42,0.6-0.6c0.33-0.32,0.72-0.56,1.16-0.71
				c0.42-0.19,0.86-0.3,1.32-0.33c0.88-0.11,1.77,0.09,2.53,0.55c0.16,0.16,0.33,0.22,0.5,0.38l0.22,0.22l0.16,0.27
				c0.13,0.17,0.24,0.36,0.33,0.55c0.05,0.11,0.05,0.22,0.11,0.33c0.05,0.09,0.09,0.18,0.11,0.27l0.28,1.76l0.28,1.87
				c0.16,1.26,0.33,2.53,0.6,3.85c0.23,1.34,0.56,2.67,0.99,3.96c0.43,1.35,1.02,2.64,1.76,3.85c0.76,1.22,1.69,2.33,2.75,3.3
				l0.72,0.6c0.28,0.27,0.6,0.5,0.93,0.77c0.66,0.47,1.38,0.84,2.15,1.1c1.38,0.4,2.8,0.61,4.24,0.6l3.85,0.22
				c5.12,0.27,10.23,0.38,15.35,0.55c2.53,0.05,5.06,0.16,7.65,0.27L97,28.8h3.8c0.5,0.04,1,0.11,1.49,0.22
				c0.28,0.04,0.53,0.18,0.72,0.38c0,0,0.05,0,0,0.05l0,0v0.22l0,0l-0.05,0.11c0,0.05-0.05,0.11-0.05,0.16l-0.16,0.33
				c-0.11,0.23-0.24,0.45-0.39,0.66c-0.28,0.46-0.61,0.88-0.99,1.27c-0.78,0.82-1.65,1.56-2.59,2.2c-0.22,0.16-0.5,0.33-0.72,0.5
				l-0.44,0.27l-0.44,0.33l-1.54,1.1c-4.13,2.9-8.4,5.59-12.81,8.06c-8.88,4.91-18,9.36-27.34,13.31
				c-4.68,2.04-9.35,4.02-14.03,6.05l-7.04,3.03l-3.52,1.54l-1.76,0.77c-0.3,0.12-0.6,0.27-0.88,0.44l-0.88,0.44l-2.86,1.49
				l-1.27,0.66C22.28,72.74,21.34,73.12,20.43,73.56z"/>
		</g>
	</g>
</g>
<g id="Group_536" transform="translate(146.829 57.972)">
	<g id="Group_535">
		<g id="Group_534">
			<path id="Path_267" class="st2" d="M3.98-0.04C3.93-0.09,3.87-0.09,3.76-0.09C2.83-0.15,1.29,0.24,1.84,2.49
				c0.01,0.1,0.05,0.19,0.11,0.27c1.49,1.1,2.97,2.2,4.46,3.41c2.48,1.98,4.9,4.07,7.21,6.27l1.16,1.05
				c0.39,0.33,0.77,0.71,1.1,1.05c0.05,0.04,0.1,0.08,0.16,0.11c0.14,0.08,0.25,0.19,0.33,0.33c0.11,0.11,0.2,0.24,0.28,0.39
				c0.04,0.04,0.06,0.1,0.05,0.17c0,0.05,0.05,0.05,0.05,0.17c-0.05,0.24-0.14,0.46-0.28,0.66c-0.23,0.3-0.51,0.56-0.83,0.77
				c-0.33,0.27-0.7,0.49-1.1,0.66l-0.28,0.11L13.94,18c-0.22,0.11-0.44,0.17-0.66,0.27c-0.61,0.26-1.2,0.58-1.76,0.93
				c-0.44,0.27-0.77,0.44-1.04,0.61c-0.5,0.33-0.6,0.5-0.44,0.66c0.46,0.15,0.96,0.16,1.43,0.05c0.72-0.11,1.54-0.33,2.42-0.5h0.28
				c0.11,0,0.22-0.05,0.39-0.05c0.09,0,0.19-0.02,0.28-0.05c0.11,0,0.22-0.05,0.33-0.05c1.28-0.26,2.46-0.87,3.41-1.76
				c0.69-0.63,1.12-1.49,1.21-2.42c0.02-0.83-0.19-1.65-0.6-2.37c-0.23-0.4-0.51-0.77-0.83-1.1l-0.33-0.33l-1.98-1.86
				c-2.37-2.2-4.84-4.4-7.37-6.44C7.06,2.27,5.52,1.12,3.98-0.04z"/>
		</g>
	</g>
</g>
<g id="Group_539" transform="translate(128.238 53.277)">
	<g id="Group_538">
		<g id="Group_537">
			<path id="Path_268" class="st2" d="M12.28,3.39c0.04,0,0.08-0.02,0.11-0.05c0.26-0.34,0.48-0.71,0.66-1.1
				c0.26-0.63,0.3-1.33,0.11-1.98c0-0.05-0.05-0.17-0.11-0.17c0,0-0.28-0.05-0.77-0.11c-0.62-0.08-1.25-0.1-1.87-0.05
				C8.59,0.07,6.83,0.71,5.35,1.79c-0.8,0.57-1.49,1.28-2.04,2.09c-0.5,0.7-0.89,1.48-1.16,2.31C1.98,6.77,1.85,7.36,1.78,7.96
				C1.75,8.18,1.73,8.4,1.72,8.62c0.01,0.5,0.09,1,0.22,1.49c0.23,0.9,0.64,1.74,1.21,2.48c0.27,0.42,0.65,0.77,1.1,0.99
				c0.18,0.1,0.4,0.08,0.55-0.05c0.22-0.27,0.11-0.93,0.11-1.65c0.05,0.05-0.11-0.77-0.05-1.54c0.01-0.37,0.04-0.74,0.11-1.1
				c0.05-0.27,0.11-0.5,0.11-0.5c0.01-0.15,0.02-0.3,0.05-0.44c0.06-0.37,0.15-0.74,0.28-1.1c0.39-1.09,1.1-2.03,2.04-2.7
				c0.94-0.7,2.07-1.11,3.25-1.15c0.38-0.03,0.77-0.03,1.16,0C11.99,3.37,12.14,3.39,12.28,3.39z"/>
		</g>
	</g>
</g>
<g id="Group_542" transform="translate(137.977 61.022)">
	<g id="Group_541">
		<g id="Group_540">
			<path id="Path_269" class="st2" d="M4.47,0.71c-0.05,0-0.05,0-0.16,0.11C4.03,1.18,3.95,1.65,4.09,2.08
				c0.07,0.3,0.17,0.59,0.28,0.88c0,0.05,0.05,0.17,0.05,0.22l0,0v0.05l0,0C4.4,3.33,4.39,3.42,4.36,3.51
				c0.05-0.04,0.1-0.08,0.16-0.11c0.11-0.05,0.16,0,0.05-0.05c-0.06,0-0.11-0.05-0.11-0.11L4.42,3.18l0,0
				c0.05,0.11-0.66-0.99-0.39-0.5l0,0c0,0,0-0.05,0.16-0.17c0.05-0.06,0.16-0.06,0.33,0c0.11-0.05,0.22,0,0.39,0.05
				c0.11,0.05,0.16,0.05,0.22,0.17C5.2,2.81,5.24,2.91,5.24,3.01C5.22,3.2,5.26,3.39,5.35,3.56c0.17,0.18,0.43,0.25,0.66,0.17
				c0.37-0.16,0.66-0.49,0.77-0.88c0,0.05,0.11-0.17,0.11-0.55c0.01-0.2-0.01-0.41-0.05-0.61C6.78,1.49,6.71,1.28,6.62,1.09
				C6.41,0.7,6.11,0.38,5.74,0.15c-0.17-0.1-0.36-0.18-0.55-0.22C4.86-0.13,4.52-0.11,4.2-0.01c-0.4,0.08-0.78,0.25-1.1,0.5
				c-0.44,0.33-0.8,0.77-1.04,1.27L1.89,2.19C1.83,2.36,1.83,2.52,1.78,2.63C1.73,2.78,1.72,2.92,1.72,3.07v0.44
				c0.07,0.63,0.32,1.22,0.72,1.71c0.28,0.34,0.64,0.6,1.04,0.77c0.78,0.29,1.65,0.2,2.37-0.22l0.11-0.05L6.07,5.6
				C6.19,5.53,6.3,5.44,6.4,5.33c0.21-0.2,0.39-0.44,0.5-0.71c0.25-0.59,0.29-1.25,0.11-1.87c-0.2-0.52-0.54-0.98-0.99-1.32
				C5.66,0.93,5.08,0.66,4.47,0.71z"/>
		</g>
	</g>
</g>
<g id="Group_545" transform="translate(135.934 86.268)">
	<g id="Group_544">
		<g id="Group_543">
			<path id="Path_270" class="st2" d="M19.94,3.14c0-0.05,0.05-0.05,0-0.17c-0.15-0.43-0.42-0.81-0.77-1.1
				c-0.56-0.39-1.2-0.63-1.87-0.71h-0.16c0,0-0.11,0.17-0.33,0.44s-0.55,0.61-0.93,0.99c-1.05,0.91-2.32,1.52-3.69,1.76
				c-1.34,0.24-2.71,0.08-3.96-0.44C7.81,3.73,7.4,3.53,7.01,3.3C6.74,3.14,6.57,3.03,6.57,3.03S6.13,2.81,5.53,2.48
				C4.86,2.04,4.22,1.56,3.6,1.05C3.27,0.7,2.92,0.37,2.56,0.06C2.28-0.11,2.12-0.16,1.95,0c-0.28,0.22-0.33,1.1,0,2.04
				C2.16,2.78,2.51,3.47,3,4.07c0.33,0.47,0.69,0.91,1.1,1.32c0.33,0.33,0.6,0.55,0.6,0.55c0.19,0.14,0.4,0.27,0.6,0.39
				c0.55,0.32,1.12,0.59,1.71,0.83c0.85,0.33,1.74,0.55,2.64,0.66c1.05,0.1,2.1,0.06,3.14-0.11c1.94-0.36,3.74-1.24,5.23-2.53
				c0.33-0.27,0.55-0.55,0.83-0.77c0.2-0.2,0.39-0.42,0.55-0.66C19.77,3.41,19.94,3.19,19.94,3.14z"/>
		</g>
	</g>
</g>
<g id="Group_548" transform="translate(106.844 115.803)">
	<g id="Group_547">
		<g id="Group_546">
			<path id="Path_271" class="st2" d="M24.49,0.62c0-0.06-0.06-0.11-0.16-0.17c-0.42-0.34-0.94-0.54-1.49-0.55
				c-0.55,0-1.16,0.39-1.6,1.49c0,0.05-0.05,0.22-0.05,0.33c0.61,1.9,1.38,3.74,2.31,5.5c1.19,2.2,2.67,4.24,4.4,6.05
				c0.83,0.88,1.71,1.76,2.48,2.53l1.16,1.27c0.39,0.44,0.72,0.88,1.1,1.32c1.43,1.77,2.7,3.67,3.8,5.67
				c1.16,1.98,2.15,4.07,3.19,6.22c1.04,2.19,2.19,4.32,3.47,6.38c0.33,0.5,0.66,1.05,0.99,1.54l1.04,1.49l1.1,1.43l0.28,0.39l0,0
				c-2.2,2.09,3.03-2.81,2.48-2.31l0,0l-0.05-0.05l-0.05-0.05l-0.16-0.17l-0.6-0.61c-3.25-3.19-6.05-6.99-9.52-10.51l0,0
				c-2.12-2.21-4.55-4.1-7.21-5.61c-0.72-0.33-1.38-0.71-2.15-0.99c-0.36-0.15-0.73-0.28-1.1-0.39l-1.21-0.33
				c-0.22-0.05-0.39-0.11-0.6-0.17l-0.6-0.05c-0.4-0.06-0.8-0.1-1.21-0.11c-0.79-0.04-1.58-0.02-2.37,0.05
				c-0.39,0.05-0.77,0.05-1.16,0.11l-1.16,0.22l-0.55,0.11l-0.55,0.11l-1.1,0.27l-2.15,0.66l-0.6,0.22
				c-0.83,0.27-1.65,0.61-2.42,0.93c0,0-1.21,0.61-2.75,1.49s-3.47,2.09-4.95,3.08c-2.64,1.65-3.3,2.37-2.92,2.53
				c0.44,0.17,1.98-0.22,3.85-0.88c-0.16,0.11,1.98-0.77,4.13-1.6c1.1-0.44,2.15-0.83,2.97-1.15s1.38-0.5,1.38-0.5l1.1-0.44
				l1.1-0.39l0.28-0.11c0.3-0.12,0.62-0.21,0.93-0.27l0.93-0.27l0.93-0.22c0.6-0.17,1.27-0.27,1.87-0.39
				c0.33-0.05,0.6-0.05,0.93-0.11c0.33,0,0.6-0.05,0.93-0.05h1.38l0.44,0.05l0.88,0.11l0.88,0.22l0.44,0.11
				c0.16,0.05,0.28,0.11,0.44,0.17l0.88,0.33c0.55,0.27,1.16,0.55,1.71,0.83c2.25,1.3,4.3,2.91,6.11,4.79l0,0
				c3.19,3.25,6.05,7.04,9.52,10.51l0.66,0.66l0.16,0.17l0.11,0.05l0.05,0.05l0,0c-0.55,0.5,4.73-4.4,2.48-2.37l0,0l-0.28-0.33
				l-1.04-1.38l-0.99-1.38c-0.33-0.5-0.6-0.93-0.93-1.43c-1.21-1.97-2.31-4.01-3.3-6.11c-1.04-2.09-2.09-4.29-3.3-6.38
				c-1.21-2.14-2.59-4.19-4.13-6.11c-0.39-0.5-0.77-0.93-1.16-1.43l-1.27-1.38c-0.83-0.93-1.71-1.71-2.48-2.53
				c-1.52-1.61-2.84-3.4-3.91-5.34C25.68,3.91,25,2.29,24.49,0.62z"/>
		</g>
	</g>
</g>
<g id="Group_551" transform="translate(95.362 188.548)">
	<g id="Group_550">
		<g id="Group_549">
			<path id="Path_272" class="st2" d="M4.28,72.74c-0.05-0.05-0.05-0.05-0.22-0.11c-0.83-0.16-2.59-0.11-2.31,2.2
				c0.01,0.1,0.05,0.19,0.11,0.28l1.04,1.04l0.55,0.5L4,77.15l2.2,1.93c2.98,2.39,6.1,4.6,9.35,6.6c0.83,0.5,1.65,0.99,2.42,1.43
				l1.21,0.72l1.27,0.66l2.48,1.38l2.53,1.27c0.83,0.44,1.71,0.83,2.53,1.27c0.88,0.39,1.71,0.83,2.59,1.21
				c1.76,0.77,3.47,1.54,5.23,2.2c3.52,1.43,7.12,2.66,10.78,3.69c0.93,0.28,1.82,0.55,2.75,0.77l2.81,0.66
				c1.87,0.33,3.74,0.72,5.72,0.93c1.97,0.23,3.96,0.27,5.94,0.11c1-0.09,1.99-0.24,2.97-0.44c0.93-0.22,1.87-0.44,2.81-0.72
				c1.91-0.54,3.77-1.24,5.56-2.09c1.87-0.87,3.56-2.06,5.01-3.52l0.55-0.6l0.5-0.66c0.32-0.44,0.62-0.9,0.88-1.38
				c0.28-0.44,0.5-0.99,0.72-1.43l0.55-1.32l0.28-0.66l0.28-0.66l0.5-1.38c0.28-0.93,0.6-1.87,0.83-2.81
				c0.52-1.89,0.87-3.82,1.04-5.78c0.2-1.92,0.29-3.85,0.28-5.78c-0.05-3.85-0.39-7.59-0.6-11.28c-0.33-7.37-0.5-14.91-0.77-22.39
				s-0.72-15.02-1.38-22.45l-0.22-2.7l-0.16-1.65c0,0-0.22-1.27-0.55-3.03s-0.77-3.91-1.27-5.72C80.16-2.53,79.66,0,79.72,3.86
				c-0.05-0.22,0.05,2.09,0.16,4.46s0.16,4.73,0.16,4.73l0.16,1.65l0.44,4.84c0.6,7.32,0.99,14.58,1.21,21.9l0.33,11l0.16,5.5
				l0.11,2.75l0.16,2.81c0.28,3.69,0.55,7.32,0.5,10.84c-0.01,1.77-0.16,3.54-0.44,5.28c-0.11,0.88-0.33,1.71-0.5,2.59
				c-0.11,0.44-0.22,0.83-0.33,1.27c-0.1,0.43-0.23,0.85-0.39,1.27c-0.53,1.7-1.15,3.38-1.87,5.01c-0.16,0.39-0.33,0.72-0.5,1.1
				c-0.19,0.33-0.41,0.65-0.66,0.93c-0.1,0.16-0.21,0.3-0.33,0.44l-0.39,0.44c-0.28,0.28-0.6,0.55-0.88,0.83
				c-1.29,1.07-2.74,1.92-4.29,2.53c-1.6,0.69-3.26,1.24-4.95,1.65c-0.83,0.23-1.68,0.41-2.53,0.55c-0.84,0.15-1.68,0.24-2.53,0.28
				c-1.75,0.04-3.49-0.05-5.23-0.28c-3.56-0.5-7.07-1.27-10.51-2.31c-0.88-0.22-1.71-0.55-2.59-0.83s-1.71-0.55-2.59-0.88
				l-2.53-0.93l-2.53-0.99c-0.83-0.33-1.71-0.66-2.53-1.04l-2.48-1.1c-1.65-0.77-3.3-1.49-4.9-2.37c-3.25-1.6-6.38-3.41-9.46-5.28
				c-3.04-1.91-5.98-3.99-8.8-6.22l-2.09-1.82l-0.5-0.44l-0.5-0.5L4.28,72.74z"/>
		</g>
	</g>
</g>
<g id="Group_554" transform="translate(96.805 266.228)">
	<g id="Group_553">
		<g id="Group_552">
			<path id="Path_273" class="st2" d="M12.52,2.05c0-0.05,0.05-0.05,0-0.11c-0.39-1.08-1.34-1.86-2.48-2.04H9.88
				c-0.05,0.05-0.6,0.77-1.43,1.82C7.62,2.82,6.63,4.3,5.7,5.79c-0.93,1.54-1.76,3.08-2.37,4.29S2.4,12.06,2.4,12.06
				s-0.16,0.55-0.33,1.32c-0.19,0.85-0.3,1.72-0.33,2.59c-0.16,2.81,0.88,1.98,1.82,0.6c0.37-0.51,0.7-1.04,0.99-1.6
				c0.28-0.44,0.5-0.83,0.72-1.16c0.12-0.18,0.23-0.36,0.33-0.55c0,0,0.33-0.77,0.88-1.87s1.32-2.53,2.2-3.96s1.82-2.75,2.53-3.8
				C11.67,3.13,12.11,2.6,12.52,2.05z"/>
		</g>
	</g>
</g>
<g id="Group_557" transform="translate(131.66 284.111)">
	<g id="Group_556">
		<g id="Group_555">
			<path id="Path_274" class="st2" d="M8.37,0.61c0-0.05,0-0.05-0.05-0.11C7.37-0.12,6.2-0.28,5.12,0.06
				c-0.05,0-0.11,0.05-0.16,0.05c0,0.05-0.11,0.72-0.28,1.76s-0.5,2.37-0.83,3.69s-0.77,2.64-1.1,3.58c-0.33,0.99-0.6,1.6-0.6,1.6
				s-0.05,0.44-0.16,1.04c-0.13,0.69-0.21,1.39-0.22,2.09c-0.28,2.26,0.77,1.87,1.71,0.77c0.36-0.42,0.69-0.86,0.99-1.32
				c0.5-0.72,0.93-1.49,0.93-1.49s0.28-0.66,0.6-1.71c0.46-1.24,0.84-2.51,1.16-3.8c0.39-1.38,0.66-2.81,0.88-3.91
				C8.26,1.44,8.37,0.67,8.37,0.61z"/>
		</g>
	</g>
</g>
<g id="Group_560" transform="translate(177.922 277.526)">
	<g id="Group_559">
		<g id="Group_558">
			<path id="Path_275" class="st2" d="M4.97,0.6C4.91,0.49,4.91,0.49,4.8,0.43C4.69,0.37,4.58,0.29,4.47,0.21
				C4.33,0.13,4.18,0.06,4.03-0.01c-0.26-0.1-0.55-0.12-0.83-0.05C2.91,0.06,2.65,0.25,2.44,0.49l-0.33,0.5
				c-0.13,0.19-0.24,0.39-0.33,0.6c0,0.05-0.05,0.22-0.05,0.28C2.38,3.52,2.93,5.33,3.54,7.1c1.98,6.33,3.85,12.77,5.67,19.2
				l1.43,4.79c0.5,1.6,0.93,3.19,1.38,4.79l2.64,9.68c0.88,3.25,1.87,6.49,2.97,9.68l0.83,2.37l0.88,2.37l1.82,4.68l4.84,12.82
				c1.22,2.72,2.6,5.36,4.13,7.92c1.6,2.75,2.37,3.36,2.53,2.92s-0.28-1.93-0.83-3.8c0.11,0.16-0.6-1.98-1.32-4.24l-1.43-4.51
				l-5.01-13.37c-1.21-3.08-2.37-6.11-3.41-9.19s-1.98-6.16-2.81-9.35l-2.59-9.52c-0.44-1.6-0.88-3.19-1.38-4.79l-0.72-2.37
				l-0.72-2.37c-1.82-6.33-3.63-12.66-5.61-18.93C6.28,4.28,5.74,2.47,4.97,0.6z"/>
		</g>
	</g>
</g>
<g id="Group_561" transform="translate(109.862 290.376)">
	<path id="Path_276" class="st2" d="M40.29,52.18c-3.36,7.98-9.24,18.93-14.3,29.38l-2.26,5.06H1.72L7.39,3.59
		c0,0,28.01,11.33,44.29,3.58s12.1-7.26,12.1-7.26l-4.9,30.76c0,0-1.65,16.12-6.6,17.55S40.29,52.18,40.29,52.18z"/>
</g>
<g id="Group_564" transform="translate(115.502 190.84)">
	<g id="Group_563">
		<g id="Group_562">
			<path id="Path_277" class="st2" d="M40.81,1.34c0.01-0.08-0.01-0.16-0.05-0.22c-0.39-0.83-1.49-2.04-3.19-0.44
				C37.51,0.74,37.4,0.85,37.4,0.9c-0.28,1.87-0.5,3.74-0.77,5.56c-1.29,7.98-3.01,15.87-5.17,23.66
				c-2.15,7.81-4.68,15.52-7.48,23.05c-2.81,7.59-6.05,15.02-9.57,22.28c-0.88,1.82-1.82,3.63-2.75,5.39l-1.38,2.7l-1.49,2.64
				l-1.04,1.87c-0.28,0.5-0.55,0.99-0.83,1.43c0,0-0.55,1.16-1.38,2.7c-0.39,0.77-0.83,1.71-1.21,2.59
				c-0.44,0.88-0.88,1.82-1.27,2.64c-2.75,5.56-0.83,3.96,1.65,0.93c-0.05,0.11,0.28-0.33,0.83-0.99c0.31-0.39,0.61-0.79,0.88-1.21
				c0.33-0.44,0.66-0.93,0.99-1.43c0.66-0.99,1.38-1.98,1.87-2.7c0.5-0.77,0.83-1.27,0.83-1.27l2.37-4.24
				c0.99-1.76,1.87-3.58,2.81-5.34c0.44-0.88,0.93-1.76,1.38-2.7l1.32-2.7c3.47-7.26,6.66-14.69,9.46-22.23s5.28-15.24,7.37-23
				c2.14-7.77,3.87-15.65,5.17-23.6C40.32,5.08,40.54,3.21,40.81,1.34z"/>
		</g>
	</g>
</g>
<g id="Group_567" transform="translate(64.734 207.178)">
	<g id="Group_566">
		<g id="Group_565">
			<path id="Path_278" class="st2" d="M37.11,1.73c0.05-0.05,0.05-0.11,0-0.22c-0.16-0.88-0.93-2.31-2.97-1.21
				c-0.05,0-0.16,0.11-0.22,0.16c-0.33,0.83-0.66,1.71-1.04,2.53l-1.16,2.53c-3.76,7.36-8.04,14.44-12.82,21.19l-7.04,10.34
				c-1.16,1.71-2.31,3.47-3.47,5.23l-1.87,2.97c0,0-0.16,0.28-0.44,0.77c-0.22,0.5-0.6,1.21-0.99,1.98
				c-0.83,1.6-1.71,3.69-2.37,5.39c-2.2,5.89-0.39,3.96,1.71,0.77c-0.05,0.16,1.21-1.71,2.48-3.63c0.66-0.93,1.32-1.93,1.82-2.64
				s0.88-1.21,0.88-1.21l0.88-1.38l0.44-0.66l0.28-0.44l0.44-0.66c1.1-1.71,2.26-3.41,3.41-5.12l6.93-10.18
				c4.79-6.77,9.07-13.89,12.82-21.29l1.21-2.64C36.42,3.47,36.79,2.61,37.11,1.73z"/>
		</g>
	</g>
</g>
<g id="Group_568" transform="translate(146.395 267.934)">
	<path id="Path_279" class="st2" d="M25.49,100.09c-7.54-9.02-14.85-19.59-23.77-27.34v-7.26c0,0,12.66-3.14,15.63-11
		c2.92-7.87,7.1-35.32,7.1-35.32S33.47,6.23,34.85-0.1l11.66,45.01L25.49,100.09z"/>
</g>
<g id="Group_571" transform="translate(240.865 219.611)">
	<g id="Group_570">
		<g id="Group_569">
			<path id="Path_280" class="st2" d="M5.35,40.14c0-0.05-0.05-0.11-0.11-0.16c-0.4-0.35-0.9-0.57-1.43-0.6
				c-0.55,0-1.21,0.28-1.65,1.43c0,0.05-0.05,0.22-0.05,0.33c0.56,1.92,1.3,3.78,2.2,5.56c2.71,5.1,6.07,9.81,10.01,14.03
				c3.83,4.2,7.89,8.18,12.16,11.94c2.09,1.87,4.24,3.69,6.44,5.5l3.25,2.7L38.69,83l0.83,0.66c0,0,0.05,0.05,0.05,0l0.05-0.05
				l0.05-0.11l0.17-0.22l0.33-0.44l1.32-1.65l1.43-1.82l1.21-1.65c0.83-1.1,1.71-2.26,2.53-3.41c1.71-2.26,3.3-4.57,4.9-6.93
				c3.19-4.68,6.22-9.41,9.13-14.3c1.43-2.42,2.86-4.9,4.18-7.37l0.99-1.87l1.04-1.98l0.99-1.87c0-0.05,0.05-0.05,0.05-0.11
				l-0.11-0.11l-0.16-0.22l-0.33-0.39l-0.72-0.77l-1.6-1.71c-7.65-8.25-15.52-16.34-23.99-23.88c-2.31-2.04-4.68-4.07-7.1-6
				c-1.21-0.93-2.42-1.93-3.69-2.86L28.4,2.56l-2.09-1.49l-0.93-0.66l-0.44-0.33l-0.11-0.11c-0.05,0-0.05-0.11-0.11-0.05l-0.22,0.16
				l-1.82,1.38l-0.93,0.77l-0.93,0.83c-1.18,1.09-2.29,2.27-3.3,3.52c-1.98,2.46-3.76,5.08-5.34,7.81c-0.77,1.32-1.54,2.7-2.31,4.07
				l-2.2,4.07l-1.1,2.04l-0.39,0.77L5.9,25.88c-0.39,0.72-0.71,1.43-1.05,2.15c0,0-0.5,1.21-1.1,2.92c-0.66,1.87-1.19,3.78-1.6,5.72
				c-0.25,1.05-0.4,2.12-0.44,3.19c0,0.6,0.11,0.83,0.33,0.72c0.44-0.22,1.1-1.65,1.93-3.36c-0.05,0.22,0.88-1.87,1.93-3.96
				c0.5-1.04,1.05-2.04,1.49-2.81s0.71-1.27,0.71-1.27l0.99-1.98l0.55-1.1c0.66-1.27,1.38-2.53,2.09-3.85l2.09-3.85
				c0.71-1.27,1.43-2.53,2.15-3.74c1.46-2.42,3.12-4.72,4.95-6.88c0.92-1.03,1.89-2,2.92-2.92l0.88-0.72l0.5,0.33
				c4.71,3.38,9.22,7.02,13.54,10.89c8.36,7.37,16.12,15.41,23.77,23.6l1.27,1.38l0,0l-0.93,1.76l-0.99,1.82
				c-1.32,2.42-2.7,4.84-4.13,7.26c-2.86,4.79-5.83,9.52-8.97,14.09c-1.6,2.31-3.19,4.57-4.84,6.82c-0.83,1.1-1.65,2.26-2.53,3.36
				l-1.27,1.65l-1.15,1.48l0,0l-0.66-0.55l-3.25-2.7c-2.15-1.82-4.29-3.63-6.33-5.45c-4.19-3.65-8.16-7.54-11.88-11.66
				c-3.72-4-6.91-8.46-9.52-13.26C6.5,43.44,5.83,41.82,5.35,40.14z"/>
		</g>
	</g>
</g>
<g id="Group_574" transform="translate(262.016 258.306)">
	<g id="Group_573">
		<g id="Group_572">
			<path id="Path_281" class="st3" d="M43.62,3.31c0.05,0,0.11,0,0.22-0.11c0.72-0.5,1.76-1.82-0.11-3.19
				c-0.05,0-0.22-0.11-0.28-0.11c-1.93,0.05-3.8,0.22-5.72,0.33c-6.82,0.5-13.59,1.32-20.3,1.43c-1.05,0-2.09,0.05-3.08,0
				c0,0-0.33,0-0.88,0.05s-1.27,0.05-2.15,0.11S9.46,1.88,8.47,1.88c-0.99,0.05-1.98,0-2.92,0.05H3.63c-0.5,0-0.93,0.05-1.21,0.05
				C1.81,2.1,1.65,2.21,1.76,2.43C2.1,2.75,2.51,2.98,2.97,3.09c0.8,0.33,1.63,0.57,2.48,0.72c0.42,0.12,0.84,0.21,1.27,0.28
				c0.83,0.16,2.04,0.33,3.19,0.5c1.21,0.11,2.37,0.28,3.3,0.33s1.54,0.11,1.54,0.11h2.75c6.93-0.11,13.76-0.93,20.52-1.43
				C39.88,3.53,41.75,3.37,43.62,3.31z"/>
		</g>
	</g>
</g>
<g id="Group_577" transform="translate(260.397 221.222)">
	<g id="Group_576">
		<g id="Group_575">
			<path id="Path_282" class="st3" d="M8.43,1.17C8.4,0.93,8.28,0.71,8.1,0.56C7.71,0.13,7.15-0.11,6.56-0.1
				C6.18-0.12,5.81,0.05,5.57,0.34c-0.14,0.18-0.14,0.43,0,0.6c0.11,0.1,0.24,0.18,0.39,0.22C6.02,1.21,6.1,1.23,6.18,1.22
				c0.05,0,0.05,0.05,0.11,0.05c-0.03,0-0.05-0.02-0.05-0.05c0,0,0,0,0,0c0-0.05-0.05,0-0.05-0.05l0,0v0.16
				c0,0.11-0.11,0.22-0.16,0.33S5.85,1.83,5.9,1.77c0.05-0.03,0.11-0.05,0.16-0.05h0.22c1.04,0.22-1.43-0.33-1.16-0.28l0,0V1.5
				L5.08,1.83L4.91,2.54L4.58,3.97C4.42,4.91,4.2,5.84,4.03,6.78C2.99,12.36,2.27,18,1.89,23.67c-0.05,1.04-0.11,2.15-0.16,3.19
				v0.88c0,0.55,0.05,1.32,0.11,2.2c0.11,1.76,0.33,4.02,0.6,5.83c0.44,3.08,0.88,4.02,1.21,3.69s0.55-1.93,0.72-3.85
				c0.05,0.22,0.16-2.09,0.33-4.4s0.44-4.68,0.44-4.68c0.05-0.88,0.11-1.76,0.16-2.7c0.36-5.54,1.06-11.05,2.09-16.51
				c0.16-0.93,0.39-1.82,0.55-2.75L8.21,3.2l0.16-0.66l0.05-0.33V2.1c0-0.11,0.05-0.22,0.05-0.39C8.52,1.53,8.5,1.34,8.43,1.17z"/>
		</g>
	</g>
</g>
<g id="Group_580" transform="translate(273.217 260.726)">
	<g id="Group_579">
		<g id="Group_578">
			<path id="Path_283" class="st3" d="M4.69,0.56C4.63,0.44,4.54,0.35,4.42,0.29C4.14,0.06,3.79-0.08,3.43-0.1
				C3.11-0.11,2.8-0.01,2.55,0.18C2.11,0.56,2.27,1.39,1.78,2.05C1.75,2.1,1.73,2.15,1.72,2.21C1.85,2.47,1.94,2.75,2,3.04
				c0.05,0.16,0.05,0.39,0.11,0.6l0.11,0.72l0.33,2.81l1.76,14.74l0.39,3.14c0,0,0.99,5.12,1.93,8.69c1.43,6.05,1.93,3.52,1.87-0.33
				c0.11,0.39-0.44-9.19-0.44-9.19l-0.33-2.7L5.96,6.72L5.63,3.91L5.52,3.2C5.46,2.92,5.46,2.65,5.41,2.37
				C5.19,1.83,5.02,1.22,4.69,0.56z"/>
		</g>
	</g>
</g>
<g id="Group_583" transform="translate(244.76 249.423)">
	<g id="Group_582">
		<g id="Group_581">
			<path id="Path_284" class="st3" d="M20,3.34c0.05,0,0.05,0,0.11-0.05c0.6-0.97,0.64-2.18,0.11-3.19
				c-0.03-0.06-0.07-0.11-0.11-0.16c-0.05,0-0.93-0.05-2.26,0c-1.32,0-3.03,0.11-4.73,0.28S9.71,0.64,8.44,0.86S6.35,1.3,6.35,1.3
				S5.8,1.52,5.14,1.85c-0.77,0.36-1.5,0.78-2.2,1.27C0.69,4.6,1.95,4.99,3.55,4.93c0.61-0.01,1.22-0.07,1.82-0.16
				c0.44-0.06,0.88-0.1,1.32-0.11c0.2,0,0.41-0.01,0.6-0.05c0,0,0.77-0.16,1.93-0.39s2.75-0.44,4.29-0.6
				c1.6-0.16,3.19-0.22,4.35-0.28C19.17,3.28,20,3.34,20,3.34z"/>
		</g>
	</g>
</g>
<g id="Group_586" transform="translate(29.379 302.533)">
	<g id="Group_585">
		<g id="Group_584">
			<path id="Path_285" class="st3" d="M63.77,43.16c0.05,0.05,0.11,0.05,0.22,0.05c0.88-0.05,2.42-0.66,1.54-2.81
				c-0.03-0.1-0.09-0.2-0.16-0.28c-1.65-0.88-3.36-1.76-4.95-2.7c-8.91-4.9-17.66-10.12-26.14-15.74
				c-4.24-2.81-8.42-5.72-12.54-8.69c-2.04-1.48-4.13-2.97-6.16-4.51l-1.48-1.16l-1.32-0.99c0,0-1.1-0.72-2.59-1.65
				C8.7,3.7,6.83,2.55,5.28,1.61C0-1.74,1.43,0.4,4.18,3.15C4.02,3.04,5.67,4.64,7.43,6.18c0.88,0.77,1.76,1.6,2.48,2.15
				c0.66,0.6,1.16,0.99,1.16,0.99l1.32,0.99l1.93,1.43c2.04,1.54,4.07,3.03,6.11,4.51c4.13,2.97,8.25,5.78,12.49,8.58
				s8.47,5.45,12.82,8.09c4.35,2.59,8.69,5.12,13.15,7.54C60.41,41.39,62.12,42.28,63.77,43.16z"/>
		</g>
	</g>
</g>
<g id="Group_589" transform="translate(56.1 304.215)">
	<g id="Group_588">
		<g id="Group_587">
			<path id="Path_286" class="st3" d="M11.63,1.47c-0.1-0.07-0.21-0.11-0.33-0.11c-0.34,0-0.67,0.06-0.99,0.16
				c-0.27,0.15-0.48,0.38-0.6,0.66C9.49,2.74,9.87,3.4,9.93,4.28c0,0.05,0,0.16,0.05,0.16c0.39,0.25,0.67,0.65,0.77,1.1
				c0.1,0.47-0.02,0.95-0.33,1.32c-0.64,0.91-1.79,1.3-2.86,0.99C6.84,7.69,6.17,7.33,5.63,6.81C5.49,6.7,5.36,6.57,5.25,6.43
				C4.98,6.14,4.8,5.77,4.75,5.38C4.74,5.12,4.78,4.86,4.86,4.61C5.01,4.28,5.2,3.97,5.41,3.68c0.56-0.65,1.21-1.23,1.93-1.71
				c0.8-0.5,1.7-0.8,2.64-0.88c0.55,0,0.77-0.11,0.72-0.33c-0.32-0.42-0.79-0.7-1.32-0.77C8.39-0.18,7.39-0.09,6.46,0.27
				C5.98,0.39,5.54,0.6,5.13,0.87C4.65,1.14,4.19,1.45,3.76,1.81C3.2,2.28,2.72,2.84,2.33,3.46C1.91,4.21,1.7,5.07,1.72,5.93
				c0.04,0.74,0.27,1.46,0.66,2.09c0.24,0.44,0.54,0.84,0.88,1.21C3.37,9.38,3.5,9.51,3.65,9.62c0.91,0.75,1.99,1.28,3.14,1.54
				c1.15,0.27,2.35,0.22,3.47-0.16c1.17-0.4,2.19-1.15,2.92-2.15c0.85-1.16,1.17-2.61,0.88-4.02C13.77,3.42,12.89,2.19,11.63,1.47z"
				/>
		</g>
	</g>
</g>
<g id="Group_592" transform="translate(136.331 126.59)">
	<g id="Group_591">
		<g id="Group_590">
			<path id="Path_287" class="st2" d="M2.32,1.44C2.21,1.49,2.21,1.49,2.16,1.6c-0.35,0.43-0.49,1-0.39,1.54
				c0.11,0.55,0.66,1.05,1.71,1.38c0.05,0,0.22,0.05,0.28,0C5.32,3.84,7,3.43,8.7,3.31c3.77-0.33,7.53,0.8,10.51,3.14
				c1.47,1.29,2.78,2.75,3.91,4.35c1.21,1.61,2.32,3.3,3.3,5.06c0.5,0.88,0.99,1.82,1.43,2.7c0,0,0.66,1.1,1.43,2.59
				c0.83,1.68,1.57,3.41,2.2,5.17c0.44,1.43,0.66,2.42,0.83,2.97s0.33,0.71,0.55,0.61c0.26-0.42,0.41-0.89,0.44-1.38
				c0.1-0.88,0.12-1.76,0.05-2.64c-0.1-1.55-0.39-3.09-0.88-4.57c-0.33-1.15-0.77-2.31-1.1-3.19s-0.55-1.43-0.55-1.43
				c-0.44-0.83-0.83-1.65-1.32-2.48c-1.07-1.88-2.25-3.7-3.52-5.45c-0.66-0.88-1.32-1.71-2.04-2.53c-0.39-0.39-0.72-0.83-1.16-1.21
				l-0.6-0.61c-0.21-0.2-0.43-0.38-0.66-0.55c-1.82-1.44-3.89-2.52-6.11-3.19c-2.21-0.65-4.52-0.89-6.82-0.71
				C6.43,0.06,4.3,0.56,2.32,1.44z"/>
		</g>
	</g>
</g>
<g id="Group_595" transform="translate(175.986 215.83)">
	<g id="Group_594">
		<g id="Group_593">
			<path id="Path_288" class="st2" d="M3.82-0.04C3.77-0.1,3.71-0.1,3.6-0.1C2.72-0.04,1.13,0.45,1.95,2.65
				c0.03,0.1,0.09,0.2,0.16,0.28l4.9,2.86c9.3,5.56,18.65,11.06,28.39,15.9c4.89,2.47,9.93,4.66,15.08,6.55
				c1.32,0.44,2.64,0.83,3.96,1.27c0.66,0.16,1.38,0.33,2.04,0.5s1.32,0.39,2.04,0.5l1.98,0.33l0.88,0.11h0.83
				c0.11,0,0.28-0.05,0.39-0.05l0.33-0.11c0.36-0.14,0.71-0.31,1.04-0.5c0.69-0.4,1.35-0.84,1.98-1.32c1.43-1.1,3.14-2.48,4.57-3.52
				c0.78-0.58,1.65-1.03,2.59-1.32c0.5-0.11,0.77-0.16,0.66-0.39c-0.39-0.39-0.93-0.59-1.49-0.55c-0.93,0.03-1.85,0.23-2.7,0.6
				c0.11-0.05-0.44,0.16-1.21,0.5c-0.77,0.39-1.82,0.93-2.86,1.54c-1.04,0.55-2.04,1.1-2.75,1.43c-0.22,0.12-0.46,0.2-0.72,0.22
				h-0.05l-1.21-0.22L60,27.15l-0.6-0.11c-0.32-0.05-0.63-0.12-0.93-0.22c-2.52-0.58-5-1.32-7.43-2.2
				c-4.93-1.82-9.74-3.94-14.41-6.33C27.2,13.56,18.07,8.17,8.94,2.72L3.82-0.04z"/>
		</g>
	</g>
</g>
<g id="Group_598" transform="translate(180.478 249.832)">
	<g id="Group_597">
		<g id="Group_596">
			<path id="Path_289" class="st2" d="M3.29-0.1c-0.08,0-0.15,0.02-0.22,0.05C2.25,0.29,0.92,1.28,2.36,3.09
				c0,0.05,0.16,0.16,0.22,0.16c1.87,0.39,3.74,0.77,5.61,1.1c9.12,1.66,18.32,2.85,27.57,3.58C40.37,8.26,45,8.48,49.67,8.48h1.27
				l0.05,0.05l0.11,0.05l0.22,0.22l0.22,0.22c0.66,0.72,1.38,1.65,2.09,2.53l1.16,1.49l1.04,1.32c0.71,0.77,1.46,1.51,2.26,2.2
				c1.5,1.37,3.18,2.52,5.01,3.41c0.98,0.51,2.04,0.85,3.14,0.99c0.6,0.05,0.83-0.11,0.72-0.28c-0.22-0.44-1.54-1.16-2.92-2.31
				c0.11,0.05-0.33-0.28-0.88-0.77c-0.76-0.67-1.47-1.39-2.15-2.15c-0.77-0.83-1.43-1.71-1.98-2.42c-0.27-0.4-0.57-0.79-0.88-1.16
				l-0.99-1.27l-1.38-1.76c-0.33-0.44-0.72-0.93-1.1-1.38c-0.43-0.5-0.89-0.98-1.38-1.43c-0.16-0.14-0.32-0.27-0.5-0.39
				c-0.22-0.11-0.5-0.28-0.77-0.39c-0.12-0.06-0.25-0.1-0.39-0.11l-0.44-0.05h-2.26c-4.46,0-8.97-0.28-13.42-0.6
				C26.56,3.81,17.63,2.64,8.79,1C6.92,0.67,5.11,0.29,3.29-0.1z"/>
		</g>
	</g>
</g>
<g id="Group_601" transform="translate(125.2 150.136)">
	<g id="Group_600">
		<g id="Group_599">
			<path id="Path_290" class="st2" d="M3.27-0.04c-0.08,0-0.15,0.02-0.22,0.05C2.23,0.34,0.91,1.33,2.39,3.15
				c0,0.05,0.17,0.17,0.22,0.17l3.8,0.71l2.97,0.55c6.55,1.21,13.15,2.26,19.75,3.19C42.34,9.64,55.6,11,68.92,11.84
				c1.65,0.11,3.3,0.22,5.01,0.27c1.65,0.11,3.36,0.17,5.01,0.22l1.27,0.05l0.61,0.05h0.77c0.1,0,0.2-0.04,0.27-0.11l1.32-0.5
				c0.37-0.16,0.76-0.27,1.15-0.33l2.31-0.61c0.77-0.24,1.56-0.43,2.37-0.55c6.42-1.28,12.94-1.98,19.48-2.09
				c7.21-0.17,14.47,0.11,21.73,0.55c7.26,0.5,14.47,1.21,21.79,1.87c0.93,0.11,1.82,0.17,2.75,0.22l1.38,0.11l1.43,0.05h1.21
				c0.23,0.02,0.45-0.02,0.66-0.11l1.38-0.5l2.59-0.88c3.47-1.15,6.88-2.37,10.34-3.47c3.41-1.07,6.89-1.96,10.4-2.64l0.66-0.11
				l0.33-0.05h0.16c0.4-0.03,0.81-0.03,1.21,0c0.83,0.04,1.66,0.13,2.48,0.27c1.7,0.34,3.37,0.8,5.01,1.38
				c1.65,0.61,3.36,1.27,5.06,1.98l2.53,0.99l0.66,0.27c0.18,0.08,0.36,0.13,0.55,0.17l0.5,0.05l1.32,0.22
				c0.88,0.17,1.71,0.33,2.53,0.55c0.4,0.1,0.78,0.22,1.16,0.39l0.28,0.11l0.11,0.05l0,0l-0.11,0.11c-0.12,0.09-0.25,0.16-0.39,0.22
				c-0.31,0.17-0.64,0.3-0.99,0.39c-1.6,0.4-3.25,0.55-4.9,0.44c-1.72-0.05-3.44-0.27-5.12-0.66l-0.33-0.05h-0.05l-0.16-0.05
				l-0.33-0.11c-0.46-0.1-0.9-0.24-1.32-0.44l-0.72-0.27l-0.77-0.33l-1.54-0.71l-1.54-0.71l-0.16-0.11c-0.05-0.05-0.05,0,0,0
				l0.05,0.05l0.11,0.33l0.28,0.66l1.04,2.7l0.5,1.32c0.16,0.44,0.33,0.88,0.44,1.27l0.16,0.55l0.05,0.27l0.05,0.17
				c0.05,0.22,0.11,0.44,0.16,0.61c0.22,0.81,0.39,1.64,0.5,2.48c0.23,1.64,0.21,3.31-0.05,4.95c-0.28,1.58-0.86,3.09-1.71,4.46
				l-0.11,0.22c0,0.05-0.05,0.05-0.05,0.11l-0.11,0.17c-0.11,0.11-0.16,0.27-0.28,0.39c-0.37,0.47-0.79,0.9-1.27,1.27l-0.11,0.11
				c-0.1,0.14-0.24,0.25-0.39,0.33c-0.5,0.46-1.08,0.83-1.71,1.1c-0.71,0.36-1.47,0.6-2.26,0.72c-0.84,0.16-1.69,0.17-2.53,0.05
				c-0.97-0.17-1.91-0.47-2.81-0.88c-0.55-0.22-0.77-0.22-0.77,0c0.14,0.48,0.4,0.92,0.77,1.27c0.69,0.66,1.52,1.17,2.42,1.49
				c0.58,0.29,1.22,0.46,1.87,0.5c1.46,0.19,2.94,0.06,4.35-0.39c0.93-0.25,1.8-0.66,2.59-1.21c0.72-0.5,1.16-0.83,1.16-0.83
				c0.58-0.55,1.11-1.13,1.6-1.76l0.33-0.5l0.05-0.11l0.16-0.22c0.05-0.11,0.16-0.22,0.22-0.33l0.39-0.66
				c0.47-0.87,0.84-1.8,1.1-2.75c0.54-1.89,0.77-3.86,0.66-5.83c-0.09-1.9-0.4-3.79-0.93-5.61l-0.11-0.33l0.99,0.22
				c0.93,0.17,1.87,0.33,2.81,0.44c1.88,0.23,3.78,0.27,5.67,0.11c1.01-0.1,2.01-0.3,2.97-0.61c0.53-0.17,1.05-0.39,1.54-0.66
				c0.28-0.17,0.5-0.33,0.77-0.5c0.33-0.27,0.63-0.59,0.88-0.93c0.24-0.34,0.45-0.71,0.6-1.1c0.05-0.22,0.16-0.39,0.22-0.61
				c0-0.22,0.05-0.39,0.05-0.61c-0.07-0.81-0.52-1.55-1.21-1.98c-0.36-0.26-0.75-0.49-1.16-0.66l-0.28-0.11l-0.16-0.05l-0.39-0.11
				c-0.5-0.17-0.93-0.27-1.38-0.44c-0.93-0.22-1.82-0.44-2.75-0.61l-1.38-0.22l-0.28-0.05l0,0l-0.6-0.22
				c-3.3-1.27-6.55-2.75-10.07-3.8c-1.82-0.6-3.7-0.97-5.61-1.1c-0.49-0.05-0.99-0.06-1.48-0.05c-0.26-0.01-0.52,0.01-0.77,0.05
				c-0.16,0-0.44,0.05-0.5,0.05l-0.33,0.05c-0.88,0.17-1.76,0.33-2.64,0.55c-3.52,0.77-7.04,1.76-10.45,2.86s-6.77,2.26-10.12,3.41
				l-2.42,0.83l-2.09-0.05c-1.76-0.11-3.52-0.22-5.28-0.39c-14.09-1.32-28.39-2.7-42.7-2.37C101.77,4.98,95.03,5.7,88.4,7.04
				c-0.84,0.15-1.66,0.35-2.48,0.61L83.45,8.3c-0.41,0.1-0.82,0.22-1.21,0.39l-0.99,0.39l-2.04-0.11c-1.65-0.05-3.3-0.17-4.95-0.22
				c-1.65-0.11-3.3-0.17-4.95-0.27c-13.2-0.83-26.41-2.2-39.5-4.07c-6.55-0.93-13.09-1.98-19.64-3.14L7.19,0.71L3.27-0.04z"/>
		</g>
	</g>
</g>
<g id="Group_604" transform="translate(122.849 170.823)">
	<g id="Group_603">
		<g id="Group_602">
			<path id="Path_291" class="st2" d="M3.15,16.85c-0.08,0-0.15,0.02-0.22,0.05c-0.77,0.39-2.04,1.49-0.44,3.19
				c0.07,0.09,0.17,0.14,0.27,0.16l2.86,0.33l1.43,0.16l1.43,0.11c8.64,0.72,17.32,0.76,25.97,0.11c8.64-0.6,17.17-1.82,25.64-3.08
				c4.24-0.6,8.53-1.27,12.66-1.71l6.38-0.33l3.19-0.16l0.72-0.05l0.66,0.05l1.6,0.11c8.53,0.66,17.11,1.32,25.64,1.98
				c8.53,0.6,17,1.21,25.53,1.65c4.29,0.22,8.53,0.39,12.82,0.44h2.97c0.52-0.01,1.03-0.04,1.54-0.11c0.85,0.01,1.68-0.2,2.42-0.6
				c0.23-0.12,0.43-0.32,0.55-0.55l0.16-0.33l0.11-0.22c0-0.03,0.02-0.05,0.05-0.05c0,0,0,0,0,0l0,0v-0.05
				c0.04-0.15,0.09-0.3,0.16-0.44l0.11-0.33l0.05-0.22l0.05-0.11c-0.05-0.07-0.13-0.11-0.22-0.11c-0.55-0.39-1.1-0.72-1.6-1.04
				c-0.47-0.3-0.92-0.65-1.32-1.04c-0.22-0.16-0.39-0.33-0.6-0.5l-0.44-0.39l-0.55-0.55c-0.38-0.34-0.73-0.71-1.04-1.1
				c-1.37-1.5-2.62-3.1-3.74-4.79l-0.39-0.6l-0.16-0.33l-0.16-0.22l0,0l0.72-0.16c4.13-0.83,8.31-1.38,12.54-2.15l0.77-0.16l0,0
				l1.32,0.5l2.97,1.16c1.98,0.77,4.02,1.6,6.11,2.2c1.07,0.33,2.15,0.61,3.25,0.83l0.55,0.11c0.27,0.06,0.55,0.1,0.83,0.11
				c0.36,0.06,0.73,0.1,1.1,0.11l1.1,0.05h0.66c0.33,0,0.83-0.05,1.43-0.11c0.6-0.11,1.38-0.16,2.15-0.33
				c0.39-0.05,0.83-0.16,1.21-0.22c0.39-0.11,0.83-0.22,1.21-0.33l1.16-0.33c0.34-0.1,0.69-0.17,1.04-0.22
				c0.55-0.07,1.11-0.05,1.65,0.05c0.31,0.08,0.59,0.23,0.83,0.44c0.33,0.39,0.5,0.6,0.66,0.39c0.11-0.18,0.15-0.4,0.11-0.6
				c-0.02-0.4-0.2-0.78-0.5-1.04c-0.77-0.7-1.76-1.13-2.81-1.21c-0.29-0.05-0.59-0.07-0.88-0.05c-0.33,0-0.72,0.05-1.1,0.05
				c-0.39,0.05-0.77,0.05-1.21,0.11c-1.61,0.12-3.23,0.1-4.84-0.05c-0.24,0-0.48-0.03-0.72-0.11c-0.09,0-0.19-0.02-0.28-0.05
				c-0.5-0.03-0.99-0.08-1.49-0.16c-0.22-0.05-0.5-0.05-0.72-0.11l-0.5-0.11c-0.98-0.19-1.96-0.42-2.92-0.72
				c-1.93-0.6-3.91-1.38-5.89-2.15l-2.97-1.16l-1.65-0.6l-0.39-0.16L161.6-0.1h-0.22l-0.77,0.11l-0.77,0.11
				c-4.13,0.72-8.42,1.27-12.66,2.15l-0.88,0.16l-1.54,0.33c-0.05,0-0.11,0.05-0.16,0.05l-0.11,0.11l-0.28,0.16l-0.5,0.33
				c-0.1,0.04-0.18,0.12-0.22,0.22c-0.04,0.1-0.1,0.19-0.16,0.28c-0.05,0.22-0.11,0.39-0.16,0.6c0.02,0.98,0.33,1.94,0.88,2.75
				l0.28,0.44l0.22,0.39l0.44,0.72c1.22,1.88,2.6,3.65,4.13,5.28c0.39,0.39,0.77,0.83,1.16,1.21l0.6,0.6l0.28,0.55h-1.87
				c-4.18-0.05-8.47-0.22-12.71-0.44c-8.47-0.44-17-1.04-25.47-1.65c-8.53-0.6-17.11-1.27-25.64-1.98l-1.6-0.11l-0.39-0.05h-0.6
				l-0.88,0.05l-3.25,0.16l-6.44,0.33c-4.4,0.5-8.58,1.1-12.88,1.76C50.94,15.8,42.53,17.01,34,17.56
				c-8.46,0.62-16.96,0.59-25.42-0.11L7.2,17.34l-1.38-0.16L3.15,16.85z"/>
		</g>
	</g>
</g>
<g id="Group_607" transform="translate(151.55 289.161)">
	<g id="Group_606">
		<g id="Group_605">
			<path id="Path_292" class="st3" d="M18.3,1.4c0.01-0.08-0.01-0.16-0.05-0.22c-0.39-0.83-1.43-2.09-3.14-0.55
				c-0.05,0.05-0.16,0.16-0.16,0.22l-0.88,5.61c-1.65,10.29-3.41,20.58-5.5,30.76L7.9,40.3c0,0-0.05,0.33-0.11,0.83
				s-0.22,1.21-0.39,1.98c-0.16,0.81-0.46,1.6-0.88,2.31c-0.41,0.72-0.98,1.34-1.65,1.82C3.72,48,2.73,48.38,2.24,48.71
				s-0.6,0.5-0.44,0.66c0.46,0.14,0.95,0.18,1.43,0.11c0.91-0.05,1.8-0.25,2.64-0.6c0.48-0.15,0.93-0.39,1.32-0.72
				c0.48-0.36,0.92-0.76,1.32-1.21c0.45-0.49,0.82-1.05,1.1-1.65c0.56-1.05,1-2.16,1.32-3.3c0.28-0.88,0.44-1.49,0.44-1.49l0.55-2.7
				c2.15-10.29,3.91-20.58,5.56-30.92L18.3,1.4z"/>
		</g>
	</g>
</g>
<path id="Path_293" class="st2" d="M173.92,369.9c0,0,27.18,0.05,31.75-15.24l-14.64-38.4L173.92,369.9z"/>
<g id="Group_610" transform="translate(263.188 158.274)">
	<g id="Group_609">
		<g id="Group_608">
			<path id="Path_294" class="st2" d="M6.03,1.5c0-0.08-0.02-0.15-0.05-0.22C5.8,0.79,5.47,0.36,5.04,0.07
				C4.54-0.2,3.83-0.2,2.89,0.51c-0.05,0-0.16,0.17-0.22,0.22c-0.46,1.93-0.75,3.9-0.88,5.89c-0.19,2.72-0.02,5.46,0.5,8.14
				c0.28,1.35,0.66,2.67,1.16,3.96c0.5,1.27,1.04,2.48,1.65,3.69c0.61,1.24,1.33,2.41,2.15,3.52c0.44,0.55,0.88,1.1,1.37,1.65
				L9,27.97l0.33,0.33c0.22,0.19,0.42,0.39,0.6,0.6c0.49,0.54,1.03,1.03,1.6,1.49c0.63,0.52,1.36,0.91,2.15,1.16l1.16,0.33
				c0.11,0,0.16,0.05,0.33,0.05l0.44,0.05h0.44c0.16-0.05,0.33,0,0.44-0.11c0.32-0.07,0.61-0.2,0.88-0.39
				c0.11-0.11,0.28-0.16,0.39-0.28l0.28-0.22c0.32-0.25,0.59-0.55,0.83-0.88c0.42-0.5,0.78-1.03,1.1-1.6
				c0.34-0.63,0.57-1.32,0.66-2.04v-0.99c-0.05-0.55-0.05-1.32-0.11-2.26c-0.05-0.88-0.11-1.93-0.22-2.92
				c-0.11-1.02-0.28-2.03-0.5-3.03c-0.21-1.11-0.7-2.16-1.43-3.03c-0.44-0.44-0.66-0.44-0.72-0.22c0,0.44,0.03,0.88,0.11,1.32
				c0.12,0.76,0.18,1.54,0.16,2.31c-0.05,0.4-0.07,0.81-0.05,1.21c0,0.77-0.11,1.93-0.22,3.08s-0.22,2.31-0.28,3.19
				c0,0.22-0.05,0.44-0.05,0.6c0,0.22-0.05,0.22-0.05,0.33c-0.03,0.07-0.05,0.14-0.05,0.22c-0.19,0.63-0.51,1.21-0.93,1.71
				c-0.15,0.18-0.32,0.35-0.5,0.5l-0.11,0.11H15.6l-0.16-0.05l-0.66-0.16c-0.95-0.38-1.79-1.01-2.42-1.82
				c-0.22-0.25-0.46-0.49-0.72-0.72l-0.39-0.33c-0.11-0.11-0.22-0.16-0.28-0.28c-0.4-0.4-0.76-0.82-1.1-1.27
				c-0.71-0.95-1.33-1.97-1.87-3.03c-0.55-1.09-1.05-2.21-1.49-3.36c-0.44-1.1-0.77-2.24-0.99-3.41C5.05,11.84,4.91,9.42,5.09,7
				C5.37,5.02,5.64,3.26,6.03,1.5z"/>
		</g>
	</g>
</g>
<path id="Path_295" class="st2" d="M281.76,173.25l-12.49,2.42c0,0,4.79,12.6,11.22,12.1C286.99,187.34,281.76,173.25,281.76,173.25
	z"/>
<path id="Path_296" class="st2" d="M55.13,71.19c0,0,24.92-47.92,30.65-56.67c5.78-8.75,14.97-10.45,16.07-5.56
	c1.04,4.9,1.38,20.52,17.88,20.85c7.37,0.16,14.36,0.82,18.32,2.53c1.85,0.79,2.71,2.94,1.92,4.79c-0.32,0.75-0.88,1.36-1.59,1.76
	c-16.07,9.02-62.5,38.18-65.03,40.33c-3.08,2.64-10.45,5.83-13.7,4.46C56.4,82.25,53.04,76.97,55.13,71.19z"/>
<g id="Group_613" transform="translate(74.798 24.97)">
	<g id="Group_612">
		<g id="Group_611">
			<path id="Path_297" class="st3" d="M44.38,2.1c0.05-0.05,0.05-0.11,0.05-0.22c0.05-0.93-0.39-2.48-2.64-1.82
				c-0.1,0.01-0.19,0.05-0.28,0.11l-0.77,1.1l-0.83,1.1c-0.55,0.71-1.1,1.49-1.71,2.2c-4.18,5.12-8.67,9.99-13.42,14.58
				c-2.37,2.31-4.79,4.57-7.26,6.77c-1.27,1.1-2.48,2.15-3.74,3.25l-2.64,2.15c0,0-0.93,0.88-2.26,2.04s-2.97,2.59-4.35,3.69
				l-0.83,0.66c-0.28,0.17-0.5,0.39-0.66,0.5c-0.39,0.33-0.72,0.61-0.93,0.77c-0.44,0.44-0.5,0.66-0.28,0.71
				c0.47,0.03,0.94-0.04,1.37-0.22c0.33-0.11,0.72-0.22,1.16-0.39s0.83-0.39,1.27-0.55c0.4-0.16,0.78-0.34,1.16-0.55
				c0.39-0.22,0.83-0.44,1.32-0.71s0.99-0.61,1.49-0.88c0.5-0.33,1.04-0.61,1.49-0.93c0.5-0.33,0.93-0.61,1.27-0.88
				c0.39-0.27,0.72-0.44,0.93-0.61c0.1-0.08,0.21-0.16,0.33-0.22l2.81-2.26c1.27-1.1,2.53-2.15,3.74-3.25s2.48-2.2,3.69-3.36
				l1.82-1.71l1.76-1.76c4.78-4.61,9.28-9.5,13.48-14.64c0.6-0.71,1.21-1.49,1.76-2.26l0.88-1.15L44.38,2.1z"/>
		</g>
	</g>
</g>
<g id="Group_616" transform="translate(158.951 190.55)">
	<g id="Group_615">
		<g id="Group_614">
			<path id="Path_298" class="st3" d="M5.34,0.92c0-0.11,0-0.11-0.11-0.22c-0.6-0.72-1.98-1.54-3.19,0.44
				c0,0.05-0.11,0.22-0.11,0.28l0.83,5.61C4.3,18.36,5.28,29.76,5.67,41.19c0.16,5.72,0.16,11.44-0.22,17.11
				c-0.16,2.86-0.44,5.67-0.83,8.47L4.3,68.65c-0.11,0.55-0.16,1.1-0.28,1.6c0,0-0.05,0.33-0.11,0.83
				c-0.05,0.55-0.11,1.27-0.28,2.15c-0.16,0.83-0.28,1.82-0.5,2.75c-0.11,0.5-0.16,0.99-0.28,1.43c-0.08,0.47-0.19,0.92-0.33,1.38
				C2.2,80.26,1.87,81.2,1.76,81.8s0,0.83,0.22,0.77s0.55-0.44,0.99-0.99c0.22-0.28,0.44-0.6,0.72-0.99
				c0.24-0.41,0.46-0.83,0.66-1.27c-0.05,0.11,0.22-0.39,0.6-1.16c0.16-0.39,0.33-0.88,0.55-1.43l0.33-0.83
				c0.11-0.28,0.16-0.55,0.28-0.83c0.16-0.55,0.39-1.16,0.55-1.71s0.28-1.04,0.44-1.49c0.22-0.88,0.39-1.49,0.39-1.49l0.28-1.65
				l0.11-0.83l0.11-0.66l0.11-1.04l0.28-2.15l0.22-2.15c0.16-1.43,0.22-2.86,0.33-4.29c0.33-5.72,0.33-11.44,0.11-17.11
				C8.64,29.15,7.59,17.87,6.11,6.59C5.89,4.66,5.62,2.79,5.34,0.92z"/>
		</g>
	</g>
</g>
<g id="Group_619" transform="translate(140.007 268.751)">
	<g id="Group_618">
		<g id="Group_617">
			<path id="Path_299" class="st2" d="M42.55,1.17V0.95c-0.11-0.77-0.28-1.87-0.77-0.11c-0.02,0.09-0.04,0.18-0.05,0.28
				c0,0.22-0.05,0.44-0.05,0.72l-0.11,0.66l-0.11,0.66l-0.16,0.66l-0.16,0.66C41.07,4.7,41,4.92,40.9,5.13
				c-0.16,0.44-0.28,0.88-0.44,1.32C40.19,7,40.02,7.61,39.69,8.16l-0.44,0.83l-0.5,0.83c-0.16,0.28-0.33,0.55-0.5,0.77l-0.55,0.77
				c-0.33,0.5-0.77,0.99-1.16,1.49c-0.39,0.48-0.82,0.94-1.27,1.38l-1.32,1.32c-0.92,0.83-1.9,1.6-2.92,2.31l-0.77,0.5
				c-0.28,0.16-0.55,0.33-0.77,0.5c-0.55,0.33-1.1,0.6-1.65,0.88c-1.1,0.55-2.26,1.04-3.41,1.48c-1.16,0.39-2.37,0.77-3.58,1.1
				c-0.6,0.16-1.21,0.28-1.82,0.39l-1.82,0.33c-0.25,0.06-0.51,0.1-0.77,0.11l-0.77,0.11c-0.5,0.05-1.04,0.11-1.54,0.16
				c0,0-0.33,0.05-0.83,0.11c-0.55,0.05-1.27,0.16-2.15,0.22c-0.88,0.11-1.82,0.16-2.81,0.28c-0.99,0.05-1.98,0.16-2.86,0.22
				c-1.54,0.11-2.53,0.16-3.14,0.28s-0.77,0.28-0.6,0.5c1.18,0.61,2.48,0.96,3.8,1.04c-0.11,0,0.44,0.05,1.27,0.16
				c0.88,0.05,2.04,0.11,3.25,0.11h1.76c0.55,0,1.1-0.05,1.54-0.05c0.93-0.05,1.54-0.11,1.54-0.11c0.44-0.05,0.93-0.16,1.38-0.22
				c0.46-0.07,0.92-0.16,1.38-0.28c0.66-0.11,1.27-0.28,1.93-0.44s1.27-0.33,1.93-0.55c1.27-0.39,2.53-0.83,3.74-1.32
				c1.21-0.55,2.42-1.1,3.58-1.76c0.55-0.33,1.16-0.66,1.71-1.04c0.28-0.16,0.55-0.39,0.83-0.55l0.77-0.6
				c1.04-0.8,2.03-1.67,2.97-2.59c0.44-0.5,0.88-0.93,1.38-1.43c0.89-0.98,1.69-2.05,2.37-3.19l0.55-0.83
				c0.16-0.28,0.33-0.55,0.5-0.88c0.18-0.28,0.33-0.57,0.44-0.88l0.39-0.88c0.28-0.6,0.5-1.21,0.72-1.82
				c0.16-0.44,0.28-0.93,0.44-1.38c0.09-0.23,0.14-0.47,0.16-0.72l0.16-0.72l0.16-0.72l0.11-0.72l0.11-0.72
				C42.56,1.7,42.54,1.44,42.55,1.17z"/>
		</g>
	</g>
</g>
<path id="Path_300" class="st2" d="M109.93,55.9c0,0-4.68,12.93-7.7,21.29c-0.33,0.93-3.3,0.44-3.63,1.49
	c-0.28,0.77-4.95-5.28-8.09-1.71c-6.16,6.99,3.63,11.94,4.4,13.98c1.05,3.15,1.69,6.42,1.93,9.74c0.32,5.37,0.32,10.75,0,16.12
	L59.7,78.62L109.93,55.9z"/>
<g id="Group_622" transform="translate(17.538 262.093)">
	<g id="Group_621">
		<g id="Group_620">
			<path id="Path_301" class="st2" d="M96.85,32.04c0.05-0.05,0.05-0.11,0-0.22c-0.16-0.88-0.93-2.37-2.97-1.27
				c-0.05,0-0.16,0.11-0.22,0.22l-1.16,2.86c-0.16,0.5-0.39,0.93-0.55,1.43l-0.28,0.72l-0.6,1.54c-0.83,2.15-1.65,4.35-2.42,6.49
				C82.27,61.2,76.77,78.81,71.1,96.36c-1.43,4.4-2.86,8.75-4.29,13.15c-0.72,2.2-1.49,4.35-2.2,6.55l-0.22,0.55l0,0l-1.49-0.33
				c-0.55-0.11-1.1-0.22-1.65-0.39c-4.39-1.08-8.7-2.5-12.88-4.24c-4.19-1.7-8.24-3.75-12.1-6.11c-0.83-0.44-1.6-0.99-2.37-1.49
				s-1.54-0.99-2.31-1.54c-1.49-1.1-3.03-2.15-4.46-3.3c-2.92-2.28-5.7-4.74-8.31-7.37c-1.27-1.32-2.59-2.64-3.8-4.07
				c-1.27-1.38-2.37-2.86-3.52-4.29c-2.27-2.89-4.25-5.98-5.94-9.24l-0.39-0.83v-0.05l0.16-0.6l0.72-2.7
				c0.5-1.82,1.04-3.63,1.6-5.39c0.55-1.82,1.1-3.58,1.71-5.39c0.5-1.76,1.32-3.47,1.98-5.17c5.68-13.85,13.87-26.53,24.15-37.41
				c2.59-2.7,5.28-5.28,8.09-7.76c0.66-0.66,1.43-1.21,2.15-1.82s1.43-1.21,2.15-1.76l1.43-1.16l0,0l0.83,0.72
				c5.95,4.81,12.22,9.23,18.76,13.2c3.3,1.98,6.6,3.85,10.01,5.61c3.41,1.71,6.93,3.36,10.45,4.79l2.7,0.99
				c0.88,0.33,1.82,0.6,2.75,0.93c0.9,0.33,1.82,0.6,2.75,0.83c0.33,0.11,0.22,0.05,0.22,0.05l0,0l-0.33,5.5l-0.33,5.67
				c-0.44,7.59-0.77,15.13-1.16,22.67s-0.72,15.13-1.21,22.67s-0.99,15.08-1.87,22.56l-0.33,2.81c-0.05,0.55-0.11,0.72-0.11,0.99
				L92.34,115l-0.16,1.1l0,0l-0.28-0.6c-0.39-0.83-0.72-1.71-1.04-2.59l-2.09-5.28l-0.55-1.32l-0.28-0.72
				c-0.17-0.44-0.37-0.86-0.6-1.27c-0.22-0.44-0.44-0.83-0.6-1.21l-0.33-0.6l-0.16-0.33l-0.05-0.16c-0.05-0.05-0.11,0.05-0.11,0.05
				l-2.31,1.49c-0.16,0.11-0.39,0.28-0.55,0.39l-0.44,0.33c-0.22,0.16-0.39,0.28-0.6,0.44c-0.39,0.28-0.77,0.6-1.16,0.88l-1.1,0.93
				l-0.88,0.72l-0.5,0.44l-1.87,1.71c0,0-0.93,0.93-2.09,2.26c-1.21,1.32-2.64,2.97-3.85,4.35c-0.72,0.75-1.4,1.54-2.04,2.37
				c-0.33,0.5-0.39,0.72-0.11,0.77c1.3-0.33,2.5-0.95,3.52-1.82c1.24-0.85,2.43-1.77,3.58-2.75c1.82-1.49,3.69-2.97,3.69-2.97
				c0.6-0.55,1.21-1.1,1.82-1.6l0.88-0.77c0.72-0.6,1.38-1.16,2.09-1.71c0.16-0.16,0.35-0.29,0.55-0.39l0.28-0.22l0,0l0.11,0.33
				c0.33,0.83,0.72,1.65,1.04,2.53c0.66,1.71,1.32,3.47,2.04,5.17l0.55,1.32l0.28,0.66l0.39,0.83c0.38,0.79,0.8,1.57,1.27,2.31
				c0.36,0.56,0.88,1,1.49,1.27c0.24,0.11,0.5,0.17,0.77,0.16c0.3,0,0.6-0.05,0.88-0.16c0.51-0.23,0.92-0.64,1.16-1.16l0.11-0.22
				c0.04-0.06,0.06-0.14,0.05-0.22l0.05-0.5l0.16-0.93l0.33-1.87l0.33-1.87l0.05-0.5l0.05-0.33l0.05-0.72l0.33-2.75
				c0.22-1.87,0.39-3.69,0.55-5.56c1.32-14.8,1.98-29.6,2.7-44.4c0.33-7.37,0.72-14.8,1.16-22.17l0.33-5.5l0.11-1.65l0.11-1.38
				l0.05-0.72c0-0.05,0-0.11-0.05-0.11l-0.16-0.05l-0.33-0.11l-3.69-1.04c-3.47-1.06-6.87-2.35-10.18-3.85
				c-3.36-1.49-6.6-3.08-9.85-4.84c-3.19-1.76-6.38-3.63-9.46-5.56c-3.08-1.98-6.11-4.07-9.08-6.22c-1.49-1.1-2.92-2.2-4.35-3.3
				c-0.72-0.55-1.43-1.16-2.15-1.71l-1.49-1.21L49.65,0c-0.16-0.28-0.39,0-0.55,0.11l-0.55,0.44l-2.81,2.2
				c-0.77,0.55-1.43,1.21-2.2,1.76c-1.43,1.16-2.86,2.48-4.24,3.69c-2.78,2.52-5.42,5.18-7.92,7.98
				c-5.05,5.55-9.58,11.56-13.53,17.94c-3.96,6.38-7.33,13.11-10.07,20.1c-0.33,0.88-0.72,1.71-1.04,2.64l-0.88,2.7
				c-0.55,1.76-1.1,3.58-1.65,5.34c-0.55,1.76-1.04,3.58-1.54,5.39l-0.83,3.14c-0.05,0.11-0.05,0.22-0.11,0.33l0.11,0.28l0.28,0.55
				l0.39,0.83c0.22,0.44,0.44,0.88,0.66,1.27c1.81,3.35,3.91,6.53,6.27,9.52l1.76,2.2l1.87,2.15l0.93,1.04l0.99,1.04l1.98,2.04
				L19,96.58l1.04,0.99c0.33,0.33,0.72,0.6,1.04,0.93l2.15,1.87c0.72,0.6,1.49,1.16,2.2,1.76c1.43,1.21,3.03,2.26,4.57,3.36
				c0.77,0.55,1.6,1.04,2.37,1.54s1.6,1.04,2.42,1.48c4.03,2.4,8.22,4.52,12.54,6.33c4.34,1.8,8.81,3.27,13.37,4.4
				c0.55,0.16,1.16,0.28,1.71,0.39l1.87,0.39l1.71,0.39l0.83,0.16c0.05,0,0.11,0.05,0.11,0l0.05-0.11l0.05-0.22l0.16-0.39l0.93-2.7
				c0.77-2.2,1.49-4.35,2.2-6.55c1.49-4.4,2.92-8.75,4.29-13.15c5.67-17.55,11.17-35.16,17.5-52.43c0.77-2.15,1.6-4.29,2.42-6.44
				l0.6-1.54l0.28-0.72c0.16-0.5,0.39-0.93,0.55-1.43L96.85,32.04z"/>
		</g>
	</g>
</g>
<g id="Group_625" transform="translate(6.19 113.303)">
	<g id="Group_624">
		<g id="Group_623">
			<path id="Path_302" class="st2" d="M16.48,16.16c-0.23,0.14-0.41,0.35-0.5,0.61c-0.36,0.66-0.53,1.4-0.5,2.15
				c0.03,0.64,0.33,1.24,0.83,1.65c0.25,0.17,0.53,0.3,0.83,0.39c0.33,0.07,0.66,0.11,0.99,0.11c0.74,0.01,1.48,0.18,2.15,0.5
				c0.05,0,0.22,0.11,0.28,0.11c0.27-0.16,0.57-0.26,0.88-0.27h0.44c0.11,0.05,0.22,0.05,0.28,0.11c0.27,0.18,0.5,0.43,0.66,0.71
				c0.2,0.39,0.31,0.82,0.33,1.27c0.01,0.28-0.01,0.55-0.05,0.83c0,0.05-0.05,0.11-0.05,0.22c0,0.05-0.05,0.11-0.05,0.17
				c-0.05,0.11-0.11,0.27-0.16,0.39c-0.33,0.6-0.78,1.12-1.32,1.54c-0.62,0.44-1.31,0.77-2.04,0.99c-0.18,0.06-0.36,0.1-0.55,0.11
				l-0.55,0.11c-1.22,0.09-2.44-0.1-3.58-0.55c-0.4-0.16-0.79-0.36-1.14-0.61c-0.39-0.22-0.72-0.5-1.1-0.71
				c-0.72-0.52-1.35-1.15-1.87-1.87c-0.53-0.69-0.98-1.45-1.32-2.26c-0.19-0.38-0.32-0.79-0.39-1.21c-0.1-0.4-0.17-0.8-0.22-1.21
				c-0.08-0.87-0.02-1.74,0.16-2.59c0.37-1.79,1.16-3.47,2.31-4.9c1.15-1.49,2.62-2.72,4.29-3.58l0.6-0.33
				c0.22-0.11,0.44-0.17,0.66-0.27c0.43-0.17,0.87-0.32,1.32-0.44c0.98-0.25,1.97-0.41,2.97-0.5c1.92-0.21,3.87-0.02,5.72,0.55
				c0.9,0.28,1.76,0.64,2.59,1.1C30.2,8.91,31,9.46,31.72,10.1c2.98,2.66,4.98,6.25,5.67,10.18c0.17,0.96,0.26,1.94,0.28,2.92v0.71
				c0.01,0.22-0.01,0.44-0.05,0.66c-0.05,0.46-0.12,0.92-0.22,1.38c-0.1,0.47-0.23,0.92-0.39,1.38c-0.16,0.47-0.34,0.93-0.55,1.38
				c-0.4,0.93-0.86,1.83-1.38,2.7l-0.6,0.88c-0.12,0.21-0.26,0.39-0.44,0.55c-0.28,0.39-0.6,0.77-0.88,1.1
				c-0.28,0.39-0.66,0.66-0.93,1.05c-0.32,0.34-0.67,0.65-1.04,0.93l-0.28,0.27c-0.16,0.17-0.44,0.44-0.77,0.71
				c-0.16,0.18-0.34,0.32-0.55,0.44c-0.23,0.18-0.47,0.35-0.72,0.5c-0.58,0.38-1.19,0.73-1.82,1.05c-1.52,0.79-3.13,1.4-4.79,1.82
				c-1.77,0.44-3.57,0.7-5.39,0.77c-1.49,0.05-2.7,0-3.69-0.05s-1.82-0.11-2.42-0.11c-1.21-0.05-1.6,0.17-1.43,0.61
				c0.6,0.76,1.4,1.35,2.31,1.71c1.62,0.78,3.34,1.33,5.12,1.65c0.89,0.26,1.82,0.39,2.75,0.39c2.34,0.14,4.69-0.03,6.99-0.5
				c1.27-0.27,2.52-0.64,3.74-1.1c0.6-0.27,1.16-0.44,1.71-0.71s1.04-0.55,1.49-0.83c0.73-0.43,1.43-0.91,2.09-1.43
				c0.5-0.39,0.77-0.61,0.77-0.61c0.92-0.86,1.78-1.78,2.59-2.75c0.39-0.5,0.77-0.99,1.1-1.49l0.72-1.1
				c0.33-0.55,0.66-1.15,0.99-1.76c1.28-2.42,2.14-5.05,2.53-7.76c0.07-0.36,0.1-0.73,0.11-1.1c0-0.33,0.05-0.71,0.05-1.1
				c0-0.71-0.05-1.38-0.05-2.04c-0.11-1.35-0.33-2.7-0.66-4.02c-0.68-2.61-1.76-5.09-3.19-7.37c-1.47-2.3-3.34-4.33-5.5-6
				c-2.22-1.72-4.8-2.92-7.54-3.52c-1.35-0.32-2.74-0.5-4.13-0.55c-0.72-0.05-1.38,0-2.04,0c-0.66,0.05-1.38,0.11-2.04,0.22
				l-1.98,0.33c-0.34,0.05-0.67,0.12-0.99,0.22l-1.04,0.33l-0.99,0.33c-0.33,0.11-0.66,0.27-0.99,0.39
				c-0.6,0.33-1.27,0.61-1.87,0.99l-0.88,0.55L9.61,3.88L9.17,4.21L8.78,4.54L7.96,5.2C6.94,6.16,6,7.21,5.15,8.33
				c-1.7,2.32-2.81,5.02-3.25,7.87c-0.21,1.48-0.23,2.98-0.05,4.46c0.09,0.74,0.24,1.48,0.44,2.2c0.09,0.36,0.22,0.71,0.39,1.05
				c0.1,0.37,0.25,0.72,0.44,1.05c1.21,2.67,3.09,4.98,5.45,6.71c1.18,0.87,2.48,1.57,3.85,2.09c0.7,0.25,1.42,0.45,2.15,0.61
				c0.39,0.05,0.72,0.17,1.1,0.22l1.16,0.11c0.77,0.02,1.54,0,2.31-0.05c0.79-0.09,1.56-0.25,2.31-0.5
				c1.52-0.45,2.94-1.17,4.18-2.15c1.32-1.01,2.4-2.28,3.19-3.74c0.22-0.39,0.4-0.79,0.55-1.21c0.15-0.43,0.28-0.87,0.39-1.32
				c0.18-0.87,0.26-1.75,0.22-2.64c-0.06-1.46-0.45-2.9-1.16-4.18c-0.73-1.39-1.84-2.56-3.19-3.36c-0.73-0.41-1.51-0.72-2.31-0.93
				c-0.78-0.16-1.57-0.22-2.37-0.17c-0.77,0.06-1.52,0.21-2.26,0.44C17.91,15.33,17.19,15.72,16.48,16.16z"/>
		</g>
	</g>
</g>
<path id="Path_303" class="st2" d="M208.09,124.29l0.05-0.05c0.11-0.05,0.16-0.17,0.28-0.33c0.05-0.17,0.11-0.39,0.16-0.61
	c0.01-0.12,0.05-0.23,0.11-0.33c0.07-0.12,0.17-0.23,0.28-0.33c0.16-0.12,0.35-0.18,0.55-0.17c0.33,0.01,0.65,0.1,0.93,0.27
	c0.12,0.1,0.23,0.21,0.33,0.33c0.17,0.34,0.26,0.72,0.28,1.1c0.03,0.41-0.03,0.82-0.16,1.21c-0.12,0.4-0.35,0.76-0.66,1.05
	c-0.27,0.27-0.59,0.49-0.93,0.66c-0.64,0.3-1.34,0.41-2.04,0.33c-0.68-0.1-1.32-0.41-1.82-0.88c-0.61-0.52-1.05-1.21-1.27-1.98
	c-0.23-0.75-0.27-1.54-0.11-2.31c0.31-1.43,1.18-2.68,2.42-3.47c0.62-0.4,1.31-0.68,2.04-0.83c0.73-0.1,1.48-0.06,2.2,0.11
	c2.03,0.51,3.68,2,4.4,3.96c0.12,0.32,0.21,0.65,0.28,0.99c0.08,0.31,0.14,0.62,0.16,0.93c0.13,1.35-0.14,2.71-0.77,3.91
	c-0.32,0.61-0.73,1.16-1.21,1.65c-0.22,0.22-0.5,0.44-0.72,0.66c-0.28,0.17-0.55,0.39-0.83,0.55c-1.11,0.69-2.38,1.08-3.69,1.15
	h-0.88c-0.3-0.01-0.59-0.05-0.88-0.11c-0.55-0.12-1.09-0.31-1.6-0.55c-0.06-0.05-0.14-0.09-0.22-0.11c-0.19-0.09-0.38-0.2-0.55-0.33
	c-0.62-0.41-1.18-0.91-1.65-1.49c-0.3-0.39-0.58-0.79-0.83-1.21c-0.21-0.45-0.39-0.91-0.55-1.38c-0.26-0.91-0.34-1.87-0.22-2.81
	c0.07-0.97,0.36-1.9,0.83-2.75c0.33-0.44,0.5-0.5,0.6-0.33c0.16,0.33-0.05,1.65,0.22,3.14c0-0.05,0.05,0.33,0.22,0.93
	c0.08,0.35,0.21,0.68,0.39,0.99c0.18,0.36,0.38,0.71,0.6,1.05c0.49,0.57,1.09,1.04,1.76,1.38c0.21,0.12,0.43,0.21,0.66,0.27
	c0.09,0.03,0.19,0.07,0.28,0.11c0.26,0.12,0.54,0.2,0.83,0.22c0.27,0.05,0.55,0.07,0.83,0.05c0.83-0.07,1.64-0.31,2.37-0.71
	l0.5-0.33c0.16-0.11,0.28-0.27,0.44-0.39c0.27-0.27,0.49-0.59,0.66-0.93c0.35-0.7,0.5-1.48,0.44-2.26
	c-0.01-0.21-0.05-0.41-0.11-0.61c-0.05-0.22-0.11-0.39-0.16-0.55c-0.14-0.35-0.33-0.68-0.55-0.99c-0.46-0.58-1.1-1.01-1.82-1.21
	c-0.64-0.18-1.33-0.06-1.87,0.33c-0.57,0.37-0.98,0.94-1.16,1.6c-0.07,0.27-0.05,0.56,0.05,0.83c0.08,0.24,0.21,0.47,0.39,0.66
	c0.09,0.09,0.21,0.15,0.33,0.17c0.11,0,0.28,0,0.33-0.05c0.11-0.05,0.05-0.05,0.05-0.05C208.08,124.35,208.08,124.4,208.09,124.29
	L208.09,124.29z"/>
<path id="Path_304" class="st2" d="M6.11,46.98L6.11,46.98c-0.1,0-0.2,0.04-0.28,0.11c-0.11,0.05-0.16,0.17-0.28,0.27l-0.16,0.17
	c-0.05,0.05-0.16,0.05-0.22,0.11c-0.11,0.01-0.23-0.01-0.33-0.05c-0.17-0.11-0.3-0.26-0.39-0.44c-0.02-0.09-0.04-0.18-0.05-0.27
	c0.03-0.23,0.08-0.45,0.16-0.66c0.1-0.22,0.25-0.4,0.44-0.55c0.18-0.17,0.41-0.29,0.66-0.33c0.21-0.07,0.44-0.09,0.66-0.05
	c0.41,0.05,0.81,0.2,1.16,0.44c0.3,0.28,0.55,0.61,0.72,0.99c0.15,0.46,0.17,0.96,0.05,1.43c-0.11,0.45-0.34,0.87-0.66,1.21
	C7,50,6.17,50.4,5.28,50.45c-0.45,0.01-0.9-0.07-1.32-0.22c-0.42-0.15-0.79-0.4-1.1-0.71c-0.6-0.59-0.99-1.37-1.1-2.2
	c-0.05-0.4-0.05-0.81,0-1.21c0.05-0.22,0.11-0.44,0.16-0.61c0.05-0.19,0.12-0.38,0.22-0.55c0.34-0.75,0.9-1.38,1.6-1.82
	c0.34-0.22,0.71-0.39,1.1-0.5c0.2-0.06,0.4-0.1,0.6-0.11c0.22,0,0.39-0.05,0.6-0.05c0.78,0,1.55,0.17,2.26,0.5l0.22,0.11
	c0.05,0.05,0.16,0.11,0.22,0.17c0.16,0.11,0.28,0.22,0.44,0.33c0.26,0.22,0.49,0.48,0.66,0.77c0,0.04,0.02,0.08,0.05,0.11
	c0.07,0.1,0.12,0.21,0.16,0.33c0.21,0.4,0.35,0.82,0.44,1.27c0.05,0.29,0.07,0.59,0.05,0.88c0,0.3-0.05,0.6-0.16,0.88
	c-0.16,0.55-0.4,1.07-0.72,1.54c-0.31,0.49-0.74,0.89-1.27,1.15c-0.28,0.17-0.39,0.11-0.39,0c0-0.22,0.5-0.88,0.83-1.71
	c-0.05,0.05,0.05-0.17,0.16-0.55c0.07-0.21,0.11-0.44,0.11-0.66v-0.72c-0.06-0.46-0.24-0.89-0.5-1.27
	c-0.11-0.17-0.22-0.27-0.28-0.39l-0.11-0.11c-0.1-0.15-0.23-0.29-0.39-0.39c-0.13-0.12-0.28-0.21-0.44-0.27
	C6.98,44.23,6.49,44.12,6,44.12H5.61c-0.11,0-0.22,0.05-0.33,0.05c-0.23,0.07-0.45,0.16-0.66,0.27c-0.4,0.24-0.71,0.61-0.88,1.05
	c-0.06,0.1-0.1,0.21-0.11,0.33c-0.05,0.11-0.05,0.22-0.11,0.33c-0.05,0.22-0.05,0.44,0,0.66c0.06,0.46,0.28,0.88,0.6,1.21
	c0.29,0.29,0.69,0.43,1.1,0.39c0.42-0.01,0.81-0.19,1.1-0.5c0.11-0.17,0.22-0.27,0.22-0.44c0.06-0.14,0.06-0.3,0-0.44
	c-0.05-0.11-0.05-0.17-0.11-0.22c-0.04-0.04-0.1-0.06-0.16-0.05C6.11,46.92,6.11,46.92,6.11,46.98L6.11,46.98z"/>
<path id="Path_305" class="st2" d="M229.98,31.74l0.11-0.16c0.2-0.27,0.28-0.61,0.22-0.93c-0.03-0.48-0.1-0.96-0.22-1.43
	c-0.07-0.27-0.09-0.55-0.05-0.82c0.05-0.32,0.14-0.64,0.28-0.93c0.26-0.39,0.62-0.69,1.04-0.88c0.68-0.29,1.43-0.35,2.15-0.16
	c0.34,0.07,0.66,0.22,0.93,0.44c0.64,0.6,1.16,1.31,1.54,2.09c0.42,0.82,0.64,1.72,0.66,2.64c0.05,0.92-0.1,1.84-0.44,2.7
	c-0.33,0.81-0.79,1.55-1.38,2.2c-1.07,1.19-2.47,2.03-4.02,2.42c-1.51,0.35-3.09,0.27-4.57-0.22c-1.73-0.59-3.25-1.66-4.4-3.08
	c-1.1-1.38-1.86-3-2.2-4.73c-0.88-5.01,1.33-10.07,5.61-12.82c1.41-0.86,2.99-1.42,4.62-1.65c3.11-0.43,6.28,0.17,9.02,1.71
	c1.36,0.78,2.6,1.74,3.69,2.86c0.53,0.55,0.99,1.16,1.38,1.82c0.43,0.6,0.82,1.22,1.16,1.87c1.43,2.7,2.06,5.75,1.82,8.8
	c-0.14,1.51-0.51,3-1.1,4.4c-0.33,0.66-0.6,1.38-0.99,1.98s-0.77,1.27-1.21,1.87c-1.76,2.37-4.06,4.27-6.71,5.56l-0.88,0.39
	c-0.28,0.11-0.66,0.22-0.93,0.33c-0.63,0.21-1.27,0.38-1.93,0.5c-1.26,0.2-2.53,0.29-3.8,0.27c-0.18-0.01-0.37-0.03-0.55-0.05
	c-0.33-0.05-0.83-0.11-1.49-0.22c-1.67-0.34-3.28-0.92-4.79-1.71c-0.97-0.5-1.88-1.11-2.7-1.82c-0.86-0.76-1.65-1.58-2.37-2.48
	c-1.3-1.7-2.27-3.62-2.86-5.67c-0.71-2.09-0.92-4.31-0.6-6.49c0.28-1.21,0.6-1.49,0.93-1.15c0.66,0.6,1.38,3.52,3.08,6.33
	c-0.05-0.17,0.39,0.66,1.27,1.76c0.5,0.65,1.05,1.25,1.65,1.82c0.65,0.62,1.37,1.15,2.15,1.6c1.51,0.78,3.15,1.27,4.84,1.43
	c0.72,0.05,1.27,0.05,1.71,0.05c0.2,0,0.41-0.01,0.6-0.05c0.67-0.02,1.33-0.09,1.98-0.22c0.6-0.16,1.19-0.36,1.76-0.61
	c1.69-0.84,3.16-2.07,4.29-3.58c0.33-0.39,0.5-0.77,0.77-1.15c0.22-0.39,0.39-0.83,0.6-1.21c0.31-0.82,0.51-1.67,0.6-2.53
	c0.08-2.23-0.55-4.43-1.82-6.27c-0.23-0.37-0.49-0.72-0.77-1.04c-1.75-1.87-4.28-2.79-6.82-2.48c-1.5,0.2-2.84,1.03-3.68,2.3
	c-0.87,1.27-1.23,2.82-0.99,4.35c0.13,0.63,0.39,1.23,0.77,1.76c0.37,0.48,0.86,0.84,1.43,1.05c0.28,0.1,0.59,0.12,0.88,0.05
	c0.25-0.07,0.47-0.21,0.66-0.38c0.16-0.16,0.11-0.16,0.11-0.16l0,0C230.05,31.88,230.03,31.81,229.98,31.74z"/>
</svg>
