<?xml version="1.0" encoding="utf-8"?>
<!-- Generator: Adobe Illustrator 25.2.1, SVG Export Plug-In . SVG Version: 6.00 Build 0)  -->
<svg version="1.1" id="Layer_1" xmlns="http://www.w3.org/2000/svg" xmlns:xlink="http://www.w3.org/1999/xlink" x="0px" y="0px"
	 viewBox="0 0 28 28" style="enable-background:new 0 0 28 28;" xml:space="preserve">
<style type="text/css">
	.st0{fill-rule:evenodd;clip-rule:evenodd;fill:#FFFFFF;}
</style>
<g>
	<path id="Path_49" class="st0" d="M11.51,9.55C11.3,10.41,10,15.36,10,15.36h3.17c0,0-1.41-4.95-1.62-5.81
		C11.55,9.55,11.51,9.55,11.51,9.55z"/>
	<path id="Path_50" class="st0" d="M0.31,0.31v27.38h27.38V0.31H0.31z M14.75,21.47l-1.11-3.68h-4.1l-1.03,3.68H5.15L9.54,7.13h4.25
		l4.45,14.34C18.24,21.47,14.75,21.47,14.75,21.47z M22.74,21.47H19.5v-10.4h3.24V21.47z M21.1,9.79c-0.9,0.03-1.65-0.67-1.68-1.57
		s0.67-1.65,1.57-1.68c0.05,0,0.09,0,0.14,0c0.9-0.05,1.67,0.64,1.72,1.53s-0.64,1.67-1.53,1.72C21.24,9.79,21.17,9.79,21.1,9.79z"
		/>
</g>
</svg>
