<?xml version="1.0" encoding="utf-8"?>
<!-- Generator: Adobe Illustrator 25.2.1, SVG Export Plug-In . SVG Version: 6.00 Build 0)  -->
<svg version="1.1" id="Layer_1" xmlns="http://www.w3.org/2000/svg" xmlns:xlink="http://www.w3.org/1999/xlink" x="0px" y="0px"
	 viewBox="0 0 57.2 36.4" style="enable-background:new 0 0 57.2 36.4;" xml:space="preserve">
<style type="text/css">
	.st0{fill:#FFFFFF;}
</style>
<g>
	<path class="st0" d="M48.77,26.4l-0.27,0.54c-0.28,0.56-0.66,1.04-1.12,1.41c-1.03,0.72-2.08,1.05-3.18,0.96
		c-1.09,0.09-2.15-0.17-3.14-0.76c-1.12-0.74-1.82-1.93-2.05-3.44h18.17l0-0.93c0.09-1.47,0.02-3.25-0.2-5.14
		c-0.19-1.91-0.93-3.86-2.14-5.61c-1.25-1.88-2.92-3.29-4.81-4.09c-1.87-0.79-4.1-1.22-6.29-1.22c-3.62-0.09-7.18,1.27-9.78,3.77
		c-2.47,2.47-3.77,6.16-3.77,10.68c0,4.92,1.45,8.56,4.29,10.79c2.6,2.1,5.92,3.26,9.36,3.26c4.52,0,8.04-1.34,10.47-3.97
		c1.5-1.39,2.48-3.18,2.77-5.03l0.27-1.2H48.77z M37.07,23v1.06c0.1,2.91,1.16,4.97,3.12,6.11c1.33,0.77,2.76,1.14,4.11,1.03
		c1.52,0.1,3.07-0.38,4.37-1.35c0.44-0.35,0.84-0.8,1.28-1.45h4.92c-0.4,1.11-1.04,2.08-1.94,2.88c-2.04,2.23-4.92,3.32-8.82,3.32
		c-2.94,0.09-5.9-0.92-8.34-2.85c-2.36-1.87-3.51-4.88-3.51-9.2c0-4.1,1.06-7.15,3.23-9.32c2.02-2.02,4.98-3.23,7.92-3.23
		c0.09,0,0.26,0,0.52,0.09l0.08,0.01c2.13,0,3.97,0.35,5.6,1.08c1.61,0.66,2.99,1.81,3.99,3.31c1.01,1.41,1.67,3.07,1.85,4.67
		l0.02,0.26c0.09,1.21,0.17,2.36,0.18,3.57H37.07z"/>
	<path class="st0" d="M52.07,1.4h-16.7v6.2h16.7V1.4z M37.37,5.6V3.4h12.7v2.2H37.37z"/>
	<path class="st0" d="M25.69,16.32c0.48-0.37,0.9-0.79,1.32-1.21c1.29-1.49,1.97-3.52,1.86-5.55c0.1-2.07-0.52-4.12-1.75-5.76
		c-1.94-2.55-5.17-3.9-9.6-4H-0.13v35.9h16.55c2.02,0,3.56-0.16,4.85-0.5c1.64-0.33,3.13-0.97,4.3-1.84c1-0.73,1.82-1.64,2.67-2.97
		c1.07-1.75,1.64-3.8,1.64-5.93c0-2.01-0.53-3.92-1.54-5.53C27.63,17.82,26.71,16.91,25.69,16.32z M1.87,1.6h15.54
		c3.84,0.1,6.56,1.18,8.1,3.19c0.88,1.36,1.36,3.02,1.36,4.68c0.1,1.63-0.38,3.17-1.34,4.32c-0.67,0.77-1.45,1.35-2.32,1.74
		l-2.27,1.07l2.39,0.8c1.44,0.48,2.61,1.36,3.46,2.59c0.79,1.37,1.17,2.84,1.17,4.48c0,1.9-0.44,3.49-1.37,4.89
		c-0.42,0.84-1.1,1.61-2.12,2.41c-1.2,0.87-2.34,1.38-3.5,1.56c-1.46,0.27-2.89,0.4-4.65,0.4H1.87V1.6z"/>
	<path class="st0" d="M43.94,13.5C43.94,13.5,43.94,13.5,43.94,13.5c-1.69-0.11-3.44,0.52-4.7,1.68c-1.14,1.25-1.86,2.78-2.06,4.44
		l-0.14,1.08h13.53v-0.95c0-1.78-0.74-3.44-2.1-4.7C47.19,14.07,45.53,13.5,43.94,13.5z M39.33,18.7c0.26-0.97,0.77-1.71,1.14-2.15
		c1.05-0.84,2.19-1.23,3.36-1.15c1.16-0.09,2.39,0.3,3.21,1.04c0.64,0.56,1.11,1.35,1.35,2.26H39.33z"/>
	<path class="st0" d="M20.26,14.26c1.23-0.82,1.92-2.28,1.81-3.79c0.11-1.82-0.87-3.41-2.58-4.15C18.05,5.9,16.62,5.7,15.12,5.7
		H6.67v9.5h9.65C17.67,15.2,19.02,14.88,20.26,14.26z M20.07,10.48c0.09,0.78-0.24,1.5-0.88,1.96c-0.87,0.52-1.88,0.76-3.17,0.76
		H8.67V7.6h6.45c1.26,0,2.56,0.17,3.71,0.48c0.84,0.34,1.34,1.2,1.24,2.17L20.07,10.48z"/>
	<path class="st0" d="M19.92,29.08c1.86-0.83,2.85-2.57,2.85-5.02c0.11-2.03-0.98-3.81-2.87-4.65c-1.24-0.41-2.47-0.61-3.78-0.61
		H6.67v11h9.75C17.67,29.8,18.88,29.55,19.92,29.08z M19.13,27.32c-1.02,0.41-2.09,0.58-3.11,0.48H8.67v-7.1l7.57,0
		c0.99-0.09,1.94,0.06,2.97,0.48c1.02,0.46,1.65,1.57,1.55,2.77C20.77,25.66,20.23,26.77,19.13,27.32z"/>
</g>
</svg>
