<?xml version="1.0" encoding="iso-8859-1"?>
<!-- Generator: Adobe Illustrator 25.2.1, SVG Export Plug-In . SVG Version: 6.00 Build 0)  -->
<svg version="1.1" id="Capa_1" xmlns="http://www.w3.org/2000/svg" xmlns:xlink="http://www.w3.org/1999/xlink" x="0px" y="0px"
	 viewBox="-698.696 141 1161.696 512" style="enable-background:new -698.696 141 1161.696 512;" xml:space="preserve">
<g>
	<path style="fill:#FFFFFF;" d="M312.583,472.426c8.341,8.341,8.341,21.824,0,30.165c-4.16,4.16-9.621,6.251-15.083,6.251
		c-5.461,0-10.923-2.091-15.083-6.251l-75.413-75.435l-75.392,75.413c-4.181,4.16-9.643,6.251-15.083,6.251
		c-5.461,0-10.923-2.091-15.083-6.251c-8.341-8.341-8.341-21.845,0-30.165l75.392-75.413l-75.413-75.413
		c-8.341-8.341-8.341-21.845,0-30.165c8.32-8.341,21.824-8.341,30.165,0l75.413,75.413l75.413-75.413
		c8.341-8.341,21.824-8.341,30.165,0c8.341,8.32,8.341,21.824,0,30.165l-75.413,75.413L312.583,472.426z M388.018,215.978
		c-99.84-99.819-262.208-99.819-362.048,0c-99.797,99.819-99.797,262.229,0,362.048c49.92,49.899,115.477,74.837,181.035,74.837
		s131.093-24.939,181.013-74.837C487.836,478.207,487.836,315.797,388.018,215.978L388.018,215.978z"/>
</g>
<g>
	<path style="fill:#FFFFFF;" d="M-698.209,412.987c0-32.313,24.432-54.38,55.168-54.38c23.959,0,37.357,12.61,44.765,25.693
		l-19.23,9.457c-4.414-8.512-13.871-15.289-25.535-15.289c-18.284,0-32.155,14.659-32.155,34.52c0,19.86,13.871,34.52,32.155,34.52
		c11.664,0,21.122-6.62,25.535-15.29l19.23,9.3c-7.566,13.083-20.806,25.851-44.765,25.851
		C-673.777,467.367-698.209,445.3-698.209,412.987z"/>
	<path style="fill:#FFFFFF;" d="M-584.876,360.341h22.382v85.432h44.45v19.703h-66.832V360.341z"/>
	<path style="fill:#FFFFFF;" d="M-456.885,358.607c31.84,0,55.011,22.698,55.011,54.38c0,31.682-23.171,54.38-55.011,54.38
		c-31.682,0-54.853-22.698-54.853-54.38C-511.737,381.305-488.567,358.607-456.885,358.607z M-456.885,378.468
		c-19.388,0-31.84,14.816-31.84,34.52c0,19.545,12.452,34.52,31.84,34.52s31.998-14.975,31.998-34.52
		C-424.887,393.284-437.497,378.468-456.885,378.468z"/>
	<path style="fill:#FFFFFF;" d="M-381.065,433.636c7.408,7.724,18.915,14.187,33.416,14.187c12.294,0,18.284-5.833,18.284-11.822
		c0-7.881-9.142-10.561-21.279-13.398c-17.181-3.94-39.248-8.669-39.248-32.155c0-17.496,15.132-31.682,39.879-31.682
		c16.708,0,30.579,5.044,40.982,14.659l-12.452,16.393c-8.512-7.881-19.861-11.506-30.106-11.506
		c-10.088,0-15.447,4.413-15.447,10.718c0,7.093,8.827,9.3,20.964,12.137c17.338,3.94,39.406,9.143,39.406,32.471
		c0,19.229-13.713,33.731-42.085,33.731c-20.176,0-34.677-6.778-44.607-16.708L-381.065,433.636z"/>
	<path style="fill:#FFFFFF;" d="M-291.535,360.341h74.398v19.23h-52.016v22.855h50.912v19.23h-50.912v24.432h52.016v19.388h-74.398
		V360.341z"/>
</g>
</svg>
