<?xml version="1.0" encoding="utf-8"?>
<!-- Generator: Adobe Illustrator 25.2.1, SVG Export Plug-In . SVG Version: 6.00 Build 0)  -->
<svg version="1.1" id="Layer_1" xmlns="http://www.w3.org/2000/svg" xmlns:xlink="http://www.w3.org/1999/xlink" x="0px" y="0px"
	 viewBox="0 0 22.55 25.78" style="enable-background:new 0 0 22.55 25.78;" xml:space="preserve">
<style type="text/css">
	.st0{fill:#FFFFFF;}
</style>
<path id="Path_54" class="st0" d="M0,0l2.05,23.2l9.22,2.58l9.22-2.58L22.55,0L0,0z M18.4,5.43l-0.27,2.35c0,0,0,0.01-0.01,0.01
	c0,0-0.01,0-0.01,0l-5.92,2.42c-0.1,0.04-0.15,0.15-0.11,0.25c0.03,0.07,0.1,0.12,0.18,0.12h4.6c0.48,0,0.86,0.39,0.86,0.87
	c0,0.03,0,0.06,0,0.09l-0.72,6.75c-0.04,0.33-0.26,0.61-0.57,0.72l-4.89,1.72c-0.18,0.06-0.38,0.06-0.57,0l-4.86-1.68
	c-0.32-0.11-0.54-0.39-0.58-0.72l-0.33-3.06c-0.03-0.31,0.19-0.59,0.51-0.63c0.02,0,0.04,0,0.06,0h1.35c0.29,0,0.53,0.22,0.57,0.51
	l0.2,1.88l3.37,1.17L14.65,17l0.41-3.9H5.5c-0.29,0-0.53-0.22-0.57-0.51l-0.18-1.65c-0.03-0.25,0.11-0.49,0.35-0.59l6.12-2.52
	c0.08-0.04,0.11-0.13,0.08-0.21c-0.02-0.05-0.08-0.09-0.14-0.09H4.72c-0.19,0-0.36-0.15-0.38-0.34L4.15,5.42
	C4.13,5.21,4.28,5.03,4.49,5.01C4.5,5,4.52,5,4.53,5h13.48c0.21,0,0.38,0.17,0.38,0.38C18.39,5.4,18.39,5.41,18.4,5.43L18.4,5.43z"
	/>
</svg>
