<?xml version="1.0" encoding="utf-8"?>
<!-- Generator: Adobe Illustrator 25.2.1, SVG Export Plug-In . SVG Version: 6.00 Build 0)  -->
<svg version="1.1" id="Layer_1" xmlns="http://www.w3.org/2000/svg" xmlns:xlink="http://www.w3.org/1999/xlink" x="0px" y="0px"
	 viewBox="0 0 27.38 27.38" style="enable-background:new 0 0 27.38 27.38;" xml:space="preserve">
<style type="text/css">
	.st0{fill:#2965F1;}
</style>
<path id="Path_54" class="st0" d="M2.41,0.8L4.46,24l9.22,2.58L22.91,24l2.06-23.2L2.41,0.8z M20.81,6.23l-0.27,2.35
	c0,0,0,0.01-0.01,0.01c0,0-0.01,0-0.01,0l-5.92,2.42c-0.1,0.04-0.15,0.15-0.11,0.25c0.03,0.07,0.1,0.12,0.18,0.12h4.6
	c0.48,0,0.86,0.39,0.86,0.87c0,0.03,0,0.06,0,0.09l-0.72,6.75c-0.04,0.33-0.26,0.61-0.57,0.72l-4.89,1.72
	c-0.18,0.06-0.38,0.06-0.57,0l-4.86-1.68c-0.32-0.11-0.54-0.39-0.58-0.72l-0.33-3.06c-0.03-0.31,0.19-0.59,0.51-0.63
	c0.02,0,0.04,0,0.06,0h1.35c0.29,0,0.53,0.22,0.57,0.51l0.2,1.88l3.37,1.17l3.38-1.18l0.41-3.9H7.91c-0.29,0-0.53-0.22-0.57-0.51
	l-0.18-1.65c-0.03-0.25,0.11-0.49,0.35-0.59l6.12-2.52c0.08-0.04,0.11-0.13,0.08-0.21c-0.02-0.05-0.08-0.09-0.14-0.09H7.13
	c-0.19,0-0.36-0.15-0.38-0.34L6.56,6.22C6.54,6.01,6.69,5.83,6.9,5.8c0.01,0,0.03,0,0.04,0h13.48c0.21,0,0.38,0.17,0.38,0.38
	C20.81,6.19,20.8,6.21,20.81,6.23L20.81,6.23z"/>
</svg>
