<?xml version="1.0" encoding="utf-8"?>
<!-- Generator: Adobe Illustrator 25.2.1, SVG Export Plug-In . SVG Version: 6.00 Build 0)  -->
<svg version="1.1" id="Layer_1" xmlns="http://www.w3.org/2000/svg" xmlns:xlink="http://www.w3.org/1999/xlink" x="0px" y="0px"
	 viewBox="0 0 46 46" style="enable-background:new 0 0 46 46;" xml:space="preserve">
<style type="text/css">
	.st0{fill:#5C11F2;}
	.st1{fill:#FFFFFF;stroke:#FFFFFF;stroke-width:0.5;}
</style>
<g id="Group_642" transform="translate(-973 -406)">
	<rect id="Rectangle_42" x="973" y="406" class="st0" width="46" height="46"/>
	<g id="Group_627" transform="translate(981.947 420.568)">
		<g id="Group_626" transform="translate(0 0)">
			<path id="Path_306" class="st1" d="M26.12,0H4.8C3.7,0,2.81,0.89,2.81,1.99v6.44H0.47C0.21,8.43,0,8.64,0,8.9
				s0.21,0.47,0.47,0.47h2.34v2.81H1.87c-0.26,0-0.47,0.21-0.47,0.47s0.21,0.47,0.47,0.47h0.94v1.76c0,1.1,0.89,1.99,1.99,1.99
				h21.31c1.1,0,1.99-0.89,1.99-1.99V1.99C28.11,0.89,27.22,0,26.12,0L26.12,0z M4.8,0.94h21.31c0.07,0,0.15,0.01,0.22,0.02
				l-9.89,8.37c-0.57,0.48-1.4,0.48-1.97,0L4.59,0.96C4.66,0.94,4.73,0.94,4.8,0.94L4.8,0.94z M3.75,14.87v-1.76h0.94
				c0.26,0,0.47-0.21,0.47-0.47s-0.21-0.47-0.47-0.47l0,0H3.75v-0.94h1.41c0.26,0,0.47-0.21,0.47-0.47S5.41,10.3,5.15,10.3l0,0H3.75
				V9.37h1.87c0.26,0,0.47-0.21,0.47-0.47S5.88,8.43,5.62,8.43H3.75V1.99c0-0.15,0.03-0.3,0.1-0.44C3.87,1.57,3.89,1.6,3.91,1.62
				l8.93,7.56L3.84,15.3C3.78,15.16,3.75,15.02,3.75,14.87L3.75,14.87z M26.12,15.93H4.8c-0.07,0-0.13-0.01-0.19-0.02l8.98-6.11
				l0.28,0.24c0.92,0.78,2.26,0.78,3.18,0l0.28-0.24l8.98,6.11C26.25,15.92,26.18,15.93,26.12,15.93L26.12,15.93z M27.17,14.87
				c0,0.15-0.03,0.29-0.09,0.43l-9.01-6.12l9-7.62c0.06,0.14,0.09,0.28,0.09,0.43L27.17,14.87z"/>
		</g>
		<path id="Path_307" class="st1" d="M1.87,11.24c0.26,0,0.47-0.21,0.47-0.47s-0.21-0.47-0.47-0.47H0.93
			c-0.26,0-0.47,0.21-0.47,0.47s0.21,0.47,0.47,0.47H1.87z"/>
	</g>
</g>
</svg>
