<?xml version="1.0" encoding="utf-8"?>
<!-- Generator: Adobe Illustrator 25.2.1, SVG Export Plug-In . SVG Version: 6.00 Build 0)  -->
<svg version="1.1" id="Layer_1" xmlns="http://www.w3.org/2000/svg" xmlns:xlink="http://www.w3.org/1999/xlink" x="0px" y="0px"
	 viewBox="0 0 46 46" style="enable-background:new 0 0 46 46;" xml:space="preserve">
<style type="text/css">
	.st0{fill:#5C11F2;}
	.st1{fill:#FFFFFF;}
</style>
<g id="Group_648" transform="translate(-499 -406)">
	<rect id="Rectangle_41" x="499" y="406" class="st0" width="46" height="46"/>
	<g id="Group_647" transform="translate(478.772 415.088)">
		<path id="Path_321" class="st1" d="M47.87,18.38c2.96-4.65,2.59-4.07,2.67-4.19c1.08-1.51,1.65-3.32,1.65-5.18
			c0-4.95-4.01-8.97-8.96-8.97s-8.97,4.01-8.97,8.96c0,1.89,0.59,3.73,1.7,5.25l2.63,4.12C35.77,18.82,31,20.1,31,22.93
			c0,1.03,0.67,2.5,3.88,3.65c2.69,0.87,5.51,1.29,8.34,1.24c5.87,0,12.23-1.66,12.23-4.89C55.46,20.1,50.69,18.82,47.87,18.38z
			 M37.29,13.32c-2.38-3.28-1.65-7.87,1.63-10.25c3.28-2.38,7.87-1.65,10.25,1.63c1.84,2.54,1.87,5.97,0.06,8.53
			c-0.08,0.1,0.33-0.53-6,9.4l-5.91-9.27L37.29,13.32z M43.23,26.19c-6.41,0-10.6-1.89-10.6-3.26c0-0.92,2.15-2.44,6.92-3.04
			l2.99,4.7c0.24,0.38,0.75,0.49,1.13,0.25c0.1-0.06,0.19-0.15,0.25-0.25l2.99-4.7c4.76,0.59,6.92,2.11,6.92,3.04
			C53.82,24.3,49.68,26.19,43.23,26.19L43.23,26.19z"/>
		<path id="Path_322" class="st1" d="M47.3,9.02c0-2.25-1.82-4.08-4.08-4.08c-2.25,0-4.08,1.82-4.08,4.08
			c0,2.25,1.82,4.08,4.08,4.08C45.48,13.09,47.3,11.27,47.3,9.02z M40.78,9.02c0-1.35,1.09-2.45,2.45-2.45
			c1.35,0,2.44,1.09,2.44,2.45s-1.09,2.44-2.44,2.44C41.88,11.46,40.78,10.37,40.78,9.02L40.78,9.02z"/>
	</g>
</g>
</svg>
