<?xml version="1.0" encoding="utf-8"?>
<!-- Generator: Adobe Illustrator 25.2.1, SVG Export Plug-In . SVG Version: 6.00 Build 0)  -->
<svg version="1.1" id="Layer_1" xmlns="http://www.w3.org/2000/svg" xmlns:xlink="http://www.w3.org/1999/xlink" x="0px" y="0px"
	 viewBox="0 0 46 46" style="enable-background:new 0 0 46 46;" xml:space="preserve">
<style type="text/css">
	.st0{fill:#5C11F2;}
	.st1{fill:#FFFFFF;}
</style>
<g id="Group_643" transform="translate(-738 -406)">
	<rect id="Rectangle_41" x="738" y="406" class="st0" width="46" height="46"/>
	<path id="Path_308" class="st1" d="M765.81,439.68h-0.05c-1.67-0.05-3.32-0.43-4.85-1.13c-0.43-0.19-0.62-0.69-0.43-1.12
		c0.19-0.42,0.67-0.61,1.1-0.44c1.32,0.6,2.74,0.94,4.18,0.99h0.04c1.39,0.06,2.75-0.43,3.78-1.38l0.01-0.01
		c0.56-0.61,0.52-1.56-0.08-2.13c-2.28-2.2-3.35-2.04-4.35-1.07l-1.58,1.58c-0.25,0.25-0.62,0.32-0.94,0.17
		c-1.72-0.87-3.29-2.02-4.63-3.41l-0.11-0.11c-1.39-1.34-2.54-2.9-3.41-4.63c-0.14-0.32-0.07-0.69,0.18-0.94l1.57-1.58
		c0.97-0.99,1.13-2.07-1.07-4.35c-0.57-0.6-1.51-0.63-2.12-0.08l-0.01,0.01c-0.95,1.04-1.44,2.41-1.37,3.82
		c0.02,3.05,1.74,6.58,4.62,9.46l0.01,0.01c0.59,0.58,1.21,1.12,1.86,1.62c0.37,0.28,0.44,0.82,0.16,1.19
		c-0.28,0.37-0.82,0.44-1.19,0.16c-0.71-0.54-1.39-1.13-2.03-1.76l-0.01-0.01c-3.2-3.19-5.11-7.18-5.13-10.66
		c-0.08-1.87,0.6-3.69,1.89-5.04l0.03-0.03l0.02-0.02c1.29-1.16,3.27-1.09,4.48,0.16c0.93,0.86,1.65,1.93,2.08,3.12
		c0.38,1.29-0.02,2.69-1.02,3.59l0,0l-1.14,1.15c0.77,1.32,1.71,2.54,2.8,3.61l0.11,0.11c1.07,1.09,2.29,2.03,3.61,2.8l1.14-1.14
		l0,0c0.9-1.01,2.3-1.41,3.6-1.02c1.19,0.43,2.26,1.14,3.12,2.07c1.25,1.21,1.32,3.18,0.16,4.48l-0.02,0.02l-0.03,0.03
		C769.47,439.07,767.67,439.75,765.81,439.68z M766.33,427.26c0.45-0.13,0.71-0.61,0.57-1.05l-0.01-0.04
		c-0.46-1.67-1.78-2.97-3.45-3.41c-0.45-0.11-0.91,0.16-1.03,0.62c-0.11,0.44,0.14,0.88,0.57,1.01c0.55,0.13,1.06,0.42,1.46,0.83
		c0.4,0.39,0.69,0.89,0.82,1.43l0.01,0.04C765.41,427.14,765.88,427.39,766.33,427.26C766.33,427.26,766.33,427.26,766.33,427.26
		L766.33,427.26z M770.79,428.33c0.03-5.19-4.15-9.42-9.33-9.45c-0.03,0-0.05,0-0.08,0h-0.05c-0.47,0-0.85,0.38-0.85,0.85
		s0.38,0.85,0.85,0.85h0.05c4.25-0.01,7.7,3.44,7.71,7.69c0,0.02,0,0.04,0,0.06c0,0.47,0.38,0.85,0.84,0.85c0,0,0,0,0,0l0,0
		c0.47,0,0.85-0.37,0.85-0.84C770.79,428.33,770.79,428.33,770.79,428.33L770.79,428.33z"/>
</g>
</svg>
