<?xml version="1.0" encoding="utf-8"?>
<!-- Generator: Adobe Illustrator 25.2.1, SVG Export Plug-In . SVG Version: 6.00 Build 0)  -->
<svg version="1.1" id="Layer_1" xmlns="http://www.w3.org/2000/svg" xmlns:xlink="http://www.w3.org/1999/xlink" x="0px" y="0px"
	 viewBox="0 0 46 46" style="enable-background:new 0 0 46 46;" xml:space="preserve">
<style type="text/css">
	.st0{fill:#5C11F2;}
	.st1{fill:#FFFFFF;}
</style>
<g>
	<rect id="Rectangle_42" class="st0" width="46" height="46"/>
	<g id="Group_646" transform="translate(-760 -339.326)">
		<g id="Group_645" transform="translate(770.37 348.002)">
			<path id="Path_316" class="st1" d="M26.95,0.8c-0.02-0.43-0.37-0.78-0.8-0.8c-1.46-0.01-2.92,0.17-4.33,0.55
				c-3.24,0.81-6.2,2.49-8.57,4.84c-0.31,0.31-0.61,0.64-0.9,0.97C9.22,4.74,5.4,5.34,2.9,7.83L0.93,9.81
				c-0.32,0.34-0.32,0.87,0.02,1.19c0.17,0.17,0.41,0.25,0.65,0.24c2.33-0.22,4.65,0.54,6.4,2.1c-0.35,0.77-0.66,1.5-0.92,2.17
				C7,15.72,7,15.94,7.08,16.14c-0.84,0.3-1.49,0.97-1.77,1.82L4,21.89c-0.15,0.44,0.09,0.91,0.53,1.06c0.17,0.06,0.36,0.06,0.53,0
				L9,21.64c0.85-0.28,1.52-0.93,1.82-1.77c0.2,0.08,0.42,0.08,0.62,0.01c0.67-0.26,1.41-0.57,2.17-0.92
				c1.56,1.75,2.32,4.07,2.1,6.4c-0.03,0.46,0.31,0.87,0.78,0.9c0.24,0.02,0.48-0.07,0.65-0.24l1.98-1.98
				c2.49-2.5,3.09-6.32,1.47-9.45c0.33-0.29,0.66-0.59,0.97-0.9c2.35-2.37,4.03-5.33,4.84-8.57C26.78,3.72,26.97,2.26,26.95,0.8
				L26.95,0.8z M3.51,9.59l0.57-0.57c1.9-1.88,4.75-2.4,7.18-1.32c-0.95,1.29-1.79,2.65-2.52,4.08C7.25,10.57,5.43,9.81,3.51,9.59
				L3.51,9.59z M9.28,19.16c-0.09,0.42-0.4,0.76-0.81,0.89l-2.34,0.78l0.78-2.34c0.22-0.65,0.92-1,1.57-0.78
				c0.05,0.02,0.1,0.04,0.14,0.06l0.58,0.58C9.32,18.6,9.35,18.89,9.28,19.16L9.28,19.16z M17.93,22.87l-0.57,0.57
				c-0.22-1.92-0.98-3.73-2.19-5.23c1.43-0.73,2.79-1.57,4.08-2.52C20.33,18.12,19.81,20.97,17.93,22.87L17.93,22.87z M20.38,12.51
				c-2.62,2.43-5.69,4.33-9.04,5.6l-2.5-2.5c1.27-3.35,3.17-6.41,5.6-9.04c1.59-1.59,3.49-2.84,5.59-3.68
				c0.64,1.9,2.13,3.38,4.03,4.03C23.22,9.02,21.97,10.92,20.38,12.51L20.38,12.51z M24.6,5.34c-1.41-0.47-2.52-1.58-2.99-2.99
				c0.19-0.06,0.38-0.11,0.56-0.15c1.01-0.26,2.04-0.43,3.08-0.49C25.17,2.93,24.95,4.15,24.6,5.34z"/>
		</g>
		<path id="Path_317" class="st1" d="M773.59,371.74c-0.33-0.33-0.86-0.33-1.19,0c0,0,0,0,0,0l-1.19,1.19
			c-0.33,0.33-0.33,0.86,0,1.19s0.86,0.33,1.19,0l1.19-1.19C773.92,372.6,773.92,372.06,773.59,371.74
			C773.59,371.74,773.59,371.74,773.59,371.74L773.59,371.74z"/>
		<path id="Path_318" class="st1" d="M777.35,373.29c-0.46,0-0.84,0.38-0.84,0.84v1.68c0,0.46,0.38,0.84,0.84,0.84
			c0.46,0,0.84-0.38,0.84-0.84v-1.68C778.19,373.67,777.81,373.29,777.35,373.29L777.35,373.29z"/>
		<path id="Path_319" class="st1" d="M772.03,367.98c0-0.46-0.38-0.84-0.84-0.84h-1.68c-0.46,0-0.84,0.38-0.84,0.84
			c0,0.46,0.38,0.84,0.84,0.84h1.68C771.66,368.82,772.03,368.44,772.03,367.98L772.03,367.98z"/>
		<path id="Path_320" class="st1" d="M786.82,354.94c-0.98,0.98-0.98,2.58,0,3.56c0.98,0.98,2.58,0.98,3.56,0s0.98-2.58,0-3.56
			c0,0,0,0,0,0C789.39,353.96,787.8,353.96,786.82,354.94z M789.19,357.32c-0.33,0.33-0.86,0.33-1.19,0s-0.33-0.86,0-1.19
			c0.33-0.33,0.86-0.33,1.19,0C789.52,356.46,789.52,356.99,789.19,357.32z"/>
	</g>
</g>
</svg>
