<?xml version="1.0" encoding="utf-8"?>
<!-- Generator: Adobe Illustrator 25.2.1, SVG Export Plug-In . SVG Version: 6.00 Build 0)  -->
<svg version="1.1" id="Layer_1" xmlns="http://www.w3.org/2000/svg" xmlns:xlink="http://www.w3.org/1999/xlink" x="0px" y="0px"
	 viewBox="0 0 22.3 43.1" style="enable-background:new 0 0 22.3 43.1;" xml:space="preserve">
<style type="text/css">
	.st0{fill:#FFFFFF;}
</style>
<path class="st0" d="M17.7,8.65h4.85V0.18l-0.92-0.13c-1.9-0.2-3.79-0.3-5.63-0.3C9.68-0.25,5.75,3.87,5.75,10.5v4.85h-6v9.4h6v18.6
	h9.4v-18.6h5.67l1.16-9.4h-6.83V11.3C15.15,9.34,15.54,8.65,17.7,8.65z M13.15,22.75v18.6h-5.5v-18.6h-6v-5.4h6V10.5
	c0-5.48,3.08-8.75,8.25-8.75c1.49,0,3.04,0,4.55,0.17v4.73H17.7c-4.08,0-4.55,2.65-4.55,4.65v6.05h6.57l-0.64,5.4H13.15z"/>
</svg>
