<?xml version="1.0" encoding="utf-8"?>
<!-- Generator: Adobe Illustrator 25.2.1, SVG Export Plug-In . SVG Version: 6.00 Build 0)  -->
<svg version="1.1" id="Layer_1" xmlns="http://www.w3.org/2000/svg" xmlns:xlink="http://www.w3.org/1999/xlink" x="0px" y="0px"
	 viewBox="0 0 44.2 44.2" style="enable-background:new 0 0 44.2 44.2;" xml:space="preserve">
<style type="text/css">
	.st0{fill:#FFFFFF;}
</style>
<g id="Group_632" transform="translate(1 1)">
	<g id="Path_309">
		<path class="st0" d="M43.1,43.2H32.4V28.5c0-4.3-0.5-6.4-3.5-6.4s-4.2,1.7-4.2,6.2v14.9H14v-30h10.4v2.1c2-1.9,4.6-2.9,7.4-2.8
			c10,0,11.4,7.2,11.4,14.3v16.4H43.1z M34.4,41.2h6.7V26.8c0-7.6-1.6-12.3-9.4-12.3c-3-0.1-5.8,1.4-7.4,4L24.1,19h-1.7v-3.8H16v26
			h6.7V28.3c0-2.2,0-8.2,6.2-8.2c5.5,0,5.5,5.5,5.5,8.4V41.2z"/>
	</g>
	<g id="Rectangle_32">
		<path class="st0" d="M10.5,43.2H-0.2v-30h10.7V43.2z M1.8,41.2h6.7v-26H1.8V41.2z"/>
	</g>
	<g id="Path_310">
		<path class="st0" d="M5.2,11.3L5.2,11.3c-3.4,0-6.1-2.8-6.1-6.1s2.8-6,6.1-6s6,2.7,6,6C11.2,8.6,8.5,11.3,5.2,11.3z M5.2,1.2
			C3,1.2,1.1,3,1.1,5.2s1.8,4.1,4,4.1l0,0c2.2,0,4.1-1.8,4.1-4C9.2,3,7.4,1.2,5.2,1.2L5.2,1.2L5.2,1.2z"/>
	</g>
</g>
</svg>
