<?xml version="1.0" encoding="utf-8"?>
<!-- Generator: Adobe Illustrator 25.2.1, SVG Export Plug-In . SVG Version: 6.00 Build 0)  -->
<svg version="1.1" id="Layer_1" xmlns="http://www.w3.org/2000/svg" xmlns:xlink="http://www.w3.org/1999/xlink" x="0px" y="0px"
	 viewBox="0 0 27.38 27.38" style="enable-background:new 0 0 27.38 27.38;" xml:space="preserve">
<style type="text/css">
	.st0{fill-rule:evenodd;clip-rule:evenodd;fill:#F0DB4F;}
</style>
<path id="Path_55" class="st0" d="M-0.09-0.08v27.54h27.55V-0.08H-0.09z M12.53,16.85c0,1.36-1.53,2.97-4.21,2.8s-3.1-2.12-3.1-2.12
	l1.96-1.32c0,0,0.38,1.02,1.23,1.19c0.72,0.2,1.46-0.23,1.65-0.95c0.03-0.12,0.05-0.25,0.05-0.37V7.92h2.42L12.53,16.85z
	 M22.12,16.43c-0.21,1.4-0.81,3.23-4.33,3.23c-1.69,0-3.24-0.92-4.04-2.41l2-1.2c0,0,0.68,1.45,1.95,1.45s1.78-0.42,1.78-1.4
	c0-1.19-4.12-1.61-4.76-3.65s0.21-4.93,3.19-4.72c1.34,0.05,2.59,0.67,3.43,1.71l-1.98,1.43c-0.23-0.72-0.99-1.11-1.71-0.89
	c-0.35,0.11-0.64,0.35-0.8,0.68c-0.34,1.02,0.81,1.61,2.59,2.21C21.07,13.27,22.18,14.75,22.12,16.43L22.12,16.43z"/>
</svg>
