<svg width="716" height="412" viewBox="0 0 716 412" fill="none" xmlns="http://www.w3.org/2000/svg">
<path d="M-22.9986 352.713C-20.8422 361.417 -17.6736 368.844 -13.49 374.993C3.00431 399.245 29.8968 410.829 49.1394 410.713C66.7722 410.606 79.4907 406.792 88.9984 400.997C100.972 393.688 110.028 382.164 117.537 368.998C125.046 355.831 127.89 339.403 124.847 323.003C121.803 306.603 111.882 291.921 101.936 285.568C92.593 279.601 85.2565 277.289 77.7854 276.83C69.9736 276.352 59.7596 276.219 45.9516 288.445C42.6204 291.396 38.7279 296.816 36.3464 301.912C35.4763 303.775 30.9742 314.424 31.5333 326.249C32.0115 336.384 36.998 347.49 42.2748 353.443C54.1683 366.857 77.0502 371.701 93.0574 369.137C107.694 366.791 124.795 356.936 136.576 339.084C143.332 328.846 149.044 315.137 151.343 301.215C153.554 287.836 157.248 268.867 162.151 253.807C166.855 239.36 172.775 228.603 174.609 225.534C178.125 219.651 182.415 215.6 184.183 213.629C187.605 209.813 203.926 196.171 216.832 191.154C238.899 182.574 261.253 182.998 266.404 183.544C280.639 185.051 291.773 189.588 300.536 194.579C314.812 202.708 323.011 213.894 326.601 224.104C329.947 233.618 329.221 242.339 327.6 245.56C325.252 250.23 322.218 257.335 313.451 261.869C311.844 262.7 309.278 264.166 304.913 265.23C302.442 265.833 287.25 266.949 273.519 262.111C267.677 260.053 254.242 255.46 242.478 246.076C226.59 233.405 211.928 214.607 206.006 206.096C195.7 191.281 188.314 177.705 185.343 163.191C184.767 160.376 182.81 147.351 184.683 134.957C186.451 123.263 191.934 112.249 195.189 107.101C201.94 96.4199 211.95 87.9568 229.251 81.3273C232.735 79.9922 238.701 79.1486 243.157 78.7036C247.783 78.2329 250.935 78.2111 256.489 78.6227C268.818 79.5369 283.311 82.6922 299.908 91.0072C305.654 93.8852 313.449 98.0754 323.274 105.076C329.06 109.199 339.33 117.241 354.082 129.206L400.409 166.447C418.84 180.579 434.071 191.282 447.863 198.131C457.355 202.848 473.232 211.433 492.025 216.238C496.329 217.338 519.399 220.911 541.314 218.319C562.728 215.786 582.891 207.194 595.798 199.363C624.065 182.218 641.745 154.395 645.923 146.187C654.637 129.062 662.233 105.402 668.491 78.6624C674.281 53.869 678.806 26.6156 685.086 -4.85395L714.085 -160.616" stroke="rgba(209, 236, 253, 0.1)" stroke-width="2"/>
</svg>
