<svg width="357" height="525" viewBox="0 0 357 525" fill="none" xmlns="http://www.w3.org/2000/svg">
<path d="M312.436 557.32C318.985 555.739 324.579 553.393 329.217 550.279C347.51 537.999 356.335 517.851 356.335 503.396C356.335 490.151 353.528 480.58 349.218 473.411C343.782 464.384 335.167 457.529 325.31 451.828C315.454 446.128 303.126 443.916 290.792 446.128C278.459 448.339 267.385 455.725 262.567 463.167C258.042 470.158 256.271 475.658 255.893 481.268C255.498 487.134 255.351 494.806 264.473 505.234C266.674 507.749 270.728 510.698 274.546 512.51C275.941 513.172 283.92 516.603 292.806 516.236C300.421 515.923 308.787 512.228 313.282 508.292C323.413 499.419 327.157 482.253 325.304 470.217C323.608 459.212 316.283 446.321 302.926 437.39C295.266 432.269 284.993 427.916 274.546 426.126C264.506 424.404 250.273 421.543 238.982 417.791C228.151 414.191 220.097 409.695 217.8 408.304C213.397 405.636 210.373 402.395 208.901 401.058C206.05 398.47 195.877 386.148 192.167 376.431C185.822 359.816 186.242 343.026 186.676 339.159C187.873 328.474 191.331 320.131 195.121 313.571C201.293 302.885 209.733 296.776 217.419 294.127C224.581 291.656 231.129 292.242 233.541 293.473C237.038 295.259 242.362 297.57 245.728 304.176C246.345 305.387 247.435 307.321 248.214 310.605C248.656 312.464 249.425 323.881 245.728 334.173C244.155 338.552 240.644 348.623 233.541 357.417C223.95 369.293 209.762 380.221 203.341 384.631C192.165 392.305 181.933 397.791 171.017 399.957C168.9 400.377 159.107 401.787 149.805 400.324C141.029 398.943 132.779 394.774 128.927 392.305C120.934 387.185 114.622 379.628 109.721 366.601C108.734 363.978 108.128 359.493 107.814 356.144C107.481 352.667 107.479 350.299 107.814 346.129C108.557 336.872 110.993 326 117.315 313.57C119.503 309.268 122.686 303.431 127.99 296.083C131.113 291.755 137.201 284.078 146.256 273.051L174.444 238.421C185.143 224.641 193.253 213.249 198.461 202.92C202.047 195.811 208.569 183.924 212.264 169.829C213.11 166.602 215.899 149.288 214.052 132.815C212.246 116.718 205.884 101.533 200.06 91.802C187.31 70.4905 166.49 57.0835 160.343 53.9077C147.518 47.2838 129.78 41.4704 109.721 36.6478C91.1227 32.1851 70.6706 28.6623 47.0592 23.8015L-69.817 1.30802" stroke="#E1E1C2" stroke-opacity="0.7" stroke-width="2"/>
</svg>
