<svg width="860" height="410" viewBox="0 0 860 410" fill="none" xmlns="http://www.w3.org/2000/svg">
<path id="Vector" d="M840.8 -11.0193C846.556 -4.22574 850.696 2.64069 853.217 9.5822C863.162 36.9539 856.866 65.3389 845.593 80.766C835.262 94.9025 824.802 102.928 814.612 107.217C801.77 112.613 787.229 113.209 772.264 111.607C757.3 110.004 742.419 102.75 730.981 90.7706C719.543 78.7915 713.485 62.273 714.147 50.5725C714.771 39.5829 717.171 32.3318 721.142 26.0495C725.296 19.4811 731.123 11.1792 748.99 7.16363C753.302 6.19559 759.927 6.21025 765.415 7.2536C767.421 7.6352 778.611 10.1966 787.808 17.5172C795.691 23.7904 801.738 34.2582 803.465 41.9655C807.357 59.3361 797.963 80.5758 786.599 91.9759C776.206 102.398 758.335 110.444 737.115 109.558C724.946 109.05 710.588 105.685 698.042 99.4477C685.985 93.4553 668.564 85.4094 653.589 80.6077C639.222 76.0024 627.12 74.5198 623.583 74.2133C616.804 73.6264 611.05 74.7275 608.435 75.0062C603.375 75.545 582.908 80.7611 571.37 88.2387C551.639 101.023 538.993 119.27 536.441 123.735C529.384 136.073 526.569 147.674 525.496 157.63C523.749 173.848 527.992 186.95 534.128 195.772C539.845 203.994 547.289 208.476 550.824 209.042C555.949 209.864 563.433 211.549 572.177 207.124C573.781 206.313 576.452 205.098 579.844 202.202C581.766 200.562 591.491 188.977 595.572 175.11C597.309 169.21 601.416 155.723 600.695 140.799C599.722 120.644 593.104 97.9158 589.69 88.2021C583.749 71.2956 577.108 57.4608 567.147 46.6364C565.215 44.5372 555.864 35.3943 544.795 29.7011C534.352 24.3311 522.297 22.3473 516.261 21.9771C503.738 21.2082 491.107 24.3514 475.717 34.4317C472.618 36.4617 468.473 40.7753 465.526 44.1044C462.459 47.5562 460.61 50.082 457.715 54.7934C451.288 65.252 445.409 78.7553 442.461 96.9513C441.441 103.25 440.286 111.962 440.215 123.94C440.173 130.995 440.683 143.936 441.746 162.766L444.819 221.708C445.491 244.759 445.26 263.242 442.762 278.327C441.045 288.711 438.735 306.484 431.685 324.408C430.071 328.512 419.544 349.166 404.725 365.306C390.244 381.078 371.611 392.322 357.807 398.166C327.578 410.967 294.902 409.038 285.865 407.633C267.013 404.701 243.548 397.072 218.381 386.575C195.052 376.834 170.478 364.643 141.489 351.417L-0.784732 284.274" stroke="#D1ECFD" stroke-opacity="0.1" stroke-width="2"/>
</svg>
