<svg width="1200" height="912" viewBox="0 0 1200 912" fill="none" xmlns="http://www.w3.org/2000/svg">
<g clip-path="url(#clip0_109_2)">
<path d="M1205.9 1.27588C1218.16 12.0726 1227.51 23.4328 1233.93 35.3607C1259.28 82.3934 1255.42 135.596 1239.07 166.605C1224.09 195.018 1207.24 212.376 1189.89 222.877C1168.02 236.095 1141.78 241.055 1114.19 242.135C1086.6 243.215 1057.65 234.016 1033.7 215.321C1009.74 196.626 994.343 168.256 992.427 146.842C990.629 126.728 993.053 112.926 998.587 100.464C1004.37 87.4336 1012.74 70.8107 1044.1 58.7582C1051.67 55.8515 1063.7 54.1116 1073.94 54.5424C1077.68 54.7003 1098.67 56.3663 1117.32 67.2024C1133.3 76.4878 1147.07 93.8766 1152.26 107.406C1163.95 137.899 1152.57 178.956 1134.98 202.681C1118.89 224.369 1088.6 243.739 1049.84 247.789C1027.62 250.11 1000.66 247.829 976.224 239.853C952.74 232.19 918.974 222.231 890.51 217.506C863.205 212.977 840.844 213.513 834.34 213.9C821.879 214.642 811.727 218.174 807.055 219.377C798.013 221.705 762.253 236.629 743.303 253.279C710.898 281.745 692.808 318.237 689.365 327.023C679.845 351.298 677.827 373.108 678.535 391.466C679.687 421.371 690.882 444.021 704.372 458.398C716.942 471.798 731.65 477.948 738.218 478.035C747.739 478.161 761.772 479.224 776.464 468.861C779.16 466.96 783.684 464.044 789.069 457.882C792.119 454.394 806.684 430.771 810.395 404.513C811.974 393.34 815.835 367.765 810.547 340.866C803.408 304.54 785.334 265.05 776.548 248.327C761.256 219.224 745.513 195.881 724.547 178.889C720.479 175.594 701.068 161.49 679.46 154.108C659.071 147.144 636.66 146.758 625.605 147.695C602.668 149.638 580.581 158.711 555.332 181.111C550.247 185.623 543.873 194.558 539.411 201.385C534.764 208.469 532.082 213.547 528.082 222.871C519.206 243.568 512.134 269.647 511.635 303.461C511.461 315.166 511.689 331.287 514.753 353.048C516.558 365.866 520.934 389.221 527.884 423.118L549.176 529.287C556.54 570.95 561.05 604.563 560.539 632.61C560.189 651.916 560.734 684.792 552.716 719.206C550.881 727.087 537.279 767.384 514.682 800.632C492.602 833.121 461.777 858.5 438.279 872.787C386.823 904.082 326.995 909.294 310.218 909.153C275.214 908.856 230.589 901.263 182.106 888.921C137.164 877.458 89.3074 861.882 33.1609 845.602L-242.992 761.656" stroke="#D1ECFD" stroke-width="2"/>
</g>
<defs>
<clipPath id="clip0_109_2">
<rect width="1200" height="911.29" fill="white"/>
</clipPath>
</defs>
</svg>
