<svg width="360" height="574" viewBox="0 0 360 574" fill="none" xmlns="http://www.w3.org/2000/svg">
<path d="M-6.91899 514.198C-4.76266 522.903 -1.59402 530.33 2.58963 536.479C19.0839 560.731 45.9763 572.315 65.219 572.198C82.8518 572.091 95.5703 568.278 105.078 562.483C117.051 555.174 126.108 543.649 133.617 530.483C141.125 517.317 143.97 500.889 140.926 484.489C137.883 468.088 127.962 453.407 118.015 447.053C108.673 441.087 101.336 438.774 93.865 438.316C86.0532 437.837 75.8392 437.704 62.0312 449.931C58.6999 452.881 54.8075 458.301 52.426 463.398C51.5559 465.261 47.0538 475.909 47.6129 487.735C48.0911 497.87 53.0776 508.976 58.3544 514.928C70.2479 528.343 93.1298 533.187 109.137 530.623C123.773 528.276 140.875 518.422 152.656 500.57C159.412 490.332 165.123 476.622 167.422 462.7C169.633 449.322 173.327 430.353 178.23 415.293C182.935 400.846 188.855 390.088 190.689 387.019C194.204 381.137 198.495 377.086 200.263 375.115C203.685 371.299 220.005 357.657 232.911 352.64C254.979 344.059 277.333 344.483 282.484 345.029C296.718 346.537 307.852 351.073 316.616 356.064C330.891 364.194 339.091 375.38 342.68 385.59C346.026 395.103 345.3 403.824 343.68 407.046C341.331 411.715 338.298 418.82 329.531 423.355C327.923 424.186 325.358 425.652 320.993 426.716C318.522 427.319 303.329 428.434 289.599 423.597C283.757 421.538 270.322 416.946 258.558 407.562C242.67 394.891 228.008 376.093 222.086 367.581C211.779 352.766 204.393 339.19 201.423 324.676C200.847 321.862 198.89 308.837 200.762 296.442C202.53 284.749 208.014 273.734 211.268 268.586C218.02 257.905 228.029 249.442 245.331 242.813C248.815 241.478 254.781 240.634 259.236 240.189C263.862 239.718 267.015 239.697 272.569 240.108C284.897 241.023 299.39 244.178 315.988 252.493C321.734 255.371 329.529 259.561 339.353 266.562C345.14 270.684 355.409 278.727 370.161 290.691L416.489 327.933C434.919 342.065 450.151 352.768 463.942 359.617C473.435 364.333 489.312 372.919 508.105 377.723C512.408 378.823 535.479 382.397 557.393 379.804C578.807 377.271 598.971 368.679 611.878 360.849C640.145 343.704 657.824 315.88 662.002 307.672C670.717 290.547 678.312 266.888 684.57 240.148C690.361 215.355 694.885 188.101 701.165 156.632L730.165 0.869853" stroke="#D1ECFD" stroke-opacity="0.1" stroke-width="2"/>
</svg>
