<svg width="407" height="656" viewBox="0 0 407 656" fill="none" xmlns="http://www.w3.org/2000/svg">
<path d="M48.7468 654.165C40.4601 650.737 33.5874 646.499 28.1292 641.447C6.60207 621.527 -0.851089 593.21 2.12801 574.199C4.8579 556.778 10.5217 544.769 17.6671 536.23C26.6766 525.477 39.4203 518.237 53.5574 512.771C67.6945 507.305 84.3629 506.937 100.128 512.387C115.892 517.838 128.934 529.833 133.736 540.614C138.246 550.741 139.441 558.34 138.783 565.796C138.093 573.592 136.705 583.712 122.56 595.547C119.146 598.402 113.207 601.444 107.813 603.041C105.841 603.624 94.6413 606.491 83.0307 604.179C73.0799 602.197 62.8394 595.614 57.7386 589.51C46.2438 575.752 44.8588 552.405 49.7763 536.957C54.2748 522.833 66.5648 507.388 85.9711 498.395C97.1006 493.238 111.508 489.63 125.616 489.429C139.175 489.234 158.482 488.403 174.104 485.796C189.091 483.294 200.609 479.041 203.917 477.684C210.258 475.083 214.902 471.444 217.114 469.988C221.397 467.172 237.315 453.064 244.197 441.048C255.966 420.503 258.874 398.335 259.1 393.16C259.728 378.86 256.899 367.175 253.268 357.767C247.353 342.44 237.512 332.667 227.95 327.598C219.04 322.874 210.308 322.294 206.882 323.416C201.915 325.044 194.437 326.986 188.649 334.981C187.587 336.447 185.756 338.766 184.054 342.923C183.09 345.278 179.726 360.135 182.467 374.432C183.633 380.516 186.175 394.485 193.703 407.514C203.869 425.111 220.276 442.407 227.811 449.53C240.927 461.926 253.253 471.25 267.163 476.348C269.861 477.336 282.449 481.21 294.984 481.203C306.811 481.194 318.519 477.411 324.094 474.959C335.661 469.872 345.519 461.234 354.649 445.111C356.488 441.865 358.21 436.091 359.313 431.751C360.467 427.247 360.958 424.132 361.377 418.579C362.308 406.252 361.345 391.451 355.593 373.8C353.602 367.69 350.618 359.358 345.158 348.601C341.942 342.266 335.517 330.914 325.881 314.546L295.949 263.192C284.717 242.863 276.4 226.209 271.68 211.551C268.429 201.463 262.301 184.485 260.347 165.186C259.9 160.767 259.799 137.421 265.624 116.137C271.316 95.3383 282.813 76.6782 292.477 65.0803C313.637 39.6792 343.782 26.3374 352.521 23.4273C370.752 17.3587 395.278 13.3686 422.652 11.1597C448.031 9.12334 475.654 8.70499 507.708 7.1782L666.051 1.68156" stroke="#D1ECFD" stroke-opacity="0.1" stroke-width="2"/>
</svg>
