<svg width="215" height="412" viewBox="0 0 215 412" fill="none" xmlns="http://www.w3.org/2000/svg">
<path d="M36.8272 419.807C32.1189 419.186 28.0229 417.955 24.539 416.114C10.7997 408.855 3.11035 395.365 2.03165 385.216C1.04319 375.916 2.29641 368.986 4.78259 363.632C7.91936 356.889 13.4472 351.434 19.9308 346.697C26.4143 341.96 34.8907 339.489 43.7013 340.123C52.512 340.757 60.8257 345.117 64.7584 349.984C68.4518 354.555 70.1033 358.285 70.7873 362.196C71.5019 366.285 72.177 371.661 66.5614 379.662C65.206 381.593 62.5844 383.965 60.0435 385.522C59.1148 386.091 53.778 389.094 47.5219 389.499C42.1603 389.846 36.0205 387.875 32.5755 385.446C24.8119 379.971 20.907 368.197 21.3077 359.608C21.6753 351.755 25.8478 342.157 34.544 334.892C39.5313 330.725 46.4073 326.903 53.5971 324.868C60.5062 322.911 70.2693 319.842 77.904 316.366C85.2278 313.032 90.5377 309.275 92.0442 308.127C94.9315 305.926 96.8091 303.425 97.7415 302.376C99.5466 300.347 105.758 290.937 107.634 283.838C110.842 271.699 109.294 259.942 108.702 257.259C107.065 249.845 104.018 244.245 100.872 239.922C95.7485 232.878 89.3763 229.218 83.7909 227.93C78.5863 226.73 74.04 227.628 72.4409 228.673C70.1228 230.187 66.5636 232.206 64.697 237.096C64.3548 237.992 63.7354 239.431 63.434 241.794C63.2632 243.133 63.5763 251.206 66.9355 258.157C68.3649 261.115 71.5777 267.925 77.2127 273.57C84.8219 281.194 95.5828 287.81 100.413 290.428C108.819 294.984 116.401 298.074 124.215 298.781C125.73 298.918 132.7 299.179 139.112 297.458C145.16 295.835 150.632 292.293 153.148 290.273C158.368 286.082 162.229 280.306 164.692 270.794C165.188 268.879 165.279 265.684 165.249 263.31C165.223 260.843 165.047 259.18 164.502 256.277C163.29 249.833 160.771 242.381 155.412 234.125C153.557 231.267 150.89 227.406 146.624 222.642C144.112 219.835 139.271 214.898 132.101 207.831L109.758 185.616C101.23 176.738 94.6951 169.342 90.2738 162.478C87.2294 157.754 81.7706 149.894 78.1289 140.272C77.295 138.069 74.0477 126.121 74.1135 114.416C74.1776 102.98 77.5043 91.8436 80.8604 84.5772C88.2075 68.6637 101.802 57.699 105.873 55.0111C114.369 49.4048 126.369 44.0015 140.07 39.121C152.773 34.602 166.847 30.6047 183.035 25.4328L263.283 0.931823" stroke="#E1E1C2" stroke-opacity="0.7" stroke-width="2"/>
</svg>
