<svg width="642" height="800" viewBox="0 0 642 800" fill="none" xmlns="http://www.w3.org/2000/svg">
<path id="Vector" d="M574.998 -37.9768C584.844 -35.601 593.254 -32.0731 600.228 -27.3901C627.732 -8.92694 641 21.3671 641 43.1013C641 63.0173 636.78 77.4082 630.3 88.1863C622.127 101.76 609.173 112.067 594.354 120.638C579.535 129.209 561 132.535 542.456 129.209C523.912 125.884 507.262 114.78 500.018 103.589C493.215 93.0781 490.553 84.8078 489.984 76.3728C489.39 67.553 489.17 56.0178 502.884 40.3387C506.194 36.5561 512.289 32.1227 518.029 29.398C520.127 28.4024 532.123 23.2446 545.483 23.7951C556.933 24.2657 569.511 29.8216 576.27 35.7406C591.502 49.0817 597.13 74.8922 594.344 92.989C591.794 109.536 580.781 128.919 560.699 142.347C549.182 150.047 533.737 156.592 518.029 159.284C502.934 161.873 481.535 166.175 464.559 171.816C448.274 177.229 436.165 183.989 432.711 186.081C426.091 190.092 421.545 194.965 419.331 196.976C415.045 200.867 399.749 219.394 394.171 234.004C384.631 258.987 385.263 284.232 385.915 290.046C387.715 306.112 392.915 318.656 398.612 328.52C407.892 344.588 420.582 353.772 432.138 357.756C442.906 361.47 452.751 360.59 456.378 358.738C461.636 356.053 469.64 352.579 474.701 342.646C475.629 340.825 477.267 337.917 478.439 332.98C479.103 330.185 480.259 313.018 474.701 297.543C472.336 290.959 467.057 275.816 456.378 262.594C441.958 244.737 420.626 228.305 410.972 221.675C394.169 210.136 378.785 201.887 362.372 198.631C359.189 198 344.465 195.879 330.479 198.079C317.284 200.156 304.881 206.425 299.089 210.136C287.072 217.834 277.582 229.198 270.213 248.784C268.729 252.728 267.817 259.472 267.345 264.507C266.845 269.736 266.842 273.296 267.345 279.566C268.462 293.484 272.125 309.832 281.63 328.521C284.92 334.99 289.706 343.766 297.68 354.814C302.376 361.322 311.53 372.865 325.144 389.445L367.524 441.514C383.611 462.233 395.804 479.363 403.634 494.893C409.026 505.582 418.832 523.454 424.387 544.647C425.659 549.5 429.853 575.533 427.075 600.302C424.361 624.505 414.795 647.337 406.039 661.968C386.869 694.012 355.565 714.17 346.323 718.945C327.041 728.905 300.371 737.646 270.213 744.897C242.25 751.607 211.5 756.904 176 764.213L0.275024 798.033" stroke="#D1ECFD" stroke-width="2"/>
</svg>
