<svg width="376" height="621" viewBox="0 0 376 621" fill="none" xmlns="http://www.w3.org/2000/svg">
<path d="M48.6004 648.682C40.3138 645.254 33.4411 641.016 27.9828 635.963C6.45571 616.044 -0.997452 587.727 1.98165 568.716C4.71154 551.295 10.3753 539.286 17.5208 530.746C26.5302 519.994 39.274 512.754 53.411 507.288C67.5481 501.822 84.2165 501.454 99.9812 506.904C115.746 512.355 128.788 524.35 133.59 535.131C138.1 545.258 139.295 552.857 138.636 560.313C137.947 568.109 136.558 578.229 122.413 590.064C119 592.919 113.061 595.961 107.666 597.558C105.695 598.141 94.495 601.008 82.8844 598.695C72.9335 596.714 62.6931 590.131 57.5923 584.027C46.0974 570.269 44.7125 546.921 49.6299 531.474C54.1285 517.35 66.4184 501.905 85.8248 492.912C96.9542 487.755 111.361 484.147 125.47 483.946C139.028 483.75 158.336 482.92 173.958 480.313C188.945 477.811 200.463 473.558 203.771 472.201C210.111 469.6 214.756 465.96 216.968 464.505C221.25 461.689 237.169 447.581 244.051 435.565C255.82 415.02 258.727 392.852 258.954 387.677C259.582 373.377 256.753 361.692 253.121 352.283C247.207 336.957 237.366 327.184 227.804 322.115C218.894 317.39 210.162 316.811 206.735 317.933C201.768 319.561 194.291 321.503 188.502 329.498C187.441 330.964 185.61 333.283 183.908 337.44C182.944 339.794 179.58 354.652 182.32 368.949C183.486 375.032 186.028 389.002 193.557 402.031C203.722 419.627 220.129 436.924 227.665 444.046C240.781 456.443 253.107 465.767 267.017 470.865C269.715 471.853 282.303 475.727 294.838 475.719C306.665 475.711 318.373 471.928 323.948 469.476C335.514 464.389 345.373 455.75 354.503 439.628C356.342 436.381 358.064 430.608 359.167 426.268C360.321 421.763 360.812 418.649 361.231 413.096C362.162 400.769 361.198 385.968 355.446 368.317C353.455 362.207 350.472 353.875 345.011 343.118C341.796 336.783 335.371 325.431 325.735 309.063L295.802 257.709C284.571 237.38 276.254 220.725 271.533 206.068C268.282 195.979 262.155 179.002 260.201 159.703C259.753 155.284 259.653 131.938 265.478 110.654C271.169 89.8551 282.666 71.195 292.331 59.5971C313.491 34.1961 343.636 20.8542 352.374 17.9442C370.606 11.8755 395.132 7.88542 422.505 5.67652C447.884 3.64019 475.508 3.22184 507.561 1.69504L665.904 -3.80159" stroke="rgba(209, 236, 253, 0.1)" stroke-width="2"/>
</svg>
