<svg width="194" height="16" viewBox="0 0 194 16" fill="none" xmlns="http://www.w3.org/2000/svg">
<path d="M5.78007 15H8.68007L14.1601 0.800006H11.2001L7.24007 11.58L3.28007 0.800006H0.320068L5.78007 15Z" fill="#1C1C1C"/>
<path d="M18.6327 12.48V9.10001H23.0927V6.62001H18.6327V3.32001H23.9327V0.800006H15.8927V15H24.1127V12.48H18.6327Z" fill="#1C1C1C"/>
<path d="M28.9741 12.48V0.800006H26.2341V15H34.5141V12.48H28.9741Z" fill="#1C1C1C"/>
<path d="M36.5365 15H39.2765V0.800006H36.5365V15Z" fill="#1C1C1C"/>
<path d="M46.2021 15.2C48.5821 15.2 51.1021 13.8 51.1021 10.92C51.1021 8.90001 49.8621 7.78001 47.3821 6.78001L46.4221 6.40001C44.8621 5.80001 44.4421 5.22001 44.4421 4.48001C44.4421 3.54001 45.2021 3.04001 46.2221 3.04001C47.2621 3.04001 48.0421 3.60001 48.6421 4.74001L50.6821 3.60001C50.0421 2.10001 48.5621 0.600006 46.1221 0.600006C43.7221 0.600006 41.7421 2.08001 41.7421 4.46001C41.7421 6.62001 43.3421 7.70001 45.2821 8.48001L46.1821 8.82001C47.6221 9.40001 48.2421 9.86001 48.2421 10.9C48.2421 12.14 47.2821 12.72 46.1621 12.72C44.7221 12.72 43.8221 11.74 43.4221 10.64L41.2021 11.66C41.7021 13.74 43.7221 15.2 46.2021 15.2Z" fill="#1C1C1C"/>
<path d="M55.7601 12.48V0.800006H53.0201V15H61.3001V12.48H55.7601Z" fill="#1C1C1C"/>
<path d="M73.4024 15H76.3624L70.8824 0.800006H67.9824L62.5224 15H65.4824L66.4224 12.44H72.4624L73.4024 15ZM67.3424 9.92001L69.4424 4.20001L71.5424 9.92001H67.3424Z" fill="#1C1C1C"/>
<path d="M79.9668 15H82.8668L88.3468 0.800006H85.3868L81.4268 11.58L77.4668 0.800006H74.5068L79.9668 15Z" fill="#1C1C1C"/>
<path d="M99.1005 15.2C101.481 15.2 104.001 13.8 104.001 10.92C104.001 8.90001 102.761 7.78001 100.281 6.78001L99.3205 6.40001C97.7605 5.80001 97.3405 5.22001 97.3405 4.48001C97.3405 3.54001 98.1005 3.04001 99.1205 3.04001C100.161 3.04001 100.941 3.60001 101.541 4.74001L103.581 3.60001C102.941 2.10001 101.461 0.600006 99.0205 0.600006C96.6205 0.600006 94.6405 2.08001 94.6405 4.46001C94.6405 6.62001 96.2405 7.70001 98.1805 8.48001L99.0805 8.82001C100.521 9.40001 101.141 9.86001 101.141 10.9C101.141 12.14 100.181 12.72 99.0605 12.72C97.6205 12.72 96.7205 11.74 96.3205 10.64L94.1005 11.66C94.6005 13.74 96.6205 15.2 99.1005 15.2Z" fill="#1C1C1C"/>
<path d="M114.393 0.800006H104.813V3.32001H108.233V15H110.973V3.32001H114.393V0.800006Z" fill="#1C1C1C"/>
<path d="M119.059 12.48V9.10001H123.519V6.62001H119.059V3.32001H124.359V0.800006H116.319V15H124.539V12.48H119.059Z" fill="#1C1C1C"/>
<path d="M134.64 3.30001V0.800006H126.66V15H129.4V9.04001H134.28V6.70001H129.4V3.30001H134.64Z" fill="#1C1C1C"/>
<path d="M145.441 15H148.401L142.921 0.800006H140.021L134.561 15H137.521L138.461 12.44H144.501L145.441 15ZM139.381 9.92001L141.481 4.20001L143.581 9.92001H139.381Z" fill="#1C1C1C"/>
<path d="M150.038 15H152.778V5.30001H152.878L159.398 15H162.138V0.800006H159.398V10.5H159.298L152.778 0.800006H150.038V15Z" fill="#1C1C1C"/>
<path d="M171.679 15.2C175.639 15.2 178.999 12.26 178.999 7.90001C178.999 3.54001 175.639 0.600006 171.679 0.600006C167.719 0.600006 164.379 3.54001 164.379 7.90001C164.379 12.26 167.719 15.2 171.679 15.2ZM171.679 12.6C169.259 12.6 167.179 10.76 167.179 7.90001C167.179 5.04001 169.259 3.20001 171.679 3.20001C174.119 3.20001 176.179 5.04001 176.179 7.90001C176.179 10.76 174.119 12.6 171.679 12.6Z" fill="#1C1C1C"/>
<path d="M184.661 15H187.561L193.041 0.800006H190.081L186.121 11.58L182.161 0.800006H179.201L184.661 15Z" fill="#1C1C1C"/>
</svg>
