<?xml version="1.0" encoding="utf-8"?>
<!-- Generator: Adobe Illustrator 25.2.1, SVG Export Plug-In . SVG Version: 6.00 Build 0)  -->
<svg version="1.1" id="Layer_1" xmlns="http://www.w3.org/2000/svg" xmlns:xlink="http://www.w3.org/1999/xlink" x="0px" y="0px"
	 viewBox="0 0 1268 243" style="enable-background:new 0 0 1268 243;" xml:space="preserve">
<style type="text/css">
	.st0{fill:#FFFFFF;}
	.st1{fill:#0B0511;}
</style>
<g id="Group_12" transform="translate(-1358 -609.233)">
	<g id="Group_10" transform="translate(1358 609.233)">
		<g id="Group_8" transform="translate(0 0.531)">
			<path id="Path_21" class="st0" d="M124.65,107.12l-12.97-37.99l0,0L93.87,12.94c-0.57-2.09-2.4-3.6-4.57-3.75H5.25
				c-2.88,0.14-5.11,2.6-4.96,5.49c0.02,0.48,0.11,0.95,0.27,1.41l74.68,219.3c0.62,2.15,2.46,3.73,4.67,4.02h88.77
				c2.21-0.23,4.06-1.76,4.69-3.89l75.16-219.28c0.95-2.8-0.55-5.84-3.35-6.79c-0.44-0.15-0.91-0.24-1.37-0.27h-85.33
				c-2.23,0.13-4.13,1.66-4.74,3.8l-11.58,37.05l5.77,14.48l14.18-45.52h27.22l-0.27,0.82l-45.07,143.8
				c-0.08,0.34-0.42,0.55-0.77,0.47c-0.23-0.06-0.41-0.24-0.47-0.47l-10.59-33.6L124.65,107.12z M83.51,226.63L12.22,18.98h26.44
				l0.32,0.51l70.88,207.15L83.51,226.63z"/>
		</g>
		<g id="Group_9" transform="translate(36.984)">
			<path id="Path_22" class="st0" d="M376.48,149.3c-4.62-9.46-10.93-17.99-18.63-25.16c-8.52-7.74-18.31-13.96-28.94-18.4
				c-5.06-2.22-10.27-4.17-15.49-6.01c-5.09-1.56-10.1-3.39-15-5.48c-2.9-1.34-5.62-3.04-8.1-5.06c0.65-1.87,1.82-3.52,3.37-4.75
				c2.86-2.06,6.3-3.16,9.83-3.14l0,0c5.04,0.24,9.95,1.63,14.37,4.06c3.51,1.8,6.82,3.96,9.88,6.45c0.55,0.45,1.24,0.71,1.95,0.75
				c0.94,0.01,1.83-0.4,2.45-1.1l14.72-17.16c0,0,0,0,0.04,0c0.21-0.16,0.39-0.34,0.55-0.55l26.11-30.48
				c1.74-2.01,1.58-5.04-0.37-6.85c-9.34-8.71-37.05-31.44-70.51-30.43c0,0-74.54-0.83-74.54,67.71c0,63.35,63.52,67.76,89.98,86.43
				c-4.21,4.91-10.59,7.39-17,6.62c-11.03-0.5-21.47-5.15-29.21-13.01c-0.6-0.68-1.46-1.06-2.36-1.06c-0.92,0.01-1.79,0.4-2.41,1.08
				l-15.93,17.87c-0.11,0.12-0.21,0.25-0.3,0.39c-0.29,0.2-0.56,0.44-0.8,0.71l-24.59,27.57c-1.72,1.9-1.7,4.79,0.04,6.67
				c10.54,11.37,48.44,46.58,101.15,32.17c21.28-5.44,39.16-19.84,49.01-39.47c4.05-8.17,6.22-17.14,6.35-26.26
				C382.06,165.04,380.13,156.81,376.48,149.3z M283.61,80.93c-1.06-2.18-1.57-4.59-1.49-7.01c0.29-4.26,2.48-8.16,5.96-10.64
				c4.48-3.06,9.82-4.6,15.24-4.4c7.72,0.24,15.29,2.23,22.13,5.82c3.83,1.92,7.49,4.13,10.98,6.62l0.05-0.07c0,0,0,0,0.04,0.04
				l-0.04,0.04c0,0,0,0-0.05,0l-7.76,9.05c-2.04-1.35-4.16-2.56-6.35-3.64c-5.8-3.03-12.22-4.67-18.77-4.79
				c-5.65-0.14-11.19,1.56-15.79,4.83C286.17,77.95,284.77,79.35,283.61,80.93L283.61,80.93z M288.22,188.76
				c-8.62-2.78-16.56-7.35-23.29-13.41l7.13-8c8.47,6.15,18.7,9.42,29.17,9.32c9.01,0.7,17.85-2.72,24.04-9.3
				c0.36,0.63,0.67,1.29,0.94,1.97C332.32,184.92,310.5,192.82,288.22,188.76L288.22,188.76z"/>
			<path id="Path_23" class="st0" d="M336.52,71.31l-0.04,0.04c0,0,0,0-0.05,0l0.05-0.07C336.48,71.28,336.51,71.26,336.52,71.31z"
				/>
		</g>
	</g>
	<path id="Rectangle_13" class="st0" d="M1904.02,651.66h704.34c9.75,0,17.64,7.9,17.64,17.64v145.14c0,9.74-7.9,17.64-17.64,17.64
		h-704.34c-9.74,0-17.64-7.9-17.64-17.64V669.3C1886.37,659.56,1894.27,651.66,1904.02,651.66z"/>
	<g id="Group_11" transform="translate(1440.873 617.94)">
		<path id="Path_24" class="st1" d="M556.29,94.64c-5.06-6.88-13.22-10.78-21.75-10.4c-9.06-0.16-17.67,3.98-23.21,11.15
			c-11.95,18.27-11.98,41.87-0.08,60.17c5.55,7.2,14.2,11.34,23.29,11.16c8.53,0.39,16.7-3.5,21.79-10.35l0.11,8.47h15.17V58.68
			h-15.33L556.29,94.64z M537.27,153.68c-5.61,0.29-10.95-2.46-13.96-7.2c-6.55-13.21-6.55-28.72,0-41.93
			c3.04-4.71,8.37-7.43,13.96-7.13c5.49-0.08,10.68,2.5,13.95,6.92c4.21,6.22,6.19,13.68,5.65,21.17
			c0.52,7.49-1.47,14.94-5.65,21.17C547.98,151.14,542.78,153.75,537.27,153.68L537.27,153.68z"/>
		<path id="Path_25" class="st1" d="M633.1,84.09c-9.94-0.29-19.49,3.86-26.05,11.34c-6.98,8.41-10.56,19.13-10.03,30.05
			c-0.47,10.69,2.81,21.2,9.27,29.73c6.64,7.84,16.57,12.1,26.82,11.51c8.15,0.27,16.15-2.24,22.68-7.11
			c6-4.63,10.13-11.27,11.65-18.69l0.28-1.3h-15.74l-0.23,0.75c-2.12,8.54-10.16,14.26-18.92,13.45
			c-5.52,0.15-10.78-2.34-14.16-6.71c-3.69-4.83-5.65-10.76-5.55-16.83h55.47v-1.03c1.11-11.69-1.94-23.39-8.62-33.04
			C653.49,88.06,643.49,83.55,633.1,84.09z M633.1,97.13c5.42-0.31,10.68,1.85,14.33,5.87c3.3,4,5.06,9.04,4.98,14.23h-39.13
			c0.01-5.44,1.97-10.7,5.53-14.82C622.63,98.75,627.81,96.84,633.1,97.13L633.1,97.13z"/>
		<path id="Path_26" class="st1" d="M751.32,126.34c-1.99-1.78-4.23-3.26-6.63-4.4c-2.43-1.21-4.97-2.19-7.57-2.94
			c-2.43-0.71-5.16-1.31-8.11-1.88l-8.59-1.71c-2.99-0.5-5.83-1.68-8.3-3.44c-1.71-1.44-2.63-3.61-2.48-5.84
			c-0.07-2.75,1.49-5.27,3.97-6.45c3.23-1.67,6.83-2.49,10.46-2.38c9.45,0,14.74,3.47,16.17,10.59l0.17,0.86h15.96l-0.26-1.28
			c-1.24-6.83-5.02-12.93-10.59-17.07c-6.1-4.27-13.43-6.43-20.87-6.16c-7.27-0.08-14.42,1.88-20.64,5.65
			c-6.05,3.38-9.73,9.83-9.55,16.76c0,12.2,7.63,19.89,22.68,22.85l9.63,1.87c10.31,1.83,15.33,5.57,15.33,11.43
			c0.22,3.35-1.53,6.51-4.48,8.11c-3.58,1.91-7.61,2.85-11.67,2.73c-8.28,1.04-15.84-4.83-16.88-13.11c0-0.03-0.01-0.06-0.01-0.09
			l-0.17-0.86h-15.99l0.13,1.19c0.82,7.08,4.27,13.59,9.67,18.24c6.41,5.36,14.61,8.1,22.95,7.66c8.07,0.3,16.03-1.98,22.72-6.51
			c6.07-4.35,9.52-11.48,9.18-18.94c0.03-2.94-0.56-5.85-1.74-8.55C754.73,130.26,753.21,128.12,751.32,126.34z"/>
		<path id="Path_27" class="st1" d="M827,85.52h-37.15v13.47h21.81v52.38h-21.81v13.47h59.1v-13.47H827L827,85.52z"/>
		<rect id="Rectangle_14" x="811.67" y="58.7" class="st1" width="15.34" height="17.77"/>
		<path id="Path_28" class="st1" d="M927.3,94.64c-5.06-6.88-13.22-10.78-21.75-10.4c-8.94-0.25-17.51,3.58-23.29,10.41
			c-11.89,17.68-11.92,40.79-0.07,58.5c5.78,6.85,14.37,10.69,23.33,10.42c8.5,0.41,16.66-3.43,21.75-10.26v3.87
			c0.57,5.73-0.75,11.48-3.76,16.38c-3.95,3.92-9.43,5.88-14.97,5.36c-3.93,0.31-7.85-0.66-11.17-2.78c-2.51-2.12-4.27-5-5.01-8.2
			l-0.21-0.78h-15.98l0.19,1.23c0.86,7.15,4.62,13.63,10.4,17.91c6.36,4.34,13.95,6.53,21.65,6.23c5.46,0.02,10.89-0.93,16.01-2.82
			c4.53-1.54,8.58-4.21,11.78-7.76c2.43-2.99,4.12-6.51,4.94-10.27c1.13-5.77,1.62-11.66,1.47-17.54V85.5h-15.34L927.3,94.64z
			 M908.28,150.52c-12.7,0-18.87-8.71-18.87-26.62s6.18-26.48,18.87-26.48c5.41-0.2,10.62,2.1,14.12,6.23
			c7.33,12.51,7.31,28.01-0.07,40.5C918.88,148.32,913.7,150.68,908.28,150.52z"/>
		<path id="Path_29" class="st1" d="M1009.29,84.24c-8.36-0.46-16.42,3.19-21.6,9.77v-8.47h-15.33v79.32h15.33v-42.96
			c-0.41-6.4,1.17-12.77,4.53-18.24c2.93-4.08,7.75-6.38,12.77-6.08c2.28-0.06,4.56,0.33,6.69,1.14c1.58,0.6,2.99,1.57,4.11,2.82
			c1.08,1.4,1.84,3.02,2.22,4.74c0.52,1.93,0.87,3.91,1.04,5.91c0.14,1.84,0.21,4.23,0.21,7.16v45.54h15.34v-50.11
			c0.44-7.84-1.56-15.62-5.72-22.28C1024.14,86.64,1016.79,83.54,1009.29,84.24z"/>
		<path id="Path_30" class="st1" d="M1126.55,132.71c-1.05-2.4-2.57-4.56-4.48-6.35c-1.99-1.77-4.23-3.26-6.64-4.4
			c-2.43-1.21-4.97-2.19-7.57-2.94c-2.43-0.71-5.16-1.31-8.12-1.88l-8.59-1.71c-3-0.5-5.84-1.68-8.31-3.44
			c-1.7-1.45-2.62-3.61-2.48-5.84c-0.07-2.75,1.49-5.27,3.97-6.45c3.23-1.67,6.83-2.49,10.46-2.38c9.45,0,14.74,3.47,16.16,10.59
			l0.18,0.86h15.96l-0.27-1.28c-1.24-6.83-5.02-12.93-10.59-17.07c-6.1-4.27-13.42-6.43-20.86-6.16
			c-7.27-0.08-14.43,1.87-20.64,5.65c-6.05,3.38-9.73,9.83-9.55,16.76c0,12.2,7.63,19.89,22.67,22.85l9.63,1.87
			c10.32,1.83,15.33,5.57,15.33,11.43c0.22,3.35-1.53,6.51-4.48,8.11c-3.58,1.91-7.6,2.85-11.66,2.73
			c-8.28,1.04-15.84-4.84-16.88-13.12c0-0.03-0.01-0.05-0.01-0.08l-0.16-0.86h-15.99l0.13,1.19c0.82,7.08,4.27,13.59,9.67,18.24
			c6.41,5.36,14.61,8.1,22.95,7.66c8.07,0.3,16.03-1.98,22.72-6.51c6.07-4.35,9.53-11.48,9.18-18.94
			C1128.31,138.29,1127.72,135.39,1126.55,132.71z"/>
	</g>
</g>
</svg>
