<?xml version="1.0" encoding="utf-8"?>
<!-- Generator: Adobe Illustrator 25.2.1, SVG Export Plug-In . SVG Version: 6.00 Build 0)  -->
<svg version="1.1" id="Layer_1" xmlns="http://www.w3.org/2000/svg" xmlns:xlink="http://www.w3.org/1999/xlink" x="0px" y="0px"
	 viewBox="0 0 42.55 29.34" style="enable-background:new 0 0 42.55 29.34;" xml:space="preserve">
<style type="text/css">
	.st0{fill:#5C11F2;}
	.st1{fill:#FFFFFF;stroke:#FFFFFF;stroke-width:0.3;}
</style>
<g id="Group_628" transform="translate(-736.753 -376.913)">
	<path id="Rectangle_30" class="st0" d="M738.75,376.91h38.55c1.1,0,2,0.9,2,2v25.34c0,1.1-0.9,2-2,2h-38.55c-1.1,0-2-0.9-2-2
		v-25.34C736.75,377.81,737.65,376.91,738.75,376.91z"/>
	<g id="Group_627" transform="translate(743.91 383.531)">
		<g id="Group_626" transform="translate(0 0)">
			<path id="Path_306" class="st1" d="M24.94,0H4.58c-1.05,0-1.9,0.85-1.9,1.9c0,0,0,0,0,0v6.15H0.45C0.2,8.05,0,8.25,0,8.5
				c0,0.25,0.2,0.45,0.45,0.45h2.24v2.68h-0.9c-0.25,0-0.45,0.2-0.45,0.45c0,0.25,0.2,0.45,0.45,0.45h0.9v1.68
				c0,1.05,0.85,1.9,1.9,1.9l0,0h20.35c1.05,0,1.9-0.85,1.9-1.9c0,0,0,0,0,0V1.9C26.84,0.85,25.99,0,24.94,0L24.94,0L24.94,0z
				 M4.58,0.89h20.35c0.07,0,0.14,0.01,0.21,0.02L15.7,8.91c-0.54,0.46-1.34,0.46-1.88,0L4.38,0.92C4.45,0.9,4.52,0.9,4.58,0.89
				L4.58,0.89z M3.58,14.2v-1.68h0.9c0.25,0,0.45-0.2,0.45-0.45c0-0.25-0.2-0.45-0.45-0.45l0,0h-0.9v-0.89h1.34
				c0.25,0,0.45-0.2,0.45-0.45c0-0.25-0.2-0.45-0.45-0.45l0,0H3.58V8.95h1.79c0.25,0,0.45-0.2,0.45-0.45c0-0.25-0.2-0.45-0.45-0.45
				l0,0H3.58V1.9c0-0.15,0.03-0.29,0.09-0.42c0.02,0.02,0.04,0.05,0.06,0.07l8.53,7.21l-8.6,5.85C3.61,14.48,3.58,14.34,3.58,14.2
				L3.58,14.2z M24.94,15.21H4.58c-0.06,0-0.12-0.01-0.18-0.02l8.57-5.83l0.27,0.23c0.87,0.74,2.16,0.74,3.03,0l0.27-0.23l8.57,5.83
				C25.06,15.2,25,15.21,24.94,15.21z M25.94,14.2c0,0.14-0.03,0.28-0.09,0.41l-8.6-5.85l8.6-7.27c0.06,0.13,0.09,0.27,0.09,0.41
				L25.94,14.2z"/>
		</g>
		<path id="Path_307" class="st1" d="M1.79,10.73c0.25,0,0.45-0.2,0.45-0.45s-0.2-0.45-0.45-0.45l0,0h-0.9
			c-0.25,0-0.45,0.2-0.45,0.45s0.2,0.45,0.45,0.45H1.79z"/>
	</g>
</g>
</svg>
