<?xml version="1.0" encoding="utf-8"?>
<!-- Generator: Adobe Illustrator 25.2.1, SVG Export Plug-In . SVG Version: 6.00 Build 0)  -->
<svg version="1.1" id="Layer_1" xmlns="http://www.w3.org/2000/svg" xmlns:xlink="http://www.w3.org/1999/xlink" x="0px" y="0px"
	 viewBox="0 0 35.55 29.34" style="enable-background:new 0 0 35.55 29.34;" xml:space="preserve">
<style type="text/css">
	.st0{fill:#5C11F2;}
	.st1{fill:#FFFFFF;}
</style>
<g id="Group_629" transform="translate(-652.5 -8062)">
	<path id="Rectangle_31" class="st0" d="M654.5,8062h31.55c1.1,0,2,0.9,2,2v25.34c0,1.1-0.9,2-2,2H654.5c-1.1,0-2-0.9-2-2V8064
		C652.5,8062.9,653.4,8062,654.5,8062z"/>
	<path id="Path_308" class="st1" d="M674.38,8084.81h-0.04c-1.26-0.04-2.49-0.32-3.64-0.85c-0.32-0.15-0.45-0.53-0.29-0.85
		c0.14-0.29,0.49-0.43,0.79-0.32c0.99,0.45,2.05,0.7,3.14,0.74h0.03c1.04,0.05,2.06-0.32,2.83-1.03l0,0
		c0.41-0.46,0.39-1.17-0.06-1.59c-1.71-1.65-2.51-1.53-3.26-0.8l-1.18,1.17c-0.19,0.19-0.47,0.24-0.71,0.13
		c-1.29-0.65-2.47-1.52-3.47-2.56l-0.08-0.08c-1.04-1-1.91-2.18-2.56-3.47c-0.11-0.24-0.06-0.52,0.13-0.71l1.18-1.19
		c0.73-0.75,0.85-1.55-0.8-3.26c-0.43-0.45-1.13-0.47-1.59-0.06l0,0c-0.72,0.78-1.09,1.81-1.04,2.87c0.22,2.72,1.45,5.26,3.47,7.1
		l0.01,0.01c0.44,0.44,0.91,0.84,1.4,1.22c0.28,0.21,0.35,0.61,0.14,0.89c-0.21,0.28-0.61,0.34-0.89,0.14
		c-0.01-0.01-0.02-0.01-0.02-0.02c-0.53-0.41-1.04-0.85-1.52-1.32l-0.01-0.01c-2.25-2.08-3.62-4.94-3.84-8
		c-0.06-1.4,0.45-2.76,1.41-3.78l0.03-0.02l0.02-0.02c0.97-0.87,2.45-0.82,3.36,0.12c0.7,0.64,1.23,1.45,1.56,2.34
		c0.29,0.97-0.01,2.02-0.76,2.69l0,0l-0.85,0.86c0.58,0.99,1.28,1.91,2.1,2.71l0.08,0.08c0.81,0.82,1.72,1.52,2.71,2.1l0.86-0.85
		l0,0c0.67-0.75,1.72-1.05,2.69-0.77c0.89,0.32,1.7,0.86,2.34,1.56c0.94,0.9,0.99,2.39,0.12,3.36l-0.02,0.02l-0.02,0.03
		C677.12,8084.35,675.77,8084.86,674.38,8084.81z M674.77,8075.49c0.34-0.1,0.53-0.45,0.43-0.79l-0.01-0.03
		c-0.35-1.25-1.33-2.23-2.59-2.56c-0.34-0.09-0.69,0.1-0.78,0.44c-0.09,0.34,0.1,0.69,0.44,0.78c0.42,0.1,0.79,0.32,1.09,0.62
		c0.3,0.29,0.51,0.66,0.62,1.07l0.01,0.03C674.07,8075.39,674.43,8075.59,674.77,8075.49
		C674.76,8075.49,674.76,8075.49,674.77,8075.49L674.77,8075.49z M678.11,8076.29c0.03-3.89-3.1-7.07-6.99-7.09
		c-0.02,0-0.04,0-0.06,0h-0.04c-0.35,0-0.64,0.28-0.64,0.64c0,0.35,0.28,0.64,0.64,0.64h0.03c3.19-0.01,5.78,2.57,5.78,5.76
		c0,0.02,0,0.03,0,0.05c0,0.35,0.28,0.64,0.63,0.64c0,0,0,0,0,0l0,0C677.82,8076.93,678.11,8076.64,678.11,8076.29
		C678.11,8076.29,678.11,8076.29,678.11,8076.29L678.11,8076.29z"/>
</g>
</svg>
