<?xml version="1.0" encoding="utf-8"?>
<!-- Generator: Adobe Illustrator 25.2.1, SVG Export Plug-In . SVG Version: 6.00 Build 0)  -->
<svg version="1.1" id="Layer_1" xmlns="http://www.w3.org/2000/svg" xmlns:xlink="http://www.w3.org/1999/xlink" x="0px" y="0px"
	 viewBox="0 0 28 28" style="enable-background:new 0 0 28 28;" xml:space="preserve">
<style type="text/css">
	.st0{fill-rule:evenodd;clip-rule:evenodd;fill:#FFFFFF;}
</style>
<g>
	<path id="Path_47" class="st0" d="M9.48,9.21C9.05,9.19,8.6,9.24,8.18,9.34v4.15c0.35,0.07,0.7,0.09,1.06,0.08
		c1.69,0,2.74-0.86,2.74-2.3C11.97,9.98,11.07,9.21,9.48,9.21L9.48,9.21z"/>
	<path id="Path_48" class="st0" d="M0.84,0.83v26.33h26.32V0.83H0.84z M13.82,14.53c-1.28,1.06-2.9,1.58-4.56,1.47
		c-0.37,0.01-0.72-0.01-1.08-0.06v5.03H5.03V7.1C6.45,6.89,7.88,6.8,9.32,6.82c1.52-0.13,3.03,0.27,4.29,1.13
		c0.97,0.8,1.53,1.99,1.5,3.25C15.15,12.43,14.69,13.64,13.82,14.53L13.82,14.53z M18.56,21.18c-1.13,0.03-2.27-0.22-3.29-0.71
		l0.57-2.27c0.84,0.46,1.77,0.73,2.73,0.77c0.95,0,1.36-0.34,1.36-0.86s-0.32-0.77-1.5-1.16c-2.12-0.7-2.92-1.86-2.9-3.07
		c0-1.89,1.63-3.34,4.15-3.34c0.99-0.02,1.97,0.18,2.88,0.59l-0.56,2.19c-0.68-0.37-1.44-0.57-2.21-0.59c-0.77,0-1.2,0.32-1.2,0.84
		c0,0.48,0.39,0.73,1.64,1.17c1.94,0.66,2.75,1.64,2.77,3.15C22.97,19.79,21.46,21.18,18.56,21.18L18.56,21.18z"/>
</g>
</svg>
