<?xml version="1.0" encoding="utf-8"?>
<!-- Generator: Adobe Illustrator 25.2.1, SVG Export Plug-In . SVG Version: 6.00 Build 0)  -->
<svg version="1.1" id="Layer_1" xmlns="http://www.w3.org/2000/svg" xmlns:xlink="http://www.w3.org/1999/xlink" x="0px" y="0px"
	 viewBox="0 0 27.38 27.38" style="enable-background:new 0 0 27.38 27.38;" xml:space="preserve">
<style type="text/css">
	.st0{fill-rule:evenodd;clip-rule:evenodd;fill:#31A8FF;}
</style>
<path id="Path_47" class="st0" d="M8.99,8.71C8.53,8.7,8.07,8.74,7.63,8.85v4.31c0.36,0.07,0.73,0.09,1.1,0.08
	c1.76,0,2.85-0.89,2.85-2.39C11.57,9.51,10.64,8.71,8.99,8.71L8.99,8.71z"/>
<path id="Path_48" class="st0" d="M0,0v27.38h27.38V0H0z M13.49,14.24c-1.33,1.1-3.02,1.64-4.74,1.53C8.37,15.78,8,15.76,7.62,15.71
	v5.23H4.35V6.52C5.83,6.3,7.32,6.2,8.81,6.22c1.58-0.13,3.15,0.28,4.46,1.17c1.01,0.83,1.59,2.07,1.56,3.38
	C14.89,12.07,14.4,13.32,13.49,14.24L13.49,14.24z M18.43,21.15c-1.18,0.03-2.36-0.23-3.42-0.74l0.59-2.36
	c0.87,0.48,1.84,0.76,2.84,0.8c0.99,0,1.41-0.35,1.41-0.89s-0.33-0.8-1.56-1.21c-2.2-0.73-3.04-1.93-3.02-3.19
	c0-1.97,1.69-3.47,4.31-3.47c1.03-0.02,2.05,0.19,2.99,0.61l-0.58,2.28c-0.71-0.38-1.5-0.59-2.3-0.61c-0.8,0-1.25,0.33-1.25,0.87
	c0,0.5,0.41,0.76,1.7,1.22c2.02,0.69,2.86,1.71,2.88,3.27c0,1.98-1.57,3.43-4.6,3.43L18.43,21.15z"/>
</svg>
