<?xml version="1.0" encoding="utf-8"?>
<!-- Generator: Adobe Illustrator 25.2.1, SVG Export Plug-In . SVG Version: 6.00 Build 0)  -->
<svg version="1.1" id="Layer_1" xmlns="http://www.w3.org/2000/svg" xmlns:xlink="http://www.w3.org/1999/xlink" x="0px" y="0px"
	 viewBox="0 0 27.38 27.38" style="enable-background:new 0 0 27.38 27.38;" xml:space="preserve">
<style type="text/css">
	.st0{fill-rule:evenodd;clip-rule:evenodd;fill:#FF61F6;}
</style>
<g>
	<path id="Path_51" class="st0" d="M18.81,12.72c-1.42,0.18-2.43,1.48-2.25,2.91c0.16,1.23,1.15,2.17,2.38,2.27
		c0.92-0.04,1.73-0.6,2.09-1.45v-2.05C20.64,13.48,19.8,12.84,18.81,12.72z"/>
	<path id="Path_52" class="st0" d="M0,0v27.38h27.38V0H0z M13.6,19.6h-1.83l-2.76-4.17L6.24,19.6H3.77l4.02-5.75L3.64,7.94h2.46
		l2.91,4.33l2.89-4.33h2.45L13.6,9.01l0,0l-3.41,4.85l3.41,4.87l0,0l0.62,0.88L13.6,19.6z M23.74,19.6
		c-0.31,0.07-0.62,0.11-0.94,0.11c-0.78,0.02-1.44-0.6-1.46-1.38c0-0.08,0-0.15,0.01-0.23c-0.63,1.04-1.77,1.67-2.99,1.66
		c-2.31-0.05-4.14-1.96-4.1-4.27c0-0.07,0-0.13,0.01-0.2c0-2.68,1.8-4.45,3.84-4.45c1.2-0.01,2.3,0.62,2.91,1.66V7.61h2.2v9.46
		c0,0.23,0.32,0.65,0.51,0.66L23.74,19.6z"/>
</g>
</svg>
